<svg xmlns="http://www.w3.org/2000/svg" viewBox="0 0 1000 1000">
  <defs>
    <style>
      .cls-1 {
        fill: #e0d1c7;
      }

      .cls-2, .cls-4 {
        fill: #a8b979;
      }

      .cls-2, .cls-3 {
        opacity: 0.7;
      }

      .cls-5 {
        fill: #7fa8e2;
      }

      .cls-6 {
        fill: #78909c;
      }

      .cls-7 {
        fill: #fafafa;
      }

      .cls-8 {
        fill: #b0bec5;
      }

      .cls-9 {
        font-size: 16px;
        fill: #26282b;
      }

      .cls-15, .cls-9 {
        font-family: Aubrey-Regular, Aubrey;
      }

      .cls-10 {
        letter-spacing: -0.01em;
      }

      .cls-11 {
        letter-spacing: -0.01em;
      }

      .cls-12 {
        letter-spacing: -0.02em;
      }

      .cls-13 {
        letter-spacing: 0em;
      }

      .cls-14 {
        fill: #ffca28;
      }

      .cls-15 {
        font-size: 22.18px;
        fill: #1d2f40;
      }

      .cls-16, .cls-17 {
        font-size: 15px;
      }

      .cls-17 {
        letter-spacing: 0em;
      }
    </style>
  </defs>
  <title>Risorsa 15</title>
  <g id="Livello_2" data-name="Livello 2">
    <g id="background">
      <rect class="cls-1" width="1000" height="1000"/>
    </g>
    <g id="environment">
      <path class="cls-2" d="M952,754c-2.46,4.65,1.77,9.94,7,22,5.62,12.94,5.84,18.58,9,28,3.88,11.57,12.18,28.77,32,51.46v-106A110.47,110.47,0,0,0,972,748C961.61,748.78,954.43,749.41,952,754Z"/>
      <polygon class="cls-2" points="67.64 817 89.68 817 121.74 809.47 165.83 793.34 201.9 776.13 237.97 757.85 278.06 751.39 345.19 738.49 376.25 729.88 426.35 727.73 535.57 741.71 578.65 746.01 616.73 750.32 653.8 758.92 687.87 766.45 719.93 766.45 765.02 756.77 854.2 766.45 877.25 763.22 901.3 748.17 938.37 727.73 966.42 720.2 994.98 715.79 1000 715.17 1000 628.91 843.68 664.57 597.7 655.51 426.85 654.06 302.6 664.81 227.46 683.7 93.35 725.4 0 714.28 0 799.92 36.57 811.62 67.64 817"/>
      <polygon class="cls-2" points="225 964 238 936 239 887 239 874 293 888 335 892 389.5 885.71 467 869 582 806 636 782 610 756 457 745 360 749 255 764 175 815 70 832 0 878.38 0 1000 184.69 1000 199 994 225 964"/>
      <path class="cls-2" d="M70,823a247,247,0,0,0-56-12c-4.82-.46-9.49-.75-14-.92v41.21l39.83-10.57Z"/>
      <path class="cls-2" d="M278,950c3.11-8.82,1.78-12.5,5-18,3.74-6.38,10.1-9.23,12-10,0,0,6.39-2.58,31,2h0c41.72,4.16,48.14,3.44,61,2,2.75-.31,5.47-.73,5.47-.73,5.16-.86,8-1.86,24.53-4.27,18.42-2.69,25.67-3,32-4,15.31-2.37,23.23-8.23,55-29,53.22-34.8,67.27-42.1,73-45a387.62,387.62,0,0,1,41-18,359,359,0,0,1,70-18l-5-12-72,18.66L573,832l-78,48-51,25-31,8-25,3-62-2-30-4-16,5-9,14-3,22-25.89,49H258c4.91-20,10.07-31.31,14-38A60.74,60.74,0,0,0,278,950Z"/>
      <g class="cls-3">
        <path class="cls-4" d="M223.85,285.79c-6-1-15.78-2.26-21.8-2.83L76,271a12.69,12.69,0,0,0-13.25,9.72l-7.4,34.48c-1.26,5.92-3,15.66-3.89,21.64l-9.82,67.24A10,10,0,0,0,51,415.73S99.9,419,137,416c35.51-2.86,81.27-13.14,81.27-13.14a105.52,105.52,0,0,0,20.54-7.38L289.19,370a98.53,98.53,0,0,1,20.59-7.17l66.44-13.6c5.93-1.21,7.09-5.5,2.58-9.53l-30.6-27.34a44.61,44.61,0,0,0-19.05-9.12Z"/>
      </g>
      <path class="cls-5" d="M855,762c-10.16.88-11.29-1.9-43-6-18.78-2.43-30.42-3.93-43-4-28.51-.15-29.35,7.25-56,9-30.09,2-58.61-5.53-87-13a171,171,0,0,0-26.29-5.37c-19-2.24-30.37.93-97.71-9.63,0,0-71.07-11.15-114-7.16l-2.31.22c-4.5.52-11.46,2-57.69,10.69-79.67,15-85,15.68-99,21-16.77,6.33-16.59,8.22-59,26-23.6,9.89-32.65,13.08-43,15.94-16.92,4.66-33.46,9.22-55,8.38-10.61-.41-49.88-4.89-72-15v17c17.63-.52,51.77,11.85,53,16.51C54.32,831.5,21.1,844,0,850v30c14.4-10.55,48.12-33.87,81-42.58,19-5,40-8.42,40-8.42,14.5-2.33,15.94-1.79,27-4,16.75-3.35,28.26-5.66,41-13,8.57-4.94,9.49-7.44,24-17,2-1.32,8.14-5.33,16-11.27,1.89-1.43,3.25-2.51,3.37-2.59,9.06-6.15,29.09-13.27,113.63-23.42C434.94,747,457,749.6,467,751c21,3,18.47,5,65,14.26,59.73,11.84,50-1.27,83,18.46,6.18,3.69-37.24,4.22-78,27.68-31.78,18.29-34.29,34.73-70,49.5-11.27,4.66-22.84,7-46,11.74-54,11-83.43,17-119,11.75-37.36-5.55-50.36-18.9-62-11.75-17.37,10.68,6.59,43.5-11,70.47-14.44,22.14-24.66,54.25-51,56.88h66c6.83-5.41,19.12-39.2,25-51.85,7.06-15.16,3.8-24.22,12-31,9.32-7.75,24.52-5.17,43-3.35,16.1,1.58,71.78,7,115-4.2,11.82-3.07,24.88-9.88,51-23.49,12.54-6.53,22.19-12.05,30.17-16.9,27.7-16.85,47.27-28.36,52.83-31.75,33-20.17,67-28.25,135-44.42,45.56-10.84,68.69-16.17,86-12,32.76,7.89,43.65,27.84,68,23,20.64-4.1,16.58-19.17,50-36,25.82-13,52-16,62-17a197,197,0,0,1,26-1V713c-40.74,2.39-68.67,13.56-87,23.75C893.84,747.4,880,759.83,855,762Z"/>
      <path class="cls-2" d="M837,0a252.52,252.52,0,0,0-92,77c0,24.12,7.15,34.78,14,40,25.94,19.79,69.14-21.91,150-28,7.82-.59,20.91-1.22,37.7-6.75,24.58-8.1,42.25-21.83,53.3-32.12V0Z"/>
    </g>
    <g id="secondary-streets">
      <path class="cls-6" d="M480.24,598.17c-3.2-2.94-7.36-.88-23.8.84-14.26,1.49-21.45,2.17-24.56-.84-4.08-4-1.51-10.29.45-28.46,1.92-17.81,2.88-26.72.4-32.16-8.19-18-65.73-13-72.73-12.63l3,7.58c8.08-1.25,52.43-8.23,63,5,6.13,7.71-2.75,24.71-4.28,43.78-1.15,14.42-2.6,36-3.38,63.14h11.85c-.17-10,.56-30.91,11-35.36,2.79-1.19,3.62-.06,15.24-1.68,10.41-1.45,13.61-2.9,16.09-.84,2.87,2.38,1.63,6.87,1.69,13.47a58,58,0,0,0,5.93,24.41L492,647c-4.19-5.9-9.12-14.79-10.16-26.1C480.76,609.18,484.53,602.1,480.24,598.17Z"/>
      <path class="cls-6" d="M593.55,344.91,585,354.83,603.14,438,612,423a137.29,137.29,0,0,1-10-24C595.31,377.55,593.85,357,593.55,344.91Z"/>
      <path class="cls-6" d="M730.36,343.62A296.86,296.86,0,0,1,723.89,305L716,311.53a240.2,240.2,0,0,0,8.84,45.86c4.85,16.06,8.45,21,11.58,33,3.18,12.23,5.8,31.48,1.66,60.57L748,436.32a215.89,215.89,0,0,0-5-48.65C739.25,370.84,735.16,363.8,730.36,343.62Z"/>
      <path class="cls-6" d="M573,508.22a514.13,514.13,0,0,1,5.21,73.39A515.68,515.68,0,0,1,573,655h5.79a539.22,539.22,0,0,0,5.2-78,536.31,536.31,0,0,0-5.31-73Z"/>
      <path class="cls-6" d="M331.69,296c-59.55-8-80.53-11.34-107.63-14.8C186.91,276.47,132.56,270.82,62,268v7.93c70.71,2,122.35,8.22,157.11,13.75,22.8,3.62,56.83,9.88,112.58,17.45,22.8,3.09,33.63,33.39,46.31,34.87h18C375.19,339.42,369.8,301.12,331.69,296Z"/>
      <polygon class="cls-6" points="780 859 784 859 784 817.49 780 817 780 859"/>
      <path class="cls-7" d="M749.78,622.36A159.28,159.28,0,0,0,806,622.2V625a167.16,167.16,0,0,1-57.84.12Z"/>
    </g>
    <g id="primary-streets">
      <g>
        <path class="cls-8" d="M136.5,480.36c61.42-21.7,89.06-76.52,139.5-96.71,45.84-18.35,53-7.58,111-27.77,10.49-3.65,57.8-20.67,101-56.32,27.58-22.76,31.23-34.74,53-58.63,37.69-41.36,68-49.37,116-74.93C729.33,127.45,785.12,16.41,840.19,0H810C785.81,10.07,691.9,128.32,649,153c-33.24,19.12-67.19,30.21-87.51,46.33-27.12,21.5-42.2,33.13-58.62,52.72-17.22,20.56-20.63,31.36-41.87,47.51-14.17,10.78-28.67,18.15-40,23.92a371.61,371.61,0,0,1-50.29,21.14C336,356.08,311.87,356.85,291,360.51c-66.42,11.64-103.95,85.7-165,106.34-22.92,7.76-84.5,27.26-126,30.64v12.36c.7,1.62,1,3.73,0,7.15,14.26-4.32,51.46-8.86,71.06-15.11C78.87,499.4,117.16,487.19,136.5,480.36Z"/>
        <path class="cls-8" d="M377.58,256c37.57,45.79,61.54,75.66,77.07,127,11.52,38.08,10.79,62.83,23.9,159,6.47,47.51,12.72,86.06,16.95,111H514c-5.41-32.73-13.42-82.57-22.35-144-11.09-76.26-12.77-95.87-21.58-125-9.8-32.39-26.26-69.44-77.85-134C355,203.37,178.19,61.58,96,0H65C149.42,53.81,340.84,211.23,377.58,256Z"/>
        <path class="cls-8" d="M724,295.82c-59.87,17.7-68.39,25.25-121,41.36C570.94,347,525,358.54,460,369l5,15c64-11,114.52-23.19,147-33.45,62.2-19.64,73.68-30.16,139-48,52.46-14.36,64.73-13.67,116-27.36a924.24,924.24,0,0,0,133-46.22V204a773.33,773.33,0,0,1-149,59.59C802.37,277.47,785.39,277.68,724,295.82Z"/>
        <path class="cls-8" d="M393.78,884c-16.66-82.09,2.47-125.45-16.5-194a232.07,232.07,0,0,0-14.06-38c1.84-44,.69-91.13,0-138-.2-14.08,0-42.75-.61-56,6.22-15.27,12.09-14.39,20.17-31,8.3-17.07-6.68-71.37,1.22-85l-12.83,12c-11.88,19.23,8.46,49.55-3.67,71-7.6,13.44-20.78,20-27.5,28,1.56,19.61,2.83,53.3,3.67,75,1.65,42.71,2,92.27.61,128,8.93,14.84,20.78,39,26.89,73,2.93,16.37,3.58,30.25,4.89,58,2.47,52.68-1.21,60,3.05,89,3.56,24.2,9.27,41.15,14.6,56.23A341.58,341.58,0,0,0,426.17,1000H439a301,301,0,0,1-28.34-57A388.77,388.77,0,0,1,393.78,884Z"/>
        <path class="cls-8" d="M694,654.08c-224.61-13.26-262.71-13-306-10-65.3,4.53-98.13,6.8-142,20.87-50,16-71.79,33.74-119,39.24C83.32,709.26,25.46,694,0,685.8v41.75c25.72,4.11,83.18,5.64,126-1.67,60-10.24,82.87-33,150-50.09,35.39-9,60.93-10.75,112-14.2,49.91-3.37,102.26-4,304,8.35,85.42,5.21,109.54,7.36,152,2.51,59-6.74,124.91-21.57,156-33.4V614c-26.48,12.36-85.61,28.23-137,37.57C809.9,661.23,773.17,658.75,694,654.08Z"/>
        <path class="cls-8" d="M870,858c-48.22-3.07-59.74-6.27-88-7.54C705.94,847,645,863.71,619,871c-78.09,22-174.46,76.45-199,96l8,14c29.28-20.32,128-76.35,202-96.27,28.67-7.71,81.23-21.47,149-20.56,22.43.3,31.19,2,82,5.48s111.39,5.92,139,6.86V861.43C974.46,861.8,916.87,861,870,858Z"/>
        <path class="cls-8" d="M877,417c-21.11-7.11-38.23-4.52-68,0-11.63,1.76-35.4,6.19-95,32-36.25,15.7-48.09,23-64,30-32,14.08-93.9,32.29-166,25l3,15c77.8-2.59,142.88-17.8,176-28,37.21-11.46,60-21,60-21,45.83-19.18,54.1-30.65,86-37,22.45-4.47,44-8.76,68,0,23.84,8.7,29.82,22.88,61,37,17.58,8,52.16,14.37,62,16V466c-8.2-2-40-5.64-55-12C909.51,438.94,901.18,425.15,877,417Z"/>
        <path class="cls-8" d="M29.3,215c5,26.41,19.47,27,22.68,56,3,27.38-8.77,36.86-16.68,73C22.38,403.08,32.11,477.39,50,523c3.5,8.94,9,21,13.33,41,2.74,12.58,8,37.78,4.67,68-4.59,41.26-27.87,71.12-34.68,80L54,719c15-18.68,22-43.46,24.67-54,8.82-34.45,3.73-66.48,0-90-3.79-23.87-7.8-32.5-13.34-54C58.06,492.86,38.94,418.62,52,348c6.79-36.79,18.23-50.47,13.33-78C60.8,244.59,49.12,245.35,44,223c-10.74-46.68,68.51-100.14,91-137,16.17-26.46,66.91-73.52,78-86H186.23c-9,11.28-45,47.51-57.23,68C98.17,119.73,20.92,170.57,29.3,215Z"/>
        <path class="cls-8" d="M870.57,722c-1.59-57.88,4.91-61.86,16.88-205,4.29-51.39,8.2-107.62,0-175-5.44-44.68-9.65-63.1-19.06-66-58.39-18-74.55-5.39-99.11-110-8.13-34.66-22.77-107.36-32.67-166H723c11.34,69.08,27.53,150.93,36.48,193C779,284.9,802.19,294,816,294c28,0,22.34-8.69,41,11,3.18,3.36,8.43,10.54,13.62,31,13.57,53.48,5.11,112.25-2.18,176-11.54,100.82-17.3,151.22-15.25,209,2.35,66,12.38,115.7,17.43,138,12.15,53.73,33.45,113.71,46,141H937c-12.21-22.56-36.26-84.44-49.55-141C883.66,842.91,872.5,792.35,870.57,722Z"/>
        <polygon class="cls-8" points="689.04 697 664.25 486 649 495 676.33 698 685.86 845 708.11 1000 724 1000 697.3 841 689.04 697"/>
        <path class="cls-8" d="M78.54,934.12c.12,2.73.8,5.18.85,7.4.07,2.85-.23,5.32-.27,7.45-.06,3.13-.89,5.47-1.11,7.34-.57,4.78-1,6.13-1.82,7a12.39,12.39,0,0,1-7,3.48,57.88,57.88,0,0,1-7.93.72c-2.35.09-5,.59-7.94.59-2.43,0-5.07-.07-7.94-.09-2.64,0-5.08.07-7.31,0-2.71,0-5.12-.61-7.28-.73a54.48,54.48,0,0,1-7.28-.76,12.29,12.29,0,0,1-6.33-3.39,13.18,13.18,0,0,1-3.91-6.37,43.92,43.92,0,0,1-.87-7.53c-.16-2.24-.25-4.75-.3-7.56-.05-2.31.61-4.83.58-7.58,0-2.33-1.34-4.45-1.35-6.41,0-2.39.58-4.52.67-6.42a38.24,38.24,0,0,1,.85-6.35,13.52,13.52,0,0,1,2.48-5.85c1.63-2,3.84-3.2,6.58-4.26a36,36,0,0,1,7.58-2.44c2.33-.39,5-.42,8-.74,2.41-.26,5-.76,7.91-1,2.55-.25,4.92,0,7.06-.23,2.61-.23,4.91-.85,7-.93a34.69,34.69,0,0,1,7,.8c2.68.38,4.67.94,6.35,2.36.82.68,2.09,1.59,3.15,5.54a40.73,40.73,0,0,1,1.84,6.33c.27,1.85-.47,4.13-.24,6.62.18,1.95.21,4.12.36,6.52C78,929.61,78.43,931.76,78.54,934.12Z"/>
      </g>
    </g>
    <g id="street-names">
      <text class="cls-9" transform="translate(257.08 143.14) rotate(40.59)">RED STREET</text>
      <text class="cls-9" transform="translate(374.02 658.59) rotate(-3)">GREEN <tspan class="cls-10" x="37.79" y="0">W</tspan><tspan class="cls-11" x="47.65" y="0">A</tspan><tspan x="54.58" y="0">Y</tspan></text>
      <text class="cls-9" transform="translate(857.37 744.86) rotate(84)">B<tspan class="cls-12" x="7.23" y="0">L</tspan><tspan class="cls-13" x="12.9" y="0">UE BRIDGE</tspan></text>
      <text class="cls-9" transform="translate(693.69 889.29) rotate(81.46)">BLACK ALLEY</text>
      <text class="cls-9" transform="translate(689.36 138.84) rotate(-45.17)">GREY ROAD</text>
      <text class="cls-9" transform="translate(44.23 434.08) rotate(-90)">YELLOW LANE</text>
      <text class="cls-9" transform="translate(678.01 481.41) rotate(-22.22)">VIOLET DRIVE</text>
      <text class="cls-9" transform="translate(885.96 266.96) rotate(-19.53)">ORANGE DRIVE</text>
      <text class="cls-9" transform="matrix(-0.03, -1, 1, -0.03, 359.23, 549.41)">BROWN STREET</text>
      <text class="cls-9" transform="matrix(1, -0.02, 0.02, 1, 27.08, 984.56)">GREY SQUARE</text>
    </g>
    <g id="houses">
      <g id="eleonoraromano">
        <rect class="cls-14" x="924.12" y="197.42" width="25" height="25" transform="translate(-7.57 382.66) rotate(-23)"/>
        <path class="cls-7" d="M973.18,186.72c-1.72-3.49-3.77-6.8-5-10.57-.9-2.86-1.41-2.94-4.21-1.76q-13.25,5.6-26.46,11.23h0l-4.6,2-22.31,9.48c-1.19.51-2.42,1-1.76,2.71,2,4.95,3.69,10,6,14.81,2.14,4.5,4.66,8.82,6.51,13.47,1.66,4.16,2.07,4.35,6.25,2.58,6.35-2.71,12.67-5.47,18.93-8.4,4.89-2.29,10.06-4,15.06-6,5.84-2.41,11.24-5.83,17.39-7.54a1.93,1.93,0,0,0,1.33-2.78C978,199.48,976.19,192.85,973.18,186.72ZM948.36,217c-2.54,1-5.05,2.13-7.57,3.2-2.29,1-4.61,1.87-6.86,2.94-2,1-3.12.17-3.89-1.64-1.53-3.57-1.27-4.24,2.32-5.77,4.12-1.75,8.27-3.42,12.35-5.26,2-.92,3.31-.67,4,1.55a17.64,17.64,0,0,0,.87,2.06C950.28,215.49,949.79,216.37,948.36,217Z"/>
        <text class="cls-15" transform="matrix(0.92, -0.39, 0.39, 0.92, 963.39, 196.35)">2</text>
      </g>
      <g id="francescamaltempi">
        <rect class="cls-14" x="694.35" y="266.52" width="25" height="25" transform="translate(-50.14 212.25) rotate(-16.5)"/>
        <path class="cls-7" d="M748.18,271.42c-.51-2.34-.07-.71-3.61-13.19-1.13-4-2.5-8.71-4.13-14.06-.15-.39-.37-.94-.66-1.58A24.78,24.78,0,0,0,737,238c-2.3-3.06-3.6-4.75-6-6a14.77,14.77,0,0,0-10-1,15.73,15.73,0,0,0-3,1l-23.16,6.41c-.28.08-7.13,2-9.74,3.33a5.16,5.16,0,0,0-1.55,1.16,5.39,5.39,0,0,0-1.21,2.44A32.21,32.21,0,0,0,680,252a50.76,50.76,0,0,0-1,7.65c-.06.81-.1,1.48-.12,2,1.28,4.17,2.18,7.58,2.74,9.82,2.19,8.72,5.79,17,8.14,25.7.56,2.06,1.73,2.34,3.57,1.78,6.86-2.08,13.73-4.09,20.6-6.13q16.86-5,33.72-10c2.9-.86,3.15-1.44,2.34-4.34C749.32,276.11,748.69,273.79,748.18,271.42Zm-30.79,16.07c-5.13.77-9.95,2.71-14.94,4-2.54.68-3.31.13-4.22-2.73-.71-2.23-.08-3.54,2.24-4,.89-.19,1.76-.51,2.64-.77,4.08-1.16,8.33-1.68,12.34-3.12,1.48-.52,2.41,0,2.8,1.52.21.8.45,1.6.71,2.39C719.47,286.29,719,287.26,717.39,287.49Z"/>
        <text class="cls-15" transform="matrix(0.96, -0.28, 0.28, 0.96, 729.53, 264.12)">4</text>
      </g>
      <g id="claudiodemichele">
        <rect class="cls-14" x="635.35" y="283.93" width="25" height="25" transform="translate(-63.87 264.28) rotate(-22)"/>
        <path class="cls-7" d="M657.87,281.1c-.9-2.24-1.82-4.48-2.53-6.78A92.08,92.08,0,0,0,650,261.16a98.88,98.88,0,0,1-6.3-16,3.21,3.21,0,0,0-2-2.45c-2.89-1.27-5.8-2.51-8.59-4-5.58-2.95-11.08-6-16.6-9.11-1.38-.77-2.25-.61-3.38.68-2.85,3.25-3.55,7.48-5.27,11.21-2.6,5.64-4.4,11.65-6.46,17.54-.49,1.37-1.49,2.79-.83,4.3,2.47,5.67,4,11.64,5.93,17.49,3.15,9.6,9.09,18,11.48,25.84,2.3,5.7,3.89,9.64,5.49,13.58.82,2,2.24,2.81,4.38,2.09,11.88-4.05,23.52-8.79,35.45-12.71,3.76-1.23,4.38-2.77,2.79-6.53C663.06,295.86,660.81,288.35,657.87,281.1Zm-1.78,20.47c-3.9.86-7.12,3.49-11.21,4-2.18.27-3.28-.13-3.86-2.18a27.68,27.68,0,0,0-1.1-2.78,24,24,0,0,1-2.11-6.88,2.58,2.58,0,0,1,1.82-3.09c3.67-1.31,7.32-2.64,11-4a1.53,1.53,0,0,1,2.31,1.05q2.08,5.85,4.15,11.72C657.42,300.39,657.14,301.34,656.09,301.57Z"/>
        <text class="cls-15" transform="translate(637.43 269.29) rotate(-22)">6</text>
      </g>
      <g id="valentinocimadomo">
        <rect class="cls-14" x="838" y="44" width="25" height="25"/>
        <path class="cls-7" d="M865.8,20.44c-1.71-2.79-2.86-5.65-7.43-5.62-13.23.08-26.44.71-39.67.8A3.42,3.42,0,0,0,815,18.18a35.71,35.71,0,0,1-2.31,4.41c-2.46,4.83-5.08,9.34-4.65,15.35.74,10.25-.4,20.58.56,30.88.24,2.5,1.08,3.29,3.49,3.27,9.33-.09,18.65,0,28,0h0q14.24,0,28.47,0c1.75,0,3.28-.19,3.13-2.48-.25-4,.53-8,.54-12q0-12.37.06-24.73a2.53,2.53,0,0,0-.39-1.9C869,27.93,867.92,23.9,865.8,20.44Zm-4.59,44.42c.08,2.42-.81,3.4-3.17,3.1a4.17,4.17,0,0,0-.5,0h-15c-1.67,0-2.37-.64-2.18-2.45-.39-6.51-1.6-17.61,3-17.47,4.25.12,11.46-.49,15.7-.46C862,47.6,861.08,60.87,861.21,64.86Z"/>
        <text class="cls-15" transform="translate(815.56 51.15)">3</text>
      </g>
      <g id="tommasodesanto">
        <rect class="cls-14" x="660.41" y="69.06" width="39.05" height="25" transform="translate(123.53 480.79) rotate(-42.5)"/>
        <path class="cls-7" d="M712.34,84c-2.27-1.4-5.06-3-6.05-5.23-3.85-8.61-11.35-14.1-17.08-21.07-2.09-2.53-4-2.37-6.38-.19-4.71,4.24-9.35,8.54-14,12.82s-9.3,8.59-14,12.8c-1.77,1.58-2.25,3.31-.9,5.21A30.5,30.5,0,0,0,658.62,94a212.59,212.59,0,0,1,20.87,20.61c2.65,3,3.27,3,6.15.05s5.39-6.4,8.9-8.66c7.47-4.81,12.11-12.43,18.51-18.29C714.44,86.42,714.28,85.18,712.34,84Zm-36.68,4.44c-1.81,1.79-3.73,3.49-5.48,5.36-1.17,1.26-2.15,1.14-3.25,0-.2-.21-2.61-3.41-2.82-3.62-6.36-6.49,13.06-20.84,20.23-26.47a2.31,2.31,0,0,1,3.24.37c.92.9,1.75,1.88,2.62,2.83l0,0,1.2,1.31C694.21,71.21,678.55,85.58,675.66,88.42Z"/>
        <text class="cls-15" transform="matrix(0.74, -0.68, 0.68, 0.74, 700.29, 92.84)">4</text>
      </g>
      <g id="andreaminervini">
        <rect class="cls-14" x="567.84" y="149.04" width="25" height="25" transform="translate(-17.31 237.09) rotate(-22.76)"/>
        <path class="cls-7" d="M605.27,140.13c-2.8-8.67-6-17.1-10.59-25a31.25,31.25,0,0,1-3-6.28,4.76,4.76,0,0,0-3.1-3.2c-3.89-1.69-7.78-3.41-11.57-5.3-5.24-2.61-10.83-4.23-16.31-6.16-1.92-.68-3.39.12-4,2.2-.76,2.37-1.61,4.72-2.41,7.08-2.11,6.3-3.71,12.78-6.56,18.82a3.48,3.48,0,0,0,.26,3.11c1.8,3.93,4,7.73,5.34,11.82,2.72,8.52,6.81,16.42,10.46,24.52,2.22,4.93,4.8,9.69,7.22,14.52l-.15.07c.36.84.71,1.69,1.07,2.53,1.69,4.07,2.61,4.54,6.6,2.71,4.76-2.18,9.38-4.67,14.14-6.85,6-2.78,12.31-5.06,18.17-8.27,3.65-2,4.1-2.82,2.5-6.69C610.58,153.24,607.44,146.84,605.27,140.13Zm-20.74,27.64c-2.12.94-4.18,2-6.25,3.08-1.5.77-2.47.43-3.12-1.17a52.84,52.84,0,0,0-4.19-8.75c-1.13-1.75-.77-3,1.32-3.85,3.21-1.34,6.34-2.89,9.45-4.46,1.8-.91,3-.43,3.86,1.25s1.69,3.43,2.52,5.14C590.85,166.1,591.49,164.67,584.53,167.77Z"/>
        <text class="cls-15" transform="translate(573.23 135.84) rotate(-22.76)">6</text>
      </g>
      <g id="andrealorusso">
        <rect class="cls-14" x="332.61" y="316.35" width="27.41" height="25" transform="translate(-77.3 108.34) rotate(-16.02)"/>
        <path class="cls-7" d="M389.26,305.68c-1.44-4.13-3.27-8.08-4.08-12.44-.62-3.32-1.18-3.47-4.46-2.54l-31,8.89v0l-5.39,1.54-26.13,7.52c-1.4.4-2.83.81-2.32,2.77,1.49,5.78,2.73,11.64,4.61,17.29,1.76,5.31,4,10.46,5.41,15.89,1.27,4.86,1.59,4.61,6.6,3.72C340,347,349.64,345.41,357,343c5.75-1.88,12.15-3.39,18-5,6.83-1.89,11-5,17.72-7.12a2.15,2.15,0,0,0,1.86-2.9C392.86,320.53,391.78,312.91,389.26,305.68ZM357.51,336c-3,.81-5.9,1.69-8.85,2.53-2.68.77-5.4,1.45-8,2.34-2.37.79-3.49-.23-4.11-2.35-1.22-4.18-4.84-9.9-.63-11.11,4.82-1.39,13.67-3.68,18.46-5.18,2.37-.74,3.78,5.71,4.26,8.28a18.35,18.35,0,0,0,.68,2.41C359.85,334.58,359.19,335.5,357.51,336Z"/>
        <text class="cls-15" transform="matrix(0.96, -0.28, 0.28, 0.96, 375.42, 314.21)">8</text>
      </g>
      <g id="serenafalato">
        <rect class="cls-14" x="212.25" y="444.85" width="25" height="25" transform="translate(-249.53 643.75) rotate(-85.29)"/>
        <path class="cls-7" d="M247.75,419a40.13,40.13,0,0,1-3.11-3.46c-2-2.74-3.56-2.86-6-.37-7.56,7.75-16,15.05-24,22.56-3.91,3.67-7.74,7.32-6.38,11.59-.79,10.7.74,20.6-.17,30.39-.22,2.36,2.12,2.53,4.58,2.41A87.18,87.18,0,0,1,235.31,484a24.6,24.6,0,0,0,6.72.58,119.28,119.28,0,0,1,17.41.59,26.61,26.61,0,0,0,3.55.17c2.1-.12,3.38-.41,3.31-2.53-.13-3.71-1.2-7.54.35-11.15a24.51,24.51,0,0,0,1.49-8.08,44.59,44.59,0,0,1,1.06-6.66c.76-3.34,1.35-6.8-.64-10.15A154.8,154.8,0,0,0,247.75,419Zm-13.61,39.09c-.09,1.19-.94,1.73-2.63,1.84a53.65,53.65,0,0,1-7.81-.31c-8.79-.77-8.21,0-7.68-6.5.08-.91.13-1.83.3-2.73a3,3,0,0,1,3.36-2.4c4.12.13,8.27,0,12.38.76,1.79.35,2.69,1.07,2.59,2.37C234.47,453.42,234.3,455.75,234.14,458.07Z"/>
        <text class="cls-15" transform="translate(245.37 477.68) rotate(4.72)">10</text>
      </g>
      <g id="simonelaera">
        <rect class="cls-14" x="895.89" y="537.45" width="25" height="25" transform="translate(267.28 1396.47) rotate(-84.05)"/>
        <path class="cls-7" d="M950.46,526.43a3.3,3.3,0,0,0-3.19-2.27c-3.81-.37-7.65-.62-11.42-1.28q-14.52-2.55-29.18-3.87a4.31,4.31,0,0,0-4.28,1.87c-3.18,4.25-5.76,8.93-9.35,12.89a2.3,2.3,0,0,0-.55,1.6c.45,4.06-.83,7.93-1.37,11.87-1.15,8.26-.94,16.62-2.09,24.87-.27,2,.47,2.95,2.49,3.13,4.06.35,8.1,1.08,12.15,1.17,8.1.18,16.08,1.53,23,2.05,8,.83,14.91,1.5,21.78,2.29,2.21.25,3.21-.49,3.41-2.76.4-4.55.79-9.11,2.24-13.51a11.54,11.54,0,0,0,.45-5.45c-.84-5,.21-10,1.06-14.85a10.47,10.47,0,0,0-.37-6C953.64,534.28,952,530.39,950.46,526.43Zm-33.07,29.51c-3.59,5-11.94,4.84-16.24.8-.26-.24-3.55-3.43-3-7.85.66-5.88,7.71-11.15,13.86-9.12S921.14,550.72,917.39,555.94Z"/>
        <text class="cls-15" transform="translate(937.49 571.64) rotate(5.95)">5</text>
      </g>
      <g id="francescaditoma">
        <rect class="cls-14" x="889.28" y="800.56" width="25" height="25" transform="matrix(0.99, -0.14, 0.14, 0.99, -104.38, 133.42)"/>
        <path class="cls-7" d="M933.39,797.62c-.3-3.4-2-4.37-5.37-3.92-6.54.86-13.07,1.82-19.6,2.73s-22.19,3.13-22.79,4.26c-2.28,4.31-.32,9.32,1.56,22.34.5,3.41,3.84,20.71,5.46,21.44a6.17,6.17,0,0,0,4,0c4.24-.86,30.5-5.71,39.46-7,2-.27,2.55-1.43,1.59-3.61C936.62,831.33,934.21,807,933.39,797.62ZM903.61,816c-2.62.47-5.27.8-7.87,1.37-1.75.39-2.53-.3-2.81-1.89l-.15-.92c-1.63-9.32,1.41-12.53,10.93-11.57a2.58,2.58,0,0,1,2.57,2.22c.25,1.32.39,2.65.57,4h.06c.09.61.18,1.22.26,1.84C907.76,815.28,907.76,815.29,903.61,816Z"/>
        <text class="cls-15" transform="translate(920.42 815.02) rotate(-8)">9</text>
      </g>
      <g id="giovannisciortino">
        <rect class="cls-14" x="116" y="164" width="25" height="25"/>
        <path class="cls-7" d="M120,142c-60,3.64-43,62-2.65,57.68C173,199,153,140,120,142Zm15.49,43.54c-2.48-.2-5,0-7.49,0v.07c-2.75,0-5.5.06-8.24,0s-2.05-12.28-2.15-13.9,0-3.13,2.22-3c5.17.26,10.31-.44,15.47-.42,2.53,0,3.19.9,3.2,3.91C138.51,174.16,138.22,185.77,135.49,185.54Z"/>
        <text class="cls-15" transform="translate(93.71 171.01)">4</text>
      </g>
      <g id="carolinaremia">
        <rect class="cls-14" x="53" y="80" width="25" height="25"/>
        <path class="cls-7" d="M83.51,48.29c-.79-3.59-46.32-2.66-47.33.71-1.78,5.93-.64,12.23-1.06,18.35-.68,10,1.72,20,1,28.14,0,6.12,0,10.35,0,14.58,0,2.17,1,3.44,3.31,3.56,12.68.7,25.4.66,38.07,1.5,4,.27,5.15-.92,5.09-5-.11-7.8.62-15.57.62-23.36,0-2.41,0-4.82.19-7.21a90.2,90.2,0,0,0,0-14.14C82.94,59.72,84.74,53.9,83.51,48.29Zm-8,55c0,1.08-.67,1.86-1.74,1.68-4-.66-8,.57-12-.5-2.15-.57-3-1.34-2.79-3.45a29.61,29.61,0,0,0,0-3,23.87,23.87,0,0,1,.63-7.14,2.61,2.61,0,0,1,2.88-2.17c3.94.16,7.87.3,11.81.36,1.34,0,1.82.64,1.77,1.83Q75.79,97.14,75.5,103.33Z"/>
        <text class="cls-15" transform="translate(66.71 75.01)">2</text>
      </g>
      <g id="gabrielebarletta">
        <rect class="cls-14" x="109" y="361" width="25" height="25"/>
        <path class="cls-7" d="M136.5,346.84a3.47,3.47,0,0,0-2.77-3.86,28.61,28.61,0,0,1-5.22-2.05c-3-1.61-5.47-1.12-8.08.7a6.29,6.29,0,0,1-5.06.57c1.91-1.05,3.73-1.52,5.16-2.61s1.77-1.69-.27-2.38a34.85,34.85,0,0,1-4.27-1.77,3.64,3.64,0,0,0-3.52,0q-8.3,4.17-16.61,8.32a5.24,5.24,0,0,0-3,4.17c-.73,3.83.15,7.59.16,11.38,0,8.74-.46,17.5.48,26.23.27,2.46.48,2.65,3.37,2.26,7.52-1,15.12-.39,22.68-.65,4.19-.15,8.47.07,12.71.18,2.09.05,3.27-.66,3.51-2.55.32-2.42.68-4.82.76-7.27.24-6.89-.58-13.75-.49-20.63C136.1,353.55,136.39,350.2,136.5,346.84Zm-14.38,15.31c.33-.72,1.15-1.22,1.55-.31.66,1.5,2,2.73,2.09,4.49.06,1.16-.32,1.69-1.57,2-3,.72-3.23.58-3.18-2.27C120.73,364.75,121.52,363.46,122.12,362.15Zm5.87,22.2c0,.53-.34,1.21-1,1-1.28-.48-2.44.07-3.65,0-2.82-.12-3.36-.71-3.33-4.28.65-2.61.54-5.83.53-9.05,0-1.38.75-2,2.3-1.87s3,.29,4.45.44a1.6,1.6,0,0,1,1.65,1.81C128.72,376.37,127.94,380.34,128,384.35Z"/>
        <text class="cls-15" transform="translate(97.71 364.01)">6<tspan class="cls-16" x="9.14" y="0">B</tspan></text>
      </g>
      <g id="alessiagreganti">
        <rect class="cls-14" x="66" y="405" width="25" height="25"/>
        <path class="cls-7" d="M120.93,398.26c.29-3-.15-3.27-3.19-3.27h-58c-1.3,0-2.63,0-2.68,1.8-.14,5.32-.52,10.66-.3,16,.21,5,.84,10,.73,15-.1,4.48.21,4.81,4.74,4.81,6.91,0,13.81-.08,20.71-.33,5.4-.2,10.81.27,16.22.33,6.32.06,12.62-1,18.95-.15a1.92,1.92,0,0,0,2.31-2c.36-6.81,1.31-13.61.93-20.42C121.15,406,120.56,402.2,120.93,398.26ZM89,423.62a16.74,16.74,0,0,0,0,2.24c.06,1.6-.73,2.23-2.28,2.2-2.73,0-5.47,0-8.21,0-2.49,0-5-.08-7.47,0-2.22.09-2.93-1.06-2.94-3,0-3.88.49-4.4,4.4-4.41,4.47,0,8.94.09,13.41,0C88.12,420.57,89.21,421.3,89,423.62Z"/>
        <text class="cls-15" transform="translate(99.71 415.01)">6<tspan class="cls-17" x="9.14" y="0">A</tspan></text>
      </g>
      <g id="rosannaracanelli">
        <rect class="cls-14" x="239.4" y="40.4" width="33" height="25" transform="translate(63.04 229.22) rotate(-54.11)"/>
        <path class="cls-7" d="M289.67,47.2c-9.09-6.84-18.41-13.34-27.91-19.59-3.63-2.38-3.95-2.51-6.53,1.14-6.12,8.65-12.16,17.37-18.3,26-1.59,2.23-3.63,4.16-5.12,6.45a227.41,227.41,0,0,1-14,19.66c-1,1.26-1.13,2.44.11,3.47,5.1,4.23,10,8.79,15.45,12.47,4.56,3.07,9.07,6.22,13.57,9.36,3.21,2.25,3.37,2.27,5.61-.82q9.52-13.14,19-26.28h0q9.51-13.14,19-26.29C292.83,49.64,292.78,49.54,289.67,47.2Zm-31.13.09c-2.86,4-6.32,7.54-8.69,11.89-1.13,2.06-2.67,2.58-4.57.8a7.54,7.54,0,0,0-1.38-1c-2.21-1.26-2.58-2.7-.86-4.78s3.25-4.43,4.87-6.66c1.78-2.45,3.59-4.89,5.33-7.38,1-1.44,2-1.59,3.59-.7C262.05,42.44,262.06,42.36,258.54,47.29Z"/>
        <text class="cls-15" transform="translate(242.08 92.83) rotate(35.89)">4</text>
      </g>
      <g id="mariaelenapellico">
        <rect class="cls-14" x="338.13" y="163.19" width="25" height="25" transform="translate(-11.34 326.63) rotate(-49.25)"/>
        <path class="cls-7" d="M396.6,184.45c-.55-.63-2.82-3.21-5.82-6-4-3.71-8.43-7.08-11.63-9.73-9.52-7.85-16.69-16.42-25.73-21.45a7.61,7.61,0,0,0-1.44-.64c-6.33-2-14.51,4.59-18.36,10.58-1.08,1.68-5.55,8.63-3.73,16.59,2.06,9,10.18,10.56,26.53,25.52,1.12,1,4.43,4.09,9.13,8,2.9,2.43,5.34,4.37,7,5.69,8.69,4.16,18.9,1.81,24.36-5.23a19.73,19.73,0,0,0,1.59-21.06C398.09,186.2,397.42,185.4,396.6,184.45Zm-40.26,3a6.16,6.16,0,0,0-1,1.13c-1.27,1.84-2.56,2.06-4.25.4s-3.63-3.18-5.46-4.75c-2-1.75-4-3.51-6.07-5.22-1.18-1-1.24-1.89-.34-3.2,3-4.35,4.88-6.64,8.93-3.18,3.28,2.8,6.13,6.09,9.76,8.49C359.66,182.24,358,185.9,356.34,187.43Z"/>
        <text class="cls-15" transform="matrix(0.76, 0.65, -0.65, 0.76, 376.61, 200.57)">6</text>
      </g>
      <g id="ottaviacapozzi">
        <rect class="cls-14" x="529.4" y="458.43" width="25" height="25" transform="translate(-21.35 25.76) rotate(-2.67)"/>
        <path class="cls-7" d="M569.3,481.2a35.17,35.17,0,0,0,.2-8.2,60.44,60.44,0,0,1,0-6.73c.18-3.41.23-6.91-1.5-10a150.65,150.65,0,0,0-17.32-25.18A37.17,37.17,0,0,1,548.2,428c-1.7-2.48-2.76-2.43-4.19.32-4.44,8.56-9.51,16.77-14.28,25.14-2.34,4.1-4.61,8.16-3.22,12.24.56,10.72,2.65,20.37,3,30.2.09,2.37,1.73,2.27,3.42,1.87a42.87,42.87,0,0,1,15.88-.73,12.28,12.28,0,0,0,4.72-.19,58.42,58.42,0,0,1,12.14-1.42,12.79,12.79,0,0,0,2.48-.23c1.44-.37,2.3-.8,2-2.89C569.74,488.64,568.6,485,569.3,481.2Zm-25.58-7.62a26.46,26.46,0,0,1-5.46.59c-6.17.23-5.69.89-6-5.57,0-.92-.1-1.84-.08-2.75a2.57,2.57,0,0,1,2.07-2.77c2.88-.35,5.74-1,8.67-.66a2,2,0,0,1,2.05,2.05q.16,3.5.36,7A1.86,1.86,0,0,1,543.72,473.58Z"/>
        <text class="cls-15" transform="translate(555.44 488.98) rotate(-2.67)">8</text>
      </g>
      <g id="ileniamicoli">
        <rect class="cls-14" x="691.94" y="419.06" width="25" height="25" transform="matrix(0.92, -0.4, 0.4, 0.92, -113.66, 316.69)"/>
        <path class="cls-7" d="M719.86,429.26c-2.53-6.41-6-12.38-8.68-18.72-1.31-3.1-2.38-6.29-3.61-9.41a3.5,3.5,0,0,0-4.09-2.44,28.39,28.39,0,0,1-5.59.21,60,60,0,0,0-9.06-.13,33.84,33.84,0,0,1-4.61.08,3.64,3.64,0,0,0-3.22,1.43q-6,7.14-11.92,14.26a5.24,5.24,0,0,0-1.07,5c.86,3.81,3.17,6.9,4.68,10.37,3.5,8,6.56,16.23,10.91,23.87,1.22,2.14,1.49,2.23,4,.73,6.5-3.93,13.72-6.39,20.54-9.64,3.79-1.81,7.81-3.32,11.74-4.91,1.93-.79,2.73-1.91,2.2-3.73C721.39,433.89,720.76,431.54,719.86,429.26Zm-5.65,10.94c-1.37.06-2.22,1-3.35,1.47-2.63,1-3.36.69-4.75-2.6-.45-2.65-1.83-5.57-3.13-8.51-.56-1.26-.11-2.12,1.36-2.63s2.84-.92,4.26-1.38a1.59,1.59,0,0,1,2.23,1c1.38,3.75,2.25,7.7,3.89,11.36C714.93,439.41,714.89,440.16,714.21,440.2Z"/>
        <text class="cls-15" transform="translate(680.85 436.34) rotate(-23.5)">6</text>
      </g>
      <g id="ireneiuliano">
        <rect class="cls-14" x="787.2" y="377.8" width="25" height="25" transform="translate(-51.38 130.47) rotate(-9.04)"/>
        <path class="cls-7" d="M839,396c-1-5-.4-1.12-2-12-.51-3.47-2-7.06-2.75-11.74-.08-.34-.2-.83-.38-1.4A20.76,20.76,0,0,0,832,366.7c-1.59-2.83-2.5-4.39-4.38-5.71a12.58,12.58,0,0,0-8.3-1.94,13.56,13.56,0,0,0-2.63.51l-20.18,2.84a64.38,64.38,0,0,0-8.55,1.72,4.31,4.31,0,0,0-2.72,2.73,26.88,26.88,0,0,0-2.7,5.34,42.7,42.7,0,0,0-1.69,6.32c-.14.67-.25,1.23-.32,1.62.62,3.65,1,6.62,1.23,8.57.88,7.56,3,14.95,4,22.5.24,1.78.64,4.32,2.19,3.8,6-2,18-4.05,24-5,9.82-1.56,17.18-2.42,27-4,2.53-.41,1.37-1.48,1-4C839.71,400,839.4,398,839,396Zm-36.9,2c-4.41.08-3.59.83-7.93,1.4-2.21.28-1.8-.13-2.25-2.64-.35-1.95-3.08-15.53-1.07-15.68.77-.06,1.53-.24,2.3-.36a46.84,46.84,0,0,0,5.63-.92c1.3-.28,3.45,12.53,3.61,13.87.08.7.2,1.4.33,2.09C803,397.13,803.46,398,802.1,398Z"/>
        <text class="cls-15" transform="translate(819.78 387.97) rotate(-9.04)">4</text>
      </g>
      <g id="alessiapinto">
        <rect class="cls-14" x="660.05" y="936.67" width="25" height="25" transform="translate(-174.02 151.32) rotate(-11.38)"/>
        <path class="cls-7" d="M687.4,941.09c.48,7,2,15.36,3.06,23.76.43,3.28,1,6.55,1.63,9.81.36,1.89-.25,2.89-2.2,3-6.1.43-11.93,2.19-17.87,3.41a97.39,97.39,0,0,1-17.77,2.32c-1.58,0-2.23-.67-2.33-2.23-.19-3-1.41-5.8-.87-8.89.24-1.41-1.12-2.51-1.62-3.83-1.75-4.64-1.87-9.65-3.4-14.3a100.83,100.83,0,0,1-2.65-10.64c-.72-3.39.51-6.75,1.13-10.07.73-3.84,2.27-7.48,3.32-11.23,1.17-4.16,2.12-8.36,3.57-12.44,1.25-3.52,3.09-6.81,3.91-10.51.37-1.65,1.85-1.77,3-.29,3.13,4.1,6.48,8,9.67,12.07s6.7,7.83,9.86,11.9c2.14,2.76,4.24,5.56,6.44,8.27C686.28,933.71,686.33,936.78,687.4,941.09Zm-5.53,3.38c-.26-1.3-.46-2.63-.8-3.91-.64-2.38-2-3.26-4.45-2.87-2,.31-3.92.78-5.89,1.12s-2.47,1.31-2.11,3.18c.57,3,1.46,6,1.55,9.09,0,1.24.76,1.78,2,1.65a18.71,18.71,0,0,0,4.2-.45C683.47,949.78,683.51,952.43,681.87,944.47Z"/>
        <text class="cls-15" transform="translate(652.83 956.67) rotate(-11.38)">8</text>
      </g>
      <g id="robertocaputo">
        <rect class="cls-14" x="380" y="531" width="33" height="36"/>
        <path class="cls-7" d="M439.2,573a45.73,45.73,0,0,1-.43-6.71,103.3,103.3,0,0,0,.19-16.6c-.54-7.29-1-14.52-2.71-21.66-1.25-5.17-2.14-10.43-3.16-15.65a3.41,3.41,0,0,0-3.27-3.12c-4-.53-8-.27-12-.29-11.73-.05-23.47,0-35.2,0-1.15,0-2.31.15-2.65,1.4-.53,1.93-1.53,3.67-1.85,5.69-.83,5.17-1.43,10.44-2.88,15.45a43.36,43.36,0,0,0-1.94,11.72c-.12,11.41.11,22.82-.64,34.22-.08,4.34.34,8.65.46,13,.08,2.51,1.09,3.27,3.4,3.54,4.45.53,8.77-.7,13.19-.63,7.58.13,15.16.06,22.74-.06,5.91-.09,11.81-.46,17.7-.12a38.27,38.27,0,0,0,5.47-.2,2.42,2.42,0,0,0,2.47-2.35C438.58,584.78,439.57,578.92,439.2,573Zm-49.35-16.73c.12,1.74-7.57,1.74-7.69,0-.41-6.33.12-16.19-.08-19-.13-1.89,7.89-1.36,7.69,0C388.87,543.46,389.44,550,389.85,556.28Zm6.41.72c-2.26,0-3.11,0-3.57-1.68-1.37-5-.32-13.32-.08-16,.12-1.39,7.9-1.39,7.77,0-.23,2.63.67,14.71.09,16C400.15,556,398.19,557,396.26,557Zm10.89.4c-1.51,0-2.95-.1-3.2-.07-.95.12-1.52-19.33-.07-21.33.43-.6,3.62,0,5.77,0,1.13,0,1.56,13.78,1.65,15.3C411.64,557.28,411.5,557.51,407.15,557.4Z"/>
        <text class="cls-15" transform="translate(419.71 554.01)">6</text>
      </g>
      <g id="mariannaturchiarulo">
        <rect class="cls-14" x="404.68" y="830.37" width="25" height="25" transform="matrix(0.99, -0.17, 0.17, 0.99, -137.16, 83.15)"/>
        <path class="cls-7" d="M400.51,845.38c-1.71-12.83-2.78-20.92-4.9-33.7a82.72,82.72,0,0,1-1-13.32c0-5.76-.66-11.71-1.12-17.59-.18-2.29.12-4.35.09-6.56,0-1.44.7-1.74,1.44-1.87,7.55-1.32,15.09-2.7,22.66-3.94,2.57-.43,5.09-1.16,7.77-1,1.35.08,2.12,1.11,2.71,3.13,1.66,5.73,3.25,11.51,5.05,17.15,2.48,7.79,4.16,15.82,5.92,23.92,1.35,6.22,2.32,12.34,3.08,18.58.31,2.54,1.05,5,1.57,7.45,1.38,6.57,1.87,13.23,2.7,19.85.2,1.6-.22,2.6-1.14,2.9a14.38,14.38,0,0,1-3.48.84c-3.86.26-7.59,1.34-11.37,2.09-4.86,1-9.73,1.9-14.64,2.6-2.86.4-5.41,2.26-8.37,2.17-1.54-.05-2.34-.79-2.87-3.59C403.68,859.66,401.3,850.24,400.51,845.38ZM418,850.56c1.65-.29,2.93-.56,4.22-.72,3.9-.48,4-.9,1.88-11.13-.53-2.6-1.17-4-2.15-3.72-3,.93-6.35-.83-9.33.28-3.58,1.33-4,2.71-1.78,12.41.06.29.14.56.19.85.43,2.43,1.07,3.14,1.88,2.79A13.19,13.19,0,0,1,418,850.56Z"/>
        <text class="cls-15" transform="translate(409.13 809.46) rotate(-9.78)">10</text>
      </g>
      <g id="ariannapilastro">
        <rect class="cls-14" x="470.53" y="686.8" width="25" height="36" transform="translate(100.64 -59.29) rotate(7.84)"/>
        <path class="cls-7" d="M482.31,673.83c3.17,1.14,5.84.11,8.38-1.09a1.92,1.92,0,0,1,2.22.17c2.63,1.69,5.26,3.38,7.91,5,1.41.88,1.3,2.12,1.08,3.37-.69,3.92-1.43,7.84-2.13,11.76-1.09,6.1-1,12.33-2,18.46-.61,3.79-1.5,7.52-2.15,11.3-.36,2.07-1.83,2.68-3.79,2.49a42.27,42.27,0,0,1-6.68-.91c-7.53-2-15.32-1.91-23-3.08-2.23-.34-4.46-.61-6.7-.77-1.31-.09-1.8-.71-1.79-1.8a59,59,0,0,1,.14-7c.79-6.7,1.7-13.39,2.68-20.06.64-4.27.5-8.6,1.24-12.87.46-2.59,1.46-4.47,4.1-5.65,5.91-2.63,12.07-4.69,18.08-7.09a2.82,2.82,0,0,1,3.19.53c.81.68,1.84,1.11,2.66,1.77s2.76.74,2.4,2-2,2.13-3.59,2.54C483.87,673.15,482.92,672.82,482.31,673.83Zm-.67,37.43c.45,2.23-1.26,4.42-1.48,6.91-.1,1.15-.13,2.55,1.06,2.92a13.39,13.39,0,0,0,5.83.75c1.45-.25.82-2.31,1.18-3.54.27-.9.45-1.82.7-2.73a39.28,39.28,0,0,0,1.66-7.33A1.86,1.86,0,0,0,489,706c-6.18-1.83-6.44-1.71-7.25,4.43C481.73,710.56,481.71,710.72,481.64,711.26Zm2-10.93c-.34,2.21-.19,2.68.82,3,2.33.68,3.95-.6,3.91-2.92a10.21,10.21,0,0,0-1.13-3.79c-.46-1.14-1-1.07-1.75-.29A6.7,6.7,0,0,0,483.63,700.33Z"/>
        <text class="cls-15" transform="translate(462.34 695.92) rotate(7.84)">8</text>
      </g>
      <g id="martinacofano">
        <rect class="cls-14" x="134.53" y="641.97" width="25" height="25" transform="translate(-79.83 23.22) rotate(-7.11)"/>
        <path class="cls-7" d="M163.35,643.87c1.2,23.28,2,40.3,2,42.39a2.48,2.48,0,0,1-.8,2.12c-.77.58-11.23,3.17-16.2,4.72-6.82,2.13-14.35,2.21-18.59,1.31-2.34-.49-7.64-2.1-9.65-1.92a2.26,2.26,0,0,1-1.28-.23,1.72,1.72,0,0,1-.73-1.67c.21-3.17-1-6.28-.15-9.47a2.24,2.24,0,0,0,0-1c-.33-7.61,2.78-14,1.76-19.73-1.21-6.67-6.89-5.69-7-10.86-.17-7.91,13.1-11.57,12.51-20.06-.23-3.28-2.23-3-2.21-6.67,0-5.72,5.24-8.48,7.59-14,.86-2,2.25-2.13,3.73-.31,3.82,4.69,7.45,9.48,11.28,14.16,1.44,1.76.72.76,4.27,5.16,4.52,5.6,6.19,8.12,10,12.33C161.33,641.79,162.59,643.1,163.35,643.87Zm-13.18,18.37c1.53-.19,3.06-.43,4.6-.56,1.94-.17,2.74-1,2.49-2.67-.38-2.55-.58-5.12-1-7.65-.44-2.68-2-3.64-5.19-3.32-2.2.22-4.4.61-6.61.78-2.43.19-3.15,1.25-2.78,3.2.32,1.71.45,3.45.66,5.18C143.08,663.1,143.08,663.1,150.17,662.24Z"/>
        <text class="cls-15" transform="matrix(1, 0.05, -0.05, 1, 123.89, 685.84)">12</text>
      </g>
      <g id="giovannifava">
        <rect class="cls-14" x="243.05" y="697.19" width="25" height="25" transform="translate(-107.15 48.32) rotate(-8.94)"/>
        <path class="cls-7" d="M275,685l6,5c3.59,24.19,6.18,41,6.74,43,.09.3.53,1.66-.14,2.47a1.84,1.84,0,0,1-1.15.58c-8.21,1.37-15.94,5.16-24.47,5a29.18,29.18,0,0,0-10.22,1.78c-4.63,1.63-5.35,1.09-6.27-4.32-.4-2.35-.88-4.69-1.09-7-.62-7.08-2.75-10.69-4.91-23-.47-2.66-1.07-6.58-1.49-11.41l20-7Zm-15.7,25.76c-1.76-11.11-1.89-11.27-8.12-10.23l-.56.1c-5.49,1-7.15,11.92-3.05,20.21.45.92,1,1.4,1.56,1.38,2.24-.1,4.57.19,6.69-.5C260.79,720.12,260.75,719.93,259.3,710.76Z"/>
        <text class="cls-15" transform="translate(267.23 732.54) rotate(-8.94)">10</text>
      </g>
      <g id="gabrieledangella">
        <rect class="cls-14" x="791.31" y="597.83" width="25" height="25" transform="translate(-38.67 54.59) rotate(-3.8)"/>
        <path class="cls-7" d="M831.35,639.2c1.24,5.62,1.92,9.25.16,10.64-.63.49-1.24.53-2.69.48-4-.11-7.75.74-11.62,1.22-6.77.82-13.62.33-20.43.42a2.19,2.19,0,0,1-1.76-.67,2.16,2.16,0,0,1-.42-1.5c0-1.7-1.06-3.61-2.15-8.7-1.12-5.26-1.92-12.56-2.44-17.69a154.49,154.49,0,0,1,0-30,4.76,4.76,0,0,1,1.19-3.51c1.3-1.21,3.32-.87,4-.9,5-.22,9.91-1.18,14.87-1.71,5.28-.57,10.62-.55,15.94-.76.1,0,.6.2,1.31.35a22.28,22.28,0,0,0,2.56.31c2.06.61.07,14.08-.67,20.09-1.22,9.88-1.83,14.82-.67,20.09C829,629.37,829.83,632.33,831.35,639.2ZM796.29,610c.18,2.73.39,5.46.53,8.19.07,1.55.89,2.29,2.83,2.1a24.67,24.67,0,0,1,2.72-.17c2.82,0,3.64-1.13,3.43-3.33-.42-4.45-.61-8.93-.91-13.39-.27-3.9-.93-4.36-5.64-4-2.4.17-3.75,1-3.49,3.18C796.06,605,796.12,607.48,796.29,610Z"/>
        <text class="cls-15" transform="translate(806.11 645.73) rotate(-3.8)">4</text>
      </g>
      <g id="carlottabrondi">
        <rect class="cls-14" x="720.32" y="602.72" width="38" height="25" transform="translate(32.09 -36.63) rotate(2.9)"/>
        <path class="cls-7" d="M762.46,626.08c-.21,7.66-1.14,15.26-1.64,22.89-.11,1.64-.64,2.47-1.89,2.38-5.65-.42-11.32-.41-17-1.12-3.9-.49-7.87-.13-11.8-.35-4.42-.26-8.78-1.28-13.26-.74-2,.25-2.57-.76-2.65-3.44-.32-10.06,1.12-20.09,1.06-30.1,0-6.32,2-11.14,4.32-16.09a18.14,18.14,0,0,0,1.49-3.19c.76-3,2.35-3.78,4.46-3.68,9.78.45,19.59.16,29.36,1,1.34.12,2.07.93,2.79,2.56,2,4.45,2.74,9.72,5.17,13.81a3.16,3.16,0,0,1,.28,1.87C762.92,616.61,762.7,621.34,762.46,626.08Zm-23.33-10.42c4.17.21,8.35.3,12.5.67,3.58.32,5-.79,4.78-3.46a16.17,16.17,0,0,1,.1-2.51c.16-1.83-.94-2.72-3.29-2.83q-13.11-.63-26.22-1.31c-2.27-.12-3.59.49-3.74,2.37a12.77,12.77,0,0,1-.58,2.77c-.78,2.37.24,3.57,3.54,3.67C730.52,615.15,734.83,615.44,739.13,615.66Z"/>
        <text class="cls-15" transform="matrix(1, 0.05, -0.05, 1, 745.67, 643.09)">6</text>
      </g>
      <g id="pierlucaditano">
        <rect class="cls-14" x="39" y="924" width="25" height="25"/>
        <path class="cls-7" d="M93,915c.31,0,.7,0,.74,0,1.13,0,2.37,0,2.88.56s.45,1.26.31,2.71c-.37,3.94.22,7.78.44,11.67.38,6.81-.57,13.61-.93,20.42a1.92,1.92,0,0,1-2.31,2c-6.33-.82-12.63.21-18.95.15-5.41-.06-10.82-.53-16.22-.33-6.9.25-13.8.32-20.71.33-4.53,0-4.84-.33-4.74-4.81.11-5-.52-10-.73-15-.22-5.3.16-10.64.3-16a1.84,1.84,0,0,1,.44-1.28,3.59,3.59,0,0,1,2.24-.52H36c1.63,0,19.44,3,29,3C74.74,918.05,90.31,915.14,93,915ZM51,946c4.4-.45,8.48-4.59,8-9-.41-3.79-4-6.3-7-7a8.75,8.75,0,0,0-4,0c-3.15.74-6.65,3.44-7,7C40.53,941.72,45.73,946.54,51,946Z"/>
        <text class="cls-15" transform="translate(80.71 938.01)">0</text>
      </g>
      <g id="alessandrabrunetti">
        <rect class="cls-14" x="837.36" y="927.4" width="25" height="42.83" transform="translate(-192.99 217.4) rotate(-13.1)"/>
        <path class="cls-7" d="M846.33,903.17c-2.58-2.11-5.35-2.27-7.6-3.44-1.75-.91-1.62-1.61-.36-2.73,1.58-1.41,3.14-2.83,4.72-4.23a3.62,3.62,0,0,1,4.33-.67c6.41,3.35,13.64,5,20.16,8.19,2.76,1.34,4.52,2.94,5.19,6,3,13.9,6.49,27.7,9.51,41.6,1.22,5.65,1,11.57,2.48,17.2.32,1.2-.36,1.91-1.72,2-7.95.73-15.66,3.09-23.61,3.88-3.47.35-6.48,2.43-10,2.94-.81.11-1.56.56-2.37.74-7.61,1.73-7.89,1.56-9.93-5.47-2.61-9-4.37-18.14-6.49-27.22-2.08-8.92-4-17.89-6.32-26.74-1-3.57.33-5.92,3.11-8.1,1.6-1.26,3.39-2.32,4.48-4.09a2.09,2.09,0,0,1,2.38-.79c1.84.3,3.74-.68,5.44,1.4C840.76,904.9,843.58,903.06,846.33,903.17Zm4.76,49.2c-1.31-5.67-1.31-5.67-6.35-4.45-.64.15-1.29.33-1.93.49a1.61,1.61,0,0,0-1.4,2.08c1.15,6.77,3.62,13.18,5.56,19.73.17.57.55,1.49,1.22,1.07,1.37-.88,2.88-.52,4.28-.94,3.1-.93,3.44-1.57,2.56-4.45C853.55,961,852.18,956.13,851.09,952.37Zm-6.49-20.44c-.92.33-1.08.8-1.13,1.25a34.33,34.33,0,0,1-.93,5.34c-1,3.84.76,6.22,4,6.37,1.62.08,2.51-.43,2.26-2.15C848.29,938.84,846.28,935.52,844.6,931.93Z"/>
        <text class="cls-15" transform="matrix(0.97, -0.23, 0.23, 0.97, 858.1, 929.92)">12</text>
      </g>
      <g id="testuser">
        <rect class="cls-14" x="648" y="797" width="25" height="36" transform="translate(-90.42 82.47) rotate(-6.69)"/>
        <path class="cls-7" d="M652.55,782.57c3.34.44,5.71-1.25,7.9-3.09a1.87,1.87,0,0,1,2.21-.34c3,1.14,5.89,2.28,8.86,3.37,1.57.58,1.75,1.88,1.83,3.24.23,4.22.41,8.44.63,12.67.34,6.57,1.86,13,2.32,19.58.28,4.07.27,8.14.5,12.21.13,2.23-1.16,3.2-3.11,3.46a40.15,40.15,0,0,1-6.71.61c-7.8-.31-15.37,1.6-23.06,2.17-2.24.17-4.49.41-6.7.76a1.64,1.64,0,0,1-2.16-1.44,69,69,0,0,1-1.49-7.33q-1.16-10.68-2-21.4c-.37-4.57-1.5-9-1.76-13.61-.16-2.79.39-5,2.68-6.8,5.15-4.11,10.67-7.68,16-11.57a2.7,2.7,0,0,1,3.23-.2c.94.52,2,.72,3,1.22s2.86.12,2.81,1.56c-.06,1.59-1.5,2.68-2.91,3.47C653.9,781.5,652.9,781.38,652.55,782.57Zm8,38.92c1,2.2-.2,4.87.16,7.5.16,1.21.46,2.67,1.7,2.77a12.44,12.44,0,0,0,5.85-.58c1.36-.6.27-2.58.34-3.94.05-1,0-2,.05-3a44.32,44.32,0,0,0-.08-8,1.93,1.93,0,0,0-2-2c-6.45-.46-6.67-.27-6.05,6.28C660.45,820.74,660.46,820.91,660.51,821.49Z"/>
        <text class="cls-15" transform="translate(647.61 807.69) rotate(-5.16)">6</text>
      </g>
    </g>
  </g>
</svg>
