<svg xmlns="http://www.w3.org/2000/svg" viewBox="0 0 448.86 621.31"><defs><style>.cls-1{fill:#010000;}</style></defs><title>alessiagreganti</title><g id="Livello_2" data-name="Livello 2"><g id="Livello_1-2" data-name="Livello 1"><path class="cls-1" d="M385.93,603.74c-.3,2.08-.53,3.88-.83,5.68-.92,5.6-4.66,7.89-10,6a7.38,7.38,0,0,0-2.83-.39c-77.46,2.42-154.94,4-232.45,3.07a380.82,380.82,0,0,1-38.74-2.36c-5.19-.6-5.75-2.76-6.53-6.35-1-4.6-2.11-9.17-3.45-15-2.14,5-3.88,9-5.51,12.92-3.14,7.65-6.68,9.86-14.71,8.59-18-2.86-35.63-.61-53,4.2a37.76,37.76,0,0,1-4.94,1.06c-6.53.88-11.67-3-12.6-9.54A31.61,31.61,0,0,1,0,606.59c1-44.24.67-88.53,3.76-132.71,2.51-35.89,7-71.46,19.92-105.4,15.33-40.17,42.39-70.23,79.12-91.93,21.38-12.63,44.43-20.94,68.6-26.34a58.12,58.12,0,0,0,8.44-2.64c5.2-2,8-5.9,8.13-12.3A31,31,0,0,1,166.11,240c-13.05-2-24.13-7.74-31.79-18.75-5.92-8.51-5-16.59,2.19-24.58,1.09-1.22,2.1-1.89.31-3.61-24.62-23.73-31.83-53.16-26.41-85.89,5.88-35.56,22.86-65.14,51.81-87.07,21.72-16.45,46.17-23.5,73.45-18.62,2.76.5,5.42,1.48,8.16,2.13a50.6,50.6,0,0,0,20.94.41C303.57-3,339.15,20.6,352,57.32c5.39,15.4,5,31.31,4.58,47.23-.32,11.15-.79,22.62-6.16,32.52-7.41,13.65-6,28.66-8.45,43-1.46,8.46-1.18,17.11-2.37,25.65-2.69,19.32-13.72,31.87-31,39.6-2.32,1-3.14,1.81-2.4,4.56,1.28,4.75,1.94,9.66,5.28,13.61a3,3,0,0,1,.84,2.27c-1.57,5,2.09,4.28,4.88,4.61,16.06,1.89,31.66,5.16,44.84,15.45,11,8.58,17.4,20.13,21.41,33.16,7,22.59,12,45.69,17.51,68.66,15.47,64.85,30.51,129.8,45.72,194.71.65,2.74,1.43,5.45,1.88,8.22,1.14,7-1.19,10.94-8.19,12.29-9.38,1.8-18.89,3-28.35,4.26a51.9,51.9,0,0,1-12.64.58A37.13,37.13,0,0,1,385.93,603.74ZM344.76,133.85a30.72,30.72,0,0,0,7-17.68c1.13-18.66,0-37.13-5.61-55.19C335.59,27.27,304,6.51,269.8,11.24c-10.53,1.45-21.15,1.93-31.82-1.09-19-5.36-37.41-2.51-55,6.13-26.91,13.24-45.24,34.53-56.57,61.91-10.38,25.06-13.11,51-5.29,77.27,4.75,16,12.93,29.7,28.8,37.3,4,1.91,8.26,2.76,12.49,3.8,2.42.6,3.72,2.12,3.36,4.57s-2.38,2.78-4.53,2.52c-6.21-.76-12.23-2.23-17.48-5.75-2.7-1.81-3.8-.94-4.82,1.67-2.74,7-2.12,13.53,2.49,19.53,5.11,6.67,12.16,10.35,20.05,12.56,10.27,2.88,19.18.28,26.79-7.07,2.07-2,3.08-3.59.61-6.57a60.49,60.49,0,0,1-12.77-28.61c-.46-2.63-1.12-3.75-4-2.75a14.27,14.27,0,0,1-7.9.4c-11.19-2.53-19.2-13-20-26.29-.59-10.16,7.17-21.66,16.91-25,2.59-.89,5.58-1.49,7.87-.28,4.81,2.55,8.73.47,12.71-1.53,4.53-2.27,9-4.67,13.33-7.3C216.9,113.34,234.19,95,250.64,75.79c8.24-9.64,16.59-19.18,24.93-28.74.87-1,1.58-2.66,3.29-2.18s2,2.2,1.85,3.82c-.08,1-.08,2,.88,2.64,5.8,3.89,9.33,10.13,15,14.22,7.91,5.71,14.71,12.71,21.4,19.78,12.51,13.21,21.9,28.22,25.83,46.27A14.51,14.51,0,0,0,344.76,133.85Zm-166.44,5.69c1.39,1.45,2.51,2.5,3.48,3.67s3.29,1.88,1.55,3.57c-1.35,1.31-2.86-.33-3.95-1.34-1.54-1.44-2.91-2.95-5.13-3.48-8.15-2-16.89,3.65-20,12.92s.37,18.92,8.08,22a32.14,32.14,0,0,0,9,1.88c4.17.37,8,.63,7.16,6.44a4.63,4.63,0,0,0,.58,2c5.54,15.06,12.69,28.81,27.87,36.65,4.67,2.41,4.42,4.2-.2,6.74-1.91,1.06-1.35,1.9,0,2.68a13.32,13.32,0,0,0,3.87,1.6c7.44,1.46,14.91,2.78,22.36,4.18,1.25.23,1.87.22,2.25-1.42.63-2.71,2.62-3.43,5.2-2.21s5.3,2.57,8,3.7c19.73,8.23,39.08,5.21,58.32-1.94,11-4.08,18.32-11.67,22.56-22.48a84.91,84.91,0,0,0,4.84-20.89c1.69-13.87,1.11-27.87,2.46-41.76a62.53,62.53,0,0,0,.47-11.78c-1.15-12.84-6.1-24.16-13.26-34.66C312.42,88.88,297.31,75.43,283.33,61a10.37,10.37,0,0,0-2.06-1.46c-1.43-.9-2.29-.52-3.48.82C261.43,78.75,244.71,96.87,227,114c-10.87,10.55-22.91,19.59-38.08,23.27C185.58,138.12,182.17,138.74,178.32,139.54Z"/><path class="cls-1" d="M274.46,125.35c-14.63-.36-29.28.56-43.89-.92-1.26-.13-3.44.63-3.35-1.35.07-1.51,2.28-1.17,3.58-1.33,18.86-2.29,37.81-3.17,56.78-3.89q18.33-.69,36.66-1.48c2.73-.11,5.43.11,5.67,3.47s-2.08,4.47-5.24,4.46c-16.74,0-33.47,0-50.21,0Z"/><path class="cls-1" d="M297,172.29c-3.56-.35-6.77-.46-9.86-1.53-2.66-.91-4.73-2.37-3.75-5.47s3.45-2.94,5.92-2.12a29.91,29.91,0,0,0,9.86,1.68c2.48,0,4.95-.49,5.88-3.13s-1.12-4.41-2.9-6c-2.17-1.89-5-2.47-7.58-3.46-.81-.31-1.67-.53-1.72-1.56-.07-1.34,1.07-1.49,2-1.78,6.1-2,14.74,3.18,16.47,9.78,1.56,6-2.78,11.51-10.08,12.9C299.67,171.91,298.14,172.1,297,172.29Z"/><path class="cls-1" d="M243.53,133.66c0,.15,0-.69.15-1.53a2.55,2.55,0,0,1,1.9-2.5c1.45-.3,1.94,1,2.35,1.94.95,2.33,1.68,4.78,3.5,6.63,1.09,1.09,2.29,2.31,4,1.63,1.47-.58,1.72-1.93,1.79-3.47.15-3.19,1.12-6,5.09-5.75,2.67.16,4.8,4.25,4.19,7.67a11.88,11.88,0,0,1-11.6,9.62c-5.49-.12-10.79-5.5-11.39-11.57C243.48,135.77,243.53,135.21,243.53,133.66Z"/><path class="cls-1" d="M303.07,206.31a56.62,56.62,0,0,1-14.15-1.52c-1.43-.31-2.92-.94-2.88-2.53,0-1.32,1.42-2,2.67-2.37,6.24-1.6,12.45-3.35,18.76-4.62,4.08-.82,7.23,1.51,7.49,4.8.28,3.58-2.4,6.05-6.84,6.23C306.44,206.37,304.76,206.31,303.07,206.31Z"/><path class="cls-1" d="M328.24,134.11c-.21,8.18-4.67,13.45-10.37,12.85-6.06-.64-11.33-8.59-10-15.13.16-.79.11-1.77,1.29-1.82s1.19.91,1.51,1.67a55.57,55.57,0,0,0,3,6.88c1,1.75,2.92,3,5,2.13s1.87-2.85,1.39-4.72c-.21-.81-.45-1.62-.58-2.45-.48-3.09,1.1-4.81,3.94-5.37s4.14,1.13,4.61,3.66A18.18,18.18,0,0,1,328.24,134.11Z"/><path class="cls-1" d="M161.91,156.75c6-2.3,11.3-.71,16.1,3a6.16,6.16,0,0,1,2.64,4.13,3.58,3.58,0,0,1-1.44,3.68c-1.43,1.05-2.7.57-3.81-.38a41.26,41.26,0,0,1-3.88-3.83A23.83,23.83,0,0,0,161.91,156.75Z"/></g></g></svg>