<svg xmlns="http://www.w3.org/2000/svg" viewBox="0 0 389.75 579.8"><title>alessiapinto</title><g id="Livello_2" data-name="Livello 2"><g id="Livello_1-2" data-name="Livello 1"><g id="UxNQ0n.tif"><path d="M124.51,247.26c-1.22-2.72-2.84-3.35-5.5-1.86-6.11,3.4-12.85,5-19.69,6.08-11.66,1.92-20-6-18.58-17.73.31-2.49.1-3.66-2.87-3.6a30,30,0,0,1-7.6-1.12C59,226.32,54.52,218.28,58.05,207.24c4.64-14.54,14.68-24.78,27-33,7.18-4.82,14.42-9.72,23.41-10.63,1.53-.16,1.46-1.16,1.41-2.36-.58-14.77-1.2-29.53-1.65-44.3-.53-17.52.24-35,4.67-52C119,41.22,133.75,24.5,155.36,13.78c20.14-10,41.56-15.24,64-13.43,22.83,1.84,45,7.36,65.09,18.68,17.68,9.94,26.86,26.18,31,45.57a55.32,55.32,0,0,1,1.57,12.89c-.08,2.74-.24,5.49-2.8,7.27-1.42,1-1.05,2.41-1,3.69,1.56,23,1.23,46.08,2,69.11a10.62,10.62,0,0,0,4.19,8.63c6.77,5.23,12.76,11.34,18.75,17.43a25,25,0,0,1,6.08,9c2.34,6.57.47,13-5.3,16.8-2.14,1.42-2.79,2.36-1.68,5,5,12-3.08,24.4-16.16,25.26-1.31.08-2.53-.19-3.28,1.57-2.26,5.3-7,6.5-12.1,6.38a75.37,75.37,0,0,1-28.77-6.3c-1.09-.48-2.19-.91-3.81-1.59a23.78,23.78,0,0,0,7.54,12.07c1.83,1.67,3.46-.41,5.43-.07,11.2,1.91,20.54,7.54,29.47,14,29.21,21,45.89,50.2,54.37,84.6,5.94,24.14,8.5,48.8,11.37,73.41,1.87,16,3.26,32.07,5,48.1,3.55,33.06,3.73,66.23,3.16,99.42-.05,3.1-1.07,5.59-4.5,5.56s-4.72-2.15-4.89-5.64q-1.87-40.37-4-80.73c-.39-7.62-.49-7.75-7.73-6.49-7.82,1.35-15.68.82-23.5.45-2.8-.13-3.26.55-3.11,2.93.61,9.87.84,19.76,1.79,29.59.91,9.46.59,18.94,1.31,28.41.55,7.29,1.17,14.54,2.36,21.75a19.8,19.8,0,0,1,.24,2.43c.29,7.48-1.12,9-8.44,8.5-47.69-3.1-95.38-1.58-143.07-.21-32.79.94-65.57,2.31-98.38,1-7.17-.29-14.32-1.05-21.47-1.63-1.78-.15-3.36-.32-4.69,1.46-1.07,1.43-2.85,1.38-4.47.58a3.59,3.59,0,0,1-2-4.06c.57-4.15.77-8.36,2-12.42.35-1.19.64-2.14-1.22-2.7-9.34-2.83-15.07-9.76-19.52-17.92-6.66-12.24-9.91-25.73-13.78-39-3.75-12.85-7.49-25.73-9.82-38.95-.32-1.82-.61-2.45-2.79-2-7,1.57-11.61-.56-15.52-6.58a22.89,22.89,0,0,1-3.7-11.06C-3.16,389,13,339,44,293.33c12.7-18.74,31-29.85,52.13-36.84C105.54,253.35,115,250.34,124.51,247.26Zm71.32,53.45-.7-.74a11.45,11.45,0,0,1,.61-1.85,19,19,0,0,1,1.88-3.13c7.47-9.37,17.47-14.37,29.08-16.14,5.54-.84,10,3.38,10.82,8.75.31,2.09-2.24,4.59-.07,5.81,1.56.88,4.19-.15,6.35-.28,1.08-.06,2.16,0,3.25,0,9,0,16.13-3.9,21.89-10.65,4.69-5.51,8.08-11.86,11.75-18,.82-1.37,1-2.27-.82-3.13-9.57-4.61-13.2-13-14.42-22.93-.49-4-2.34-5.84-6.32-5.85a35.62,35.62,0,0,1-14.52-3.33c-1.36-.6-3.76-.78-3.29-2.86.41-1.84,2.55-.94,3.9-1,9.91-.12,19.73-.61,29.18-4.1,15.83-5.85,25.71-16.46,27.8-33.7,2-16.29,1.73-32.7,3-49,1.35-17,1.89-34,4.74-50.88.36-2.15-.28-3-2.34-3.27-5-.58-9.67-2.58-14.22-4.62-10.06-4.51-19.06-10.5-25.72-20.05C264.4,66.32,259,70,253.53,73.52s-11.4,5.55-17.42,7.64c-15.32,5.32-31.21,9.07-45.81,16.36-11.9,5.93-20.87,14.48-24,28-.57,2.4-.49,5-1.79,7.38-4.05-6.62-5.07-6.51-10.74-5.1-12.51,3.12-20.57,16-11.7,29.48,3.71,5.64,9.5,8.38,15.27,11.05A57,57,0,0,1,180,186.93c10.94,15.18,16.12,31.72,11.32,50.44-1.44,5.6-5.31,7.18-10,3.92-1.77-1.22-2.83-1.09-4.14.2-2.89,2.86-6.51,4.24-10.32,5.35-2.75.8-5.42,1.89-9,3.15a40.25,40.25,0,0,1,19.32,10.92c2.4,2.45,4.23,2.76,7.34,1.44,6.83-2.89,13.28-6.76,20.72-8.13,7.15-1.32,15.4,3.35,15.47,9.47,0,2.91,1.36,3.28,3.29,3.94,3.2,1.09,5.43,3,5.43,6.72,0,1.14-.32,2.27-1.59,2.51-1.1.22-1.8-.65-2-1.6-1.12-4.61-4.62-5-8.28-4.35A92.51,92.51,0,0,0,194,278.2c-6.64,3.2-13.75,6.09-15.51,15.69-2-5.36.1-8.44,2.74-11.18a39.67,39.67,0,0,1,11.7-7.95,80,80,0,0,1,19.51-6.71c2.81-.54,2.81-1.81,1.65-3.9-1.77-3.19-4.82-4.34-9.6-2.69a219.89,219.89,0,0,0-31.1,13.85,13.09,13.09,0,0,0-6.86,10c-.82,5.16.71,10,2.29,14.65a36.44,36.44,0,0,1-2.62,30.18c-3.84,7.16-7.56,14.4-11.74,21.37-17.77,29.69-39.34,56.43-63.5,81.15-10.82,11.07-21.35,22.4-27.2,37.14a14.82,14.82,0,0,1-2,3.07c-.74,1-1.67,1.8-3.09,1.35s-1.47-1.78-1.57-3a16.76,16.76,0,0,1,2.15-9.36A114.68,114.68,0,0,1,72.5,442.44c1.37-1.66,3.24-3.07,3.85-5.76L65.6,438.33c-12.5,1.89-24.67,4.82-35.75,11.26-6.23,3.62-6.21,3.57-3.91,10.47,6.78,20.26,12.71,40.78,18.82,61.25,2.41,8.06,5.05,16,10.38,22.76,3.69,4.68,8.18,9.14,13.82,10.13a25.79,25.79,0,0,0,16.42-3.06,64.67,64.67,0,0,0,19.86-16.53,433.43,433.43,0,0,0,58.55-94.38c10.42-22.78,19.84-46,28.47-69.48,2.87-7.79,6.86-14.4,15.67-16.59a45.28,45.28,0,0,0,5.61-2.34,7.73,7.73,0,0,0,4.56-4.88c2.28-6.51,4.64-13,6.87-19.52,2.8-8.21,6.24-15.77,14.51-20.23,3.74-2,3.26-5.78-.46-7.95-2.28-1.33-4.65-1.06-7.06-.33-3.82,1.17-7,3.5-10.4,5.47-2.38,1.37-4.56,3.24-7.54,3.61-.13-1.67.92-2.21,1.76-2.77,4.83-3.23,9.41-6.88,14.84-9.16.71-.3,2.4-.27,1.85-1.54-.87-2,.29-3.69.38-5.51.16-3.31-1.47-5.44-4.76-6a12.81,12.81,0,0,0-7.11,1.18C211.52,288,202.34,292.24,195.83,300.71Zm155.63,112c-.63-1.84-2-2.6-3-3.54q-34.46-30.35-69-60.61c-12.12-10.61-24.72-20.69-36-32.27-4.19-4.31-5.66-4.28-8.85.91a27.19,27.19,0,0,0-2.16,4.79c-1.79,4.82-3.47,9.68-5.26,14.49-2.89,7.74-2.91,7.72,3.09,13.44,25,23.85,53.06,43.16,85.39,55.87C327.06,410.25,338.56,414.17,351.46,412.7Zm-174-147.22c-6.48-3-12.15-6.19-18.4-7.86-7.6-2-10.75.16-12.53,7.81-.5,2.19.13,3.38,2.24,3.91A80.08,80.08,0,0,1,161.73,274c1.17.51,2.16,1,3.25-.23C168.19,270.14,172.58,268.21,177.49,265.48Z"/><path d="M243.71,101c.89.17,1.94.42,3,.55,2.58.32,3.9,1.84,3.88,4.34s-1.69,3.92-4.06,4.28a53.27,53.27,0,0,1-7.65.75c-9,0-17.63,2.37-26.43,3.72-1.2.18-2.72.86-3.35-.34-.85-1.64,1.05-2.24,2-2.92C220.85,104.63,232,102.21,243.71,101Z"/><path d="M217.46,129.7c.07-1.44-.28-3.17,1.84-3.46,1.68-.23,2.4.94,2.81,2.33a9.58,9.58,0,0,0,2.24,3.8c5.83,6.43,9.84,5.65,12.55-2.53,1-3.1,2.71-5.26,6.13-4s3.19,4.16,1.92,7.05a44.83,44.83,0,0,1-2,4.81c-3.35,5.61-8.36,7.77-13.91,6.15C222.8,142,217.44,135.45,217.46,129.7Z"/><path d="M303.29,112.87c-2.21,0-4.2-.94-6.19-1.69a40,40,0,0,0-16.67-2.35c-3,.17-5.23-1.1-5.78-4-.59-3.06,1.72-4.57,4.29-5.5,7.63-2.75,21.57,1.91,25.75,8.62.71,1.14,1.41,2.35,1,3.8C305.27,113,304.2,112.79,303.29,112.87Z"/><path d="M301.4,126.2c.05,4.83-5,10-10,10.61-4.59.6-10.9-3.63-11.83-8a3.84,3.84,0,0,1,1.84-4.51c1.84-1,2.59.87,3.48,1.92,3.75,4.42,6.26,4.28,9.07-.69,1.12-2,2.56-3.11,4.89-2.66C300.85,123.3,301.11,125,301.4,126.2Z"/><path d="M143,145c2.77-5.76,9.1-7.46,15.08-4.21,4.25,2.31,7.36,6,9.89,10,1.35,2.14,1.07,4.47-1.48,5.89s-4.37.34-5.62-2c-.75-1.44-1.36-3-2.15-4.37C154.88,143.38,151.12,142,143,145Z"/><path d="M182.81,358.21a16.49,16.49,0,0,1-10-5.56c-.51-.62-1.14-1.31-.45-2.11s1.28-.13,1.78.21a36.73,36.73,0,0,0,9.4,4.58c.88.28,1.9.77,1.6,2S183.79,358.42,182.81,358.21Z"/></g></g></g></svg>