<svg xmlns="http://www.w3.org/2000/svg" viewBox="0 0 333.42 480.66"><title>alessandrabrunetti</title><g id="Livello_2" data-name="Livello 2"><g id="Livello_1-2" data-name="Livello 1"><g id="L2QWp4.tif"><path d="M281.71,263.19c-5.72,10-12,18.37-24.35,18.89a135.1,135.1,0,0,1,6.55,25.4,192.4,192.4,0,0,1,1.44,40.34c-2.26,40-9.32,79.34-17.14,118.55-.8,4-2.21,7.77-5.5,10.63a7.87,7.87,0,0,1-5.47,2.3q-43.85-.35-87.7-.74a61.34,61.34,0,0,1-10.28-1.11c-4.33-.78-6.24-3.54-5.64-7.91.18-1.35.16-2-1.3-2.64-2.22-1-3.37-3.22-4.32-5.45-14.62-34.34-25.2-69.83-30.4-106.86-1.47-10.46-2.86-20.93-3.52-31.47-.77-12.07,1.09-23.41,8.76-33.29,5.47-7,6.52-14.76,3.35-23.17a4.69,4.69,0,0,0-4-3.45c-6.8-1.35-13.48-3.1-18.94-7.74a14.37,14.37,0,0,1-3.6-3.66c-1.57-2.94-4-3.93-7-4.16a15.31,15.31,0,0,1-6.49-1.82c-2.2-1.25-3.38-.6-4.76,1.28-9.3,12.69-16.35,26.6-22.44,41-12.69,30.07-20.16,61.52-24.68,93.75C11.44,402.4,9.68,423,8.46,443.68c-.39,6.66-.63,13.35-1.8,20-.15.84-.39,1.67-.57,2.51a2.61,2.61,0,0,1-3,2.34c-1.81-.06-2.31-1.2-2.51-2.76A61.44,61.44,0,0,1,0,455.41Q1.14,426.63,4.38,398a454.86,454.86,0,0,1,13.78-72.95c7.42-26.34,17.17-51.72,32.14-74.83,1.75-2.72,3.67-5.33,5.65-7.89.95-1.25,1.06-2-.22-3.16-13.8-12.86-16-31.67-8.43-48.82a78.71,78.71,0,0,1,17.43-25.07A127.4,127.4,0,0,0,74.54,155c.82-1,1.21-1.79.5-3.11C64,131.29,63.79,109.74,69.72,87.79,77.5,59,93.65,35.49,116,16.06,122.85,10.14,130,4.71,139,2.59c12.08-2.87,24.26-4,36.38,0,1.64.53,3.17.11,4.76-.19,27-5.11,50.78.68,69.73,21.54a79.67,79.67,0,0,1,14.7,24.23C275.31,75,286,102,293,130.21c2.16,8.67,3.75,17.31-.22,25.94-2.47,5.37-6.16,9.84-10.09,14.16s-8.29,8.2-11.79,12.89c-6.35,8.49-6.78,15.45-1.26,24.53,2.69,4.41,5.93,8.49,8.63,12.9,5.61,9.18,8.23,19.13,6.88,30a4.56,4.56,0,0,0,.44,2.81c7.62,14.61,11,30.56,14.26,46.48,10.06,48.91,19.89,97.87,29.83,146.81,1.05,5.17,2.23,10.32,3.36,15.47.09.42.23.84.3,1.26.46,3-1.29,6.61-3.37,7-2.3.46-5.14-1.8-5.78-5.05-2.39-12.14-4.59-24.33-7-36.48q-9.18-46.9-18.46-93.8c-3.73-19-7-38.13-12-56.87A133.11,133.11,0,0,0,281.71,263.19ZM181.55,195.28c-3.44-2.51-7-4.75-9.63-8.09-.59-.75-2.1-1.53-1.12-2.57s1.93.34,2.81.83c2.54,1.41,5,3,7.58,4.33,12.64,6.31,25.56,7.39,38.61,1.41,22-10.1,26.76-31.93,27.35-50.74,0-1.23-.37-1.78-1.69-1.61-6.57.86-12.28-.93-17-6-1.39,7.62-5.4,11.51-11.14,11.07A20.34,20.34,0,0,1,207,139.78c-1.74-1.25-2.33-2.79-1.09-4.7s3-1.74,4.73-.56a26.25,26.25,0,0,0,5.78,3.45,4.43,4.43,0,0,0,5.27-1.17,4.69,4.69,0,0,0,.48-6,12.82,12.82,0,0,0-4-4.15,1.65,1.65,0,0,1-.87-2.18,1.8,1.8,0,0,1,2.38-1.09l4.66,1.5a32,32,0,0,1-1.16-9.55c.1-6.17-2.83-8.16-8.74-6a15.71,15.71,0,0,0-3,1.86c-3.15,2.1-3.28,5.56-4,8.8-1.47,6.7-3.58,13.2-9.2,17.64-13.49,10.66-33.93,4.26-39-12.2-1.26-4.08-1.48-8.4-4.37-12-1.51-1.88-2.57-3.82-5.1-4.47a12.29,12.29,0,0,1-3.47-1.65c-3.95-2.5-5.57-1.81-6.07,2.84-.33,3.09-.81,6.17-.34,9.32.2,1.36-.06,2.94-1.58,3.61s-2.44-.38-3.44-1.22c-2.65-2.21-5.32-4.39-8-6.63a8.4,8.4,0,0,0-8.14-1.72c-1.25.33-1.84.82-1.92,2.12-.13,2-.38,4.08-.6,6.11s.29,3,2.55,3.1a13.61,13.61,0,0,1,8.41,3.74c1.52,1.33,3,3.11,1.29,5s-3.56.62-4.92-.93a14.25,14.25,0,0,0-6-4.27c-1.37-.48-1.94-.26-2.1,1.29-.3,3-.86,6-1.19,8.95-.76,6.89-.67,7.5,6.2,6.9,3.7-.32,4.15,1.52,5.15,3.65,5.68,12,12.94,22.88,23.12,31.6a4,4,0,0,1,1.39,1.74c.82,3,3.34,4,5.84,5,2,.8,4,1.6,6,2.33A98.57,98.57,0,0,0,181.55,195.28ZM133.42,454.37c0-.86.05-1.72,0-2.57-1.27-21.41-2.72-42.81-3.79-64.24-1.76-35.44-2.68-70.9-1.93-106.39.09-4.3-.56-7.25-4.74-9.3-2.85-1.39-5.18-3.83-7.78-5.75-.82-.6-1.49-1.61-2.74-1.35a2,2,0,0,0,0,1.88c3.36,9.64,1.66,18.5-4.28,26.58-6.12,8.32-8.1,17.72-7.55,27.79a354.42,354.42,0,0,0,4,36.61,417.49,417.49,0,0,0,21,79.77A96.93,96.93,0,0,0,133.42,454.37ZM144,99.58c6.25-3.85,13.06-4.21,19.75-5.22,5.08-.77,10.35.31,15.22-3a17.19,17.19,0,0,1,13.22-2.83c3.1.67,4.17,2.71,2.67,5.36-1,1.82.06,1.59,1.17,1.89,5.16,1.41,10.52,2.51,13.62,7.63a1.9,1.9,0,0,0,1.72.71c2.37,0,4.74.1,7.11.08.84,0,1.89,0,2.28-.9,1.86-4.53,6-6.39,10.13-8.21-1.59-1.3-3.33-.82-4.88-1.21-2.63-.66-4.17-2-3.43-4.75s3-2.75,5.27-2.24c4.51,1,8.93,2.33,12.83,4.94a3.36,3.36,0,0,0,3.65.18c1.27-.64.9-1.86.83-2.88a28,28,0,0,0-.62-4.46c-2-9.17-4.91-17.92-12.79-23.93-6.21-4.72-13.53-7-20.91-9.05-1.53-.43-2.15.71-2.91,1.55A60.62,60.62,0,0,1,192.75,65.2a113.15,113.15,0,0,1-16.39,7.6,61.23,61.23,0,0,0-28.46,21C146.51,95.63,145.3,97.64,144,99.58ZM246.82,424a4.67,4.67,0,0,0,.46-.93,636.18,636.18,0,0,0,8.92-80.27c.75-17.86-.18-35.58-5.75-52.75-2-6.17-3.45-12.73-10.19-16.08-2-1-2.09-3.23-.32-4.89a2.71,2.71,0,0,0,.85-2.89c-1-4-.2-7.92.73-11.81.25-1.06.62-2-.42-2.94a62.65,62.65,0,0,0-11.48-8.64C240.48,303.05,245.73,363.14,246.82,424ZM184.59,103.33c-4.75-.18-8.8,0-12.76,1.26-9.88,3.21-13.44,12.22-8.51,21.34a26.49,26.49,0,0,0,9.62,10.17A18.61,18.61,0,0,0,195.85,134c6.18-5.75,7.44-13.51,8.57-21.31.18-1.25-.76-1.83-1.51-2.63A20.6,20.6,0,0,0,184.59,103.33Zm49.89.43a8.93,8.93,0,0,1,2.28,13.66A3.55,3.55,0,0,1,233,118.6c-1.78-.68-2.79-2.24-3.56-4-.31-.7.11-2.32-1.55-1.82-1.23.38-1.07,1.56-.92,2.47a58.84,58.84,0,0,0,1.38,7.26c2.17,7.62,8.47,12.18,15.47,11.36,2.1-.24,3.57-.78,3.41-3.53-.56-9.56-.93-19.13-1.28-28.7-.05-1.55-.73-1.79-2-1.67A17.66,17.66,0,0,0,234.48,103.76Z"/><path d="M78.17,312.8c0,9.11,0,18.69,0,28.26,0,3.84-1,7.69.45,11.5.76,2-1.28,3.49-1.35,5.5-.3,8.3-.84,16.58-1.31,24.87-.94,17-2.92,33.9-4.85,50.81-1.33,11.77-2.81,23.52-4.24,35.28a17.91,17.91,0,0,1-.4,2.54c-.94,3.39-3,5-5.72,4.39-2.91-.63-4.56-3.09-4.13-6.34,1-7.57,2.11-15.14,3.08-22.72C61.61,431.94,63.38,417,65.36,402q2.92-22.09,6.21-44.13c.48-3.2.16-5.71-2.08-8.25-3.6-4.11-6.82-8.56-10.2-12.86L60,336l13.21,10.48Q75.79,329,78.17,312.8Z"/><path d="M276.36,337.47c1.32,2.5.65,5.34,1.88,8,3.22-2.21,4.57-5.74,6.54-8.85a14.72,14.72,0,0,1-2.45,8.83c-3.63,5.2-3.12,10.66-2.33,16.39,3.26,23.79,6.32,47.62,9.65,71.4,1.49,10.66,3.46,21.25,5.21,31.88a3.74,3.74,0,0,0,1.94,2.73c3.23,2,4.31,4.95,3.27,7.94a7.13,7.13,0,0,1-6.92,4.83,7.05,7.05,0,0,1-7-5.64c-2-10.9-4-21.82-5.75-32.77a477.7,477.7,0,0,1-5.8-78.6A180.44,180.44,0,0,1,276.36,337.47Z"/><path d="M211.82,168.05a16.66,16.66,0,0,1-11.66-6.72,3.55,3.55,0,0,1,.63-5.41c1.68-1.35,3.52-1.23,5.22.38,6.79,6.43,10.5,6.42,17.3,0,1-.94,1.94-2.29,3.56-1.37,1.84,1,1,2.68.54,4C225.51,164.46,219.65,168.14,211.82,168.05Z"/><path d="M179.82,113a16.76,16.76,0,0,1,.69-5.45c.64-2.6,2.47-3.62,5-3.41s3.11,1.83,3.2,4a18.61,18.61,0,0,1-1.25,8.47c-.89,2-1.91,3.81-4.39,3.41s-3.23-2.5-3.29-4.83C179.81,114.56,179.82,113.91,179.82,113Z"/></g></g></g></svg>