<svg xmlns="http://www.w3.org/2000/svg" viewBox="0 0 356.59 507.17"><title>andrealorusso</title><g id="Livello_2" data-name="Livello 2"><g id="Livello_1-2" data-name="Livello 1"><g id="QbqKKx.tif"><path d="M73.19,372.17c-3.21-2.05-5.58-3.59-8-5.1-1-.6-2-1.44-2.92.05s.28,2.24,1.3,2.64c8.53,3.33,9.85,9.9,9.85,18.32,0,37.83,3.2,75.56,4.4,113.37.09,3.06-.64,4.18-3.81,4.27-14.32.38-28.63,1.12-42.95,1.44-6.34.14-12.62-.73-17.77-5.09a9.79,9.79,0,0,1-2.6-2.7c-3.29-6.53-8.49-12-9.9-19.6A58.81,58.81,0,0,1,.88,460c2.64-17.26,8.53-33.7,13-50.49A148.26,148.26,0,0,0,19,370.08c-.15-19.16,0-38.28,3.41-57.22,5.28-29.75,16.05-57,36.66-79.69a7,7,0,0,0,.61-1c-4.66-2.26-7.84-5.49-7.67-11.1.12-4.23,4.09-7,4.6-10.28.55-3.6-.82-7.61,1.41-11.15a23.93,23.93,0,0,1,13.6-10.42c1.08-.33,2.58-.23,2.25-2.26-.93-5.71,2.48-9,6.9-11.46C89,170.9,98,169.22,107.23,169c12.77-.27,24.76,2.7,35.33,10.21,4.33,3.07,5.43,6.1,4.15,9.82-7.67-7.19-17.45-9.7-27.39-11.39-11.6-2-22.8.3-33.58,4.76-4.59,1.9-4.82,3.54-1,6.68,1.23,1,2.64,1.84,3.05,3.56.8,3.34-1.85,5.52-5.74,4.72-5.56-1.15-13,2-15.88,6.72a2.47,2.47,0,0,0-.46,2.43c.48,0,1,0,1.59,0A4.19,4.19,0,0,1,72.1,210c.6,2.53-.83,4.25-3,5.17S64.66,217,63,218.77c-.88.91-1.78,1.93-1.21,3.32s1.8,1.41,2.91,1.48a35.7,35.7,0,0,0,11.53-1.52c8.83-2.4,17.62-5,26.44-7.38a50.15,50.15,0,0,1,21.46-1c.8.12,1.87,1.14,2.12-.91.16-1.27,1.19-.42,1.61.24,1.07,1.62,2.07,3.29,3.09,4.95A227.5,227.5,0,0,1,156.63,278c.65,2.42,1.6,4.76,2.43,7.13,2.75,7.91,3.33,16.28,5.18,24.38,2.58,11.26,3.91,22.74,5.67,34.27.66-5.75,1.24-11.52,2-17.26,4.53-35.13,10.56-69.95,21.15-103.84a71.69,71.69,0,0,1,6.52-15.1c1.35-2.29,1.12-2.9-1.64-3.12-13.73-1.13-27.28-3.26-40.29-8.06-.91-.34-2-.28-2.75-1.75,11.15.56,21.94,2.36,32.91,3.28-.73-1-1.89-1.11-2.87-1.56-3.95-1.82-7.79-3.82-10.95-6.92-2.19-2.14-3.88-4.91-7.89-4.24-1.67.28-3.53-1.39-5-2.77-4.14-4-8.26-8-11.37-12.84-1-1.55-1.81-2.12-3.79-1.36-4.48,1.72-8.36.31-10.87-3.86-1-1.61-1.77-1.59-3.29-1.06-4.54,1.58-8.1-1.39-6.25-5.76,2.26-5.35,1-8.83-2.15-13.53-6-8.83-7.94-18.94-3.84-29.44a7.18,7.18,0,0,1,1.43-2.71c3.23-2.93,2.31-6,1.44-9.77-5.37-23.25-2.52-45.49,9.44-66.31,1.25-2.17,1.81-3.65.26-6.06-2.67-4.15-1.61-8.13,2.49-10.55a2.65,2.65,0,0,0,1.41-3c-.24-2.78.17-5.33,3-6.69a6.7,6.7,0,0,1,8,1.19c2.14,2.13,3.72,1.71,6.17.48,11-5.55,22.82-7.94,34.89-9.66a134.66,134.66,0,0,1,49.2,1.7c8.73,2,17.4,2.69,26.17,3.53,4.48.43,5.21,1.34,4.59,6.3,2.8-.75,5.51-.74,7.64,1.4a6.76,6.76,0,0,1,1.8,7.26c-.31.94.25,1.21,1,1.34,6.74,1.2,7.15,7.52,4.88,12.45a30.49,30.49,0,0,1-1.69,3c-1.57,2.59-4.55,4.51-3.39,8.35a3.23,3.23,0,0,1-1.54,3.28c-3.17,1.63-2.7,4.15-2.22,6.91.41,2.33,1,4.77-1.06,6.81-.8.8-.1,1.72.15,2.57,7.25,24,8.77,48.58,6.7,73.45a7.16,7.16,0,0,0,.57,3.29c5.56,14.76,3.21,28.33-6.37,40.69-2.83,3.65-4.08,8.11-6.83,11.8-3,4.11-2.92,4.33,2,6,7.89,2.74,15.82,5.34,23.74,8,2,.65,7.79-1.26,9.08-2.83,1-1.2.41-1.74-.69-2.34a4.1,4.1,0,0,1-2.14-4.94c.58-2.35,2.29-3.29,4.58-3.36,1.16,0,2.63-.05,2.82-1.34s-1.37-1.34-2.24-1.74A42.85,42.85,0,0,0,278,190.21c-1.07.22-2.14.71-3.3.25.35-1.2,1.37-1.54,2.32-1.86,10.53-3.54,21.1-4.07,31.58.05,5.57,2.18,6.88,6.38,3.83,11.5a3,3,0,0,0-.47,2.52c1.5,5.83-.88,10.13-5.75,13.08a6.91,6.91,0,0,0-3.36,4.73c-1.15,4.55-2.53,9-4,13.5a3.47,3.47,0,0,0,.71,3.74C316.38,257.47,324.47,281,328.8,306c2.91,16.83,4.23,33.86,5.94,50.83,2,20,6.78,39.44,12.25,58.73,4,14.1,7.66,28.29,9,42.95a75.74,75.74,0,0,1-.17,18.85,7.28,7.28,0,0,0,.33,3c2.06,8.4-2.67,15.18-11.22,15.86q-40.77,3.19-81.55,6.25c-1.94.15-3.88.42-5.82.44-13.08.17-20.24-6.12-21.8-19.15a61.39,61.39,0,0,1-.74-8.53c.06-3.29-2-5.76-2.75-8.72A123.17,123.17,0,0,1,229,442.77a870.24,870.24,0,0,1,.34-89.35q1.43-25.56,3.74-51c1.44-15.83,2.95-31.67,5.24-47.41.37-2.5-.25-3-2.66-2.07A57.11,57.11,0,0,1,201,255.57a27.2,27.2,0,0,1-2.65-.7c-5.2-1.77-5.16-1.77-6.44,3.84a654.57,654.57,0,0,0-12.79,77.44,712.05,712.05,0,0,0-3.48,105.7c.53,12.35,2.23,24.65,2,37,0,1.29.75,2.1,1.29,3.09,2.56,4.6,4.12,9.41,3.06,14.77-.65,3.28-2.56,4.9-5.94,5q-28.53,1-57,2.07c-11.34.43-22.68.84-34,1.43-2.92.16-3.88-.56-4-3.68-1.16-28.74-2.65-57.47-3.78-86.21-.66-16.95-1.22-33.91-.87-50.89,0-.91.06-1.83,0-2.75s.26-2.26-1.28-2.35-1.77,1.24-1.79,2.37C73.15,365,73.19,368.16,73.19,372.17ZM150.1,156.74c-.7-9,.25-17.87,1.57-26.69.18-1.26.25-2.88,1.56-3.09,1.53-.24,1.77,1.52,2.16,2.64a52.5,52.5,0,0,0,8.36,15.29c7.21,9.2,17,15.1,26.64,21.25,2.23,1.42,3,.72,3.74-1.24,3.93-10.47,12.14-16.59,21.76-21.19a56.78,56.78,0,0,1,16.1-4.64c-2-2.1-3.75-4.07-1.25-6.33,2.3-2.09,4.12-.45,6,1a19.16,19.16,0,0,0,4.78,2.64,5,5,0,0,0,6.48-6.73,12.14,12.14,0,0,0-4.43-5.11c-.79-.57-1.89-1.09-1.25-2.43a2.3,2.3,0,0,1,2.61-1.19,8.79,8.79,0,0,1,4.74,1.82c4.72,3.69,5.92,10.62,2.12,15.29-2.05,2.52-1,2.82,1.21,3.66a35.51,35.51,0,0,1,9.19,5.22c5.5,4.25,8.88,10,11.67,16.49,1.86-6.08.59-11.56-1.38-17-.67-1.83-1.73-3.68-1.21-5.63,1.31-4.91,1.3-9.94,1.74-14.94,1.07-12.28.12-24.49-1.38-36.64-1.17-9.51-3.09-18.93-4.28-28.45-.44-3.49-1.86-4.71-5.14-4.69a33.17,33.17,0,0,1-15.8-4c-4.26-2.23-4.48-2.12-4.77,2.86,0,.45,0,.91,0,1.37-.13,4.4-1.68,5.34-5.59,3.34a111,111,0,0,1-15.85-9.59c-2.16-1.62-2.89-.72-3.28,1.42s-.73,4.28-1.24,6.39c-.85,3.46-2.36,4.11-5.38,2.3a36.46,36.46,0,0,1-9.44-7.91c-1.2-1.44-1.87-1.3-2.65.32a23.35,23.35,0,0,1-3.71,6.15c-2.31,2.45-5.21,2.44-7.48,0-.48-.51-.57-1.55-1.91-1.32C181,67.38,174.68,76.08,168,84.54c-2.95,3.73-4.2,3.75-7-.19-2.06,3.77-4,7.53-6.15,11.14a5.54,5.54,0,0,0-.61,4.53c1.12,4.66,2.14,9.34,3.17,14,.56,2.53-.44,4.19-2.86,5.09-5.4,2-7.83,1.17-10.85-3.75-3.64-5.93-7.64-7.13-12.75-3.8a11.39,11.39,0,0,0-4.16,5.33,19.52,19.52,0,0,0-.58,12.48c1.94,7.9,4.52,15.42,14.68,15.93,1.62.09,3.4,1.08,3.4,2.89C144.28,152.4,147.45,154.27,150.1,156.74ZM298.33,219.5c-2.59.59-4.63-.5-6.76-1.34-9.4-3.75-18.05-8.94-26.79-13.94-2.12-1.22-3.68-1.19-5.49.33a18.8,18.8,0,0,1-8.17,4.18c-1.58.34-2.18,1.09-2.22,2.8-.72,30.17-4.7,60.08-7.07,90.11-2.56,32.46-4.5,64.94-4.53,97.51,0,19.5,1.32,39,1.5,58.44,0,5.94,3,10.82,4.25,16.34C245.22,385.7,261.29,300.59,298.33,219.5Zm-89.4,30.11c10.53.45,20.1-2.85,29.55-6.79,1.28-.53,1.3-1.46,1.48-2.41a216.22,216.22,0,0,0,3.26-27.19c.14-2.27-.67-3-2.92-3-9.67.27-19.09-1.44-28.39-3.88-1.88-.49-2.84-.19-3.81,1.59-6.41,11.77-9.82,24.57-13.12,37.43-.45,1.79.15,2.65,2.14,3C201.06,249.09,205,249.92,208.93,249.61Zm28.29-97.88c-3.77.05-7.54-.06-11.28.73-9.06,1.92-16.3,6.41-21.17,14.43-2.76,4.52-2.1,7.74,2.39,10.19a42.65,42.65,0,0,0,15.25,4.72c4.68.59,8-.15,10.64-4.47,1.15-1.9,1.31-2.35-.68-3.38-5.06-2.63-7.34-7-7-12.68.09-1.75.49-3.82,2.35-4.19,2.09-.41,2.3,1.93,2.73,3.26a9.58,9.58,0,0,0,4.35,5.52,4.15,4.15,0,0,0,4.55,0c1.23-.81,1.2-2.11,1.05-3.41-.47-4.26,1-6.78,4-7,3.2-.21,5.94,2.65,6.22,6.44a12.59,12.59,0,0,1-2.59,9c-.53.67-1.82,1.35-.38,2.48,1.7,1.34,3.27,2.86,5,4.2,3.15,2.49,6.24,1.28,9.27-.32,2.77-1.45,4.73-3.74,4.08-6.89-1.31-6.4-3.74-12.42-9.94-15.67C250.14,151.62,243.63,151.77,237.22,151.73Zm74,274.15c1,14.23,1.65,26,2.61,37.77.61,7.52,1.63,15,2.46,22.53.13,1.2.34,2.44,1.89,2.31,1.73-.15,1.33-1.47,1.2-2.62-2.44-20.59-4.21-41.24-4.68-62-.1-4.7-.28-9.4-.42-14.09,0-1-.15-1.94-1.33-2.06-1.4-.13-1.68.94-1.76,2,0,.8,0,1.61,0,2.41C311.24,417.55,311.24,422.94,311.24,425.88Zm-209.46-79c11.9-.39,23.09-4.21,34.45-7.21,1-.26,2.17-.66,1.73-2.05s-1.62-1.21-2.62-.95c-2.87.73-5.71,1.59-8.57,2.38-8.5,2.31-17,4.4-25.9,4.65-2.38.06-3.54-.73-3.83-3.12a45.67,45.67,0,0,1-.2-8.9c.08-1.1-.06-2.23-1.36-2.37s-1.66,1.13-1.78,2.1a31.52,31.52,0,0,0,.09,8.89C94.92,347.07,95,347.06,101.78,346.91Zm2.08,121.54c.63-.45,1.39-.93,2.1-1.48a331.34,331.34,0,0,1,34.49-23.18c1.87-1.11,3.78-2.15,5.68-3.21.86-.48,1.58-1.05,1-2.16s-1.48-1-2.38-.62a17.94,17.94,0,0,0-2.14,1.09,310.65,310.65,0,0,0-38.36,25.4,5.5,5.5,0,0,0-1.66,1.67C102.09,467,102.38,468,103.86,468.45ZM287.67,337.86c7.33.08,13.49-8.62,11.27-15.26a1.77,1.77,0,0,0-1.73-1.38c-.94,0-1.33.67-1.42,1.59-.17,1.82-.29,3.65-.62,5.44-.87,4.65-3.42,6.58-8.19,6.36a20.75,20.75,0,0,1-6.91-1.83c-1-.42-2.13-.62-2.58.7-.37,1.09.52,1.67,1.38,2A28,28,0,0,0,287.67,337.86Zm-.19,108.21c-.13-.3-.2-.91-.51-1.07-4.39-2.31-7.94-5.65-11.41-9.11a1.54,1.54,0,0,0-2.17.32c-.51.61-.25,1.27.21,1.85a32.94,32.94,0,0,0,11.26,9.24C286.16,448,287,447.68,287.48,446.07Z"/><path d="M221.41,89.13a4.89,4.89,0,0,1-4.3,4.72,46.53,46.53,0,0,0-22.57,9.79c-1.21.93-2.83,2.44-4.15,1.19-1.5-1.43-.45-3.49.47-5.06a32.28,32.28,0,0,1,16.08-13.72,28.83,28.83,0,0,1,7.77-2.45A5.79,5.79,0,0,1,221.41,89.13Z"/><path d="M215.5,114.52A50.07,50.07,0,0,1,215,120c-.67,3.88-2.65,6.58-6.42,7.65a9.54,9.54,0,0,1-10.47-3.33,12.3,12.3,0,0,1-2.28-12.24c.61-1.87,1.55-1.81,2.6-.39,1.55,2.1,3,4.29,4.56,6.4.53.73,1.22,1.61,2.21,1.33,1.15-.33.77-1.5.79-2.37,0-1.37-.05-2.74,0-4.12.09-3.79,2.09-6.08,5.15-5.93,2.83.13,4.34,2.15,4.34,5.83C215.51,113.37,215.5,114,215.5,114.52Z"/><path d="M260.21,105.62c-6.58-.43-12.92-1.16-19-3.39-1.44-.53-3.21-1.23-3.05-2.81.18-1.77,2.18-1.79,3.64-1.76,8.15.16,16.17-1,24.2-2.12,3.85-.54,6.28,1.19,6.51,4.26.2,2.69-2.21,4.9-5.64,5.22-1.14.11-2.26.33-3.4.43S261.19,105.57,260.21,105.62Z"/><path d="M252.16,114.72c.17-.71-.66-2.51,1-2.8s1.72,1.5,2.18,2.63c.72,1.78,1.21,3.74,3.1,4.73.85.44,1.75,1.41,2.78.5s.51-1.82.08-2.81a39.11,39.11,0,0,1-1.71-4.44c-.63-2.13,0-3.85,2.15-4.74a3.91,3.91,0,0,1,5.28,1.72,14.38,14.38,0,0,1,1.84,9.54,7.23,7.23,0,0,1-7.77,6.59,9.64,9.64,0,0,1-8.89-8.44A19.47,19.47,0,0,1,252.16,114.72Z"/><path d="M135,116.92c3.48.09,10.71,5.45,11.81,8.49a4,4,0,0,1-1.21,4.61c-1.52,1.34-3.13,1.09-4.64-.13-2.18-1.74-3.54-4.15-5.08-6.4-.87-1.26-1.75-2.45-3.59-1.89-.58.18-1.37.83-1.71-.12a2.75,2.75,0,0,1,.3-1.94A4.75,4.75,0,0,1,135,116.92Z"/></g></g></g></svg>