<svg xmlns="http://www.w3.org/2000/svg" viewBox="0 0 371.5 553.17"><title>andreaminervini</title><g id="Livello_2" data-name="Livello 2"><g id="Livello_1-2" data-name="Livello 1"><g id="CqV3L4.tif"><path d="M11.51,540.75c2-2,4.46-2.8,6.51-4.26.92-.65,1.83-1.35,1.05-2.65s-1.81-1-2.82-.37a23.87,23.87,0,0,0-4,2.45c-2.65,2.31-4,1.1-5.49-1.41-4.47-7.67-5.36-16.19-6.12-24.74-2.1-23.37,1.39-46.3,5.83-69.09,4.94-25.34,9.73-50.72,17.39-75.43.85-2.74.92-6.83,3.12-7.73s4.79,2.49,7.37,3.7c.54.25,1,.65,1.56.92,1.09.55,2.1.59,2.76-.67s-.19-1.84-1-2.36c-2.56-1.6-5.13-3.19-7.75-4.68-1.5-.86-1.89-1.7-1.23-3.49,11.84-31.95,28.7-60.41,56.57-81.15A128.92,128.92,0,0,1,152,244.32a4.4,4.4,0,0,0,3.65-2.16c4-5.45,9.94-8,16.93-10.49-2.82,3.88-6,5.88-9,8a9.09,9.09,0,0,0-4,9.36,175.55,175.55,0,0,1,1.27,27.5c-.23,8.2-.61,16.4-.92,24.65,1.33.19,2.15-.86,3.11-1.48q11.12-7.17,22.17-14.43c6.08-4,12.48-6.78,20.51-6.32-3.23-3-6.5-6.05-9.69-9.13-7.13-6.89-14.13-13.91-21.38-20.67-3.91-3.65-4.68-7.65-2.75-12.43.5-1.23,1-2.48,1.45-3.71,2.09-5.23,2.92-9.11-2.71-14-9.51-8.21-15.15-19.58-18.52-31.81-.64-2.34-1.17-3.22-4-2.38C134.29,189,121,178.27,121,163.12a25.8,25.8,0,0,1,3.51-13.87,5.32,5.32,0,0,0,.46-4.44c-2.12-9.16-4.39-18.29-5-27.75-.7-11.4,1-22.14,7.5-31.8a4.9,4.9,0,0,0-.25-6.33c-1.12-1.42-2.37-2.74-3.49-4.16-2.84-3.59-3.21-7.43-.83-11a3.34,3.34,0,0,0,.38-3.28c-2.86-9.32,3.4-17.57,13.13-17.08a9,9,0,0,0,7.08-2.56C166.55,20.4,193.58,8.33,223.69,3a181,181,0,0,1,102,10.76,18.91,18.91,0,0,1,5.55,3.36c5.42,4.78,5.43,12-.08,16.69C329.67,35,328,36,326.35,37.14a37.23,37.23,0,0,1,2.73,3.07c1.86,2.59,1.87,5.12-.51,7.48a28,28,0,0,1-10.67,6.65c-1.45.51-2.36,1-2.43,2.92-.34,9-4.85,13.77-13.9,15.16a18,18,0,0,1-1.8.16c-2.17.1-4.59-.38-6.44.44-2.09.91-.56,3.76-1.49,5.59-.54,1.07-.77,2.55-1.91,3-2.8,1-2.23,2.83-1.68,4.85a318.81,318.81,0,0,1,6.67,33c.35,2.16,1,3,3.3,3.11a22.77,22.77,0,0,1,9.45,2.16c3.78,1.88,5.89,8.25,3.83,11.92-.23.4-.6.9-1,1-4.57,1.19-5.56,5.19-7.11,8.81-3.47,8.12-2.69,16.39-1.35,24.81,1.14,7.15,1.93,14.39.82,21.65-1.81,11.78-9.36,19.33-19.05,25.06-8.55,5.05-17.9,8.36-27.16,11.85a122.41,122.41,0,0,1-33.42,7.3c-6,.49-11.85-.3-16.94-3.92-2.91-2.06-4.81-4.7-4.34-8.56.14-1.14.32-2.14,1.48-2.68a2.56,2.56,0,0,1,3.3.71c5.44,8.64,13.79,7.37,21.78,6.12,18.79-2.94,36.45-8.89,52.28-19.88,10.72-7.45,14-17.58,12.43-29.94-.38-3-.82-6-1.16-9-.13-1.12-.29-1.91-1.72-1.44-7.69,2.5-14.42.44-20.7-4.66-.33,1.39-.56,2.52-.86,3.63a11.08,11.08,0,0,1-10.73,8.63c-5.17.14-9.6-2.11-13.47-5.38a3,3,0,0,1-.26-4.53c1.35-1.62,3-2,4.81-.84a42.44,42.44,0,0,0,6.42,4c2.56,1.11,4.85.73,6.59-1.25s1.7-4.09.5-6.4a13.58,13.58,0,0,0-4.12-4.47c-.9-.69-2.32-1.22-1.48-2.81.68-1.31,1.88-1.3,3.14-1.12.81.12,1.63.15,2.59.24-.9-3.82-1.82-7.39-2.54-11-.34-1.7-1.55-2.09-2.83-2.33-2.68-.49-5.25.57-7.88.82-1.49.13-1.34,1.73-1.41,2.95-.87,15.17-9.61,25.58-24.17,28.83-16.25,3.62-29.19-5.69-31.95-23-1.05-6.59-1.84-7.48-8.28-8.24a11.71,11.71,0,0,1-6.48-2.78c-4.59-3.79-10.19-3.27-15.59-3-6.12.35-6.06.5-6.58,8.87-.06.93,1.24,2.63-.19,2.7-2.14.09-4.13,2.39-6.46.4-1.8-1.53-3-4.35-6.25-3.23-3.73,1.28-7.52,2.87-9.21,6.55-2.13,4.62-4.43,9.27-3.05,14.89,1.9,7.77,7.75,12,15.54,10.27,2.07-.45,4-.67,6,.29,1.05.51,2.07,1.17,1.86,2.37-.52,3,1.4,5,2.8,7.2a140.8,140.8,0,0,0,16.68,21.41A44.26,44.26,0,0,0,183,215.51c5.19,3,5.12,5.92,0,8.84a4.19,4.19,0,0,0-2.14,3.51c-.49,3.82-.87,7.65-1.47,11.46-.37,2.29.94,3.58,2.35,4.94Q196.62,258.6,211.48,273c1.3,1.26,2.6,2.54,3.77,3.92a4.08,4.08,0,0,1,.43,5.33,11.82,11.82,0,0,0-2.05,4.64c-.7,3.17-3.3,2.05-5.2.86-3.23-2.05-6.56-2.46-11.13-1.44,6.38,3.26,12.27,4.59,18.31,5.68,4.9.89,9.89.27,14.74,1.4,1.09.26,1.62-.34,2.25-1.25,4.42-6.42,10.57-10.87,17.29-14.57a11.84,11.84,0,0,1,10.49-.64l19.67,8c-6.17-15.57-8.28-31.6-17-45.68-2.42,12.44-8.95,22.31-16.14,31.79a127.78,127.78,0,0,1-13,14.61,9.81,9.81,0,0,1-4.13,2.84,3.72,3.72,0,0,1-4.46-1.43,3.58,3.58,0,0,1,0-4.67,19.32,19.32,0,0,1,3-3.1c12.42-10,21.5-22.81,29.69-36.28,2.46-4,1.89-5.77-2.08-8.3-.48-.31-1.22-.51-1-1.29.28-.94,1.17-.74,1.82-.65,5.29.71,10.07,2.51,13.57,6.79,3,3.71,4.79,8.07,6.29,12.56.42,1.25.76,2.43,2.37,2.87,10.94,3,19.69,9.58,27.66,17.25,16,15.39,24.77,34.87,31.13,55.65,3.49,11.42,6.07,23.1,8.88,34.7.63,2.6,0,3.68-2.54,4.31a57.69,57.69,0,0,0-12.92,4.61c-1.17.62-3.08,1.24-2.1,3.14s2.54.53,3.7,0c4.26-2.06,8.91-3,13.26-4.8,2.38-1,2.37.82,2.62,2.11,2.27,11.85,4.61,23.69,6.67,35.58,4.18,24,7.19,48.25,9.19,72.56,1.6,19.52,2.52,39.08,2.39,58.67,0,1.6-.44,3.07,2.31,3.16,2.22.08,2.76,2.16,1.53,4.11-2.17,3.46-5.19,5.81-9.39,5.95-8.82.31-17.64.41-26.46.71-2.19.07-2.84-.69-3.06-2.85-.78-7.93-1.82-15.83-2.75-23.75-.16-1.37-.31-2.9-2.17-2.61s-1.44,2-1.3,3.22q1.25,10.8,2.59,21.58c.55,4.41.59,4.43-3.81,4.45q-97,.51-194,0c-11.72,0-23.45-.14-35.17.08-3.12,0-4.14-1-4.55-3.9-2-13.76-3.77-27.53-3.89-41.46,0-1.33,0-2.66-.1-4a1.73,1.73,0,0,0-1.89-1.77c-1.22.05-1.57.92-1.55,2,.09,4.35,0,8.72.3,13a301.65,301.65,0,0,0,3.85,33.1c.34,1.93.2,3-2.15,2.88-14.36-.59-28.73,1.39-43.1,0-10-.94-19.6-2.93-27.79-9.2C13.43,542.69,12.53,541.7,11.51,540.75ZM154.65,117.52c-.21,3.28.56,6.51.61,9.76,0,1.93.72,2.41,2.62,2.29,5.65-.38,11.29-1,17-.95a18.11,18.11,0,0,0,7.42-1.17c11.72-5.28,24.11-5.84,36.56-5.07,8.53.53,17,2.12,23.74,8.28a4.8,4.8,0,0,0,2.66.94A25,25,0,0,0,258,130c7.73-3.29,15.16-7.47,23.89-7.79,4.62-.17,4.7-.6,4.08-5.13-2.07-15.27-4.11-30.56-4.82-46-.09-2.07-.47-2.57-2.71-2.29-9.08,1.18-18.18,2.52-27.31,3a258.4,258.4,0,0,1-74.63-7.33c-3.32-.82-4.61.3-5.81,2.92-3.29,7.17-2.38,14.19,0,21.45,3.59,11,.55,16.22-10.57,19.42-5.53,1.59-5.53,1.59-5.48,7.45ZM218,144.13c1.06-3-.84-3.24-3.55-3.43A90,90,0,0,1,202.68,139a3.34,3.34,0,0,0-3.5,1c-3.92,3.88-2.58,8.14-1,12.42,3.64,9.91,10.83,17.79,23,15.53,11.66-2.16,20.94-12.46,20.73-23.47,0-2.48-.19-4.41-3.61-3.26a13.75,13.75,0,0,1-4.68.25c-2-.06-3.26.41-3.79,2.78a11.81,11.81,0,0,1-4.41,6.48c-2.43,1.95-5.15,1.4-6.66-1.3C217.92,147.89,217.93,146.21,218,144.13Zm51.48-3.65c-.44.35-.71.45-.79.63-2.31,5.51-3.16,11.23,1.06,16,5,5.58,11.41,8.42,19.12,7,2-.38,2.59-1.9,2.35-3.84-1-8.73-2-17.47-3.13-26.18-.73-5.37-1.45-5.67-6.7-4l-.68.23c-1.93.63-2.69,1.39-1.19,3.47,3.3,4.59,3.24,9.57,1,14.66-.95,2.19-2.42,3.67-4.87,3.62s-3.8-1.74-4.87-3.76C269.55,145.87,269.43,143.28,269.48,140.48ZM234.75,292.62a47.93,47.93,0,0,0,24.5-7.77c1.87-1.21,1.51-2.19-.47-2.94a9.82,9.82,0,0,0-7.4,0C245.2,284.38,240,288.39,234.75,292.62Zm-.33-158.51c-9.88-2.62-19.68-3-29.16,1.57C215,136.1,224.7,135.18,234.42,134.11ZM198.11,356.79c-.51.37-1.14.61-1.4,1.06-.66,1.15,0,2,.84,2.82,4.06,3.82,8.79,6.7,13.52,9.56,1,.61,2.35,1.92,3.39.14.93-1.59-.47-2.38-1.59-3.09-4.56-2.91-9.18-5.74-13.16-9.46A10.83,10.83,0,0,0,198.11,356.79ZM95.47,353.58a1.46,1.46,0,0,0-.75-1.61c-1.33-.69-2.29.07-3.13,1-2.66,2.94-5.23,6-8.79,7.91-1.41.74-3.41.91-2.28,3,.87,1.6,2.59.76,3.81.07A38.31,38.31,0,0,0,95,354.4,5.5,5.5,0,0,0,95.47,353.58Zm117.29,174c.6-.11,1.78-.12,1.94-1.58s-1-1.66-2.13-1.85a41,41,0,0,0-14,0c-1.11.2-2.25.36-2,1.91s1.33,1.63,2.45,1.45A44.39,44.39,0,0,1,212.76,527.57ZM35.32,458.11A3.15,3.15,0,0,0,36,458c4.31-2.16,8.63-4.31,12.9-6.54a1.36,1.36,0,0,0,.66-2.11,1.81,1.81,0,0,0-2.5-.75q-6.32,3.12-12.61,6.3c-.68.34-1.21.87-1,1.73A2.14,2.14,0,0,0,35.32,458.11Zm246.86-111.9c4.62-1.21,9.32-2.31,13.16-5.46.66-.54,1.38-1.12.84-2.1a1.66,1.66,0,0,0-2.45-.79c-3.68,2.7-8.05,3.64-12.25,5-.88.29-1.6.7-1.44,1.74S281.13,346.09,282.18,346.21ZM109.3,276.58c-.92.26-1.67.35-1.87,1.24a2,2,0,0,0,.94,2.16c3.2,2.37,6.21,5,9.71,6.92,1.08.59,2.18,1.27,3.07-.27s-.29-2.12-1.29-2.81c-2.77-1.93-5.51-3.89-8.28-5.81C110.8,277.47,110,277,109.3,276.58Zm125.05,46c-.17-.28-.3-.88-.65-1a52.83,52.83,0,0,0-12.41-4.56,1.68,1.68,0,0,0-2.09,1.49c-.17,1,.57,1.53,1.38,1.83q5.55,2,11.14,4C233.1,324.71,234,324.27,234.35,322.54ZM147.06,491.1c1.2-.09,2.41-.15,3.61-.26s2.29-.3,2.2-1.8-1.09-1.78-2.3-1.68a27.12,27.12,0,0,1-10-.93c-1.15-.34-2.22-.22-2.65,1.08-.47,1.46.61,1.9,1.7,2.24A28.61,28.61,0,0,0,147.06,491.1Zm38.4-58.79c-.33-1.13-1.14-2.05-2.32-1.24-3.08,2.1-6,4.39-9,6.69a1.54,1.54,0,0,0-.26,2.26c.74,1.06,1.61.93,2.48.29q4.08-3,8.1-6.08A2.08,2.08,0,0,0,185.46,432.31ZM117,401.93c-.51-1.74-1.6-1.75-3.07-1.12-2.8,1.21-5.06,3.23-7.57,4.87-1,.68-1.57,1.65-.85,2.75s1.83.73,2.82.09c2.43-1.56,4.86-3.11,7.32-4.61A2.26,2.26,0,0,0,117,401.93ZM286.11,524.4a1.67,1.67,0,0,0-1.5.81,1.46,1.46,0,0,0,.22,2,40.82,40.82,0,0,1,5.28,6.3A1.3,1.3,0,0,0,292,534a1.86,1.86,0,0,0,1-1.38C293.2,530.91,287.8,524.41,286.11,524.4Zm22-71.85c-1.54,0-2.74-.19-3,1.25-.2,1,.06,2,1.28,2.15a23.21,23.21,0,0,1,7.16,2.08c1.06.45,1.84-.29,2.26-1.24s-.27-1.6-1-2A25.43,25.43,0,0,0,308.13,452.55Zm18.61-45.66c-1,.16-2.69-.51-3.18,1.49-.28,1.12.28,1.84,1.48,2,2.37.28,4.74.58,7.12.82a1.71,1.71,0,0,0,2-1.16c.34-1.17-.46-1.82-1.42-2.14A17.44,17.44,0,0,0,326.74,406.89Zm-51.32,60.88c.9,0,2,.14,2.25-1.13a1.66,1.66,0,0,0-1.35-2.17,9.48,9.48,0,0,1-5.34-2.68,1.61,1.61,0,0,0-2.52.1c-.81.92-.42,1.82.31,2.53A11.6,11.6,0,0,0,275.42,467.77Zm-23.81-70.52c2.09-1.12,4.54-2.1,6.33-4.07.28-.3.16-1.18-.06-1.65a1.51,1.51,0,0,0-1.86-.67c-2.33.69-4.13,2.31-6.09,3.63a1.3,1.3,0,0,0-.24,1.64A1.83,1.83,0,0,0,251.61,397.25ZM297.2,134l1.82,13.5C300.52,142.71,302.37,137.93,297.2,134Z"/><path d="M144.19,154.45c5.14.45,9.81,1.44,13.42,5.13,2,2,2.42,4.1.43,6.36s-4,1.86-6,.07a20.17,20.17,0,0,0-15.46-5.72c-.82.05-1.85.17-2.16-.85s.66-1.47,1.3-2A15.07,15.07,0,0,1,144.19,154.45Z"/><path d="M253.72,213.54a22.57,22.57,0,0,1-12.16-2.83c-1-.57-2.23-1.33-1.9-2.76s1.79-1.32,2.68-1.37a123.68,123.68,0,0,0,15-2.25c2.64-.47,5.32.32,6,3.34s-1.63,4.62-4.18,5.35A27.94,27.94,0,0,1,253.72,213.54Z"/><path d="M266,100.4c7.14,0,13.09,3.48,14.64,8.49.75,2.43.76,5-1.86,6.36s-4.87.41-6.56-2c-3.49-4.93-9.25-5-12.84-.17a20.14,20.14,0,0,0-2.5,5.58c-.35,1-.66,2.26-2,2.27s-1.8-1.11-2.34-2c-2.76-4.81.07-13,5.64-16.29C260.67,101.13,263.33,100,266,100.4Z"/></g></g></g></svg>