<svg xmlns="http://www.w3.org/2000/svg" viewBox="0 0 369.48 569.15"><title>ariannapilastro</title><g id="Livello_2" data-name="Livello 2"><g id="Livello_1-2" data-name="Livello 1"><g id="XIXl7i.tif"><path d="M352,347.72c1.62,11.29,3.31,22.21,4.74,33.15,2.25,17.15,3.78,34.38,5.12,51.62q2.66,34,5,68.1c1.07,16.12,1.79,32.26,2.64,48.39a17,17,0,0,1-.06,2.67c-.43,4.31-2.61,6.71-5.93,6.59s-6.29-3.14-6.51-6.84q-.85-14.28-1.5-28.56c-1.08-23-2-46-3.22-68.93-1.11-20.56-2.05-41.12-3.12-61.68-.72-13.74-.26-27.46-.74-41.38-1.67,0-2.44,1.32-3.33,2.24-4.27,4.36-8.47,8.79-12.7,13.2-3.37,3.5-3.86,3.68-8.37,3.1,0,11.08-.18,22.13,0,33.18q.42,20,1.43,40c.77,14.71,2,29.38,3.47,44,1.43,14.4,3,28.77,4.88,43.11.8,6.16,1.6,12.33,2.59,18.46.88,5.44-.38,6.22-4.45,10-4.73,4.38-9.87,3.82-15.25,4-41.59,1.16-83.17,2.45-124.76,3.5-35.36.89-70.7,2.66-106.08,1.81-2.16-.05-4.3-.42-6.46-.57-2.49-.18-4.8-.47-7.13,1.41-2.51,2-6.56.25-7.78-2.94a8.93,8.93,0,0,1-.54-3c-.33-14.88-.36-29.77.15-44.65.32-9,.76-18,1.14-27.05C66,473,67.3,455.42,68.9,437.84c1.42-15.55,3.06-31,6.32-46.34a7.12,7.12,0,0,0-1.46-6C59.53,365.14,41.67,348.46,21.6,334c-2.87-2.07-4.08-1.63-4.66,1.9-.47,2.87-.54,5.82-.73,8.73q-1.89,28.71-3.72,57.42c-.38,6-.58,11.94-.85,17.91-1.16,26.07-.62,52.15.07,78.22.38,14.47,1.38,28.94,2.22,43.4a12.26,12.26,0,0,1-3.15,8.71c-1.61,2-3.39,2-5-.07a17.51,17.51,0,0,1-3.83-10.1Q-1,495,.53,449.72c1.17-34.07,3-68.09,8.4-101.82.34-2.13.69-4.27,1.22-6.36.86-3.36,1.17-6-2.1-8.9a9.11,9.11,0,0,1-1.6-11.52,125.38,125.38,0,0,1,18.34-23.81,171.07,171.07,0,0,1,27.54-22.89c1.39-.94,3.08-1.5,1.72-4.06-9.65-18.21-6.53-35.84,2.72-53.14A93.66,93.66,0,0,1,74.1,194.59a151.29,151.29,0,0,0,11.3-11.9c1-1.18,1.42-2.11.58-3.66-13-24.27-13.26-49.69-6.27-75.57,9.18-34,28.24-61.66,54.63-84.6,9.24-8,19.11-14.85,31.48-16.94,12.86-2.18,25.75-3.28,38.46,1,1.93.65,3.74.12,5.61-.24,31.89-6,59.89.82,82.23,25.43a94.21,94.21,0,0,1,17.33,28.58c12.73,31.74,25.33,63.52,33.6,96.81,2.55,10.24,4.4,20.42-.28,30.59-2.92,6.33-7.28,11.61-11.92,16.7s-9.78,9.67-13.9,15.2c-7.47,10-8,18.23-1.44,28.93,3.11,5.1,6.73,9.88,10,14.89a52,52,0,0,1,8.1,22.38,5.68,5.68,0,0,0,2,3.53c11.62,11.3,19.89,25,28.16,38.77a6.85,6.85,0,0,1,1,5.47c-1.4,5.27-2.69,10.59-4.93,15.6C357.89,349.94,356.28,350.39,352,347.72ZM288.92,159.13c.45-7.43-.4-15.69-.88-23.92-.69-11.79.13-23.7-2.19-35.35-2.22-11.14-5.93-21.66-15.66-28.71-6.79-4.92-14.62-7.55-22.61-9.82a4.14,4.14,0,0,0-4.93,1.4,67,67,0,0,1-17.22,13.74c-8.07,4.65-16.7,8.07-25.26,11.62C186,94,175.46,104,167.69,117a36.51,36.51,0,0,0-5.27,23c.2,1.89.26,4.05-1.72,5.1s-3.3-.6-4.65-1.72c-3-2.51-6.08-5-9.09-7.57s-6.1-2.82-9.64-1.84c-1.1.31-1.89.67-2,1.91-.25,2.78-.5,5.56-.78,8.34-.21,2.12.76,2.93,2.85,3a16.4,16.4,0,0,1,10.25,4.58c1.76,1.58,3.36,3.73,1.21,5.89-2,2-4,.58-5.55-1.15a17.12,17.12,0,0,0-6.64-5c-1.62-.63-2.83-1-3,1.57-.24,3.41-1,6.78-1.36,10.18-.93,8.08-.83,8.91,7.17,8.21,4.66-.41,5.1,2.06,6.31,4.59,6.67,14.06,15.18,26.74,27.06,37a7.41,7.41,0,0,1,1.89,2.36c4.39,9.32,8.27,18.81,9.49,29.18,1.41,12.09,3,24.17,4.35,36.27.25,2.22,1,3,3.22,3.22a151.72,151.72,0,0,0,25.84.53,153,153,0,0,0,38.13-6.56c2.76-.87,2.35-1.69,1-3.6-3.24-4.74-6-9.79-6.92-15.54a15.79,15.79,0,0,0-4.78-9.18,21.52,21.52,0,0,1-5.6-10.27c-.79-3.28-2.43-3.94-5.55-4-12.54-.32-23.6-4.52-32.57-13.51-1.15-1.16-3.6-2.77-2.49-4.14,1.35-1.65,3.11.71,4.48,1.57,8,5,16.3,9.06,25.68,10.15,27.54,3.21,49.22-13.57,56.19-38.28A106.88,106.88,0,0,0,288.92,159.13ZM255.76,369.47c-5.07.34-9.08.75-13.09.85-3.72.09-5.87-2.61-4-5.24,5.53-7.93,8.8-17.23,15.23-24.6,2.93-3.37,5.6-7,8.45-10.57-2.33,0-4.23.06-6.12,0-17.78-.65-35.57-1.29-53.35-2-1.69-.07-2.72.06-3.44,1.92-5.7,14.84-12.8,29-19.69,43.35L170,393.4c-.39.82-.95,1.78-.44,2.51s1.63.29,2.49.11c3.71-.82,7.41-1.77,11.16-2.42A116.32,116.32,0,0,1,205,391.67c0,.6.09.89,0,1.07-.65,1.09-1.3,2.18-2,3.23a231.6,231.6,0,0,0-23.51,43.93c-.4,1-1.36,2.08-.34,3.18s2,.3,3.13,0c11.06-3.4,22.31-6,33.61-8.42,1.72-.36,3.63-.79,4.95.92s.18,3.33-.64,4.91q-10.8,21-21.58,42c-.81,1.57-1.5,3.19-2.24,4.79,5.24-5.72,9.91-11.74,14.61-17.74,15.25-19.4,30-39.17,43.29-60,.63-1,2.08-2.05,1.08-3.31-.8-1-2.2-.1-3.24.15-7.27,1.76-14.52,3.64-21.78,5.46-1.51.38-3.19.77-4.16-.8s.42-2.6,1.25-3.68C236.76,395.2,244.93,382.12,255.76,369.47ZM249.18,240.7c.58-2.43,1.06-4.46,1.57-6.62C245.71,234.89,245.71,234.89,249.18,240.7Z"/><path d="M230.83,142.17c-2.61-.45-5.22-1.08-7.85-1.31-6.36-.57-12.22,1.58-18.09,3.59a22.12,22.12,0,0,1-3.66,1c-.83.14-1.86.27-2.29-.81s.37-1.5,1.08-2.12c3.11-2.69,6.81-4.33,10.52-5.93,1.65-.71,2.29-1.43,2.34-3.49.12-5.05,3.3-7.67,7.07-6.49,1.72.54,3.15,1.6,3.4,3.26.5,3.25,2.73,4,5.34,4.25a8.3,8.3,0,0,1,4.76,2.14,3.39,3.39,0,0,1,.79,4.16A3,3,0,0,1,230.83,142.17Z"/><path d="M195.83,123.48c.63-5.09,3.75-8.69,7.94-11.33a39.32,39.32,0,0,1,15.56-5.57c3.77-.54,6.67,1.06,7.15,3.89s-1.59,5.52-5.33,6.19c-4.58.83-9.25.92-13.57,3.12a27.75,27.75,0,0,0-8,5.72,2.3,2.3,0,0,1-2.73.76C195.83,125.75,195.86,124.63,195.83,123.48Z"/><path d="M250.9,193.93c-5.92-.39-11.23-4.57-12.14-9.75-.25-1.41-.71-3.21,1.09-4.05s2.72.3,3.8,1.58c5.43,6.43,9.58,5.74,13-2.09,1.1-2.56,3-4,5.7-3.16,2.85.83,3.81,3.19,3.32,6C264.54,188.77,257.3,194.36,250.9,193.93Z"/><path d="M254.59,167.41A35.8,35.8,0,0,1,243.8,165c-2.09-.83-3.53-2.39-2.52-4.73s3-2.32,5.17-1.5c3,1.13,5.85,2.41,9.12,2.35,2.05,0,3.9-.5,4.8-2.41,1-2.08.06-3.95-1.37-5.55-1.66-1.85-3.93-2.75-6.12-3.72-1.11-.49-2.21-1-2-2.39.27-1.64,1.71-1.69,3-1.59,4.45.33,8.53,1.59,11.06,5.61,2.21,3.52,2.82,7.34.67,11.12C263.17,166.42,258.84,167,254.59,167.41Z"/><path d="M268.27,105.48c6.76.39,12.4,2.66,16.71,7.94,1.91,2.34,2.35,4.63.16,6.69-2.39,2.25-5,1.62-6.92-.83a20.25,20.25,0,0,0-13.08-7.66c-.84-.14-1.68-.65-2.57-.09s-1.78.66-2.32-.31a2.61,2.61,0,0,1,.5-3.14C262.8,105.61,265.81,106.13,268.27,105.48Z"/><path d="M271.46,125.76a6,6,0,0,1,5.42,3.56,6.93,6.93,0,0,0,5,4,7.52,7.52,0,0,1,2.91,1.71c1.67,1.45,2,3.25.56,5s-3.11,1.58-4.91.11c-4.44-3.61-9.09-1.41-13.65-.2-1.14.31-2.33,1.63-3.2-.16a2.32,2.32,0,0,1,1.25-3.19c3.3-1.36,5.05-3,3.72-7C267.93,127.67,269.55,126.07,271.46,125.76Z"/></g></g></g></svg>