<svg xmlns="http://www.w3.org/2000/svg" viewBox="0 0 417.21 575.81"><title>carlottabrondi</title><g id="Livello_2" data-name="Livello 2"><g id="Livello_1-2" data-name="Livello 1"><g id="_1MLkN2.tif" data-name="1MLkN2.tif"><path d="M287.24,222c7.25,4.19,14.84,4.9,22.61,4.95,2,0,5.18-1.13,5.43,2.1.22,2.85-3,3.05-5,3.4-7.06,1.23-13.78-.24-20.09-3.53-2.3-1.2-4.49-2.63-7.16-4.22,2.58,6.53,2.1,13.7,6.9,19.05a1.47,1.47,0,0,1,.39,1.08c-1,5.5,3,4.53,6.12,5,18.32,2.5,35.73,6.94,48.21,22.21,7.82,9.58,11.75,20.91,14.73,32.6,15.05,59,28.51,118.35,42.41,177.6q7.29,31.1,14.7,62.16c2.2,9.22-.63,13.64-10.07,15s-18.62,2.68-28,3.74a33.4,33.4,0,0,1-19.7-3.58c-.31,2-.52,3.62-.83,5.25-1,5.19-4.45,7.3-9.41,5.48-1.79-.66-3.35-.08-5,0-74.57,2-149.13,3.57-223.73,2.46-9.54-.14-19-1.55-28.46-2.21-2.23-.16-2.59-1.93-3-3.59-1.14-4.83-2.22-9.67-3.47-15.11-2.41,3.64-3.58,7.31-5,10.83-3,7.36-6.49,9.38-14.35,8.11C49,568.06,33,570.27,17,574.63a38.5,38.5,0,0,1-4.59,1C6.2,576.56,1.29,573,.37,566.75A34.87,34.87,0,0,1,0,560.88c.63-30.75,1-61.51,2-92.25,1.19-36.11,3.91-72.07,13.24-107.2,13.65-51.35,44.65-88.49,91.86-112.32,17.23-8.69,35.45-14.5,54.29-18.69,5.55-1.23,10.49-2.9,15.63.76,1.33.95,3.27.84,5,.59,1.32-.2,2.16-.74,1.89-2.34-1.61-9.53-1.86-19.26-3.95-28.71a87.72,87.72,0,0,0-13.66-30.6c-1-1.51-2.15-3-3.14-4.51-.5-.79-1.73-1.67-.54-2.68.89-.75,1.72.21,2.42.69a46.12,46.12,0,0,1,11.49,11.15,77.91,77.91,0,0,1,14.94,37.82c.29,2.66,2,3.21,3.8,3.77,5.76,1.76,11.78,2.22,17.67,3.35,2.54.48,5.11.8,8.15,1.27a36.23,36.23,0,0,1-10.25-11.87c-.49-1-1.69-2.21-.35-3.09,1-.66,1.79.69,2.55,1.36,18.21,16.16,39.23,18.25,61.54,11.5,10.85-3.28,17.63-12,23.05-21.44,9.33-16.32,14.47-34.05,16.65-52.66.23-1.91,1.17-3.77.53-6.18-6.87,11.11-17.35,10.15-27.9,8.78-.07.29-.24.6-.16.72,4.86,6.53,3.71,9.88-4.06,12a30.8,30.8,0,0,1-13.54.28c-3.41-.58-4.94-2.92-4.26-5.84s3.14-4.12,6.5-3.12a24.76,24.76,0,0,0,9.45.62c-2-3.64-3.58-7.19-5.74-10.36-6.25-9.15-5.4-22.23,1.73-30.82,6.19-7.45,13.48-11.08,23-8,7.25,2.37,11.89,7.71,14.93,14.55.16.34.3.7.48,1,0,.07.23.07.57.15-.07-10.27-1.89-20.21-4.31-30.08-.52-2.15-.85-4.35-1.26-6.53-.19-1-.41-2.28.88-2.65s1.56.94,2,1.87c4.64,9.84,6.22,20.45,7.7,31.07,1.9,13.53,2.55,27.08.21,40.65a7.94,7.94,0,0,0,.1,3.5c4.24,14.13,8.06,28.42,16,41.11,2.39,3.8,5.46,7,8.18,10.52a20.59,20.59,0,0,1,2,2.94c.93,1.73,2.14,3.71.19,5.33s-4.34,1.64-6.71.94c-.34-.1-.91-.52-.87-.63,1.32-4.29-3-5.35-4.68-7.77-8-11.66-12.46-24.64-15.35-38.3-.29-1.4-.61-2.8-1.08-5C312.54,187.23,305.25,207.56,287.24,222Zm20.81-93.92a20.36,20.36,0,0,0-3.48-11.39c-3.59-5.1-9.54-7.52-14.57-5.91a17,17,0,0,0-12,15.39c-.3,6.63,2.87,11.32,8.76,12.45a55.34,55.34,0,0,0,9.7.94C304.17,139.65,308,135.73,308.05,128.07Z"/><path d="M173.8,14.11c-.22,2.47-1.47,2.89-2.32,3.59-29.79,24.74-47,56.89-55.37,94.19-5.87,26.3-5.62,52.94-3.49,79.64a85.54,85.54,0,0,1-.36,20.35c-.39,2.44-1.14,4.62-4.29,2.87-1.19-.66-1.61,0-2.19.77-1.6,2-3.24,4.06-5.16,6.46,3.14.41,6.07.76,8.42,2.72,1.42,1.19,2.71-.23,4.08-.33s2.67-.61,3.49.84,0,2.75-1.06,3.83a16.43,16.43,0,0,1-4.82,3.33c-1.73.83-3.52.76-4.54-.9-1.81-3-4.35-2.86-7.19-2.29a32.37,32.37,0,0,1-8.14,1.08c-1.89-.1-3.77-.51-4.38-2.61-.67-2.29,1.06-3.24,2.73-4.12,5.35-2.83,10-6.65,14.75-10.34,1.39-1.08,2.1-2.12,1.52-4-5.79-18.41-5.63-37.44-5.09-56.38.67-23.5,4.55-46.54,13.13-68.59,10.1-26,25.44-47.95,48.91-63.63C165.89,18.32,169.65,16.47,173.8,14.11Z"/><path d="M143.6,144.89c-.27-4.68,4.43-8.42,10.06-8a19.57,19.57,0,0,1,7.48,2.14c1.37.71,2.48.76,3.33-.71,4.32-7.5,11-13.21,15.29-20.83,4.82-8.61,9.09-17.48,10.94-27.12,1.28-6.65,3.5-13.27,3-20.24a6.1,6.1,0,0,1,1.56-5V81.44a179.42,179.42,0,0,0,24-24.81c4.17-5.2,7.41-11.11,12.13-15.89,1.37-1.37,2.68-3.24,5-1.85s1.38,3.37.67,5.24c-3.87,10.22-11.48,17.69-18.87,25.26A89.75,89.75,0,0,1,197,85.55a4.34,4.34,0,0,0-2.34,3.69,100.87,100.87,0,0,1-19.64,46,31.5,31.5,0,0,1-3.75,4c-1.88,1.73-4.77,2.7-2,6.3,1.46,1.86-1.59,5-4.49,4.79a6.28,6.28,0,0,1-3-.84c-2.15-1.42-3.79-2-4.75,1.25a2.08,2.08,0,0,1-2.76,1.55c-1.77-.7-1.81-2.28-1.78-3.94s3-3.28.37-4.73-5.25-1.76-7.61.62A1.7,1.7,0,0,1,143.6,144.89Z"/><path d="M206.76,129.84c1-11.62,5.31-22,17.21-26.35,12.48-4.62,30.59-1.91,39.27,11.86a16.42,16.42,0,0,1,2.12,13.49c-2.81,10.4-7.78,19.12-18.86,22.6-6,1.89-12.14.75-18.22.24a41,41,0,0,1-5.41-.77C211.87,148.51,207.44,142.75,206.76,129.84ZM239.21,108c-16.23,0-22.8,4.94-25.36,17-1.73,8.11.63,15.39,6.28,17.69,6.48,2.64,13.46,3.17,20.34,3,10.31-.33,14.49-8,17.85-16.25,2.18-5.34.59-9.91-3.27-13.94A23.6,23.6,0,0,0,239.21,108Z"/><path d="M207.67,3.55A72.32,72.32,0,0,1,227.72.25c21.11-1,41.93.74,61.11,10.57s30.32,25.54,33.09,47A21.17,21.17,0,0,1,318,73c-.9,1.26-1.82,2.86-3.73,2.13s-2.41-2.32-2.06-4.19c4.2-22.58-10.25-50.12-38.54-60.49C253.21,3,232,1.17,210.42,4,209.55,4.13,208.63,4.47,207.67,3.55Z"/><path d="M274.12,183.42c-10.42-.53-20.89-2.4-30.67-7.11-2.72-1.31-3.56-.75-4.08,2.1a23,23,0,0,1-2.43,6.55,4.29,4.29,0,0,1-6.36,1.81c-2.2-1.26-3.24-3.46-1.84-6a80.93,80.93,0,0,0,7.09-16.91c.21-.77.63-1.6,1.42-1.74,1.11-.19,1.54.85,1.95,1.63a5,5,0,0,1,.92,2.52c-.53,3.92,1.87,4.89,5,5.43,10.39,1.79,20.7,4,31.39,2.67A41.28,41.28,0,0,0,288,171c3.07-1.36,5.62-1.1,7.25,2.14s-.47,5.14-3,6.5C286.69,182.56,280.63,183.24,274.12,183.42Z"/><path d="M162.08,126.94c-2.53,0-5.08-.45-7.39.08a17.43,17.43,0,0,0-13.35,12.54c-1.93,6.38-1.73,12.63,2.95,18.09,2.72,3.18,5.84,4.08,9.78,2.49,2.24-.9,5-2.43,6.5.74s-.43,5.53-3,7.29c-4.92,3.39-13.58,1.82-18.67-3.32C126.24,152,131.86,128.63,149,123,154,121.35,159.79,123,162.08,126.94Z"/><path d="M230,72.32c.15-1.59,1.53-2.31,2.5-3.26,9.18-9.07,16.93-19.14,22.18-31a14,14,0,0,1,3-4.53c1-.91,1.93-1.9,3.4-1.22s1.64,2,1.69,3.29a13.17,13.17,0,0,1-1.44,6C255,55.06,245.52,65.44,232.2,72.19,231.49,72.55,230.81,73,230,72.32Z"/><path d="M247.33,88.77a4.57,4.57,0,0,1-4.43,4.13,51.64,51.64,0,0,0-28.37,11.82c-.88.72-2.17,1.56-3.15.58s0-2.25.52-3.22c4.48-7.65,11.38-12.37,19.35-15.73a34.35,34.35,0,0,1,10.51-2.74A4.83,4.83,0,0,1,247.33,88.77Z"/><path d="M287.65,84.57c8.57.68,16.1,3.71,22.32,9.82,2,2,2.65,4.34.79,6.59s-4.57,2.21-6.63.41a50.8,50.8,0,0,0-24-11.57c-2.25-.45-2-1.58-.57-2.9C281.89,84.78,284.72,84.61,287.65,84.57Z"/><path d="M278.61,71.54c8.61-9.51,12.53-20.31,15.05-31.77a14.56,14.56,0,0,1,1-3,2.41,2.41,0,0,1,2.89-1.44c1.4.29,1.81,1.33,1.73,2.65a29.39,29.39,0,0,1-1.59,7.62A63.65,63.65,0,0,1,281.89,70a10.44,10.44,0,0,1-1.53,1.19A7.86,7.86,0,0,1,278.61,71.54Z"/><path d="M258.26,69.86C262,64.57,266,59.45,268.87,53.59c2.56-5.18,4-10.7,5.5-16.24.47-1.79,1.31-3.32,3.48-2.82s1.75,2.47,1.41,3.87C276.05,51.39,268.51,61.56,258.26,69.86Z"/><path d="M136.35,190.68a143.48,143.48,0,0,1-3.22,24,46.48,46.48,0,0,1-1.5,6.45c-.73,2-.75,5.56-4,4.61-3.5-1-1.85-4-.93-6.21a112.93,112.93,0,0,0,5.84-17.34c.71-2.9,1.4-5.81,2.09-8.71C134.87,192.46,134.85,191.35,136.35,190.68Z"/><path d="M154.65,202.06c.34,6.93-.92,13.73-1.94,20.52-.38,2.51-1.86,4.7-4.8,3.84-3.22-.94-2.56-3.63-1.47-5.78a138.46,138.46,0,0,0,6.94-17.39C153.59,202.67,153.59,201.91,154.65,202.06Z"/><path d="M172.62,213.6c-.13,1.74.24,4.09-.59,6.38-.62,1.71-1.33,3.27-3.5,2.8-2-.43-2.54-2-2.57-3.86s.77-3.53,1.24-5.28,1.45-3.32,1.23-5.24,1.49-2,2.53-2.23c1.27-.23,1.6,1.09,1.64,2.16C172.67,209.89,172.62,211.45,172.62,213.6Z"/><path d="M309.81,214c5.16,1.41,10,3.54,15.41,3.82a2,2,0,0,1,1.93,2.46c-.2,1.29-1.18,1.67-2.31,1.56C318.82,221.27,313.63,219,309.81,214Z"/><path d="M306.16,124.12c-.06,8.65-8.55,15.5-16.07,12.93-2.13-.72-4-1.5-2.17-4.38,1.19-1.82-.69-2.34-1.68-3.3s-2.52-.41-3.32-1.71c-2-3.3.42-10.88,4.57-13.94,3.22-2.38,8.34-1.35,11.16,2.19a3.11,3.11,0,0,0,1.53,1.11C305.13,118.25,306.19,119.47,306.16,124.12Z"/><path d="M229.19,138a4.61,4.61,0,0,0,1.46-6.23c-1.19-2.43-3.72-2.31-5.87-1.5s-2.55-.65-2.85-2c-2-9,3.63-17,11.33-17,3.79,0,7.48-2.34,11.46-.68,2.19.92,5.31,1.22,2.38,4.7a1.3,1.3,0,0,0,0,1.79,2.15,2.15,0,0,0,2.87.47c2.85-2.17,3.26.21,3.82,2,1.6,5.13-.2,9.47-3.42,13.39C244.64,139.86,235.62,142.07,229.19,138Z"/></g></g></g></svg>