<svg xmlns="http://www.w3.org/2000/svg" viewBox="0 0 377.5 559.98"><title>carolinaremia3</title><g id="Livello_2" data-name="Livello 2"><g id="Livello_1-2" data-name="Livello 1"><g id="qfxuPF.tif"><path d="M131,323.92c-5.45-4.38-10.34-8.29-15.21-12.24-4.17-3.38-5.3-6.62-3.38-11.6,7.52-19.55,14.46-39.31,22.67-58.58,1.32-3.09.69-3.7-2.31-3.3-5.74.78-11.59.2-17.29.86-7,.83-13.29,4.39-19.47,7.67-31.44,16.71-51.61,42.83-62.85,76.19C25.55,345.57,21,369,17.25,392.49,10,437.68,9.47,483.27,9,528.87c0,3.39-.07,6.78-.26,10.17-.13,2.3-1,4.37-3.73,4.3-2.58-.07-3.6-1.85-3.78-4.3C-.45,517.33-.22,495.6.81,473.88c.87-18.19,2-36.37,4.18-54.46,4.31-36.05,9.79-71.88,22.37-106.16,12.49-34,35.56-58.35,68.53-73.32,1-.44,2.2-.58,2.88-1.87-6.32-1.19-12.58-2.35-18.83-3.57A66.7,66.7,0,0,1,53.6,223c-8.33-6-11.2-15.13-12.39-24.87a58.93,58.93,0,0,1,2.21-24.58c5.92-19.45,13.64-38,26.48-54.08,4.36-5.46,9.61-10,16.21-12.51,2.26-.87,2.15-2.61,2.34-4.24a112.92,112.92,0,0,1,14-43.39c5.42-9.45,10.73-19,17.09-27.91,9.84-13.75,23.91-21,39.7-25.65,18.77-5.51,37.79-6,57.32-5.61,25.59.52,46.22,11,65.27,26.27,11.28,9,20.62,20.08,23.1,34.71,2.37,14,4.52,28.49-.49,42.45-3.74,10.4-.94,20.21,1,30.24,3,15.52,8.42,30.46,11.38,46,2.61,13.7,3,27.29-3.69,40.06-6.11,11.63-15.85,18.54-28.86,20.67-4.27.69-4.2.6-2.35,4.52,9.19,19.52,18.41,39,27.48,58.6,3.92,8.46,2.86,12.69-4.18,18.92-3.85,3.42-7.69,6.86-11.63,10.17-1.49,1.25-2.07,2.12-.48,3.84a44.79,44.79,0,0,1,9.67,16.84c.59,1.84,1.35,2.3,3.27,1.79,2.66-.69,5.44-.87,8.15-1.39,2.54-.48,4,.75,4.3,3,.35,2.55-1.4,3.61-3.7,3.67-2.51.07-5,0-7.54-.13-1.64-.09-2.36.47-2.05,2.14,3.38,18.38-1.43,35.9-5.64,53.46-8.85,37-16.37,74.2-20.93,112-.7,5.86-1.45,11.71-2.21,17.56a17.5,17.5,0,0,1-.57,2.56c-.73,2.51-2.49,3.94-5,3.53a4.11,4.11,0,0,1-3.59-4.93c.78-6.6,1.58-13.21,2.54-19.78,6.42-43.84,15.32-87.17,25.7-130.23,3.19-13.27,4.34-26.77-.27-40.12-2.38-6.9-5.9-13-11.63-17.68-3.64-3-3.77-5.13-.44-8.43q8.57-8.49,17.43-16.67c1.55-1.42,2-2.56,1.06-4.51-10.21-21.39-20.45-42.78-30.44-64.27-1.7-3.65-4.28-5.22-7.86-6-1.5-.35-2.06-.11-1.9,1.53,1.62,16.92.69,33.91,1.57,50.82.21,4.09.67,7.6-.15,11.89-1.42,7.4-1.12,15.32-.31,22.89.39,3.63-.19,6.92-.25,10.38-.66,38.57-1.14,77.14-1.69,115.71q-.37,26.19-.82,52.39c0,2-.19,3.77,2.08,5.12s1.76,3.79-.13,5-2,2.84-2,4.75q-.06,10.17-.29,20.35c-.06,2.79-.67,5.63-4.16,5.58s-4.39-2.6-4.47-5.76c-.19-7.51-.26-7.47-7.71-7.52-12.81-.09-25.63.39-38.42-.52-1.79-.12-2.6.22-2.24,2.21.27,1.47.23,3,.4,4.5.38,3.29-1.36,5.1-4.33,5.49s-4.46-1.63-4.87-4.19c-.68-4.21-1.07-8.47-1.53-12.71q-4.31-39.67-8.6-79.34c-3.18-29.32-6.5-58.63-9.51-88-3.06-29.85-6.37-59.67-8.63-89.59-.83-11-1.94-22-2.13-33.07,0-1.82-.3-2.39-2.33-1.83a86.94,86.94,0,0,1-11.39,2.38c-3,.39-4.53,1.82-5.71,4.49-5.35,12.19-9.51,24.82-14.24,37.24-2.76,7.26-5.39,14.58-8.29,21.79-1.09,2.69-.59,4.24,1.76,6,5.95,4.42,11.72,9.07,17.44,13.78,4.43,3.66,3.73,6.95-1.76,9q-7.41,2.71-14.86,5.34c-1.86.66-2.71,1.5-2.32,3.85,9.57,58.23,23.59,115.44,39.7,172.15,3.18,11.21,7.08,22.22,10.74,33.29.88,2.68,1.83,5.41-1.72,6.54-3.28,1-4.32-1.61-5.13-4.12-14.25-44-27.78-88.23-37.38-133.56-5.12-24.17-9.84-48.41-14-72.76-1.27-7.36.36-10.29,7.48-12.92ZM259,240.16c-4,3.07-6.31,2.5-7.86-1.91a119.4,119.4,0,0,1-3.43-11.5c-.51-2.11-1.45-2.93-3.57-3-4.14-.06-8.27-.37-12.41-.51a54.22,54.22,0,0,1-24.39-6.82,19,19,0,0,1-5.69-4.87c-.45-.57-1.12-1.23-.58-2s1.35-.35,2.06-.09c2.35.87,4.65,1.89,7,2.59,10.43,3,21.05,2.14,31.73,1.8,14.41-.46,25.3-6,33.53-18.08,8.39-12.28,8.48-25.79,7.1-39.43-.55-5.42-1.07-10.59-.16-16a105.57,105.57,0,0,0,1.29-11.9c.1-1.75,1.07-4.2-.82-5.22-2.2-1.19-4.61,0-6.79,1.06a4.86,4.86,0,0,0-2.37,3.22c-.62,1.81-1.76,3-3.88,2.87s-3.09-1.53-3.75-3.24c-1-2.6.27-4.65,1.84-6.51,3.66-4.32,8.57-4.93,13.71-4.08,2.18.36,2.75-.41,2.85-2.22.12-2.13-.1-4.34.4-6.37.58-2.33-.42-3.15-2.29-3.89a66.66,66.66,0,0,0-13.39-3.5c-2.94-.51-5.09-2.09-4.12-5.43.9-3.08,3.55-3.24,6.17-2.66a44,44,0,0,1,12.69,4.5c2.08,1.21,2.36.33,2.9-1.53,1.76-6,1.46-11.21-4-15.27a11.14,11.14,0,0,1-2.48-3.3c-1.27-2.11-2.26-1.81-3.42.12a16.35,16.35,0,0,1-6.25,5.85c-2.37,1.32-4,.84-5.09-1.72s-2.06-4.84-3.16-7.23c-.95-2-1.93-2.23-3.38-.22A29.39,29.39,0,0,1,246.2,84c-1.63.68-3.37,2.19-5.21.49-1.64-1.51-1-3.49-.7-5.32a37.8,37.8,0,0,0,.21-12.38c-4,2.71-7.69,5.06-11.23,7.59a86.91,86.91,0,0,1-16.19,9.54c-1.56.68-3.11,1.28-4.58.06s-.93-2.92-.35-4.49c.09-.25-.08-.6-.16-1.17-15.94,18.06-35.26,31.21-55.94,42.55-4.32,2.37-4.36,2.28-2.1,6.38.36.66.62,1.37,1,2a2.56,2.56,0,0,1-1.17,3.81c-1.62.9-2.88.22-3.84-1.2a35.55,35.55,0,0,0-3-4.32c-3-3.2-7.41-5.76-12-3.23-6.23,3.44-8.32,9.66-4.55,16.67a36,36,0,0,1,4.7,16.82c.09,5,1,5.76,6,6.11a9.8,9.8,0,0,0,4.39-.83c2.77-1.11,3.89,0,2.64,2.47-1.38,2.76,0,4.41,1.34,6.43,7.51,11.46,17.3,20.83,27.24,30.08,5.14,4.78,6.58,19.56,2.27,25.13a39.66,39.66,0,0,1-5.62,5.52,3.58,3.58,0,0,0-1.37,3.8c1.44,9.66,2.76,19.34,3.88,29,.71,6.18.73,6.76,6.9,7.67,20,3,40.16,4.26,60.35,2.12a45.08,45.08,0,0,0,16.18-4.59c1.16-.6,2-1.18,2.07-2.75C257.82,258.84,258.4,249.7,259,240.16Zm-3.52,101c.16-6.6.17-6.49-6.47-6.27-22.08.75-44.16,1.67-66.23-.05-2.11-.16-3.32,0-2.88,2.73A106.49,106.49,0,0,1,181,348.39c.18,2.8,1.19,3.77,4.2,3.41,21.08-2.51,42.3-3,63.48-3.89C255.27,347.63,255.28,347.71,255.44,341.12ZM218.49,354.9v.94c-8.91-.1-17.8.56-26.71.09-3.11-.16-7.3-1.51-9.07.35-2,2.1,0,6.15.25,9.35.11,1.38.29,2.75.35,4.13.1,2.11,1.16,2.63,3.19,2.46,11.25-1,22.51-1.74,33.76-2.66,9.63-.78,19.26-1.54,28.87-2.57,2-.21,4.23,2.45,5.46.21,1-1.79.4-4.42.51-6.68,0-.62,0-1.26.07-1.88.46-2.83-.4-3.88-3.56-3.82C240.57,355,229.53,354.9,218.49,354.9Zm36,18.53c-8.05,2.24-16.11,2.05-24.07,2.66a322.18,322.18,0,0,1-43.61.78c-1.71-.1-2.6.3-2.36,2.25q.86,6.92,1.5,13.84c.15,1.56.82,1.8,2.22,1.53,11-2.17,22.15-2.72,33.24-3.88,10.46-1.09,20.92-2.62,31.47-2.3,1.66.05,1.61-.54,1.61-1.57C254.47,382.35,254.46,378,254.46,373.43ZM254,401.79c.07-1.51.07-3,.23-4.52.22-2.14,0-3-2.73-2.53a94.35,94.35,0,0,1-12.38,1c-16.55.78-33.07,2.32-49.66,2.13-2.46,0-3,.85-2.72,3.09q.66,4.85,1,9.74c.17,2.49,1.08,3.4,3.76,3.11,17.87-1.91,35.83-2.17,53.76-3.16C253.74,410.15,253.74,410.17,254,401.79Zm-32.6-91.9c9.92,0,19.84,0,29.76,0,5.12,0,4.92,0,5.42-5.07.31-3.25-.89-4.07-3.89-4.16-6.9-.21-13.78-.79-20.67-1.14-18.06-.9-36.12-1.73-54.17-2.67-2.18-.12-2.59.78-2.34,2.62.5,3.73,1,7.47,1.36,11.21.15,1.8.94,1.95,2.45,1.7C193.27,310.09,207.36,310.5,221.41,309.89Zm31.7,134.4c.09-6.49.1-6.39-6.6-6-17.65,1-35.3,2-53,.56-2-.16-2.47.4-2.26,2.2.57,4.85,1.12,9.71,1.6,14.57.19,2,1.41,1.62,2.7,1.47,17-2,34.09-3.89,51.13-5.89C253,450.45,253,450.38,253.11,444.29Zm-34.63-26.06c-8.92,0-17.83.12-26.74-.08-2.57-.06-3,.83-2.72,3,.53,4,1.06,8,1.37,12,.16,2,.88,2.52,2.82,2.12a80.89,80.89,0,0,1,8.17-1.22c14.48-1.48,29-2.45,43.52-3.42,8.95-.59,8.84-.92,8.89-10.2,0-2.36-.58-3-2.95-2.8A260.81,260.81,0,0,1,218.48,418.23Zm37.18-100.81a19.62,19.62,0,0,1-6.58.53c-23.07-.26-46.17.79-69.16-2.14-1.54-.2-2.43.14-2.21,1.94.46,3.86.9,7.72,1.29,11.59.16,1.62,1,2,2.53,1.89,21.87-2.12,43.85-2,65.76-3.4,9.44-.6,9.45-.37,8.61-9.9A2.38,2.38,0,0,0,255.66,317.42Zm-32,142.09H200.31c-6.84,0-6.84,0-6.09,6.64.16,1.49.35,3,.42,4.49.09,2.07,1.09,2.63,3.11,2.61,14.69-.13,29.38,0,44.07-.26,11-.21,10.88-.43,11.1-11.49.06-2.63-.57-3.55-3.31-3.3C241,459,232.32,459.23,223.66,459.51ZM172.86,276.2c.66,5.51,1.38,10.33,1.75,15.18.18,2.33,1.13,2.67,3.11,2.24a73.51,73.51,0,0,1,11.93-1.36c19.19-.89,38.37-.61,57.55.05,3.08.11,7,2.05,9-.13s.54-6.25.93-9.46c0-.13,0-.26,0-.38.19-1.78-.42-2.09-2.17-1.6-21,5.86-42.18,4.55-63.4,1.41A66.87,66.87,0,0,1,172.86,276.2Zm52.77,237.89v-.62c-7.66,0-15.31,0-23,0-1.07,0-3.09-1.1-2.73,1.59.48,3.6,1,7.21,1.43,10.82.21,1.65.86,2.19,2.73,2,12.89-1,25.8-1.79,38.73-2,8.79-.14,8.69-.13,8.75-9,0-2.38-.7-3-3-2.94C241,514.17,233.29,514.09,225.63,514.09ZM225,496.15v.5c-6.39,0-12.78,0-19.17,0-8.68.07-8.63.08-7.09,8.89.28,1.62.61,2.37,2.49,2.28,14.25-.7,28.52-.06,42.78-.08,8.14,0,8,0,8.29-8.18.1-3-1-3.52-3.64-3.47C240.73,496.25,232.84,496.15,225,496.15Zm-24.87-5.42c16.66-1.17,31.32-1.47,46-1.58,6.29,0,6.15,0,6.33-6.42.07-2.83-.71-3.56-3.57-3.5-15,.29-30.09.2-45.11-.84-8.24-.57-8.23-.72-7.27,7.3C197.07,490.86,197.07,490.86,200.08,490.73Z"/><path d="M283,243.52a57.43,57.43,0,0,1,14.61,6.31c18.07,11.12,30.19,27.42,39.43,46,10.28,20.67,16.34,42.83,21.63,65.19a746.19,746.19,0,0,1,16.51,102.08c2,21.15,2.45,42.38,2.33,63.61a12.35,12.35,0,0,1-.69,4c-.73,2-2.49,2.77-4.54,2.53s-3-1.48-3.33-3.49c-.54-3.27.09-6.52,0-9.76-.44-14.81-.8-29.63-1.64-44.42-1.09-19.43-2.88-38.81-5.78-58.05-5.46-36.14-12.48-71.93-26.23-106-10.82-26.81-27.81-49-51.35-66-.48-.35-.9-.77-1.35-1.16Z"/><path d="M73.12,392.79a34.77,34.77,0,0,1,9.85,14c4,9.82,4,20.11,3.42,30.42-.87,17.18-1.86,34.36-2.74,51.54-1.09,21.2-2.1,42.4-3.18,63.6-.25,5-2.43,8-5.48,7.63-2.82-.32-4.31-3.55-4.07-8.26q1.76-34.25,3.41-68.49,1.53-31.62,3-63.23c.39-8.47-.11-16.82-3.81-24.67A13.47,13.47,0,0,1,73.12,392.79Z"/><path d="M324,366c2.73,5.6,2.51,11.17,2.95,16.53,1.89,23.25,3.12,46.56,5.55,69.77,2.74,26.31,6.78,52.44,11.56,78.46a31.42,31.42,0,0,1,.58,3.71c.19,2.83-.71,5-3.86,5.44s-4.83-1.23-5.39-4c-1.19-5.89-2.24-11.82-3.2-17.75q-6.69-41.43-9.62-83.3c-1.33-19.53-2.39-39.09-.86-58.67C321.93,372.91,322,369.52,324,366Z"/><path d="M295,503.49c2.35.17,3.19,1.55,4.22,2.53,9.15,8.68,18.78,16.66,30.34,22a5.18,5.18,0,0,1,2.36,7.31c-1.61,2.63-5.82,3.57-8.16,1.41-4.8-4.42-9.53-9-13.94-13.75C304.41,517.12,298.85,511.28,295,503.49Z"/><path d="M133.43,507.18a33.7,33.7,0,0,1-6.84,9.72c-5.87,6.33-11.74,12.66-17.7,18.91-2.83,3-5.11,3.22-7,1-2.42-2.85-.62-4.72,1.57-6.55,6.82-5.7,13.58-11.46,20.41-17.14A31.14,31.14,0,0,1,133.43,507.18Z"/><path d="M248.74,193.06c-17-.1-27.23-9.14-29-23-.7-5.46.84-7.24,7-7.39,8.29-.19,16.58-.16,24.87-.19,6.28,0,12.56-.05,18.84,0,5.54,0,7.39,2.15,6.79,7.79-1,9-6.44,14.81-14,18.76A35.42,35.42,0,0,1,248.74,193.06Zm-.88-20.13A71.83,71.83,0,0,0,267,169.72c1-.34,3-.25,2.64-2-.33-1.58-2.08-1-3.24-1q-16.12.27-32.23.68c-1.21,0-3.18-.76-3.34,1.3s1.15,3.26,3.22,3.4C238.45,172.43,242.81,172.65,247.86,172.93Z"/><path d="M253.38,158.94a23.36,23.36,0,0,1-12.5-5.3c-1.68-1.34-2.15-3.11-.74-4.95s3.31-2.26,5.28-.89a36.3,36.3,0,0,0,6.68,4.13,5.42,5.42,0,0,0,6.53-1.24c1.76-1.88,1.9-4.2.71-6.61a13.72,13.72,0,0,0-4.52-4.93c-.85-.64-2.11-1.18-1.46-2.64s1.84-1.46,3.18-1.34c4.84.41,9.17,5.13,9.59,10.51C266.69,152.91,261.16,158.9,253.38,158.94Z"/><path d="M192.48,159.81c.09-8.49,8.11-19.76,15.16-21.89,2.45-.73,3.75.23,3.29,2.35-1.14,5.19.08,10.51-1.28,15.68a15.47,15.47,0,0,1-5.68,9c-2.34,1.73-4.77,3.28-7.91,1.76S192.32,162.58,192.48,159.81ZM205,143.29c-4.42,4.54-7.83,9.48-8.22,15.93-.07,1.22-.14,2.64,1.43,3.12a3.11,3.11,0,0,0,3.41-1,20.12,20.12,0,0,0,2-2.67C206.57,153.86,205.19,148.57,205,143.29Z"/><path d="M218,124.36c-4.2.09-7.33,2.32-10.72,3.83-1,.43-2.08,1.46-3,.34-.81-.93.27-1.87.7-2.67,5.48-10.32,18-12.45,25.2-4.28a20.74,20.74,0,0,1,2.18,3.45,3.51,3.51,0,0,1-1,5c-1.71,1.32-3.54,1-5.12-.37a21.7,21.7,0,0,1-2.88-2.95A5.42,5.42,0,0,0,218,124.36Z"/><path d="M224.66,94a7,7,0,0,1,1.09,0c2.68.6,5.44,1.5,5.3,4.79s-2.89,3.88-5.49,3.8c-7.64-.24-14.51,2.1-21,5.89-1.18.69-2.34,1.42-3.52,2.12-.55.33-1.13.62-1.72.16-.84-.65-.34-1.34,0-2a25.39,25.39,0,0,1,5.61-6.52A34.2,34.2,0,0,1,224.66,94Z"/><path d="M135.15,135.32c5.06.3,8.63,2.28,10.72,6.42,1,1.94,1,4.06-1.32,5.11-2.05.92-4,.5-4.88-1.89a9,9,0,0,0-8.08-6.2c-.6-.06-1.35,0-1.53-.76-.24-1,.6-1.32,1.26-1.55C132.72,136,134.16,135.6,135.15,135.32Z"/></g></g></g></svg>