<svg xmlns="http://www.w3.org/2000/svg" viewBox="0 0 356.55 521.3"><title>claudiodemichele3</title><g id="Livello_2" data-name="Livello 2"><g id="Livello_1-2" data-name="Livello 1"><g id="p0kNAN.tif"><path d="M110.18,225.2C92.46,231.35,76.69,240.57,63.27,254c19.17-.35,38.23-1.88,57.67-1.53a81,81,0,0,1-6.15-12.33,40.63,40.63,0,0,1-1.6-6.25c-.83-4.45-.77-4.37,3.61-4.77,21.91-2,37.84-12.22,46.77-33,1.57-3.63.59-4.56-1.71-6.55a63.26,63.26,0,0,1-17.48-23.92c-.5-1.22-.58-2.5-2.62-1.88-12.64,3.89-22.29-5.33-24.31-15.53a32.5,32.5,0,0,1,.69-17.06,7.87,7.87,0,0,0-.24-5.53c-7.73-21.2-8.67-43.17-7.19-65.38a83.27,83.27,0,0,1,3.1-18.79,22.73,22.73,0,0,1,8.12-12,72.18,72.18,0,0,0,10-9.28c6.81-7.45,15.84-11.16,25.23-13.9,31.66-9.25,62.94-8.62,93.8,3.8,11.45,4.6,23.16,8.56,34.75,12.82,3.77,1.39,4.26,2.58,2.65,6.23a62,62,0,0,1-5.05,9.53,2.2,2.2,0,0,0,.05,3.11c3.55,4.52,3.26,9-.61,13.25a8.4,8.4,0,0,1-2.39,2.16c-4.77,2.16-4.39,5.49-3.22,9.88,4.88,18.43,9.6,36.92,12.48,55.8,3.42,22.49,1.35,44.1-10.77,64a63.61,63.61,0,0,1-33.74,27.66c4.43,6.16,10.33,9.56,17.14,11.56a73.2,73.2,0,0,0,13.08,2.35c5.23.55,6.3,2.64,4.81,7.73a83,83,0,0,1-8.12,18.12c4-.26,7.46-.57,11-.72,5.76-.25,11.53-.39,17.29-.58a6.5,6.5,0,0,1,1.08,0c2.49.3,5.61.28,5.69,3.63s-3.07,3.64-5.56,3.69a249.63,249.63,0,0,1-30.19-1.57c-1.43-.15-2.44-.25-3.42,1-4.12,5.38-9.2,9.77-15.26,14.51,22.52-1.9,44.27-1.77,66.61-1.93a109.08,109.08,0,0,0-18.18-28A71.81,71.81,0,0,0,274,225.16a51.24,51.24,0,0,1,20.55,7.57c15.24,9.28,25.4,23,32.65,38.88,13,28.36,21.79,58.14,29,88.41,1.22,5.11-.8,7.46-6.07,7.68-.84,0-1.68,0-2.52.05-4.5.2-4.57.53-4.26,5,2,29.14,3.6,58.29,2.52,87.52q-.9,24.49-1.86,49a25.72,25.72,0,0,1-1.69,9.51c-.62,1.4-1.45,2.53-3.16,2.52-1.86,0-2.82-1.14-3.37-2.74-1.29-3.76-.73-7.62-.5-11.44.58-9.81,1.46-19.62,1.89-29.44,1.47-33.73,1.94-67.49,2.53-101.24l0-1.08c.31-6.64.34-6.54-6.37-4.86-4.89,1.22-9.27,4-14.34,4.59-1.31.16-1.5,1-1.38,2.08,2.45,22.05,3.69,44.2,5.27,66.33,1.52,21.17,3.63,42.32,4.05,63.56a5.76,5.76,0,0,1-.52,3.16,4.63,4.63,0,0,1-4.83,2.44c-2.32-.23-4.12-1.67-4.2-3.8-.15-4-1.72-4.2-5.26-3.53-4.32.81-8.86.51-13.3.63C259.23,507,219.6,508,180,509.18c-24.62.77-49.24.58-73.87.65a158.87,158.87,0,0,1-24.76-1.73c-2.49-.38-2.93.47-3,2.46-.12,2.15-.08,4.35-1,6.36-1,2.16-2.39,4.05-5.06,4-2.51-.09-3.76-1.93-4.49-4.08-1.68-4.93-.72-10-.53-15,.24-6.47.84-12.93,1.11-19.4.82-19.42,2.1-38.81,3.51-58.2.92-12.56,1.55-25.15,2.3-37.72.31-5.27.47-10.56,1-15.81.29-3.09-.84-4.12-3.8-3.73a42,42,0,0,1-5,0c1.93,1.43,3.46,2.43,4.84,3.62s2.1,2.52,1.26,4.44-2.3,1.75-3.91,1.57c-3.57-.4-6.54-2.26-9.62-3.83-11.24-5.69-22.5-11.36-33.67-17.17-2.69-1.4-3.57-.78-3.67,2.09-.35,9.47-1.41,18.88-2.38,28.31-1.16,11.2-2.33,22.41-3.4,33.62-.86,9.07-1.59,18.15-2.38,27.23-1.4,16.16-1.54,32.38-2,48.58-.1,3.83,0,7.68-.2,11.5a5.71,5.71,0,0,1-5.34,5.79c-3.58.43-4.72-2.23-5.54-5A10.9,10.9,0,0,1,0,504.87c-.41-49.69,5.38-98.72,15.8-147.25a5.14,5.14,0,0,1,.21-1.05c1.52-3.42,1.16-5.89-2.21-8.44-4.56-3.45-5.41-8.65-3.74-14a256.26,256.26,0,0,1,20.4-47.93c10-18.14,22.76-33.88,39.84-45.81A83.59,83.59,0,0,1,110.18,225.2Zm229,105.28c-.27,5.75-.89,6.33-6.66,6.13-5.52-.19-11-.29-16.55-.62-2.44-.14-3.2.7-2.85,3.05.69,4.75,1.36,9.5,1.83,14.27.21,2.14,1,2.77,3.15,2.71,9-.25,17.94-.93,27.26-.47-2.12-8.54-4.16-16.78-6.21-25-5-18.26-9.9-36.53-17.84-54.06a5.29,5.29,0,0,1-4.22,2.06c-19.46.24-38.91,1.11-58.37-.08a47.94,47.94,0,0,0-20.82,3C210.45,291.87,183,289,156,278.86c-3.67-1.38-7-2.49-11.23-2.22-16.18,1-32.4,1.19-48.61,1.69-17,.51-34.1,1.1-51.16.51-1.81-.06-3.11.29-4.16,2-3.34,5.56-6.51,11.21-9.45,17-.95,1.85-.65,2.46,1.48,2.55,10.2.43,20.39,1.28,30.6,1.41,45.56.58,91-3.29,136.48-4.6,39.64-1.14,79.27-1.44,118.91-.41a16,16,0,0,1,5.24,1.17c1.17.45,2.19,1.08,2.18,2.54a3,3,0,0,1-2.15,3,17.27,17.27,0,0,1-6.72,1q-18.74-.19-37.48-.35c-33.05-.32-66.09.16-99.11,1.1-31.09.88-62.13,3.24-93.26,2.86-18.76-.23-37.44-1.25-55.76-5.69-2-.5-2.8.21-3.47,1.9-2.13,5.35-4.4,10.64-6.49,16-1.54,3.94-3.27,7.84-4.11,12.27,8.16-1.09,16-2.4,23.82-3.15q40.91-3.94,82-4.4c20.66-.26,41.33-.16,62,0,48.3.25,96.56,2,144.83,3.52C333.44,328.59,336.65,328,339.18,330.48Zm-222.33-97c8.06,13.92,17.72,24.85,30.85,32.07,23.59,13,48.89,16.49,75.19,11.41,21.28-4.12,36.35-16.46,45.22-36.36,1.39-3.13.93-4.14-2.56-4.83-10.9-2.13-20.25-6.8-25.32-17.48-.72-1.52-1.59-1.6-3.14-1.35a61.2,61.2,0,0,1-14,1c-10.56-.76-20.24-3.76-28-11.4-1.17-1.15-3-2.42-1.73-4.23s3-.45,4.47.24c1,.45,1.91,1,2.88,1.48,23.84,11.75,49.22,6.5,66.25-13.8,11.53-13.75,16.37-30,16.82-47.59.32-13-2.4-25.73-5.2-38.37-.93-4.21-1.38-4.44-5.54-2.65-4,1.71-7.78,3.75-11.76,5.4-3.79,1.56-7.69,2.74-11.87,1.36-3.28-1.08-5-3.55-4.49-6.77s2.67-4.86,6.17-4.59a22,22,0,0,0,9.83-1.65c4.26-1.63,8.55-3.21,13.24-1.84,2.16.63,1.78-.64,1.46-2C272.2,77.18,268.41,63,264.37,48.78c-.69-2.44-2.13-3-4.3-2.27a23.66,23.66,0,0,0-8,4.74c-8.2,7.13-16.88,7.31-26.35,2.61-14.07-7-28.84-11.15-44.77-9.8-7.62.65-15.07,2.11-21.35,6.72-10.86,7.95-17.22,18.39-6.78,31.3,3.77,4.66,3.42,6.77-.52,11.45-4.93,5.83-6.09,12.56-5.17,19.88.4,3.21.82,6.43,1,9.65.1,1.54,1.23,3.48-.79,4.59s-2.75-.94-3.93-1.74c-7.12-4.85-14.87-2.19-17.38,6.05a28,28,0,0,0-.61,13.89c1.86,9,7.48,12.11,16.19,9.38,4-1.24,5.36-.35,5.62,3.72a5.29,5.29,0,0,0,.65,2.37c6.09,10.5,13.56,19.81,23.4,27.07a6.53,6.53,0,0,0,3.88,1.68c2,0,3.61,1.06,3.79,3.12a3.79,3.79,0,0,1-3.55,4.26c-2.68.18-3.25,1.82-4.09,3.73-7.12,16.18-19.35,26.55-36.25,31.43C129.42,234.24,123.63,235.06,116.85,233.45Zm88.31,182.39c28.51.28,65.63.43,102.75-.5,2.42-.06,3.67-.25,3.45-3.29q-1.74-23.91-2-47.89c0-2.5-.86-2.93-3.13-2.76-18.56,1.42-37.17,2.14-55.78,2.55-41.92.91-83.84,1.59-125.76,2.35-13.45.25-26.9.49-40.36.64-2,0-2.83.45-2.44,2.66a80.9,80.9,0,0,1,1.21,15.06c0,2.42.9,2.67,3,2.59,34.36-1.19,68.71.34,103.06.89,22,.36,44,.66,65.95.76,15.26.06,30.51-.31,45.77-.4,4.49,0,7.64,1.8,7.54,4s-3.46,4-7.64,4c-47.46.48-94.91-.33-142.35-1.56-11.63-.3-23.28-.8-34.9-1.76-12.44-1-24.87-2-37.23-3.85-2.22-.33-3.19.14-3.2,2.71,0,6.61-.26,13.22-.6,19.82-.11,2.21.41,2.85,2.75,2.76,7.31-.3,14.65-.48,22-.38C137,414.69,166.75,415.22,205.16,415.84Zm109.13,56.55a12.2,12.2,0,0,0,.22-1.75c-.79-14.39-1.62-28.78-2.34-43.18-.09-1.76-.84-2.33-2.4-2.3-3,.07-6,.2-9,.21-40.6.1-81.2.71-121.79-.6-31.31-1-62.68-1.2-93.77-5.79-2.24-.33-2.91.35-3,2.6-.2,8.17-.46,16.34-1,24.49-.19,2.84.55,3.42,3.29,3.35,39.26-.9,78.54-1.66,117.81-2.52q49-1.06,98-2.31c1.72,0,3.47.15,5.08-1.23a4,4,0,0,1,6.09.48c1.73,2.07,1.05,4.32-.63,6.2a6.54,6.54,0,0,1-4.85,2c-4.56.21-9.12.49-13.68.57-30.62.55-61.25,1.15-91.87,1.53q-38.56.47-77.1-1.11c-13.08-.54-26.15-1.2-39.23-1.73-2.19-.09-3.22.3-3.24,2.85-.06,6.48-.39,13-.74,19.44-.12,2.21.49,3,2.8,2.72,5.25-.55,10.52-1,15.8-1.21,40-1.56,79.94-2.81,119.94-3.53,28.7-.52,57.41-.64,86.12-1C308.07,470.53,311.29,470.18,314.29,472.39ZM194.44,357.12v.21c21-.47,42-1.08,63-1.35,16.09-.21,32.19-.05,48.28.1,2.69,0,3.54-.69,3.43-3.43-.19-4.67-.07-9.37.1-14,.08-2.05-.61-2.7-2.62-2.73-5.28-.08-10.56-.42-15.84-.56-23.42-.62-46.83-1.33-70.24-1.76-24.62-.45-49.24-.89-73.86-.85-22.7,0-45.39.66-68.09,1.12-19.81.4-39.62,1-59.43,1.36-2.34.05-2.95,1.12-2.92,3a6.17,6.17,0,0,0,2.65,5.26A49,49,0,0,0,24.77,347c9.34,4.64,18.73,9.19,28.1,13.78a7,7,0,0,0,3.75,1c5.38-.49,10.76-1,16.15-1.33,1.76-.12,2.23-.81,2-2.49-.28-2.49-.38-5-.48-7.53,0-.83.07-1.91,1-2.1s1.39.82,1.81,1.52a18.33,18.33,0,0,1,2.36,6.75c.4,3,1.75,3.68,4.74,3.59C121,359.1,157.7,358.13,194.44,357.12ZM142.73,120.45c-.1-.59-.16-1-.27-1.5-2.78-10.79-2-21,5.41-29.88,1.65-2,.15-3-.77-4.3-8.54-12-8.06-22.26,1.68-33.26,8.8-9.94,20.38-13.52,33.14-14.13A89.54,89.54,0,0,1,228.36,48c6.77,3.55,13,3.25,19.12-1.56a42.94,42.94,0,0,1,6.58-4.37c9.74-5.1,16-2.34,18.78,8.14.3,1.11.1,2.87,1.22,3.19,1.47.42,2.49-1.14,3.48-2.09,2.81-2.68,2.36-4.67-1.22-6.22-2.54-1.09-3.13-2.86-1.47-5.15,2.1-2.92,4.2-5.83,6.11-8.89,1.67-2.68.83-3.5-1.77-4.41q-13.4-4.71-26.67-9.79c-22.83-8.75-46.11-14-70.74-9.79-9.82,1.66-19.56,3.53-29,6.77-13,4.47-20.85,15.38-30.38,24.15-1.62,1.49-2.06,4-2.67,6.23-2,7.22-2.62,14.63-3.13,22-1.3,19.16,1.19,38,4.93,56.88C128.71,116.31,134.35,115.33,142.73,120.45ZM314.9,476.55c-3.72,2.14-3.72,2.17-6.6,2.2-75.07.77-150.15,2.47-225.21-.59-2.33-.1-3.23.57-3.32,2.88-.27,7.44-.59,14.89-1,22.32-.15,2.4.77,3,2.91,2.56,15.06-2.88,30.36-2.72,45.57-3.26,31.94-1.13,63.89-1.63,95.83-2.51,18.49-.52,37-1.43,55.46-1.86,12-.28,24-1.52,36-.91,1.75.09,1.67-.57,1.59-1.82C315.67,489.33,315.31,483.1,314.9,476.55ZM124.44,256.77c-1.08,3.45-3.63,3.67-6.36,3.64-7.93-.08-15.86.11-23.78-.19-11.39-.44-22.83-.19-34.11-2.21-1.63-.29-2.17.6-2.95,1.42a145.92,145.92,0,0,0-12.33,15.49c-.4.56-1.23,1.14-.82,1.84s1.31.16,2,.11c7.9-.56,15.8-1.16,23.71-1.69,21.8-1.46,43.64-2.29,65.48-3.08,1.82-.06,3.63-.38,6.29-.68A75.45,75.45,0,0,1,124.44,256.77ZM329.15,361.15c-4.4,0-7.84,0-11.29,0-.77,0-1.86-.13-1.81,1.13a7.61,7.61,0,0,0,.55,3.45c.6,1,1.38-.26,2.07-.52C321.87,364,325.05,362.75,329.15,361.15Z"/><path d="M185.12,108.49c1.09-3.17,3.78-4.64,6.29-6.09,9-5.22,18.43-7.81,28.72-3.65,4.64,1.87,9.4,1.14,14.13.16,3.91-.81,6.93.8,7.58,4,.75,3.69-1.08,6.51-5,7.4-6.31,1.43-12.84,1.91-18.68-.9-9.33-4.49-18.58-3.19-28-1.28-1.29.26-2.58.51-3.88.7A3.61,3.61,0,0,1,185.12,108.49Z"/><path d="M244.05,146.65c-2.76,0-6.81-1.9-10.39-4.85-1.66-1.37-2.28-3.05-.62-5s3.34-1.91,5-.45a22.13,22.13,0,0,0,6.17,3.62c2.2.9,4.48,1.06,6.26-1s1.86-4.56.37-7a15.12,15.12,0,0,0-4-4.1c-.91-.66-2-1.27-1.39-2.52s1.77-1.65,3.31-1.35c6.12,1.22,10.36,8,8.58,14C255.65,143.78,252.08,146.5,244.05,146.65Z"/><path d="M243.89,172.51c-7.61,0-14-5.65-14-12.47,0-1.11-.49-2.65,1-3.14s1.75,1,2.35,1.81c1.95,2.51,4.08,4.69,7.37,5.32a10.15,10.15,0,0,0,9.21-2.92c2.09-1.93,4.31-3.22,6.91-.85,1.81,1.65,1.53,5-.85,7.4A15.89,15.89,0,0,1,243.89,172.51Z"/><path d="M218.07,120a11.91,11.91,0,0,1-1.48,6.86c-1.51,2.72-4.31,3.1-6.59,1-4.27-3.92-4.38-12.87-.21-17,2.31-2.3,4.91-2,6.47.84A14.88,14.88,0,0,1,218.07,120Z"/><path d="M259.38,119.7a14.44,14.44,0,0,1,1.73-7.93c1.61-3,3.92-3.31,6.35-1,4.25,4,4.38,12.43.27,16.6-2.79,2.83-5.17,2.43-7.08-1.08A12.09,12.09,0,0,1,259.38,119.7Z"/><path d="M137.73,133.72c3.71.28,7.35.82,10.43,3.17,2.45,1.87,3.25,4.76,1.68,6.52-1.92,2.14-4.2,1.6-6.1.07a18.87,18.87,0,0,0-13.68-4.21c-1.22.08-2.56,0-2.85-1.49s1-2,2.14-2.44A18.41,18.41,0,0,1,137.73,133.72Z"/></g></g></g></svg>