<svg xmlns="http://www.w3.org/2000/svg" viewBox="0 0 460.34 652.62"><title>eleonoraromano</title><g id="Livello_2" data-name="Livello 2"><g id="Livello_1-2" data-name="Livello 1"><g id="K0dguo.tif"><path d="M171.62,280.4c1.93.24,3.06,1,4.5.44,15.8-6.23,28.67-15.82,36.34-31.43,1.27-2.6-2.11-7.4-5.09-7.34-1,0-1.18.85-1.56,1.41-8.85,13.32-21.51,16-36.06,12.54-11.12-2.63-20.68-8.16-27.78-17.36-7.47-9.67-7.2-19,.95-28.14,1.57-1.75,1.59-2.6-.07-4.23-23.34-22.73-32.11-50.79-28.83-82.63,4.33-41.91,23.06-76.36,56.57-102,22.95-17.59,49-25.31,78.08-20,3.39.62,6.68,1.75,10.05,2.49,7.76,1.69,15.47,1.25,23.31,0,28.69-4.42,53,4.61,72.63,25.53,16.86,18,24.12,39.79,24.2,64.33,0,14.34,0,28.61-3.34,42.65-.73,3.06-1.26,6.39-2.88,9-7.72,12.36-7,26.5-8.79,40.07-1.42,10.73-1.83,21.6-3.05,32.37-2.9,25.57-18.56,40.12-41.93,47.8-6.36,2.1-6.35,2.05-2.37,7.42a39.51,39.51,0,0,0,6.74,7.28c2.16,1.75,4.24,4.33,7.1.5,1.13-1.52,3.33-.77,5.12-.25,5.44,1.56,10.11,4.65,14.87,7.49,29.16,17.38,53.36,39.61,68.79,70.42,8.53,17,12.63,35.32,16.13,53.84,3.38,17.87,5.54,36,10.78,53.49,1.21,4,2.82,7.93,4.14,11.92,1.63,4.94.51,7.33-4.19,9.29-.14.06-.29.08-.43.14C434.16,492,434.1,492,436.29,504q11.79,64.59,23.63,129.17c.06.29.18.58.24.87.78,4.19-1,8.4-3.85,9.1-3.28.8-7.16-2.43-8-6.88-5-27.32-10.2-54.61-12.77-82.32-1.68-18.11-3.48-36.21-4.51-54.37-.34-5.93-.6-5.76-6.44-4.2-7,1.87-13.23,6.6-21,6.06-2.36-.17-1.77,2.06-1.68,3.41.61,8.54,1.06,17.11,2.05,25.62,2.25,19.24,4.59,38.47,7.9,57.56q3.71,21.3,7.67,42.55a23.28,23.28,0,0,1,.54,6.27c-.22,2.45-1.38,4.4-3.79,5.11-2.63.77-4.25-1.07-5.61-2.9s-1.63-4.17-2.07-6.38c-5.4-27.28-9.72-54.73-12.45-82.41-3.47-35.24-5.5-70.56-4.48-106a225.46,225.46,0,0,1,3.84-37.85,13.47,13.47,0,0,1,1.65,6.79q1,20.52,1.9,41.06c.42,10.08.69,20.17,1.08,30.25.19,4.79.88,5.41,5.38,4,10-3.16,20-6.56,30-9.79,1.91-.62,2.66-1.48,2-3.59-7.67-25.84-10.41-52.7-16.12-79-6.52-30-21.32-55-43.13-76.22-12.11-11.8-25.43-22.15-38.39-32.94-2-1.69-2.68-1.2-3.09,1.16-5.65,33.06-37.6,58-73.08,58.65-38.57.73-78.22-26.69-90.71-62.09C172.58,283.5,172.21,282.23,171.62,280.4Zm16.65-130.52c1.8,1.53,2.79,2.24,3.6,3.11,1.14,1.22,3.56,2.44,1.59,4.32-1.61,1.53-3.46-.05-4.67-1.36a11,11,0,0,0-8.27-3.89c-10.06-.25-19,9.26-19.09,20.51-.1,10.15,5.72,16.73,15.78,17.9a68,68,0,0,1,7.13,1c2.07.46,3.78,1.28,4.24,3.94,2.71,15.73,10.5,28.63,22.51,39,2.48,2.13,5.87,3.19,8.36,5.3,3.07,2.59,7,6.19,5.28,10.13C217,267.42,203.84,279,184.73,283c-8.24,1.73-8.34,1.53-3.17,8.23,12.82,16.64,27.2,31.48,47.14,39.63,25.17,10.27,49.78,10.74,73.08-5.11a59,59,0,0,0,23.07-29.86c.42-1.21,1.81-2.74-.7-3.53-8.74-2.78-13.61-9.79-17.5-17.27-2.23-4.27-4.66-5.65-9.32-5.42-13,.63-25.88-.3-38.07-5.47-3.61-1.53-7.09-3.34-9.7-6.43-1.33-1.56-1.69-3.23-.6-5a3.75,3.75,0,0,1,4.75-1.55,41.78,41.78,0,0,1,5.35,2.36,56.24,56.24,0,0,0,11.71,4.64c18.5,4.77,36.29,1.86,53.86-4.66,12.81-4.74,20.88-13.69,25.27-26.4,3.53-10.2,4.62-20.8,5.23-31.45.65-11.27.74-22.56,1.79-33.81.82-8.9.45-17.74-2.59-26.3-.59-1.69-.83-3.72-3.4-3.28-3.15.55-5.05-1.18-6.77-3.46-4.48-5.91-10.47-8.33-17.81-7.56-1,.11-2.11.11-3.14.31-1.26.24-2.5.3-3.15-1-.74-1.46.07-2.55,1.21-3.49a17.43,17.43,0,0,1,8.08-3.65c4.59-.87,9,.46,14.12.86a27.26,27.26,0,0,0-1.35-2.49c-12.24-17.34-27.92-31.54-42.65-46.6a4.92,4.92,0,0,0-.73-.54c-1.69-1.27-2.82-1.24-4.47.59-17.42,19.39-35,38.59-53.75,56.74-10.17,9.87-21.29,18.65-35,23.41C200.26,147.33,194.79,148.16,188.27,149.88Z"/><path d="M175.13,276.57A279.83,279.83,0,0,0,145,285.36c-25.47,9.22-46.71,24.82-65.12,44.31-32.73,34.66-53.75,75.87-66.76,121.42-1.24,4.33-2.39,8.69-3.48,13.06-.43,1.76-.67,3.49,1.56,4.58,17.44,8.44,34.33,18.12,53,23.76,10.66,3.21,21.44,5.75,32.62,6.47,3.34.22,4.46-.86,4.8-4.08,1-9.86,2.13-19.72,4.83-29.31.35-1.26.16-2.78,2.31-3.52a134.08,134.08,0,0,1,1.45,27.39q-.93,23-2.21,46c-1.37,24.5-2.89,49-4.36,73.47-.63,10.51-1.26,21-1.95,31.54-.15,2.39-.63,4.77-.82,7.16-.32,4-3.28,5.18-6.3,5s-5.11-2.33-5.24-5.78c-.29-7.55.81-15,1.3-22.52.88-13.35,2.1-26.68,3.22-40q2.13-25.38,4.33-50.77.94-11,2-22c.19-2.08-.64-2.93-2.8-3-23.39-1.36-44.87-9.3-65.81-19.13-5.16-2.42-5.24-2.28-5.72,3.21-1.34,15.26-2.95,30.51-4.29,45.77-1.1,12.58-2.17,25.17-2.87,37.78C17.64,595.34,17,614.59,16,633.84c-.24,4.68-3.1,7.51-6.8,7.36-3.41-.13-6.08-3.06-6.08-7.66,0-7.83.39-15.66.7-23.49a791.11,791.11,0,0,1,7.66-80c2.07-14.61,4.07-29.21,8.41-43.37.68-2.24.06-3.61-2.17-4.61-3.7-1.66-7.33-3.51-10.89-5.46-6.4-3.49-7.84-7-6.14-14.18a313.35,313.35,0,0,1,24.63-68.16c14.06-28.21,31.49-54.16,54.18-76.23,19.81-19.26,42.12-34.51,69.56-40.9a73,73,0,0,1,20.12-2.25C171.05,275,173,274.9,175.13,276.57Z"/><path d="M312.46,217.36c-9.23,0-9.2,0-13.55,6.69-1.84,2.83-4.31,4.28-7.6,2.45-3-1.66-3.67-5-1.46-8.08,5.68-7.88,4.61-15.72.37-23.71-.49-.94-2.63-1.85-.65-3.21,1.45-1,2.87-.49,4.05.72,3.39,3.52,6.05,7.51,7,12.33.62,3.1,2.07,4.16,5.21,4.1,4.32-.09,7.76-2.25,11.33-4.09,3.18-1.63,5.86-1.52,7.83,1.54,2.1,3.27.9,6-2,8.18A16,16,0,0,1,312.46,217.36Z"/><path d="M269.25,113.51a11.56,11.56,0,0,1,5.74,1.08,6.55,6.55,0,0,1,3.45,5.92c.09,2.58-1.63,4.18-3.87,5a32.3,32.3,0,0,1-6.09,1.43c-7,1-13.57,2.59-17.86,9-.77,1.16-2.15,2.39-3.83,1.74-1.84-.7-1.85-2.48-1.94-4.18a10.94,10.94,0,0,1,2.06-6.78C252.23,118.67,259.75,114.4,269.25,113.51Z"/><path d="M329.62,172.23a14.52,14.52,0,0,1-17.41,14.66,29.15,29.15,0,0,1-11.85-5.2c-2.47-1.79-4.09-3.87-1.92-6.76s4.86-2.39,7.42-.29a29.34,29.34,0,0,0,6.91,4.16,6.41,6.41,0,0,0,7.83-1.48c2.1-2.25,2.26-5,.84-7.93a16.66,16.66,0,0,0-5.43-5.91c-1-.76-2.52-1.42-1.73-3.17s2.21-1.74,3.81-1.6C324.23,159.23,329.56,165.45,329.62,172.23Z"/><path d="M324.46,146.53c.08-6.9,7.29-13.32,14.05-12.94,7.16.39,13.87,6.28,15,13.31.55,3.36.15,6.6-3.85,7.43-3.67.75-5.57-1.5-6.17-4.91-.51-2.9-1.89-5.21-4.77-6-3-.8-5.52.68-7.54,2.92-.51.56-1,1.13-1.47,1.72-.9,1.1-1.43,3-3.38,2.18A3.31,3.31,0,0,1,324.46,146.53Z"/><path d="M271.22,136.26c5.42.5,10.73,2.91,14.08,8.56,1.61,2.74,2.45,5.94-.72,8s-5.15-.33-6.92-2.83c-5.08-7.2-12.32-6.77-16.8.93a5.46,5.46,0,0,1-.43.79c-1.12,1.37-1.1,4.64-3.63,3.58-1.74-.74-2.07-3.45-1.78-5.64C256,142.41,262.94,136.29,271.22,136.26Z"/><path d="M168.65,168.32c7.51-3.91,18.07-1,21.3,4.84,1.18,2.14,1.53,4.33-.58,6.13-2.29,2-4.3.65-6-1C179.4,174.35,175.92,169.71,168.65,168.32Z"/></g></g></g></svg>