<svg xmlns="http://www.w3.org/2000/svg" viewBox="0 0 351.74 515.02"><title>francescamaltempi</title><g id="Livello_2" data-name="Livello 2"><g id="Livello_1-2" data-name="Livello 1"><g id="_436MZM.tif" data-name="436MZM.tif"><path d="M195.35,263.33,166.1,300.19c-1.43,1.8-2.83,3.61-4.28,5.39-2.5,3.08-5.5,2.66-6.95-1.06-3.93-10-7-20.35-10-30.68-4.5-15.38-9.08-30.74-13.54-46.13-.47-1.59-1-2.24-2.8-2.13a15.6,15.6,0,0,1-8.33-1.6,3.6,3.6,0,0,0-3.25.08c-4.92,1.68-9.85,2.28-14.69-.17-1.29-.65-2.13-.19-3.11.51-7.08,5-14.47,7.41-22.66,2.5-1.47-.88-2.93-.07-4.31.31-18.44,5-30.77,17-38.53,34.07-8.31,18.32-10.55,37.84-11,57.66-.32,15.25-.49,30.5-3.57,45.53a55.23,55.23,0,0,1-4.92,13.87c-.76,1.51-1.44,3.42-4.09,2.63-1.48-.44-2.9,2.64-2.27,4.72.49,1.63,1.81,2.55,3.05,3.6,8.23,7,14.43,15.29,16.75,26.09.33,1.57,1.09,3.43-1,4.11s-2.47-1.56-3.11-2.87C20.75,410.85,18,405.09,14,400c-1.51.81-1,2.1-1,3.12-1.25,26.11-3.08,52.19-5,78.26-.36,4.92-.48,9.86-1,14.75-.27,2.46-.14,5.69-3.68,6.1-2.17.26-3.57-2.84-3.22-7,.88-10.51,1.83-21,2.79-31.51q2.25-24.48,4.56-49c.4-4.22.84-8.44,1.44-12.63a6.31,6.31,0,0,0-1.59-5.65,16,16,0,0,1-3.62-7c-.86-3.37-1-7.09,1.67-9.37,5.07-4.28,5.44-10,6.15-15.78,2.18-17.53,2.68-35.19,4.21-52.78,1.59-18.29,3.65-36.52,11.15-53.56,8.07-18.35,21.64-30.4,41.26-35.26,2.45-.61,3.62-1.1,2.69-4.17-1.62-5.36.78-9.89,4.42-13.7A61.69,61.69,0,0,1,82.85,198c8.93-6.55,12.3-15.63,12.51-26.27.21-10.12-1.55-20.1-2.29-30.15-2.33-31.45,1.42-61.78,17-89.83a113.66,113.66,0,0,1,14.28-19.73c7.69-8.73,15.67-17.08,26.34-22.24Q194.24-11.25,236.06,13c2.77,1.6,5.67,3,8.41,4.64,12.09,7.23,19.64,18,23.93,31.19a53.45,53.45,0,0,1,2.84,12.36c.2,2.58-.35,5-3.07,5.9-1.69.57-1.34,1.56-1.11,2.65,5.05,24.18,7,48.76,9.26,73.28,1,10.36.27,20.63-4.53,30.2a5.47,5.47,0,0,1-.76,1.53c-4.34,4.11-3,8.72-1.49,13.54,1.45,4.5,3.78,8.59,5.43,13,.54,1.45,1.89,1.94,2.89,2.84A9,9,0,0,1,280,215.61c-2,3.8-5.62,5.33-10.19,4.28-2.93-.68-8.85-.5-11.11.56,7.68,2.46,15,4.76,22.21,7.14,4.89,1.6,9.8,3.16,14.61,5,9,3.4,15,9.73,18.35,18.78,4.61,12.56,6.54,25.72,8.82,38.8,6.39,36.58,10.31,73.5,14.61,110.37C341,433,345,465.36,351.45,497.4c.5,2.51.68,5.09-2.38,6-3.23.92-4.47-1.55-5.37-4-2.63-7.17-3.11-14.79-4.37-22.22-5.55-32.79-8.83-65.86-11.95-98.95-3.6-38.22-7.07-76.47-15.08-114.1-.5-2.36-1-4.71-1.53-7.06-2.46-10.63-8.89-17.8-18.94-21.94a128.48,128.48,0,0,0-16-5.24c-6.44-1.72-12.71-3.83-18.37-7.48-.87-.56-1.72-1.15-2.81-.39s-.39,1.66-.32,2.5c.61,7.47-.35,14.9-.74,22.33-1,18.78-2.17,37.55-3.28,56.32-.1,1.71.06,3.71-2,4.35-2.24.7-3.25-1.17-4.29-2.67q-16.68-24.21-33.36-48.41c-.88-1.27-1.21-3-3.83-2.35s-5.47.44-6.06,4.37c-.9,5.93-.7,11.89-1.27,17.83q-4,42.11-6.82,84.33c-3,46.36-4.91,92.76-4.37,139.23,0,1.83.17,3.68-.73,5.39-.67,1.28-1.56,2.36-3.08,2.45a3.85,3.85,0,0,1-3.56-2.28,8.87,8.87,0,0,1-.81-4.68c-.21-45.77.89-91.51,4.25-137.17,2.4-32.59,6-65,11.35-97.29.14-.89.16-1.8.23-2.7Zm-34.17-69.56a20.77,20.77,0,0,0,2.54-7c.2-1-.38-3.4,2-2.6,1.71.57,4.42.39,4.07,3.59a43.64,43.64,0,0,1-3.61,13.51c-2.11,4.62-5.71,8.28-7.81,12.9-.78,1.72-1,2.65.6,4A234,234,0,0,0,198,246.18c3.44,1.92,7.73-.57,11.64-.08.08,0,.18-.14.26-.22q11.46-10.9,22.93-21.81c.91-.86,1.19-1.54,0-2.45-6.44-4.86-9.63-11.72-10.5-19.4-.48-4.26-2.14-4.72-5.79-4.73-7.07,0-14.19-.09-21.13-1.9a6.42,6.42,0,0,1-4.9-4.34c-.72-2.22.48-3.68,2.6-2.8,6.44,2.68,13.26,2.11,20,2.81a63.28,63.28,0,0,0,35-6c12.72-6.2,19.17-16.51,19.89-30.55.62-12.06-.7-24-1.49-36-.4-6-1-12-1.6-18.17-.95,1.1-.75,3.18-2.46,3-1.46-.12-1.5-1.82-1.91-3a11.93,11.93,0,0,0-6.5-7.14,35.73,35.73,0,0,0-9.49-2.69c-3.54-.56-5.83-3.29-5.41-6s3.41-4.39,7.07-3.87a8.81,8.81,0,0,1,1.65.46c7.29,2.55,13.87,6,16.38,13.68,0-6.29-.22-12.81.07-19.31.22-5-.05-8.86-4.39-12.94-6.53-6.12-13.45-10.88-21.75-13.93-11.77-4.32-24.17-5.91-36.28-8.77-1.78-.42-2.74.6-3.67,1.88C185.66,59,170.16,73.05,153.16,85.53a11.5,11.5,0,0,0-2.59,2.71c-3.81,5.58-7.55,11.21-11.3,16.84-.66,1-1.73,2-.41,3.29a2.11,2.11,0,0,1,.22,3.09,3.53,3.53,0,0,1-3.66,1.36,8.34,8.34,0,0,1-2.82-1.21c-2.54-1.84-4.42-.91-6.21,1.16-4.66,5.4-5.61,11.72-4,18.37,1.48,6.14,6,9.18,13.07,9.49,4.22.18,4.94.88,4.76,4.87-.05,1.32.84,2.08,1.42,3C150.38,162.62,159.89,176.38,161.18,193.77Zm-1.29,107.38c12.69-16.19,24.82-31.7,37-47.16,1.24-1.57.32-2.12-.86-2.83-13.83-8.24-26.7-17.7-38-29.28-1.36-1.4-3.43-2.84-5.3-1.72a17.52,17.52,0,0,1-12.15,2.35c-3-.44-4.52,1.52-3.9,4.38C142.11,252.11,152.23,275.83,159.89,301.15Zm84.64-4.61a4.79,4.79,0,0,0,.8-3.26q1.42-29.17,2.81-58.35a46.93,46.93,0,0,0-.74-11.29,3,3,0,0,0-2.46-2.44c-1.87-.58-1.31,1.06-1.88,1.63-.32.33-.6.69-.94,1-9.58,8.7-19.1,17.47-28.79,26-2,1.78-1.67,2.77-.26,4.62,8.23,10.86,16.33,21.81,24.48,32.74Z"/><path d="M88.76,347.29c3.16-8.05,4.94-15.65,9.21-22.21-1.09,8.57-3.81,16.72-6,25a14,14,0,0,0-.17,8.35,14.91,14.91,0,0,1,.46,6.14c-.11,1.07-.4,2.56-1.41,2.49-3.63-.26-3.12,2.46-3.51,4.48-4.34,22.73-8.19,45.54-10.75,68.54a474.44,474.44,0,0,0-3.19,63.83,18.18,18.18,0,0,1-1.75,9c-1.45,2.76-3.94,2.85-5.53.16a15.9,15.9,0,0,1-2.17-8.23C64,463,67.27,421.51,78,380.88a86.94,86.94,0,0,1,3.56-11.1,38.07,38.07,0,0,0,1.93-22.9c-.71-3.47-1.07-7-1.53-10.54-.16-1.23-.42-3,.92-3.3,1.5-.35,1.75,1.57,2.13,2.65C86.27,339.22,87.34,342.82,88.76,347.29Z"/><path d="M293.27,298.87c1.46,3.29.73,6.61,1.11,9.88,1.14,0,1.23-1.05,1.8-1.52.39-.33.87-.56,1.21-.24a1.29,1.29,0,0,1,.25,1.2c-5.65,7.8-2.63,16.5-2.18,24.73,1.55,29,4.85,57.76,9.21,86.44q6.22,41,16.1,81.17c.83,3.43-.07,6-2.73,7.25s-5.46.05-5.74-2.75c-1-9.83-3.82-19.29-5.77-28.92A748.49,748.49,0,0,1,293,375.39a672.76,672.76,0,0,1-.61-67.36C292.5,305,293,301.92,293.27,298.87Z"/><path d="M207.46,407.32c-.35,3.57-1,6.82-3.79,9.09-1.33,1.07-2.82,1.63-4.15-.13-1.48-1.95-1.63-9-.21-11.09,1.3-1.89,2.92-3.4,5.4-2.7S207.07,405.55,207.46,407.32Z"/><path d="M201.38,361.87c.07-1,.14-2.14.22-3.28.17-2.61,1.25-4.54,4.16-4.33s3.87,2.37,3.74,4.86c-.16,3.06-2.4,5.36-3.66,8-.5,1.05-1.81.79-2.62-.14A6.39,6.39,0,0,1,201.38,361.87Z"/><path d="M209.82,304.7c-.12,1.85-.24,4.17-3.32,4.15s-5.87-3.15-5.83-6.07c0-3.1,2-5.31,4.67-5.19C207.56,297.69,209.87,301.16,209.82,304.7Z"/><path d="M207.77,463.47c.06,2.56-3.23,7.13-5.56,7.63a2.63,2.63,0,0,1-2.88-1.4c-2-3.15.52-9.29,4.1-10.12C205.88,459,207.69,460.63,207.77,463.47Z"/><path d="M210,505.51c-.07,2.81-2.57,5.4-5.16,5.37-2,0-4.3-3.34-4.13-6.15s1.9-4.1,4.41-4.33S210.08,502.91,210,505.51Z"/><path d="M204.51,82.15c4.71,0,7.39,1.85,7.5,4.48.13,3.54-2.39,4.83-5.24,5.22-6.19.84-11.72,2.94-16.09,7.56-1,1.07-1.87,2.3-2.82,3.44-.61.73-.83,2.12-2.23,1.65s-1.52-1.61-1.56-2.79c-.11-3.53,1.59-6.45,3.52-9.09A25.26,25.26,0,0,1,204.51,82.15Z"/><path d="M214.62,151.71c-.14-1.46.14-2.22.94-2.59a1.78,1.78,0,0,1,2.17.49c1.52,1.55,3,3.14,4.61,4.6,5.37,4.86,11.48,4.81,16.87-.05,1.34-1.21,2.62-2.68,4.74-2.08a4.26,4.26,0,0,1,2.36,6.34c-2.64,4.08-11.93,7.65-17.25,6.63-7.35-1.4-13.07-6.43-14.31-12.57A6.33,6.33,0,0,1,214.62,151.71Z"/><path d="M247.82,129.26c-.07,7.8-7,12.56-15.26,10.32a21.93,21.93,0,0,1-7.55-3.94,3.22,3.22,0,0,1-.83-4.79c1.29-2,3-1.91,4.74-.74,2.17,1.43,4.15,3.1,6.74,3.94a4.64,4.64,0,0,0,5.27-1.34,4.77,4.77,0,0,0,.83-5.7,12.43,12.43,0,0,0-4-4.62c-1.06-.7-2.24-1.44-1.38-3s2.14-1,3.35-.7A10.54,10.54,0,0,1,247.82,129.26Z"/><path d="M191.62,119c.15-10.39,9.47-16.67,17.31-12.12,2.88,1.67,4.55,4.43,6.11,7.22,1,1.73.67,3.41-1.14,4.43s-3.72,1-5.14-.9c-.27-.37-.47-.79-.71-1.18-1.3-2.17-2.55-4.73-5.6-4.22s-4.72,2.91-5.73,5.73a6.38,6.38,0,0,0-.45,1.29c-.19,1.75-.41,3.91-2.68,3.55C191.56,122.48,191.72,120.24,191.62,119Z"/><path d="M252.52,104.84a9.9,9.9,0,0,1,9.28,7.24c.42,1.71.06,3.3-1.58,4.11-1.86.91-3.3,0-4.35-1.61-3.31-5-4.2-5.06-8.24-.68-.71.77-1.37,2.14-2.77,1.29a3.34,3.34,0,0,1-1.43-3.9C244.2,107.85,248.48,104.82,252.52,104.84Z"/><path d="M125.87,125.62c-.31-4.65,3.21-7.72,7.61-6.86a11.89,11.89,0,0,1,7.26,4.77c1.35,1.8,1.27,3.68-.6,5.1s-3.6,1.07-5.06-.75c-.5-.62-1-1.27-1.49-1.87C130.62,122.65,129.41,122.56,125.87,125.62Z"/></g></g></g></svg>