<svg xmlns="http://www.w3.org/2000/svg" viewBox="0 0 379.94 525.13"><title>francescaditoma3</title><g id="Livello_2" data-name="Livello 2"><g id="Livello_1-2" data-name="Livello 1"><g id="JTVAYg.tif"><path d="M178.93,211.7c2-3.86,5.45-6.79,7.29-10.82.74-1.61,1-2.39-.73-3.65-12.08-8.68-20.74-20-25.32-34.22-.25-.77-.14-2.08-1.74-1.26-8.22,4.16-18.1-1.75-21.41-9.24a26.24,26.24,0,0,1-1.3-17.71c.5-1.93.27-2.73-1.79-3.2a13.78,13.78,0,0,1-8.51-6c-2.34-3.46-2.18-6.72.61-10.5a3.21,3.21,0,0,0,.33-4c-5.28-10.14-4-17.68,4.35-25.93,1-1,1.38-1.75.84-3.06-11.11-27.19.61-54.82,28.07-69.09A113.44,113.44,0,0,1,227.76,1c11.06,1.39,21.68,3.76,31.1,10,.57.38,1.09.84,2,1.55-3.26.82-5.92-.23-8.52-.9-14.42-3.71-29-6.25-43.91-5.23-22.2,1.52-42.95,7-59.91,22.61a44.93,44.93,0,0,0-10.36,51.5c2.57,5.57,2.57,5.57-2.34,9.1a13.41,13.41,0,0,0-3.54,18c.75,1.23,1.54,1.91,3.12,1.7,9.6-1.24,19.21-2.4,29.1-3.62-2.11-5.45-2.27-10.71.37-15.86,1-1.87-.89-1.76-1.68-2.39s-2.21-1.16-2-2.25c.3-1.46,1.79-.7,2.72-.64a15.72,15.72,0,0,0,9.17-2.21c1.63-.94,3.9-1.88,5,.29s-.53,4-2.67,5a7.58,7.58,0,0,1-3.35,1.06c-3.67-.27-4.11,2-4.39,4.8-.37,3.83.82,7.23,2.31,10.62a2.43,2.43,0,0,0,2.84,1.54c5.1-.6,10.25-.07,15.37-.34,4.64-.25,7.3-1.74,10.46-4.64,3.83-3.51,9.21-4,14.24-4.78a7.66,7.66,0,0,0,4.35-2,14.18,14.18,0,0,1,11.38-3.87c2.55.26,5.39,1,6.19,3.49,1.59,4.91,6,5.13,9.32,5.1,8.37-.07,16.72-1.28,25.07-2a3.6,3.6,0,0,0,2.25-.91c4.21-4,9.13-4.2,14.17-2.18,2.47,1,4.65,0,6.93-.16,1.71-.09,1.84-1.91,1.87-3.37.08-4.27.11-8.54.23-12.8,0-1.5-.1-3.09,1.38-4.58.75,6.34,1.54,12.4,2.16,18.47.17,1.72.71,2.53,2.51,2.61,6.25.31,11.17,2.81,13.74,8.85.47,1.09,1.06.82,1.95.63a24.68,24.68,0,0,1,7.08-.26c1.22.1,2.12.58,2.2,1.85.07,1.1-.8,1.66-1.74,2a10,10,0,0,1-5.2.83c-3-.63-3.23.83-3.13,3.22a44.36,44.36,0,0,1-3.1,17.36,30.28,30.28,0,0,1-8.73,12.71,3.94,3.94,0,0,0-1.43,4c.63,7.2,1.37,14.4,1.58,21.62.5,16.57-7.33,28.48-21.31,36.68-7.34,4.31-15.41,6.62-23.72,8.1-1.88.34-2.9.68-2.23,2.85,1.59,5.19,2.89,10.48,5,15.52,1.33,0,1.31-1.21,1.93-1.78,2-1.88,4.19-2.49,6.14-.11a3.24,3.24,0,0,0,3.28,1.34c27.88-2.53,47.79,10.09,62.29,32.89A117.85,117.85,0,0,1,349,292.7c6.67,23.07,16.28,44.91,27.4,66.13,6.24,11.92,4.66,16.91-7.48,22.66-3.31,1.57-6.68,3-10.07,4.43-1.68.7-2.25,1.52-1.78,3.5,6.36,26.62,8.47,53.76,9.67,81,.44,9.94.93,19.88,1.37,29.83a19.48,19.48,0,0,1-1.18,8,4.87,4.87,0,0,1-4.17,3.38c-2.23.28-3.63-1-4.65-2.65a11.23,11.23,0,0,1-1.64-6.44c.67-18.26,0-36.51-.88-54.73-.9-18.56-2.53-37.09-2.75-55.69,0-2.71-1.07-2.87-3.28-2-5.69,2.32-11.44,4.52-17.2,6.67-1.64.61-2.53,1.37-2.49,3.29.29,12.79.95,25.56,1.84,38.32q.88,12.57,1.74,25.14c.84,12.28,2,24.54,2.24,36.85a8.49,8.49,0,0,0,1,3.38c2,4.1,1.67,5.68-1.62,9-7.94,7.94-17.94,11-28.68,11.45-39.33,1.56-78.69.54-118,.64-10.91,0-21.81,0-32.72-.07-19.41-.18-38.85,0-58.21-2a10.32,10.32,0,0,0-2.47-.15c-1.78.26-3.56,2-5.3.19a9.65,9.65,0,0,1-2.74-7.45c.29-7.93.56-15.87.94-23.79.3-6.27.85-12.52,1.13-18.79,1-22.46,2.13-44.92,4.26-67.31.75-7.95.76-7.83-7.28-9.17a313,313,0,0,1-44.35-10.91c-3.7-1.19-3.55-1.22-3.53,2.8.13,26,0,51.92.36,77.88a403,403,0,0,0,2.8,43.21c.26,2.16,1.68,4.32-.17,6.38-1.32,1.47-2.94,2.5-5,2.15a6.46,6.46,0,0,1-5.3-4.68c-1.37-4.13-1-8.46-1.2-12.69-.84-20.72-1.84-41.45-1.49-62.2.3-17.91,1.37-35.76,4.68-53.39.38-2-.12-2.89-2-3.7-8.48-3.61-17.23-6.67-25.12-11.57-6.38-4-6.6-4.46-3.87-11.23,14-34.71,32.76-66.49,59.05-93.4,17.2-17.61,36.89-31.55,60.82-38.62a105,105,0,0,1,29.81-4.11c3.08,0,5.29.85,6.6,3.64.8,1.7,1.84,2.06,3.66,1.38,5-1.88,9.93-3.9,13.75-7.85a11.4,11.4,0,0,0,3.65-7.86Zm-15.06-87.26c-4.9-4.58-10.55-4.81-15.22-.5-5.91,5.47-7.89,12.69-6.94,20.36,1.12,9,5.26,11.83,14.51,11.23a4.87,4.87,0,0,1,4.75,2.26c9.43,12.94,17.22,27.42,32.63,34.82,2.62,1.26,3,4.79.74,5.81-3.3,1.51-3.35,4.28-3.81,7a63.55,63.55,0,0,1-2.64,10.28c-3.22,9.15-9.66,14.28-19.25,15.64-2,.28-5.12-1-5.75.89-.58,1.79,1.93,3.83,3.35,5.53,13.46,16.1,30.2,25.94,51.39,28.45,16.36,1.94,34.54-7.52,41.11-22.61.61-1.39.68-2.26-.93-3.1-2.76-1.44-4.17-4.1-5.36-6.86a52.81,52.81,0,0,1-4-16.47c-.31-3.8-1.86-4.34-5.12-4.3a65.33,65.33,0,0,1-23-3.44c-3.52-1.26-5.13-3.58-4.09-6,1.24-2.86,3.57-3.28,6.5-2.6,10.17,2.35,20.4,3.85,30.91,2.38,10.72-1.5,20.81-4.41,29.41-11.3,6-4.85,10-10.82,10.93-18.78.94-8.29.18-16.57.49-24.85.07-2.06-1.17-2.32-2.77-2.21a23.12,23.12,0,0,1-10.75-1.62c-3-1.24-5.15-3.59-7.85-5.88-.61,4.28-2,7.68-5.61,9.75-6.51,3.68-12,1-17.47-2.52-2-1.28-3.32-3-1.65-5.29s3.79-2,5.81-.35a20.1,20.1,0,0,0,6.44,3.66,4.75,4.75,0,0,0,5.17-1.45,4.84,4.84,0,0,0,1.13-5.22,11.93,11.93,0,0,0-4.89-5.88c-.76-.52-1.69-1.06-1.19-2.26a2.36,2.36,0,0,1,2.61-1.39c1.78.07,3.35.87,5.2,1.66-.77-3.33,0-6.6-1.94-9.45-.74-1.08-.51-2.51-.23-3.82.4-1.84.69-3.71,1.1-5.55.29-1.3,0-2.1-1.48-2.09-3.55,0-7.1-.05-10.65,0-1.73,0-2.45,1.09-2.4,2.83.24,8.58-3,16.18-6.95,23.49-7.68,14.34-17.05,18.86-32,15.44-8-1.84-14.4-5.93-17-14.31-2.07-6.71-3.5-13.52-2.25-20.58.55-3.1-.27-4.63-3.74-4.09-1.49.22-3.19.36-4.52-.53-3.78-2.51-8-1.42-12-1.59-1.94-.08-2.95.59-2.56,3a15.14,15.14,0,0,1-1.46,8.64c-.76,1.71-1.92,2.9-3.85,2.18s-2.55-2.31-1.65-4.33a14,14,0,0,0,1.4-6.18c-.06-1.28-.13-2.49-2.22-2.24-8.76,1.06-17.54,1.92-27.11,2.94,2,1.64.68,4.28,3.27,4.89,1,.23,1.83.88,1.47,2-.41,1.3-1.64,1.13-2.7,1.05a6,6,0,0,1-3.42-1.74c-.6-.52-1.25-1.66-2-1.14-2.53,1.73-3.42-.27-4.42-2-2.2,3.35-1.71,6.26,1.48,8.35,1.55,1,3.53,1.38,5.1,2.39,1.74,1.11,2.44.61,3.47-1,2.93-4.56,6.5-8.47,12.17-9.64A10.33,10.33,0,0,1,163.87,124.44Zm46.06,224.25c1.07-1.55,1.93-2.67,2.66-3.88,3.11-5.08,6-10.31,5.94-16.47,0-5.95-3.86-8.6-9.49-6.75a12,12,0,0,0-6.69,5.55c-3.56,6.11-4.76,12.56-2.51,19.44.25.76.79,1.45.2,2.32-2.18,3.21-8,2.83-9.95-.52-2-3.57-1-7.12-.37-10.71,1.33-7.13,2.34-14.29,1.78-21.55-.13-1.75,0-4.2-2.48-4.54-2.24-.31-3.18,1.58-4,3.39a40.28,40.28,0,0,0-2.68,9.18,64.44,64.44,0,0,0-.55,15.94c.43,7.18-2.52,12.86-8.24,17.13-1.41,1.06-3,1.55-4.62.47-2-1.35-2.29-3.52-2.32-5.68,0-2.4,2.14-1.34,3.24-1.71,3.08-1,5.54-2.64,6.89-5.67,1.57-3.52.43-8.09-2.43-9.88-3.06-1.91-7-.89-9.66,2.52a18.75,18.75,0,0,0-3.13,6.33c-1.32,4.56-.84,9.1.3,14.13-4.28-3.41-8.93-4.82-13.52-6.33-10.66-3.51-10.89-13.28-4.59-19.83a51.14,51.14,0,0,1,16.55-11.43c2.08-.91,4.11-1.93,6.16-2.9A34.08,34.08,0,0,0,149,320.12c-8.61,3.62-15.09,9.28-16.8,19.09-1.33,7.66,2,14.56,9,18,3.29,1.59,6.76,2.82,10.15,4.21,4.36,1.8,7,4.51,6.12,6.82-1.39,3.68-4.88,3.71-8.05,3.86-3.43.15-6.87-.09-10.3,0-1.53.05-3.19.44-3.8,2.12-.71,1.94.74,3.08,1.95,4.2a7.62,7.62,0,0,0,3.17,1.53c3.61,1,7.29.88,10.94.61,10.83-.81,15.87-7.07,14.28-17.63,10.29,4.21,14.65-3.44,19.69-10.06a9.59,9.59,0,0,0,9.82,4.57,17.29,17.29,0,0,0,7.9-3,2.5,2.5,0,0,1,3.17-.18c4.33,2.66,8.58,1.86,12.78-.46,3.59-2,6.18-5,8.68-9,.15,1.45.28,2.12.29,2.79,0,2.62.76,4.84,3.8,5,2.87.16,2.83-2.29,3.31-4.2a90.49,90.49,0,0,1,7.31-20.32c.7-1.34,1.36-3.13,3.17-2.95,2.05.21,2.22,2.3,2.51,3.84.49,2.55.65,5.17,1,7.75a9.54,9.54,0,0,0,3.74,7c3.53,2.52,6.34,1.31,7.11-2.95.61-3.38.88-6.86,2.43-10.29,4.2,7.93,11.46,10.58,17,5.61,3.42-3.06,6.15-3.64,10.63-3.24,7.2.65,11.78-4.55,15.5-10.2,1.05-1.59,1.83-3.23.09-4.76s-3.2-.33-4.55,1c-2.2,2.15-4.34,4.38-7.21,5.69-5.31,2.43-8,.81-8.1-5-.13-5.47-.57-5.88-6-5.93a5.73,5.73,0,0,1-2-.66c-2.33-1-4.53-.64-6.89.14-8.28,2.72-13,8.7-15.72,17.18-.35-1.39-.62-2.26-.8-3.15-.9-4.49-2.9-8.25-7.8-9s-7.56,2.6-9.75,6.31c-1,1.72-1.86,3.54-3.14,6-.13-2.67-.16-4.45-.33-6.22s-1.14-3.21-3.12-3.26-3,1-3.21,3c-.12,1.29-.37,2.58-.62,3.86-1.26,6.17-2.75,12.28-6.77,17.36C217.32,348.23,214.43,350,209.93,348.69Zm1.25-247.18c-8.54,1.21-11.56,3.56-12.1,10.24a64.78,64.78,0,0,0,1.1,18.66c2,9.8,8.88,13.94,17.56,15.58,8.45,1.59,15.5-1.41,20.78-8.46,4.4-5.89,6.89-12.65,8.84-19.55,2.37-8.38-.71-13.13-9.19-15.64-4-1.19-8.16-1.11-12.28-1.25-5.93-.21-8.2,1.25-10.47,6.82-.48,1.16-.55,2.94-2.28,2.59s-2.45-2-2.52-3.82S211.81,103.32,211.18,101.51ZM142.26,404c1.71.73,2.68-.12,3.54-.77,7-5.29,14.84-9.31,22.73-13.09,39-18.68,80.07-30.81,122.26-39.57,4.61-1,9.39-1.41,13.58-3.89a3.12,3.12,0,0,0,1.78-3.19c-.19-1.65-1.56-1.94-2.9-2s-2.6-.12-3.9-.1c-7.16.12-14.11,1.76-21,3.43a560.69,560.69,0,0,0-68.71,21.48c-19.84,7.6-39.16,16.17-56.55,28.59A64.56,64.56,0,0,0,142.26,404Zm152.19-279.6h-.56c0-4.84,0-9.69,0-14.53,0-.84.41-2.35-1-2.22-3.78.34-5.06-2.42-6.67-4.87-.81-1.21-1.69-2.41-3.42-1.67-2.73,1.17-5.7,2.27-7.22,4.92-5.49,9.6-7.11,21.88,2.08,30.84,4.05,3.94,8.71,5.85,14.43,4.6,1.66-.37,2.4-1.12,2.37-2.88C294.4,133.88,294.45,129.15,294.45,124.42ZM302,136.1c6.59-6.53,10.85-21.8,8.63-30-1.12-4.18-3.78-6.5-8.1-7.37-3.09-.63-3.67.36-3.41,3.17.71,7.89,1.15,15.8,1.87,23.69C301.27,129,300.86,132.43,302,136.1Zm-54.09-34.63c4.28,4.8,4.27,4.75,10.06,3.7a15.66,15.66,0,0,1,4.58-.18c4.66.57,8.72-.06,11.22-4.62.05-.08,0-.22,0-.47l-24.58,1.18A7,7,0,0,0,247.88,101.47Z"/><path d="M179,211.58c-4.93,11.31-22.51,15.87-33.4,5-1.89-1.88-2.76-1.48-4.37.23-6.26,6.63-12.95,8.34-19.37,5.2-.53-.26-1.22-.44-1.53-.87-2.92-4-6-3.3-9.75-1a20.85,20.85,0,0,1-10.92,2.67c-4,0-7-1.7-8.71-5.5-3.14-7-2.35-14.1-.72-21.23a19.45,19.45,0,0,1,1.36-4.39c1.18-2.41.94-3.67-1.73-5.13-6.89-3.76-9.22-13-5.78-20.95a36.49,36.49,0,0,1,8.09-11.58c9.91-9.67,20.75-18,34.11-22.43.67-.23,1.35-.44,2-.64s1.23-.27,1.61.3c.53.8,0,1.35-.64,1.73-1.89,1.22-3.78,2.44-5.73,3.56-11.92,6.86-22.6,15.18-31.07,26.13a17.29,17.29,0,0,0-3.71,9.08A9.12,9.12,0,0,0,96.87,182c3.5.46,4.55,2,3.41,5.27-1.66,4.81-3.52,9.55-4.27,14.63a24.81,24.81,0,0,0,.29,9.86c1,4.08,2.3,4.9,6.31,4a29.28,29.28,0,0,0,11.92-6.05c4.25-3.48,6.25-2.78,7.33,2.56.66,3.25,4.78,5,8.65,3.71,3.27-1.12,5.57-3.5,7.68-6.1a36.29,36.29,0,0,1,2.92-3.57c2.2-2.1,4.08-1.82,5.92.65a37.08,37.08,0,0,0,3.24,4.19c5.71,5.77,13.66,6,19.79.66.89-.78,1.65-1.72,2.58-2.44,1.28-1,2.58-2.34,4.42-1.61s1.55,2.47,1.86,3.93A.83.83,0,0,0,179,211.58Z"/><path d="M131.5,184.56c-3.5,4.35-7.74,6.75-13.77,4.75,5.68-1.08,8.42-5.15,11-9.67,1.63-2.87,4.87-2.76,7,.18,1.93,2.71,3.26,2,4.83-.12,1.27-1.7,2.48-3.46,3.89-5a5.33,5.33,0,0,1,5.43-1.85,2.79,2.79,0,0,1,2.22,2.06c.28,1.12-.43,1.77-1.23,2.32a20.35,20.35,0,0,0-5,5C141.45,188.16,137.35,188.82,131.5,184.56Z"/><path d="M212.48,38c6.83,4.09,10.74,10.24,12.51,17.82a23.67,23.67,0,0,1-1.35,14.94c-1.14,2.7-2.89,4.92-6,5.55a4.43,4.43,0,0,1-5-2.46c-1.16-2.06.47-2.94,1.75-4,7.19-6,8.11-19.06,1.89-27.45C215.13,40.88,213.75,39.5,212.48,38Z"/><path d="M234.85,34.36a10,10,0,0,1,6.88,2c7.94,5.63,10.69,19.23,5.52,27.48-1.68,2.67-3.8,4.92-7.14,5.35-1.52.2-3.18.14-3.9-1.66-.65-1.65.43-2.66,1.53-3.62,8-7,9.33-14.68,4.09-24.11C240.39,37.24,239.56,36.56,234.85,34.36Z"/><path d="M276.66,23.94a4.5,4.5,0,0,1,5.17.42c8.43,7.22,15,15.51,14.37,27.45a17.22,17.22,0,0,1-4,10.06,6,6,0,0,1-2.72,2.19c-1.29.43-2.59.61-3.56-.63s-.25-2.31.43-3.24c1.24-1.72,2.94-3.09,3.86-5.06a16.77,16.77,0,0,0,.66-12.78,46.68,46.68,0,0,0-8.55-15A10.33,10.33,0,0,0,276.66,23.94Z"/><path d="M182.28,48.13c5.9-.92,12.08,3.36,13.95,10,2.51,8.82-.65,16.49-5.81,23.49-1.15,1.55-3,2.68-4.91,1.12-1.73-1.42-1-3.29,0-4.82,2.06-3.17,4.38-6.16,5.82-9.7,2-5,2.1-9.87-.73-14.63A11.58,11.58,0,0,0,182.28,48.13Z"/><path d="M262,33c2.78-.57,5,.48,6.94,2.1,7.11,5.85,10.09,20.31,5.87,28.4-.94,1.79-2,3.51-4,4.33a3.26,3.26,0,0,1-4.09-1.16c-1-1.32-.11-2.44.78-3.45a20.49,20.49,0,0,0,2.37-24.15A11.81,11.81,0,0,0,262,33Z"/><path d="M294.88,40.39c6.44,2.46,10.55,9.53,10.26,16.87-.17,4.44-1.18,8.66-4.25,12.1a3.24,3.24,0,0,1-4.45.77,2.64,2.64,0,0,1-.58-4C302.27,57.56,301.22,49.22,294.88,40.39Z"/><path d="M111.61,166.06a14.73,14.73,0,0,1,4.13-8.45c1.82-1.82,4-1.43,5.87-.16,3,2,4.81,1,6.18-1.9a1.53,1.53,0,0,1,.19-.3c1-1.29,1.59-3.9,3.76-2.82s1.34,3.59.59,5.41c-2.13,5.19-7,7-11.86,4.32-1.81-1-3-.87-4.35.58A9.84,9.84,0,0,1,111.61,166.06Z"/><path d="M151.16,195.05c-.38-2.13.31-3.58.7-5,1.22-4.45,3.68-5.1,6.83-1.78,1.54,1.62,2.61.79,3.42-.43a34,34,0,0,0,1.85-4.17c.55-1.17,1.07-2.54,2.81-2a2.64,2.64,0,0,1,2,3c-.5,3.51-1.78,6.75-5.07,8.49-3,1.58-6,1.31-8.21-1.59-.71-.91-1.13-.52-1.61.06C153,192.61,152.27,193.63,151.16,195.05Z"/><path d="M242.81,193.78c-6.85-.26-14.78-2.55-20-10.44-7.34-11-1.22-24.38,11.89-26.49,6.18-1,12,.34,17.79,1.79,7,1.74,14,3.16,21.33,2.06.92-.14,2.43-.72,2.68.76.22,1.27-1.34,1.39-2.2,1.91-.29.18-.67.22-1,.39-2.36,1.27-6.36-.21-7.23,3-.7,2.56.33,5.58.64,8.39.12,1.05.44,2.08.56,3.13.21,1.9.63,3.28,3.09,2.35a2.94,2.94,0,0,1,3.55.89c1,1.32.35,2.69-.27,4-1.24,2.66-3.85,3.6-6.23,4.31A82.61,82.61,0,0,1,242.81,193.78Zm3.15-7.55c4,.14,8-.81,12.09-1.57,2.14-.4,2.46-1.34,1.32-3.16a6.8,6.8,0,0,0-9.31-1.73c-.71.49-1.27,1.77-2.34.88-4.74-3.93-9.58-1.43-14.37-.27-.66.16-1.82.36-1.76,1.42,0,.89,1,1.25,1.66,1.68C237.13,185.87,241.4,186.42,246,186.23Zm-17.85-15.34c6-.65,11.73-1.29,17.45-1.88,4.44-.45,8.89-.85,13.34-1.27.93-.09,1.59-.47,1.55-1.53,0-.78-.6-1-1.23-.91-6.75.47-13.31-1.77-20.05-1.44C233.27,164.15,229.36,166.62,228.11,170.89Z"/><path d="M165.9,138.37c-.18,1.73-.75,3.4-2.68,4a4.68,4.68,0,0,1-5.37-1.61c-2-2.35-4-5-7.77-4.25-.46.09-.82-.2-.81-.84a3.77,3.77,0,0,1,1.57-3.34c3.38-2.36,9.77-1.49,13,1.84A6.83,6.83,0,0,1,165.9,138.37Z"/><path d="M269.16,326.75c0-3.66,2.59-7.18,5.38-7.21,2.41,0,3.83,2.24,3.75,6-.07,2.66-3.24,6.16-5.55,6.11C270.68,331.59,269.18,329.55,269.16,326.75Z"/><path d="M206.07,343.05a12.44,12.44,0,0,1,6.06-15.67C211.78,333.33,209.58,338.28,206.07,343.05Z"/><path d="M166.76,348.42a12.05,12.05,0,0,1,2.16-8.29,2.36,2.36,0,0,1,2.35-1.25c1,.19,1.37,1.2,1.64,2.1C173.92,344.33,171.62,347.15,166.76,348.42Z"/><path d="M233.82,120.76a11.74,11.74,0,0,1-1.09,6.14c-.72,1.51-1.8,2.75-3.74,2.8a4.46,4.46,0,0,1-4.28-2.51,13,13,0,0,1,0-14.31,4.6,4.6,0,0,1,4.35-2.54c2,.17,3,1.74,3.56,3.48A17.49,17.49,0,0,1,233.82,120.76Z"/><path d="M274.58,119.49a14.16,14.16,0,0,1,1.79-7.82c1.52-2.84,4.1-3.12,6.37-.86,4.17,4.12,4,12.81-.28,16.69-2.51,2.26-5,1.83-6.56-1.18A12.26,12.26,0,0,1,274.58,119.49Z"/></g></g></g></svg>