<svg xmlns="http://www.w3.org/2000/svg" viewBox="0 0 325.69 457.36"><title>gabrieledangella</title><g id="Livello_2" data-name="Livello 2"><g id="Livello_1-2" data-name="Livello 1"><g id="p5gbD5.tif"><path d="M149.5,177.32l4.13,3.91c0-3.46-.61-6.41.13-9,1.48-5.14-.62-8-4.61-10.79a9.8,9.8,0,0,0-6.05-2.21c-8.75.08-17.4.69-25.81,3.38a15,15,0,0,0-10,9.23c-.45,1.15-1,2.24-1.47,3.38-2.68,6.73-7.44,10.27-14.86,10.19S77.45,188,73.14,194.1c-5.43,7.63-6.44,16.28-5,25.28.51,3.31,3,4,5.34,1.72a149.48,149.48,0,0,1,40.87-27.6,7.19,7.19,0,0,0,2.88-2.06c1.71-2.17,5.86-2.38,8.37-1.09,11.11,5.74,19.46,15,29,22.7,6.33,5.11,12.91,9.75,20.83,12.19,3.68,1.14,5.51,3.69,4.68,5.81s-3.72,3-7.33,1.92c-10.78-3.29-19.5-9.9-27.54-17.49q-10.52-9.93-20.81-20.12c-2.16-2.14-3.81-2.67-6.77-.94A198.92,198.92,0,0,0,51.7,256.16c-6.46,9.62-12.71,19.37-17.55,29.95a100.77,100.77,0,0,0-9.08,36.83,405.16,405.16,0,0,1-12.55,81.92c-3.75,14.28-5,28.9-2.43,43.63.1.6.07,1.23.17,1.84.4,2.49-.41,4.28-3,4.88-2.74.63-4.33-.85-5.09-3.26a48.41,48.41,0,0,1-2-11.48c-.95-15.81,2.46-31,6.53-46.08a287.13,287.13,0,0,0,10.16-63.63c1.26-30.68,13-57.22,31.53-81.21,5.94-7.73,11.89-15.45,18.91-22.62-4.15-1.76-5.21-5.19-5.57-9.12-.77-8.56.05-16.85,4.49-24.39,5.3-9,13.1-14.12,23.76-13.64,5.38.25,8.89-2,10.45-6.73C104.55,160.59,114,156.18,126,155a96.15,96.15,0,0,1,16.27-.35c-3.29-4.7-6.35-9-8.06-14.13-.29-.87-.91-.87-1.72-.64-12.54,3.64-20.63-6.13-21.47-16.39-.28-3.38-.45-6.85.73-10.07a10.16,10.16,0,0,0-.25-7.36c-5-14-6.36-28.55-6.18-43.31.11-8.42.59-16.8,2.51-25.05,1.23-5.28,3.65-9.73,8.13-13a51,51,0,0,0,7.87-7.33c5.79-6.4,13.49-9.61,21.5-11.95,27.25-8,54.16-7.43,80.71,3.36,9.57,3.9,19.4,7.18,29.11,10.74,3.43,1.26,3.85,2.2,2.39,5.47a50.55,50.55,0,0,1-4.16,7.87c-.68,1-1,1.73,0,2.92,2.83,3.45,2.72,7.16-.07,10.6a6.94,6.94,0,0,1-2.18,2.14c-4.61,2.11-4.15,5.32-2.92,9.46,2.15,7.26,3.67,14.7,5.42,22.08,1,4.12,4,6.62,7.1,9.07a23.37,23.37,0,0,0,3.26,1.7c3.4,1.91,3.95,5.17.83,7.4-4.81,3.44-5.75,8.15-5.3,13.45,1.51,17.55-1.24,34.14-10.89,49.21A64.43,64.43,0,0,1,238.37,173c1.35.82,2.55,1.51,3.7,2.27,8.17,5.38,13.31,12.64,13.85,22.67a2.21,2.21,0,0,0,1.43,2.07c20.29,10.75,32,28.63,40.24,49.15,6.59,16.39,9.5,33.67,11.34,51.16,2.05,19.5,2.64,39.1,4.33,58.62,1.46,16.89,4.69,33.47,8.23,50,2.44,11.45,4.4,23,4.19,34.74,0,1.53.21,3.14-.82,4.46a4.23,4.23,0,0,1-4.59,1.76,4.45,4.45,0,0,1-3.54-4.44c-.58-7.16-1-14.33-2.22-21.42-2.34-13.85-4.75-27.68-7.06-41.53-2.58-15.42-3.32-31-4.22-46.57-1.21-21-2-42-6.81-62.63-5.34-23.08-14.29-44.48-30.51-62.25-2.91-3.17-6.11-6.08-9.22-9.06-.69-.65-1.26-1.4-2.62-1.11-3.11.64-4.71-.51-5-3.64-.75-8.73-5.45-15-12-20.25-1.45-1.15-2.61-1.27-4.07-.1a28.37,28.37,0,0,1-3.66,2.27c-2.9,1.69-3.29,2.69-1,5.15s2,4.68.39,7.16A116.75,116.75,0,0,1,203.58,220c-5.85,4.71-10.6,5-16.53.59-13.69-10.16-25.87-21.82-34.94-36.44A14.42,14.42,0,0,1,149.5,177.32Zm82.11-58.5c-.63,3.6-1.79,6.36-4.61,8.14-4.27,2.71-9.92,2-15.42-2-1.65-1.2-2.89-2.56-1.45-4.59s3.27-1.78,5-.33a19.05,19.05,0,0,0,5.27,3.07,4.2,4.2,0,0,0,4.78-1.13,4.28,4.28,0,0,0,.91-4.82,10.71,10.71,0,0,0-3.9-4.62c-.7-.51-1.75-.92-1.29-2.13a1.92,1.92,0,0,1,2.24-1.21c1.47.16,1.91-.3,1.35-1.74a24.65,24.65,0,0,1-.79-3c-.89-3.46-3-4.73-6.31-3.61-4.52,1.51-7.18,4.62-8.17,9.39-1.93,9.35-10.55,16-20.54,16.12-11.67.13-18.56-4.91-21.12-15.55a2.64,2.64,0,0,0-2-2.35,8.07,8.07,0,0,1-4.07-2.62,2.62,2.62,0,0,0-2.09-1.09c-6.56.2-13.11-.22-19.66-.58-1.23-.07-2.05.33-1.86,1.73.16,1.22.6,2.53-.94,3.19-1.38.6-2-.71-2.86-1.32-6.26-4.5-13.09-2.25-15.22,5.1a23.88,23.88,0,0,0-.41,11.87c1.66,7.5,6.42,10.15,13.67,7.85,3.53-1.12,4.57-.43,4.89,3.34a4.46,4.46,0,0,0,.68,2c4.13,6.9,8.67,13.49,14.84,18.74,2.82,2.4,5.22,5.5,9.44,5.9,1.62.15,2.25,1.65,2.17,3.51-.24,5.14-3,9-5.93,12.85s-2.93,3.79.37,7.24c9.58,10,19.46,19.73,30.89,27.69,5.13,3.58,6.6,3.54,11.22-.74a166.63,166.63,0,0,0,17.73-19.62,6.86,6.86,0,0,0,1.25-7.29c-.62-1.74-1.06-2.25-2.89-1.75a45.66,45.66,0,0,1-23.07.38,32.28,32.28,0,0,1-16.41-9.14c-.89-.95-1.74-2-.73-3.21s2.08-.44,3.11.11,2,1.05,3,1.56c8.44,4.22,17.42,6.49,26.76,5,19.95-3.11,32.38-15.48,39.77-33.66.71-1.76.39-2.65-1.39-3.52a183.24,183.24,0,0,0-17.32-7.84c-2-.73-3.17-2.08-2.5-4.23s2.43-2.37,4.48-1.82a39,39,0,0,1,18.57,11.28c2.2-7.2,2.7-14.32,2.67-22C246.63,123.12,239.56,124.66,231.61,118.82Zm-7.34-24.91c-2.15-.73-3.65-1.12-5-1.75-1-.45-2.26-1-2-2.4.26-1.12,1.52-1.28,2.53-1.34a28.21,28.21,0,0,1,4.31,0,7.21,7.21,0,0,0,6.22-2.44,20.56,20.56,0,0,1,14-6.12c2.44-.09,2.6-.83,2.09-2.92q-4.32-17.58-9.28-35c-.68-2.4-1.95-2.84-4.08-2.06a21.22,21.22,0,0,0-6.55,4C219.51,49.91,212.1,50,204,46c-12-5.95-24.64-9.5-38.24-8.34-6.51.56-12.88,1.81-18.24,5.75-9.26,6.81-14.68,15.7-5.76,26.73,3.22,4,2.9,5.76-.45,9.78C137,85.07,136,91,137,97.48c.22,1.33.7,2,2.14,2,6.66,0,13.3.85,20,.57a6,6,0,0,0,3.72-1.24c5.17-4.33,10.5-8.51,15.33-13.2A35.36,35.36,0,0,1,195.31,76c3.43-.77,5.93.5,6.69,3.21.88,3.13-.93,4.77-3.71,6A19,19,0,0,1,207.58,94a1.61,1.61,0,0,0,2.26.91C214.32,93.34,219,94,224.27,93.91ZM110.52,66.12a200.63,200.63,0,0,0,3.64,34.45c.23,1.24.26,2.18,2,1.56a39.79,39.79,0,0,1,13.54-2.2c2.34,0,2.65-.83,2.34-2.9-1.06-7.28.1-14.15,4.83-20,1.42-1.77,1.41-2.85.06-4.71-7.39-10.17-6.89-19,1.46-28.36,7.45-8.39,17.25-11.46,28-12a76.64,76.64,0,0,1,40,9.14c5.67,3,11,2.74,16.07-1.26a39.51,39.51,0,0,1,5.61-3.76c8.42-4.49,13.81-2.14,16.23,7,.89,3.34,1.16,3.43,3.67,1.18,2.71-2.42,2.44-4.22-.8-5.7-2.18-1-2.52-2.57-1.09-4.47a72.6,72.6,0,0,0,5.49-8.15c.94-1.67.56-2.18-1.11-2.77-10.71-3.82-21.36-7.82-32.07-11.6A119.69,119.69,0,0,0,198,6.06c-16.41-2.68-32.51-.6-48.44,3.4-10.06,2.52-19.1,6.81-25.64,15.3a15.47,15.47,0,0,1-3.45,3A18.12,18.12,0,0,0,113,39.73,140.39,140.39,0,0,0,110.52,66.12Zm94,38.48c-.21-10.49-6.29-15-14-14.43-5.78.46-10.7,3.24-14.93,7.2-4.62,4.34-5.29,13.6-1.34,18.6,4.31,5.44,12,7.47,19.16,5C200.07,118.75,204.49,112.21,204.5,104.6ZM241,86.44c.49,0,1,0,1.46,0,3.26-.26,5.31,1.13,5.56,3.78.23,2.4-1.94,4.41-4.95,4.76a35,35,0,0,1-9.47.3c-1.41-.23-1.73.59-2.24,1.5-3.4,6.18-2.52,12.22,2.57,17.31,4.14,4.15,9.3,4.65,14.11,1.28,2.56-1.79,4.92-3.94,4.64-7.38-.56-6.93-2.26-13.67-3.77-20.44-.2-.87-.45-1.67-1.42-1.75C245.3,85.61,243.09,85.3,241,86.44Z"/><path d="M196.58,229.85C198.2,243,199.35,256,199.79,269c1.07,31.09,1.26,62.19,1.18,93.29,0,3.11.91,3.76,3.8,3.51,8.38-.72,16.78-1.13,25.17-1.76,3.67-.27,6.32.69,6,2.61-.52,3-3.1,2.81-5.36,2.89-8.82.29-17.64.61-26.46.8-2.27.05-3.09.67-3.13,3.14-.48,27.2-1.94,54.35-3.55,81.5-.06,1,.21,2.41-1.18,2.39s-1.12-1.55-1.18-2.47c-.5-7.89-1-15.77-1.36-23.66-.81-19.28-2.06-38.54-2-57.84,0-2.37-.78-2.93-3-2.92-14.16.09-28.33,0-42.49.07-1.13,0-2.83-.69-2.39,1.82C146,384.67,142.37,395.68,136,406a90.42,90.42,0,0,1-12.25,15.39,18.51,18.51,0,0,0-5.06,9.65q-1.91,9.5-3.84,19a13.36,13.36,0,0,1-2,5.13,4.33,4.33,0,0,1-8-1.93,13.33,13.33,0,0,1,.23-4.27c1.63-7.09,3.44-14.14,5.07-21.23a22.49,22.49,0,0,1,7.58-12.33c8.56-7.39,15.64-15.93,20.07-26.5a53.31,53.31,0,0,0,4-16c.15-1.75.55-2.57,2.65-2.79,14.4-1.46,28.85-2,43.27-3,3-.21,3.92-.94,3.91-4.11-.11-33.66,0-67.33,1.47-101,.42-9.93,1.63-19.83,2.49-29.74A2.9,2.9,0,0,1,196.58,229.85Z"/><path d="M280.24,250.43c.79,1,.52,2.22.55,3.3.33,16.52.74,33,.91,49.57a383.28,383.28,0,0,0,11.39,87.05c3.52,14.44,6.54,29,7.56,43.9.16,2.45.55,4.9-.16,7.33-.6,2.05-1.87,3.46-4.07,3.64s-3.5-1.3-4.35-3.21a13.07,13.07,0,0,1-.8-4.53C290,418.08,286.35,399,282,380.16a254,254,0,0,1-5-82.56c1.43-14.7,1.87-29.49,2.77-44.24C279.85,252.4,279.56,251.37,280.24,250.43Z"/><path d="M87.15,364.88c-1.05,16.68-2.2,35.21-3.39,53.72q-1,15.19-2.06,30.38c-.29,4-2.69,7-5.29,6.85s-4.53-3.58-4.3-7.77c1.76-32.76,5.09-65.42,5.84-98.24A184.88,184.88,0,0,0,76.12,317c-.12-.75-.6-1.82.3-2.22,1.2-.53,1.51.79,1.92,1.5,6.08,10.34,8.34,21.71,8.78,33.53C87.29,354.21,87.15,358.63,87.15,364.88Z"/><path d="M238.62,368.52c1.32.49,1.68,1.52,2.21,2.35,4.93,7.64,10.47,15,17.75,20.31,10.12,7.4,14.14,17.32,15.17,29.2.52,5.92,1.51,11.79,2.27,17.69a11.44,11.44,0,0,1,0,4.59c-.55,2-1.46,3.69-3.8,3.89s-3.54-1.34-4.34-3.23a16.28,16.28,0,0,1-1-5.41,257.43,257.43,0,0,0-2.93-26,17.41,17.41,0,0,0-5.63-10.63,68,68,0,0,1-18.6-27.51C239,372.18,238.26,370.59,238.62,368.52Z"/><path d="M228.37,147c0,4.53-2,8-6.05,9.84a11,11,0,0,1-12.11-1.31,11.27,11.27,0,0,1-4.3-11.14c.21-1.31.71-2.83,2.26-2.92,1.35-.09,1.63,1.47,1.94,2.44a9.47,9.47,0,0,0,3.81,5.37,4,4,0,0,0,4.1.31c1.27-.61,1.37-1.88,1.22-3.19-.43-3.86.83-6.08,3.5-6.29,2.84-.23,5.36,2.31,5.62,5.67C228.39,146.2,228.37,146.61,228.37,147Z"/><path d="M214.53,127.94c1.67.48,3.93.41,4.22,2.74.25,2.1-1.18,3.22-3.2,3.85-7.23,2.21-14.69,3.66-21.69,6.62-1.32.55-2.61,1.2-4,1.68-.63.23-1.44.61-2-.1-.67-.87,0-1.53.54-2.15a16.68,16.68,0,0,1,4.35-3.39,92.06,92.06,0,0,1,18.95-8.63C212.62,128.27,213.55,128.16,214.53,127.94Z"/><path d="M128.6,114.21c3.27.2,6.5.64,9.22,2.72,1.89,1.46,3,3.4,1.4,5.53-1.44,2-3.54,1.41-5.16.1a16.18,16.18,0,0,0-11.69-3.6c-1,.07-2.19,0-2.44-1.26s.89-1.72,1.81-2.09A16,16,0,0,1,128.6,114.21Z"/><path d="M197,103.46a46.5,46.5,0,0,1-.46,5c-.62,3.49-2.44,5.83-5.84,6.74a8.56,8.56,0,0,1-9.5-3.36,11,11,0,0,1-1.84-10.44c.58-1.84,1.42-1.86,2.47-.41,1.32,1.82,2.55,3.69,3.89,5.49.53.72,1.17,1.68,2.21,1.28s.56-1.42.58-2.21c0-1.12,0-2.25,0-3.38.05-3.45,1.71-5.49,4.43-5.49S197,98.6,197,102.07Z"/><path d="M229.82,103.56c.13-.56-.61-2.18.87-2.41,1.32-.22,1.53,1.35,1.94,2.37.64,1.59,1.08,3.35,2.79,4.22.76.39,1.56,1.27,2.48.44s.43-1.64.06-2.52a28,28,0,0,1-1.6-4.28,3.11,3.11,0,0,1,2-3.95,3.39,3.39,0,0,1,4.56,1.32c1.92,3.37,2.78,7.1,1.25,10.85-1.92,4.68-9.2,5.24-12.29,1A9.47,9.47,0,0,1,229.82,103.56Z"/></g></g></g></svg>