<svg xmlns="http://www.w3.org/2000/svg" viewBox="0 0 435.39 622.49"><title>gianmarcodiurno</title><g id="Livello_2" data-name="Livello 2"><g id="Livello_1-2" data-name="Livello 1"><g id="mmEN89.tif"><path d="M322.6,16c8.64-1.43,12.69,2.08,11.73,10.16-.24,2,.67,1.94,1.91,2.34,5.74,1.87,7.7,5.44,6.46,11.35a23.53,23.53,0,0,1-3.4,7.66c-1.9,3-5.55,5.25-4,9.89.44,1.33-.61,3.47-2.14,4.35-3.06,1.78-3.3,4.08-2.62,7.32s1.55,6.67-1.35,9.58c-.85.86.16,2.13.47,3.18,8.8,29.4,10.66,59.42,8.14,89.84a7.75,7.75,0,0,0,.45,3.67c8.23,20.72,2.35,43.66-14.86,58.52a77.49,77.49,0,0,1-12.28,8.91c-1.76,1-2.18,1.74-.58,3.36,2.82,2.86,4.26,6.57,5.76,10.22A498.52,498.52,0,0,1,336.24,315a27.21,27.21,0,0,0,3,7.83c1.64,2.57-.72,4.74-1.85,6.81a4,4,0,0,1-4.84,1.69c-2.4-.67-3.38-2.44-3-4.86.33-2-1.18-2.4-2.36-3-5.9-3-11.84-5.86-17.77-8.78a9,9,0,0,0-8.5.23C289,321,277.22,327.26,265.67,334c-1.58.92-3.15,2.21-4.85,2.48-4.37.67-4.85,2.88-4.75,7,1.8,76.89,1.25,153.77-.85,230.65-.37,13.33-.88,26.73-3.05,40-.2,1.18.14,3-1.51,3.08-2.07.14-1.71-2-1.88-3.16-1.57-11.47-1.6-23-1.83-34.57-.89-44.65.6-89.27,1.52-133.9.69-33.22,1.06-66.46,3.23-99.63.15-2.28,0-3.68-2.81-3.87-3.62-.24-6.48-2.57-9.59-4.15-7.15-3.63-14.37-7.14-21.37-11-4.77-2.66-8.92-2.22-13.37.7a219.68,219.68,0,0,0-30.7,23.72,20.78,20.78,0,0,1-3.15,2.8c-3.18,1.95-6.39.69-6.93-3A88.45,88.45,0,0,1,162.49,336a557.14,557.14,0,0,1,6.25-70.16,5.91,5.91,0,0,0-.1-3.69c-3.26-7.16.91-17.82,7.93-21.42,6.1-3.14,12.1-5.9,19.27-4.66,2.78.48,1.9-2.35,2.23-3.67.38-1.48,2.16-3.74-.29-4.73-9.14-3.69-14.26-11.58-20-18.81-1.64-2.07-2.57-3.28-5.61-2-4.82,2-10-.06-12.66-4.71-1.21-2.11-2.2-2.28-4.32-1.51-5.31,1.95-9.7-1.65-7.58-6.81,2.75-6.66,1.51-11.06-2.63-17-7.38-10.63-9.64-23-4.76-35.76a8.05,8.05,0,0,1,1.49-3c4.15-3.91,3.21-8,2-13.12-6.55-28.58-2.84-55.88,12-81.39,1.41-2.42,1.93-4,.21-6.68-3.45-5.33-2.24-10.13,3-13.29a3,3,0,0,0,1.66-3.36c-.36-3.54,0-6.87,3.79-8.57,3.59-1.63,7.19-1.11,9.76,1.63s4.7,1.83,7.56.41C195.35,6.83,210,3.84,225,1.76,244.9-1,264.84-.67,284.21,3.8,295.64,6.44,307,7.19,318.46,8.37,322.57,8.8,323.51,10.54,322.6,16Zm6.09,165.47c-1.11-3.43-2.66-5.84-2-8.32,1.65-6.19,1.64-12.5,2.18-18.79,1.29-14.94.12-29.8-1.67-44.59-1.45-12-3.78-23.83-5.37-35.78-.54-4-2.51-5.13-6.07-5.1a41.69,41.69,0,0,1-19.07-4.64c-5.92-2.93-6.16-2.81-6.39,3.87,0,.28,0,.56,0,.84-.17,5.66-2.06,6.81-7.09,4.2a138.07,138.07,0,0,1-19.11-11.58c-2.81-2.1-3.77-1.09-4.22,1.86-.41,2.64-.91,5.26-1.55,7.85-1,4-2.85,4.75-6.38,2.69a40,40,0,0,1-11.06-9.06c-2.15-2.65-3.32-2.38-4.46.59a14.5,14.5,0,0,1-1.14,2.26c-1.64,2.77-3,5.74-6.71,6.49s-5.19-2-7.38-4.45c-5.4,12.74-13,23.54-21.29,33.87-1.21,1.49-2.1,3.42-4.45,3.53s-2.89-2.18-4.21-3.69c-2.54,4.64-4.74,9.05-7.3,13.23a8.2,8.2,0,0,0-1,6.75c1.34,5.45,2.51,10.94,3.78,16.4.77,3.33-.53,5.42-3.7,6.52-6.7,2.33-9.3,1.38-13.22-4.87-4.4-7-9.19-8.46-15.39-4.58a13.27,13.27,0,0,0-5.2,6.47c-1.93,4.73-1.74,9.54-1,14.51,1.74,12,6.59,17.66,18.07,20.48,2.32.57,4.55,1.6,4.51,4.28-.05,2.89,1.5,4.72,3.21,6.59,8.45,9.24,16.29,19,26.07,27,2.72,2.21,4.54,5.07,3,8.88a1.9,1.9,0,0,0,.8,2.53,99.32,99.32,0,0,0,27.33,13.91c-3.52-3.75-6.83-6.51-8.51-10.62,2-.72,2.69.63,3.63,1.3a45.15,45.15,0,0,0,11.85,6.39c22.21,7.5,44,6.47,65.09-3.9,11.65-5.73,20.38-14.41,24.92-26.85,1.84-5,1.78-5.16-3.57-6.2q-11.75-2.28-23.53-4.43c-3.69-.67-7.25-2.09-11.16-1.33-12.8,2.46-25.63,4.83-38.46,7.2-5.44,1-7.32-.53-7.41-6a14.6,14.6,0,0,1,.48-4.17c2.53-9.08,9.09-14.12,17.49-17.38,5.5-2.15,11.32-3.1,17.89-4.38-3.74-2.28-6-4.53-3.28-7.93,2.55-3.19,4.9-.93,7.26.7a25.88,25.88,0,0,0,6.6,3.6,5.65,5.65,0,0,0,6.47-1.73,5.78,5.78,0,0,0,1.09-6.64,15.2,15.2,0,0,0-5.45-6.28c-1.11-.71-2.08-1.64-1.4-3.12s2-1.65,3.56-1.28c4.53,1.09,7.85,3.52,9.65,8,2.18,5.35.37,10.06-2.58,14.76C311.56,172.58,320.57,174.49,328.69,181.44ZM191.77,244.32c2.46,3.56,3.42,3.18,3.73.52a25.86,25.86,0,0,1,1-4.52c.57-1.84.18-2.64-1.89-2.4-6.09.72-11.56,2.68-15.2,7.94a39.93,39.93,0,0,0-7.49,23.72c0,2.67.06,5.34,0,8-.33,18.43-.71,36.86-1,55.3,0,2.49-.26,5.06.85,7.49,1.78-.48,2.86-1.85,4.15-2.89a236.33,236.33,0,0,1,26.37-18.93c6.22-3.75,12-3.75,18.31-.41,10.54,5.61,21.2,11,32.41,16.73-.52-2.58,2.32-4.72.92-6.54-2.24-2.9-4.24-6.55-8.29-7.41a10.34,10.34,0,0,1-5.29-3.19c-12.19-12.16-23.49-25.11-32.61-39.73C201.5,268,194.44,258.31,191.77,244.32Zm98.71,11.62c1-.4-.19-2.57,1.65-2.25,1.39.24,1.49,1.53,1.53,2.66.07,2.17-.9,4.09-1.62,6.06-8,21.79-17.44,42.95-27.11,64-.66,1.44-1.71,2.82-1.6,4.87,1.18-.8,2.13-1.39,3-2.06,9.7-7.25,20.08-13.46,30.38-19.81,5.54-3.42,11-3.8,16.78-.88,3.26,1.64,6.58,3.18,9.92,4.65,1.07.47,2.27,1.9,3.34.86s0-2.37-.33-3.57c-2.78-10.9-6.17-21.62-9.91-32.22-3.12-8.87-6.61-17.62-10-26.39-1.34-3.45-3-6.11-7.46-3.35a15,15,0,0,1-6,1.94C289,251,288.73,252.88,290.48,255.94Z"/><path d="M163.56,259.23a210.33,210.33,0,0,0-28.42,10.43c-25.09,11-44.28,29-60,51-17.85,24.92-28.74,53.08-37.63,82.06A624.48,624.48,0,0,0,11,549.31c-.85,14.34-1.42,28.69-1.33,43.05,0,5.24-2.18,9.79-4.81,9.65C2.38,601.88,0,597.27,0,592.58a630.35,630.35,0,0,1,5.7-86.71A615,615,0,0,1,35.49,382.29c9.85-27.68,22.12-54.2,41.32-76.88C94.65,284.35,116,268.41,143,261,149.78,259.09,156.65,259.33,163.56,259.23Z"/><path d="M327.52,276A77.19,77.19,0,0,1,350,290.24c18.08,16,29.88,36.06,38.1,58.42,10.81,29.38,17.14,60,23.66,90.47,7.42,34.68,13.14,69.63,17.47,104.82,2.77,22.49,4.7,45.06,6.12,67.68a13.89,13.89,0,0,1-1.85,8.5c-1.85,2.94-4.58,3.15-6.93.55a12.83,12.83,0,0,1-3.06-8.14c-2-32.88-5.05-65.65-9.4-98.29C407,461.38,397.38,409,382.71,357.7c-6.06-21.2-14.84-41.29-28.93-58.63a100.22,100.22,0,0,0-12.43-12.63C337,282.67,332.18,279.49,327.52,276Z"/><path d="M79.17,448.16c4.13,2.93,7.87,6.26,12.18,8.88,2.56,1.55,3.84,2.3,4.36-1.82a49.62,49.62,0,0,1,4.76-17c1.62,3.93,1.73,7.4,2,10.85,1.7,24.35,0,48.69-.3,73-.3,26.6-1,53.2-1.6,79.8-.08,3.52-.33,7-.58,10.54a14.8,14.8,0,0,1-.66,3.28c-.9,2.89-2.76,5.49-5.77,5.37s-4.7-2.81-5.67-5.61a20,20,0,0,1-.85-6.67c.12-39.15,1.3-78.25,4.42-117.28.66-8.27,1.63-16.53,2.76-24.74a4.58,4.58,0,0,0-2.08-4.94A51.62,51.62,0,0,1,79.17,448.16Z"/><path d="M369.43,412.13c2.43,2.42,2.28,5.2,3.76,7.78,3.35-3.94,6.59-7.74,9.84-11.54l.84.58c-2.58,4.76-5,9.61-7.81,14.23a10.09,10.09,0,0,0-1.24,8c6.45,28.34,8.65,57.22,10.84,86.11,2,26.4,2.47,52.84,2.63,79.29,0,5.1-1.4,7.17-4.93,7.34s-5.39-1.64-5.67-5.79q-1.31-19.15-2.47-38.33c-1.88-30.75-4-61.49-5.52-92.26-.83-16.15-.8-32.35-1.07-48.52A57.21,57.21,0,0,1,369.43,412.13Z"/><path d="M281,397.12c6.74-2.85,13.21-3.22,19.57-3.9a334.28,334.28,0,0,1,42.92-1.84c3.19.07,7.41-.24,7.33,4.15s-4.27,4-7.5,3.73c-18.8-1.43-37.62-1-56.45-.72C285.09,398.57,283,399.13,281,397.12Z"/><path d="M265,448.24c-3.23,0-5.59-2.51-5.65-6-.07-3.94,2.73-7,6.25-6.9a6.2,6.2,0,0,1,6.11,6.16A7.08,7.08,0,0,1,265,448.24Z"/><path d="M266.54,570.09c-3.62-.19-6.18-2.63-6-5.69.23-3.46,3.82-6.64,7.18-6.36a6.37,6.37,0,0,1,5.58,6.29C273.22,568,270.5,570.3,266.54,570.09Z"/><path d="M267.07,495.36a6.26,6.26,0,0,1,6.38,6,5.78,5.78,0,0,1-5.48,6.22,6.59,6.59,0,0,1-6.75-6.16A6.19,6.19,0,0,1,267.07,495.36Z"/><path d="M263.68,385.59c-2.93,0-5.72-3.14-5.61-6.26a6.55,6.55,0,0,1,6.38-6.09,6.62,6.62,0,0,1,6,6C270.4,382.46,267,385.62,263.68,385.59Z"/><path d="M273.45,610.21c-.05,3.1-3.33,6.27-6.31,6.09a6.15,6.15,0,0,1-5.37-6,5.94,5.94,0,0,1,5.81-6A5.83,5.83,0,0,1,273.45,610.21Z"/><path d="M279.79,129.59c-6.48,0-13,.09-19.44-.05-2.86-.06-4.21.83-3.91,3.86a14.43,14.43,0,0,1-1,7c-1.18,2.86-2.53,5.57-6.21,5.23-4.6-.43-7.46-3.3-7.75-7.46-.07-1.12-.05-2.25,0-3.38.17-5.77.18-5.75-5.95-5.85-2.18,0-5.74.38-5.85-1.72-.14-2.66,3.51-2.54,5.7-3a313.46,313.46,0,0,1,54-5.44c9.83-.21,19.68-.45,29.52-.65,3.42-.06,6.66.24,6.88,4.82.21,4.27-1.34,6.12-6.39,6.46-2.86.2-4.16,1-3.8,4,.34,2.75-.81,5.25-1.81,7.69-1.42,3.46-5.21,4.17-7.9,1.53a10.94,10.94,0,0,1-3.35-9.63c.5-3.21-.79-3.52-3.32-3.48C292.74,129.65,286.26,129.59,279.79,129.59Z"/><path d="M174.18,155.53c-.42,2-.83,3.7-2.7,4.7s-3.52.43-5-.76c-2.69-2.13-4.33-5.11-6.23-7.88-1.08-1.57-2.23-3-4.43-2.19-3,1.12-2.44-.91-1.81-2.29,1.15-2.53,3.46-4.07,6.13-3.39a22.88,22.88,0,0,1,13.47,10A6.26,6.26,0,0,1,174.18,155.53Z"/><path d="M285.52,222.51c-3.24.47-6.68-.54-10.18-.6-1.13,0-2.51,0-2.73-1.39-.18-1.11,1.06-1.56,1.95-1.9,6-2.28,12.09-4.39,18.49-5.3a7.85,7.85,0,0,1,2.48.28c2,.34,4,.81,4.27,3.25s-1.7,3.78-3.63,4.58C292.87,222.79,289.31,222.65,285.52,222.51Z"/></g></g></g></svg>