<svg xmlns="http://www.w3.org/2000/svg" viewBox="0 0 265.24 380.35">
  <title>giorgiaditano</title>
  <g id="Livello_2" data-name="Livello 2">
    <g id="Livello_1-2" data-name="Livello 1">
      <g>
        <path d="M228.13,370c-.2,1.17-.34,2.07-.5,3-.64,3.61-2.67,4.79-6.24,3.83a11.57,11.57,0,0,0-3.17,0c-45.68,1.21-91.35,2.28-137,1.59-7.7-.11-15.4-.86-23.09-1.5-.7-.06-1.63-1.31-1.87-2.17-.87-3.07-1.48-6.21-2.36-10.09-1.33,3.11-2.35,5.53-3.38,7.94-1.64,3.84-4.19,5.35-8.32,4.65-10.47-1.77-20.71-.63-30.83,2.24a25.51,25.51,0,0,1-3.64.82A6.31,6.31,0,0,1,.2,374.68,45.62,45.62,0,0,1,.05,368C.41,349.49.62,331,1.22,312.55c.71-22.05,2.32-44,7.62-65.54,9.28-37.73,32.39-63.46,67.92-78.5,1.64-.7,2.91-2.27,4.42-3.48A75.36,75.36,0,0,1,75,159.52c-3.73-4.19-5.37-9.36-5.82-14.84-.73-9,0-17.77,3.7-26.16a5.41,5.41,0,0,0,0-3.51c-8.37-26.08-6.7-51.49,5.25-76.12,6-12.45,14.2-23.32,26.15-30.78C115.68,1,128.21-1,141.42.45A68.56,68.56,0,0,1,166.1,7.86c3.94,2.09,7.57,4.76,11.42,7a6.68,6.68,0,0,0,3.21.81c10,.09,18.8,3.15,25.69,10.69,5.55,6.08,7.5,13.46,6.94,21.46a85.81,85.81,0,0,1-2.11,13,14.24,14.24,0,0,1-5.66,8.51c2.17,5.28,4.64,10.3,6.33,15.56,4.25,13.19,4.86,26.78,3.46,40.48a187.54,187.54,0,0,1-8.24,37.67c-1.33,4.18-3.8,4.7-6.76,1.52A16.55,16.55,0,0,0,188.31,159a72,72,0,0,1-8.34-1.16q2.39,7,5,14.7c3.18.48,6.64.87,10,1.55,9.16,1.84,17.51,5.25,23.75,12.62,4.8,5.66,7.49,12.37,9.23,19.43q9.38,38.1,18.47,76.28c6.19,25.94,12.21,51.91,18.33,77.86,1.44,6.07-.48,8.89-6.78,9.72-5.19.69-10.37,1.38-15.55,2.11C237.59,372.77,232.84,372.57,228.13,370ZM142.84,146.81l.4-1a15.29,15.29,0,0,1,3.29.56c2.92,1.19,5.68,2.8,8.65,3.8,6.88,2.3,14,3.6,21,.89,6-2.35,10.72-7,14.73-12,8.84-11,10.45-24,9.34-37.51q-1.08-13.3-2.1-26.61a4.62,4.62,0,0,1,.3-2.38c1.12-2.19,1.06-2.45-1.37-2.47-3.88,0-7.77,0-11.62,0-.39-2.34-.59-4.15-1-5.91a1.86,1.86,0,0,0-1.39-1.08c-.37,0-1,.77-1.11,1.28-.3,1.52-.4,3.09-.56,4.42-4.85,0-9.58-.21-14.28.07-3.79.23-6.49-.51-7.07-4.76,0-.06-.22-.1-.41-.19-.26.9-.59,1.76-.76,2.65-.47,2.4-1.72,3.12-4.28,3.2-7.39.21-14.77.8-22.14,1.45-3.91.34-3.82.53-4.61-3.42-.83-4.17-1.8-8.31-2.78-12.74-3.21,3.52-6.07,6.52-8.75,9.67A5.17,5.17,0,0,0,115.13,68a36.37,36.37,0,0,1-2.79,15.57c-1.23,3-3.12,6.32-.2,9.58a1.6,1.6,0,0,1,.39,1.15,2.64,2.64,0,0,1-.8,1.63,2.27,2.27,0,0,1-1.78-.09c-.5-.2-.83-.8-1.29-1.15-4-3-8.29-2.56-12.54-.8-3.3,1.38-5.26,5.09-4.86,9.08a20.9,20.9,0,0,0,1.37,5.79c2.31,5.71,5.45,6.76,10.76,3.83a6.71,6.71,0,0,1,1.14-.48c2.49-.75,4,0,4.26,2.57.16,1.52-.54,3.12-.92,5,6.31,7.35,9.75,16.38,10.75,26.48l2.07-1.17a11.7,11.7,0,0,1,.45,1.57c.69,5.16.69,5.17,6,6.27.32.07.65.15,1,.2,7.24,1,14.47,2.07,21.71,3.07,1.85.26,3.71.43,5.57.63C150.4,154.2,145.26,152.16,142.84,146.81ZM100.35,31c-.23-.39-.38-1-.66-1a2.08,2.08,0,0,0-1.57.14,9.45,9.45,0,0,0-2.54,2.71Q91.47,41,87.67,49.4c-.24.54.44,1.5.7,2.26A8.82,8.82,0,0,0,90,50.17,11,11,0,0,0,91,47.88c2.15-5.68,4.2-11.41,8.69-15.8A6,6,0,0,0,100.35,31Zm67.53-1.37c-.43.38-1.23.83-1.17,1.1a2.67,2.67,0,0,0,1.07,1.66A16.91,16.91,0,0,1,174.41,40c.62,1.26,1.08,2.62,1.81,3.82.3.5,1.1.69,1.67,1,.24-.62.84-1.4.66-1.85-2-4.86-4.17-9.64-9-12.49C169.07,30.18,168.54,30,167.88,29.64Zm20,7.33a8.13,8.13,0,0,0-.5-1c-2.71-3.75-5.73-7.16-10.24-8.8-.6-.22-1.41.13-2.13.22.4.7.63,1.6,1.22,2.05,1.64,1.24,3.58,2.12,5.11,3.47s2.57,3,3.94,4.49A2.39,2.39,0,0,0,187,38C187.33,38,187.62,37.31,187.92,37Zm-94,97.11c-1.23-2.79-2.35-5.43-3.6-8a1.58,1.58,0,0,0-1.47-.36,1.53,1.53,0,0,0-.67,1.32c.92,2.55,1.93,5.08,3,7.56a1.66,1.66,0,0,0,1.41.63C93,135.16,93.37,134.58,93.92,134.08Zm-.75,29,4.67-1.25-.72-3.07Z"/>
        <path d="M168.31,131.53a43.14,43.14,0,0,1-1.71,5.08c-.77,1.59-2,2.81-4,1.63-1.56-.93-1.68-2.77-.39-4.5,2.85-3.86,2.55-9.08-.52-14.91.87.51,2.07.82,2.53,1.58a38.42,38.42,0,0,1,3.29,6.61c.45,1.24,1,2,2.2,1.74a36.66,36.66,0,0,0,6.55-2c2.39-1.06,4-1,4.91.82.78,1.58,0,3.36-2.16,4.4C175.38,133.78,171.78,133.34,168.31,131.53Z"/>
        <path d="M155.16,80.41c-.52.47-1.23,1.57-2.2,1.92a29.2,29.2,0,0,1-5.58,1.21,10.36,10.36,0,0,0-7.14,4.08c-.51.69-1.55,1-2.34,1.46-.25-1.07-.91-2.26-.66-3.19a11.09,11.09,0,0,1,6.2-7.42,27.19,27.19,0,0,1,8-2.1C153.43,76.15,154.9,77.47,155.16,80.41Z"/>
        <path d="M183.37,108.42c.1,5.47-5.34,9.31-10.83,7.49a26.83,26.83,0,0,1-4.86-2.48c-1.31-.76-2-1.91-1-3.32s2.15-1.15,3.44-.25a26.52,26.52,0,0,0,4.28,2.49,3.74,3.74,0,0,0,4.73-1.07,3.88,3.88,0,0,0,.08-4.88,37.51,37.51,0,0,0-2.85-3.09,8.76,8.76,0,0,1-.83-1.58,5,5,0,0,1,1.76-.52C180.48,101.49,183.31,104.91,183.37,108.42Z"/>
        <path d="M182.28,96.84c-1.94-3.32-.65-6.7,2.6-8.49a7.16,7.16,0,0,1,7.58.36c2.55,1.57,4.33,3.78,4.07,6.9a3.38,3.38,0,0,1-2,2.52c-.79.12-2.25-1-2.6-1.87-.72-1.82-1.09-3.75-3.43-4.07s-3.88,1.06-5.11,2.86C183.06,95.53,182.78,96,182.28,96.84Z"/>
        <path d="M178.19,79.51a14.38,14.38,0,0,1,2.68-2.34c4.8-2.49,12.34-.55,15.43,3.88,1.06,1.52,1.74,3.23-.06,4.62s-3.08.16-4.18-1.22c-3-3.76-6.72-5.49-11.56-4.36a8.6,8.6,0,0,1-1.9,0Z"/>
        <path d="M143.93,99.16c-3-3.07.43-9.56,6.14-10.16,3.58-.38,8,1.89,9,5,.36,1,.18,2.89-.52,3.49-1.28,1.11-2.36-.19-3.18-1.31-3.25-4.43-7.48-4.17-10.2.62C144.76,97.53,144.37,98.33,143.93,99.16Z"/>
        <path d="M98.33,99.62c3.62-2.32,7.89-1.45,10,2.11a4,4,0,0,1-.74,5.18c-1.48,1-3.64.47-5-1.36S99.82,101.68,98.33,99.62Z"/>
      </g>
    </g>
  </g>
</svg>
