<svg xmlns="http://www.w3.org/2000/svg" viewBox="0 0 424.3 581.93"><title>giovannifava</title><g id="Livello_2" data-name="Livello 2"><g id="Livello_1-2" data-name="Livello 1"><g id="E0EiSA.tif"><path d="M144.4,169.54c-15.12-4.59-17.22-17.71-15.21-29.72,0-.13.07-.25.1-.38.89-4.28,2.94-8.33,3.54-12.55.62-4.42-4.11-7.18-5.3-11.36-3.56-12.41-3.25-24.83-.71-37.3a83.4,83.4,0,0,1,10.81-27.54c1-1.6,1.63-2.83,0-4.74-2.2-2.58-1.09-5.29,1.31-7.27a4.88,4.88,0,0,0,2-4.28c0-3.79,3.39-6.54,7.94-5.44,5,1.2,8-1,11.6-3.66,10.18-7.56,21.72-12.6,33.7-16.49C210.87,3.39,227.79-.6,245.55.07c7.29.28,14,2.57,20.58,5.06,12.14,4.57,24.2,9.2,37.26,10.51,4.75.48,5.64,1.76,4.95,6.36-.19,1.32.3,1.19,1.09,1.33,3,.56,4.14,2.53,3.93,5.45-.09,1.2-.22,2.24,1.42,2.75,3.37,1,4.08,4,4.11,7,.07,5.38-.95,10.59-4.17,15-1.24,1.71-1.16,2.76.06,4.44,4.43,6.11,5.62,13,4.15,20.36-.53,2.62-1.41,5.43-4.07,6.46-2.43.93-2.24,2.41-2.07,4.29,2.61,28.36,4.35,56.76,3,85.24-.66,13.58-1.48,27.21-5.37,40.36-3.37,11.35-9.16,21-20,26.82-.46.25-.87.61-1.93,1.36,3.29.56,5.8.9,8.27,1.43,7.95,1.72,11.41,5.51,11.86,13.5.17,3,2.09,2.15,3.59,2.23,17.32.91,32,7.43,43.78,20.33,8.34,9.12,14.05,19.8,18.81,31.06,8.09,19.15,13.21,39.31,19.65,59,4.32,13.25,9.51,26,17.92,37.36a76,76,0,0,1,9,16.29c4,9.63,3.81,19.07-1.41,28.21a4.91,4.91,0,0,0-.53,4.79c9.14,22.09,4.9,42.72-6.92,62.48a326.11,326.11,0,0,1-21.28,30.63,22,22,0,0,1-6.9,6.46c-4.33,2.31-5,6.25-1.79,10.1a16.39,16.39,0,0,1,1.56,1.79c1.51,2.45,2.81,5,.23,7.53a6.35,6.35,0,0,1-8.67,0c-2.64-2.35-4.54-5.23-4.46-8.93.05-2.23-.79-2.33-2.61-1.71-13.13,4.53-26.64,4-40,2.06-36.88-5.25-71.66-17.63-105.78-32.11-7.29-3.1-14.51-6.36-21.57-10-6.63-3.39-13.09-3.52-20.11-.22-18.8,8.84-36.58,19.61-55.33,28.53-16.37,7.8-33,14.79-51.11,17.62-2.22.35-3.91.6-2.82,3.84,1,3-1.63,6.25-4.65,6.68s-6.59-2.13-6.34-5.58c.3-4-1.67-4.52-4.84-5.17-25.18-5.18-40.1-21.57-48.41-45C1.33,508.72-.36,490.6.06,472.24c1.15-51,14.05-99.25,34.73-145.59,9-20.24,19.62-39.66,34.67-56.14,9.22-10.1,19.37-19.25,33-23.25,7.53-2.21,15.34-2.88,23.07-3.68,6.76-.69,12.06-3.9,17.23-7.66a38.79,38.79,0,0,1,13.76-6.83c5.68-1.36,10.82-.43,14.72,4.29,1.44,1.74,2.17,1.39,3-.39.68-1.43,1.56-2.77,2.24-4.2,2.58-5.5,6.36-10.9-.15-16.54a11.05,11.05,0,0,1-3.15-6.25c-1.51-9.47-9.34-15.11-13.43-23-.69-1.34-1.52-1.64-2.84-.8a2.82,2.82,0,0,1-1.9.48c-3.91-.9-7.67-2.36-11.53-3.47-2-.57-2.37-3.33-1.32-5.54C142.82,172.39,143.55,171.13,144.4,169.54ZM82.74,489.2c-1.56-.4-2.11.7-2.9,1.27-4.08,2.95-8.2,5.87-13,7.49-4.2,1.41-6.32-.27-6.28-4.69a37.34,37.34,0,0,1,.33-3.95c1.61-13.47,8.4-24.28,18.47-32.73,6.82-5.73,11-11.55,11.43-21,.48-10.45,3.46-20.79,5.36-31.17.81-4.42,1.53-8.87,4-12.74.48-.75.91-1.79,2-1.62s1.31,1.26,1.51,2.11a22.91,22.91,0,0,1,.7,8.25c-1.62,13.59-3.21,27.17-4.82,40.85A5.73,5.73,0,0,0,101,441a51.49,51.49,0,0,1,20.52-5.41c1.85-.07,2.41-1.06,2.83-2.65,1.44-5.48,5.28-8.24,10.68-9.3a49.44,49.44,0,0,1,13.42-.34c5,.37,9.95,2.31,14.89,1.19,11.72-2.67,23.6-2.87,35.48-2.73,10.84.13,21.69.44,32.45,2,11.87,1.68,24,2.6,34.35,9.62a3.39,3.39,0,0,0,2.21.61c6.49-1.08,13.15-.55,19.57-2.6,8-2.57,15.89-1.51,23.38,2.48,2.35,1.25,3.16,4.24,5.37,5.1a145.08,145.08,0,0,1,20.57,10.43c1.13-17.85-.7-35.07-2.43-52.28s-3.49-34.48-2.78-51.85c.12-2.91.41-5.86,2.23-8.82a38.26,38.26,0,0,1,2.87,10.28c2.7,16.4,5.2,32.84,8,49.23s4.91,32.88,4.24,49.67c-.37,9.58.37,19.29,4,28.49,1.6,4,.1,7-4,8.53a47.5,47.5,0,0,1-18.65,3c-10.94-.34-21-3.78-30.65-8.58-2.07-1-4-1.73-6.4-.94-31.46,10.25-62.16,22.33-91.46,37.79-1.19.63-2.68,1-3.28,2.13,14.68,8.5,30.41,13.85,46.33,18.74,32.92,10.1,65.47,21.58,100.44,22.92,13.94.53,25.91-2.38,34.82-13.89,7.05-9.1,14.3-18.05,20.65-27.68,6.75-10.24,12.28-21,13.76-33.41a71.61,71.61,0,0,0-.72-21.84l-3.14,2.69c-1.57,1.35-3,3.4-5.43,1.71-2.2-1.55-1.53-3.67-.71-5.73,1.95-4.91,3.81-9.85,5.81-14.74,3.15-7.69,2.26-15-2-21.93a67.08,67.08,0,0,0-5.17-7.51c-6.83-8.26-11.57-17.66-15.54-27.52-4.84-12-8.18-24.53-11.62-37-4.76-17.31-9.13-34.74-17.23-50.93-9.84-19.66-24.74-32.66-46.78-36.72-2.82-.52-4.52-.18-6,2.64A63.39,63.39,0,0,1,284,289.41c-17.93,11.63-38,14.08-58.32,11.1-36.25-5.3-67.45-20.2-88.57-51.81a3,3,0,0,0-3.6-1.45c-4.53.88-9.11,1.52-13.69,2.07-10.3,1.25-19.65,4.5-27.92,11.13a129.94,129.94,0,0,0-30.21,35C47,319.94,37.54,346.77,28.45,373.7a324,324,0,0,0-15.76,70.58,209.08,209.08,0,0,0,.78,52.25c1.78,12,4.11,23.93,9.13,35.14,9.8,21.86,32.33,32.88,55.35,26.54,18-5,35.1-12.4,51.79-20.74,28.62-14.31,56-31,84.83-44.89,24.49-11.79,49.71-21.42,76.83-25.17,2.4-.33,2.66-1.47,2.74-3.39.28-7-1.52-13.6-3.81-20.12-.5-1.44-1.12-2.1-2.83-2a329.31,329.31,0,0,0-48.64,6.41c-25.59,5.41-50.59,13-75.81,19.82-6.69,1.8-11.22,4.21-14.42,11.13-5.2,11.23-14.4,19.88-23,28.68a17.23,17.23,0,0,1-14.9,5.08c-5.31-.66-8.25-4.13-10-9.13-3.6,3.1-6.49,6.43-10.42,8.44-6.79,3.48-12.26.18-12.42-7.44a18.55,18.55,0,0,1,1.45-7.33C80.47,494.79,81.6,492,82.74,489.2ZM216.17,67.65a176.61,176.61,0,0,1-33.75,8.66,5.42,5.42,0,0,0-4.54,3.92,148.29,148.29,0,0,0-8,48.6c0,1-.41,2.33.73,2.9,5.8,2.9,7.09,8.92,9.6,14,6.32,12.79,12.28,25.74,22.83,35.84,5.58,5.35,5.43,5.33,12.55,2.12,8.39-3.78,14-10.64,19.78-17.33,5.09-5.87,10.7-11,19.09-11.43.9,0,2.78,0,1.51-2s-.85-3.84.91-5.25c2-1.62,3.95-.85,5.73.62a24,24,0,0,0,6.44,3.79,5.5,5.5,0,0,0,6.51-1.45,5.7,5.7,0,0,0,.91-6.61,14.08,14.08,0,0,0-4.95-5.54c-.91-.66-2.22-1.25-1.52-2.79s1.95-1.58,3.36-1.39c4.66.65,7.59,3.43,9.28,7.65,2,5,.28,9.42-2.42,13.69,4.79,2.09,8.11,5.52,11.42,9a42.18,42.18,0,0,0,11.88,8.47c2.35,1.15,3.94.84,4.12-2.44s.69-6.81.76-10.26c.59-27.53-1.62-55-2.51-82.46-.17-5.23-1-10-5.91-13.32-1.84-1.27-3-2-5.15-1.17-7.88,2.91-16.07,4.67-24.45,3.86-5.67-.54-10.63.81-15.65,3-10.74,4.65-22.09,7-33.62,8.64-2.76.39-5.31.07-7.18-2.26s-.13-4.45.93-6.51C215.12,69.54,215.45,69,216.17,67.65Zm-46.09,393c-2.25-2.09-3.72-3.61-5.35-4.94-14.52-11.8-31.29-15.4-49.46-13-8.42,1.11-17,3.19-23.54,8.67-8.06,6.77-15.25,14.7-19.31,24.78-1.25,3.08-2.94,6.12-2.41,10.15,1.41-.87,2.55-1.48,3.59-2.22a81.74,81.74,0,0,0,18.69-18.2c1.74-2.37,3.69-3.4,6.41-1.92s2.51,3.8,1.53,6.19c-2,5-4.19,10-6.26,15-2.21,5.32-4.63,10.56-5.93,16.36,2,0,2.76-1.37,3.78-2.3,7.46-6.86,12.47-15.33,16.25-24.63,1.54-3.8,4-5.12,7-3.8,3.36,1.47,3,4.12,2.16,7-2.27,7.32-4.52,14.64-6.61,22-.92,3.22.55,4.5,3.77,3.61,4.3-1.2,7.28-4.26,10.08-7.43a217.82,217.82,0,0,0,17.37-23.16,15,15,0,0,1,7.58-5.79A176.74,176.74,0,0,1,170.08,460.63Zm.24-223.5c-7.86-2.83-14.42-1.3-20.16,4-2.5,2.3-6.68,4.74-6.78,7.25-.14,3.64,3.62,6.89,6.51,9.5a149.86,149.86,0,0,0,40.23,25.79c2.44,1.08,3.18.38,3.49-2a66.72,66.72,0,0,1,5.57-19.73c1.74-3.78,1.12-5.52-2.89-6.2a7.39,7.39,0,0,1-1.85-.69c-2-1-3.24-.74-4.88,1.29-3.69,4.55-6.68,9.52-10.06,14.25-1.88,2.63-4.29,3.19-6.82,1.26s-2.28-4.32-.62-6.69a74.6,74.6,0,0,1,7.82-9c1.61-1.66,5.14-2.56,4.64-4.72-.38-1.59-3.73-2.51-5.77-3.69-7-4.06-9.49-3.6-14.32,2.66-2.27,2.94-4.58,5.81-7.89,7.71-1.73,1-3.28,1-4.66-.4a3.43,3.43,0,0,1-.08-5,41,41,0,0,1,3.34-3.38C159.71,244.86,166.15,242.75,170.32,237.13Zm97.21,14.26c-4.54-.69-9-.2-13.5-.83-8.83-1.25-17-4.48-25.3-7.51-14-5.12-28.09-10-40.58-18.44-1.91-1.28-2.55-.56-3,1.11a65,65,0,0,1-4.69,12.17c-1.42,2.72-.74,3.76,2,4.83,21.67,8.49,44.06,12.81,67.34,11.5C255.74,253.88,261.82,253.61,267.53,251.39Zm-94.2,176a6.09,6.09,0,0,0,1.18.83c11.22,3.89,22,8.56,29,18.89,1.06,1.57,2.23.8,3.48.44,7.07-2.08,14.11-4.33,21.25-6.16,8.52-2.18,17.1-4.17,25.79-5.85C227.82,426.51,200.76,426.84,173.33,427.39Zm50.16-232.11c3.57,2.53,7.63,4.06,11.3,6.21,4.77,2.79,8.47,1.34,12.34-1.32,12.37-8.49,25.38-10.36,39.24-3.9a38.47,38.47,0,0,0,6.3,2.34c2.63.71,5.83-2.13,7-6.15,1-3.28-2.1-2.16-3.36-2.92-1.69-1-3.67-1.55-5.33-2.6-10.57-6.67-21.67-6.24-33.15-2.91S235.59,192.79,223.49,195.28Zm4.77,81.62c0-3.56-.13-7.13,0-10.69.12-2.43-.73-3.68-3.16-4-3.91-.53-7.81-1.14-11.71-1.78a3.18,3.18,0,0,0-3.84,1.8q-5.84,10.8-11.9,21.45c-1,1.71-.65,2.55,1.16,3.18a154.44,154.44,0,0,0,27.65,6.39c1.57.24,2.59-.12,2.16-2.12C227.65,286.42,228.33,281.64,228.26,276.9Zm-62.13-96.15c-.39-2.73-.88-5.45-1.14-8.19-1.13-11.79-3.21-23.55-1.35-35.45a2.86,2.86,0,0,0-.44-2.64c-3.85-3.94-7-8.6-12.59-10.62-4.55-1.65-8-.64-9.67,3.85-2.58,7-4.38,14.14-3.63,21.69.54,5.49,4.34,10.17,8.83,11,2.25.42,4.37-.87,6.67-.39s4.23,1.41,3.36,3.83c-1,2.68.18,3.84,2,5.21a5,5,0,0,1,1.73,2.57C160.85,175.35,163.4,178,166.13,180.75Zm78.53,82.62c-4.61.21-8.35,2.58-8.86,6-1.09,7.29-1.6,14.65-3.3,21.84-.34,1.48,0,2.13,1.61,2.31,8.48,1,16.81,0,25.14-1.52,2.16-.39,2.42-1.25,1.7-3.25a146.8,146.8,0,0,1-5-18.66c-1.59-7.26-1.6-7.25-8.88-6.75C246.25,263.42,245.46,263.37,244.66,263.37Zm17.71,1.36c1.09,7.44,2.3,14.86,3.2,22.32.33,2.74,1.1,3.3,3.69,2.34,9.21-3.41,16.29-9.66,22.85-16.66,1-1.1.63-1.84-.34-2.59-4-3.07-7.52-6.68-11.36-9.83-4.36-3.58-9.32,1.57-14.19,1a4.37,4.37,0,0,0-2.26.61A2.57,2.57,0,0,0,262.37,264.73Zm58.82,180.64c4.13,7.76,5.3,16.23,6.64,24.64.25,1.61.59,2.94,2.53,2.78,2.67-.21,5.5,1,8-.87.23-.17.28-.76.2-1.12-.64-3.07-.17-6.48-1.86-9.2A50.75,50.75,0,0,0,321.19,445.37Zm-152.3.63c4,3.47,8,5.67,9.9,10,.44,1,1.35,1.13,2.35.75L196.21,451c-.87-2-2.33-3-3.59-4.06-3.33-2.91-6.42-6.66-11.63-3.06-1.18.82-3.05.62-4.61.88Zm138.22,16c1.56-.17,3.27,0,4.66-.61s4.37.72,4-2.46c-.33-2.7.45-6.11-3.55-7.08-2.94-.7-5.81-1.81-8.78-2.21-4.94-.68-5-.42-3.47,4.19a12.9,12.9,0,0,1,.85,3C301.09,460.86,303.14,462.51,307.11,462ZM174.38,436.54c-3.64-1.52-6.8-2.08-9.68-3.25-5.46-2.2-9.64-.16-13.75,3-1.12.85-2.49,1.68.09,2.52,3.38,1.11,6.71,2.36,10,3.61a2.86,2.86,0,0,0,3-.3C167,439.85,170.42,438.44,174.38,436.54ZM294.66,269c1.91-1.18,2.7-2.89,3.67-4.39,1.93-3,4.37-6.28,2.39-9.8-2.08-3.69-6.35-3.66-10.17-4-2.53-.23-3.35,1.06-2.27,3C291,258.59,292.61,263.81,294.66,269Zm-3,164.52c1.45,2.23,1.45,2.23,1.45,5.71,0,2,3.33,6.76,4.38,6.18,4-2.22,8.52-2,13.23-2.46C306.13,435.94,299.56,434,291.64,433.54Zm-163.77,1c3.4,1.61,6.51.63,9.45,1.17,6.29,1.14,6.34,1.06,8.18-5.29C139.51,430.58,133.31,429.11,127.87,434.58Z"/><path d="M213.51,564c-.24,2.1-1,3.86-3,4.79a6.14,6.14,0,0,1-7-1.27,11,11,0,0,1-3.55-8.92c.09-3.17,2.42-4.65,5.16-3.19C208.77,557.31,213.1,558.78,213.51,564Z"/><path d="M270.43,571.9c-2.68.05-4.06-1.49-5.07-3.42-1.16-2.22-2.12-4.53-1.07-7.1a1.62,1.62,0,0,1,.49-.61c1.83-1.28,3.61-.65,5.06.51,2.29,1.83,5.32,3.46,4.55,7.12A4.09,4.09,0,0,1,270.43,571.9Z"/><path d="M146.34,564.47c1.09,0,2.43.21,3,1.35.62,1.31-.92,1.32-1.59,1.74-1.41.89-1.07,2.22-1.18,3.51-.18,2.24-1,4.13-3.47,4.71-1.79.43-3-.46-3.94-1.94-1.37-2.15-.71-4,.67-5.81A9.63,9.63,0,0,1,146.34,564.47Z"/><path d="M96.28,315.7c-1.22-.08-2.7.19-3.21-1.07-.44-1.07.71-1.89,1.48-2.59a68.35,68.35,0,0,1,18.1-11.94c2.92-1.3,5.77-1,7.44,2.28a5.62,5.62,0,0,1-3,7.63A80.69,80.69,0,0,1,96.28,315.7Z"/><path d="M184.12,332.9c-.19,2.5-1.07,4.51-3.27,5.64a4.73,4.73,0,0,1-6.13-1.15,47.17,47.17,0,0,1-9.21-19.09c-.42-1.67.27-3.83,2.45-2.5,6.46,3.94,12.51,8.47,15.8,15.68A7.59,7.59,0,0,1,184.12,332.9Z"/><path d="M45.4,425.82c-.07,4-6,11.91-9.81,13.08a5.38,5.38,0,0,1-5.76-1.59c-1.62-1.72-1.61-3.86-.88-5.94,1.31-3.78,9-9.1,13.08-9.29C44.76,422,45.41,423.54,45.4,425.82Z"/><path d="M390.09,438.31c.05,3.35-.94,5.2-3,6.17a5.06,5.06,0,0,1-5.92-.68,15.21,15.21,0,0,1-5.09-11.95c.12-3.64,3.44-5.79,6.32-4A19.17,19.17,0,0,1,390.09,438.31Z"/><path d="M152.31,375.11c0,4.36-1.81,6.63-5.12,7-3.74.44-5.71-1.42-6.34-4.94-.42-2.33-.59-4.72-1.14-7-.49-2-.33-3.78,1.48-4.89a4.93,4.93,0,0,1,5.6.41A13.12,13.12,0,0,1,152.31,375.11Z"/><path d="M67,533.37c0,3.68-2.91,5.75-6.38,4.49-3.85-1.41-8.28-8-7.82-11.84.24-2,1.26-3.35,3.66-3.2C60.44,523.09,66.91,529.46,67,533.37Z"/><path d="M336.87,299.57c1.58.33,3.49-1,4.17.72.59,1.46-1.18,2.45-2.08,3.52-1.69,2-3.38,4-5.2,5.92a5,5,0,0,1-6.46,1,5.21,5.21,0,0,1-2.94-5.9,5.08,5.08,0,0,1,4.92-4.32C331.89,300.19,334.49,299.85,336.87,299.57Z"/><path d="M312.72,391.06c1.36.2,3.15-.72,4,.87s-.86,2.59-1.54,3.79a21.74,21.74,0,0,1-4.5,5.48,5.61,5.61,0,0,1-6.59,1.06A5.05,5.05,0,0,1,301.3,397a5.15,5.15,0,0,1,4.4-4.92C308,391.58,310.28,390.71,312.72,391.06Z"/><path d="M275.71,346.7a15.22,15.22,0,0,1,.64-3.17c.8-1.93,2.16-2.51,3.37-.4a79.11,79.11,0,0,0,5.59,7.64c1.36,1.82,2.14,3.76-.06,5.54s-4.23,1.35-6.09-.32C276.52,353.61,276.07,350.32,275.71,346.7Z"/><path d="M348.62,524.51c.11,2-1,3.13-2.71,3.86a3.31,3.31,0,0,1-4.16-1.31c-1.93-2.54-2.75-5.64-3.47-8.68-.42-1.81.75-2.65,2.58-2.41C344.05,516.39,348.6,521.4,348.62,524.51Z"/><path d="M275.41,508.9a15.81,15.81,0,0,1-1,6.62,2.94,2.94,0,0,1-3.29,2.28,2.9,2.9,0,0,1-2.43-2.76c-.8-4.66.71-8.91,2.79-12.92,1-2,2.43-1.25,3,.54A15.88,15.88,0,0,1,275.41,508.9Z"/><path d="M130.19,515c4.39-.08,6.91.88,6.86,4.21s-2.92,4-5.66,4.17c-3.57.2-6.79-1.78-6.82-4S127.84,515,130.19,515Z"/><path d="M365.74,377.08a18.34,18.34,0,0,1-6.8-.86,2.46,2.46,0,0,1-1.29-1.29c-.1-.19.47-1,.86-1.11,4-1.18,7.8-3.2,12.08-3.38,1.85-.08,3.65.4,3.9,2.46s-1.35,3-3.1,3.49A13.12,13.12,0,0,1,365.74,377.08Z"/><path d="M38,483.86c-1.26-.31-2.54-.55-3.79-.93-1.54-.47-1.82-1.62-.84-2.71,2.12-2.35,4.52-4.4,7.81-4.92,1.83-.28,3.47.12,4.3,2,.9,2,.07,3.59-1.51,4.82A8.8,8.8,0,0,1,38,483.86Z"/><path d="M219.34,363.72c-1.3-.06-2.61.07-1.72-1.93,1.36-3,6.95-6.66,10.23-6.51,1.87.09,3.44.68,3.8,2.71s-.94,3.14-2.8,3.61q-4,1-8,2A11.8,11.8,0,0,1,219.34,363.72Z"/><path d="M127.78,266.05c-3.81-.27-6.61-2.38-8.74-5.33-1.17-1.63-.16-2.88,1.61-3a15.21,15.21,0,0,1,10,2.8,2.64,2.64,0,0,1,1.05,3.47C131,265.62,129.52,266.1,127.78,266.05Z"/><path d="M183.82,484c-2.83,0-6.73-4.68-6.36-7.57a1.86,1.86,0,0,1,.21-.75c1-1.6,2.29-1.94,4.06-1.41,3.08.93,6.26,4.32,6.05,6.62A3.71,3.71,0,0,1,183.82,484Z"/><path d="M82.52,383.89c2.49-.05,4.43,0,4.82,2.16s-1.19,3.37-3.06,4c-3.77,1.33-7-.16-10-2.27-1.75-1.24-.92-2.27.75-2.62C77.75,384.62,80.49,384.23,82.52,383.89Z"/><path d="M261.66,461.4c-3.17-.07-7.73-2.87-7.19-4.34,1-2.74,3.72-3.1,6.18-3.19,2.75-.11,5.12,1.15,5.13,4.16C265.78,460.58,263.49,461.22,261.66,461.4Z"/><path d="M68.72,353.47c4.91-1.52,9.08-4,14-4.64,1.07-.13,2.2-.11,2.7,1.08s-.19,2-1,2.79C82,355.06,72.35,355.75,68.72,353.47Z"/><path d="M240,395.49c.2-2-.18-3.74,1.64-4.24,1.52-.42,2.35,1,3.13,2a24.26,24.26,0,0,1,2.4,3.63c1,2,.94,3.95-1.35,5s-3.6-.19-4.42-2.06A36.81,36.81,0,0,1,240,395.49Z"/><path d="M246.36,328.25c-2.46,2.58-4.2,4.5-6.05,6.31-1.06,1-2.36,1.77-3.88.84a3.56,3.56,0,0,1-1.87-3.61,3,3,0,0,1,2.95-2.66C240.18,328.79,242.87,328.59,246.36,328.25Z"/><path d="M87.78,274.8c2.42,0,5.06-.15,5.53,2.72.37,2.24-1.82,2.73-3.55,2.67-2.71-.09-5.93-.88-6.25-3.7C83.22,273.9,86.5,275.74,87.78,274.8Z"/><path d="M379.31,498.72c-1.83-.93-5.07-1.5-5.1-3.39s3.11-2.81,5.22-3.18a2.83,2.83,0,0,1,3.5,2.86C383,497.18,381.5,498.24,379.31,498.72Z"/><path d="M181.87,402.13a12.22,12.22,0,0,1,6.26.93,3,3,0,0,1,2.12,3,3,3,0,0,1-2.2,2.49,2.61,2.61,0,0,1-3.31-1.32C183.77,405.72,183,404.12,181.87,402.13Z"/><path d="M243.09,97.1a27.29,27.29,0,0,1,3.23.42c2.39.66,4,2,3.8,4.77s-2.05,3.76-4.23,3.88a222.94,222.94,0,0,0-33.95,4.52c-.89.19-2.06.37-2.48-.63-.54-1.27.83-1.8,1.55-2.37,6.33-5.09,14-7,21.66-8.93C236.21,97.86,239.92,97.59,243.09,97.1Z"/><path d="M217.71,125.42c.12-1.38-.42-3.08,1.61-3.55s2.39,1.25,3,2.48a14.37,14.37,0,0,0,5.06,6c4.1,2.67,6.84,1.8,8.61-2.73a27,27,0,0,1,1.49-4.07c1.16-2,2.79-3,5.31-2.12s3,2.9,2.4,5.08c-1.19,4.07-2.67,8.14-6.27,10.73-6.1,4.39-13.9,2.44-18.43-4.52C219.06,130.5,217.55,128.25,217.71,125.42Z"/><path d="M283.2,94.65a30.29,30.29,0,0,1,17.7,7,8.52,8.52,0,0,1,2.05,2.85c.53,1.11,1.65,2.36.44,3.61-1.06,1.1-2.53.78-3.73.33-6.87-2.55-13.87-4.13-21.27-3.72a4.46,4.46,0,0,1-4.83-3.34c-.71-2.45.95-4,2.81-5.13A12.18,12.18,0,0,1,283.2,94.65Z"/><path d="M299.78,122.65c-.53,4.75-5.32,8.94-10.58,9.46-4.09.4-9.57-3.37-10.69-7.35-.56-2-.32-3.9,1.55-4.85,1.64-.84,2.49.78,3.39,1.91,3.4,4.32,6.23,4.17,9-.58,1.2-2.08,2.66-3.38,5.09-2.58C299.47,119.3,299.72,121.1,299.78,122.65Z"/><path d="M146.47,134.22a28,28,0,0,1,14.34,8.53c2,2.07,1.63,4.75-.42,6.77-2.23,2.19-4.74,1.54-6.72-.33s-3.16-3.09-6.23-1.78c-2.9,1.24-5.53-1.95-5.23-5.52.1-1.23.86-2.26.19-3.76C141.07,135.17,142.24,133.92,146.47,134.22Z"/></g></g></g></svg>