<svg xmlns="http://www.w3.org/2000/svg" viewBox="0 0 368.66 522.81"><title>giovannisciortino3</title><g id="Livello_2" data-name="Livello 2"><g id="Livello_1-2" data-name="Livello 1"><g id="h9mDzm.tif"><path d="M137.77,224.85c1.23,0,2.24.67,3.51.17,13.06-5.14,23.39-13.28,29.5-26.25,1.07-2.26,1.07-3.22-1.55-4.81-6.13-3.72-10.73-9.28-14.76-15.19-1.29-1.9-2.24-2.42-4.55-1.52a8.65,8.65,0,0,1-10.9-4c-1.16-2-2.16-1.9-4-1.23-4.1,1.49-7.18-1.26-6.52-5.63,1.26-8.48,1.21-8.45-2.69-15.67-5.19-9.6-7.43-19.56-3.27-30.19a6.83,6.83,0,0,1,1.32-2.54c3.59-3.27,2.57-6.75,1.61-11C119.88,82.59,123,59.2,135.68,37.34c1.19-2.06,1.7-3.46.22-5.75-3-4.68-2-8.44,2.82-11.58,1.4-.91,1.17-1.9,1.1-3.05-.17-2.94.24-5.61,3.27-7a7,7,0,0,1,8.37,1.31c2.29,2.32,4,1.7,6.5.44,11.54-5.8,24-8.34,36.71-10.15a142.69,142.69,0,0,1,51.77,1.8c9.07,2.07,18.07,2.82,27.17,3.68,5,.48,5.8,1.36,5.18,6.65,2.95-.77,5.81-.75,8,1.53a7.11,7.11,0,0,1,1.86,7.64c-.33,1,.4,1.11,1.11,1.41C296.22,27,297.69,30.56,295,37a26.73,26.73,0,0,1-1.9,3.48c-1.66,2.73-4.78,4.76-3.55,8.81a3.39,3.39,0,0,1-1.64,3.44c-3.38,1.7-2.81,4.38-2.3,7.28.43,2.45,1,5-1.14,7.16-.84.84-.08,1.82.19,2.71,7.61,25.29,9.22,51.13,7,77.31a6.8,6.8,0,0,0,.46,3.14c6.35,16.39,3.29,31.24-7.66,44.6-8,9.7-18.35,15.89-30.26,19.46-3.16.95-2.86,2-1.28,4,2.36,3.07,4.81,6.05,8.18,8.08.59.35,1.2,1.36,2,.1,2.11-3.18,4.88-1.87,7.42-.82a94,94,0,0,1,14.51,8.08c21.35,13.56,39,30.62,50.49,53.53,6.83,13.62,10.13,28.26,12.94,43.09,2.7,14.31,4.42,28.83,8.62,42.84,1,3.22,2.23,6.36,3.29,9.55,1.38,4.15.52,6-3.55,7.61q-3.18,1.26-6.44,2.36c-2.23.76-2.76,2.07-2.31,4.44q7.64,40.85,15.08,81.73,2.67,14.56,5.32,29.15c.61,3.35-1,6.68-3.38,7.08s-5.5-1.95-6.09-5.08c-3.31-17.6-6.35-35.25-8.81-53-2.31-16.7-3-33.56-4.85-50.3-.31-2.75-.31-5.53-.45-8.3-.11-2.4-1-3.18-3.46-2.17-3.55,1.47-7.22,2.66-10.85,3.93a28,28,0,0,1-4.12,1.27c-4.77.87-5,.85-4.57,6,1.08,11.86,2.21,23.73,3.74,35.53,2.48,19.08,5.5,38.08,9.21,57,.54,2.71,1.13,5.42,1.48,8.16s-.2,5.46-3.26,6-4.62-1.84-5.17-4.49q-2.34-11.29-4.35-22.66a619.75,619.75,0,0,1-7.75-61.59c-2.07-27.07-3.45-54.18-1.55-81.32.43-6,1-12.12,2.69-18,1.69,5.72,1.45,11.66,1.78,17.47.81,14.69,1.13,29.4,1.65,44.11.16,4.48.58,4.84,4.88,3.47,7.8-2.48,15.55-5.08,23.33-7.6,1.39-.46,2.3-1,1.77-2.78-6.21-21.17-8.36-43.18-13.2-64.64-5.37-23.79-17.46-43.61-34.95-60.41-9.5-9.13-19.87-17.21-29.95-25.63-1.87-1.56-2.2-.89-2.6,1.07-5,24.35-24.49,42.08-49.72,45.92C184.06,282.61,148.17,258,137.77,226A5.55,5.55,0,0,1,137.77,224.85ZM166.12,88.69c-2,3.77-3.64,7.29-5.74,10.51a8.65,8.65,0,0,0-1,7.78c1.17,4.16,1.85,8.45,2.86,12.66.73,3-.34,4.89-3.23,5.86-5.66,1.9-8,1.07-11.09-4-3.81-6.24-8-7.53-13.4-4.07a11.66,11.66,0,0,0-4.39,5.6,20.21,20.21,0,0,0-.7,12.77c2,8.44,4.57,16.54,15.46,17.17,2,.12,3.82,1.4,3.76,3.7-.07,2.5,1.36,4,2.82,5.61,7.22,7.93,14,16.32,22.32,23.16,2.21,1.81,3.79,4.17,2.58,7.29-.79,2,.77,2.6,2,3.23,2.46,1.29,2.72,2.88,1.47,5.29-7.54,14.44-18.44,24.22-35.32,25.9-1.94.2-3.4.57-1.58,3,8.19,11,16.9,21.52,28.67,28.81,20.05,12.45,41.17,16.76,63.42,6a48.24,48.24,0,0,0,25.1-27.68c.6-1.64,1.14-2.93-1.44-3.19a6.7,6.7,0,0,1-2.88-1.44,34.48,34.48,0,0,1-10.74-12.95c-1-1.91-1.8-2.66-4.34-2.41-14.05,1.39-27.4-.66-39-9.5a27.6,27.6,0,0,1-8.66-10c1.66-.38,2.35.61,3.16,1.2a38,38,0,0,0,10.14,5.49c19.14,6.49,37.86,5.46,56.08-3.41,17.39-8.47,29.19-29.4,20.35-48.88a7.7,7.7,0,0,1-.48-4.93c2.14-10.21,2.17-20.56,2.11-30.91,0-1.23-.3-2.2-1.75-2.21-3.65,0-5.18-2.53-6.45-5.41-3.29-7.52-8.85-10.55-17-9.35-.9.13-2.07.68-2.61-.4s.36-1.87,1-2.52a14.07,14.07,0,0,1,11.12-4.13c5.87.2,10.17,3.44,14.52,8.08-.26-2.72-.34-4.63-.63-6.52-1.53-10.1-3.26-20.17-4.6-30.29-.44-3.31-1.84-4.63-5-4.59a36.25,36.25,0,0,1-16-3.71c-5.8-2.71-5.8-2.71-6,3.9-.14,4.64-1.77,5.65-5.85,3.55a114.9,114.9,0,0,1-16.68-10.09c-2.22-1.65-3.09-.88-3.48,1.45-.31,1.9-.59,3.8-1,5.69-1,4.93-2.7,5.65-6.9,2.94a38.85,38.85,0,0,1-9-7.75c-1.21-1.47-2-1.49-2.8.27a24.87,24.87,0,0,1-3.89,6.49c-2.1,2.25-5,2.54-7.12.89-.9-.69-1.07-2.17-2.72-2.36C187.14,71,180.41,80.24,173.27,89.23,170.36,92.9,169,92.85,166.12,88.69Z"/><path d="M140.71,221.58a227.88,227.88,0,0,0-24.22,7C96,236,78.84,248.53,64,264.24,37.84,292,21,325,10.6,361.47q-1.49,5.2-2.78,10.46c-.36,1.43-.49,2.78,1.29,3.64C23,382.28,36.38,390,51.22,394.49A131,131,0,0,0,77,399.78c3.78.37,4.49-1.42,4.73-4.39A123.27,123.27,0,0,1,85.36,373c.27-1,.12-2.22,1.86-2.75a110,110,0,0,1,1.14,21.95q-.75,18.26-1.76,36.49c-1.11,19.73-2.39,39.45-3.47,59.19-.56,10.1-.89,20.21-2.11,30.28-.41,3.39-2.39,4.88-5.22,4.64s-4.36-2.33-4.16-5.38c.58-9,1.07-18,1.74-27,.78-10.32,1.73-20.63,2.61-30.95q1.74-20.51,3.5-41c.24-2.75.09-5.53.75-8.27.39-1.67-.21-2.65-2.23-2.76-18.85-1.1-36.15-7.53-53-15.49-3.64-1.72-3.84-1.55-4.2,2.43-1.37,15.1-2.93,30.18-4.2,45.28-1,11.28-1.67,22.59-2.28,33.89s-.88,22.65-1.44,34c-.21,4.09-2.44,6.36-5.51,6.22-2.81-.14-4.9-2.65-4.85-6.55.08-7.23.33-14.47.71-21.7a634,634,0,0,1,10-84.68,78.07,78.07,0,0,1,2.47-9.8c.84-2.52.52-4-2.13-5a73.12,73.12,0,0,1-8.4-4.2C.6,379.17-.79,376.18.41,371.17a253.53,253.53,0,0,1,27.8-69.91c12.55-21.33,27.32-40.93,46.87-56.47,15.71-12.5,32.89-21.89,53.24-24.17C132.18,220.19,136.12,219.7,140.71,221.58Z"/><path d="M236,190.11c-9,0-16.93.3-24.67-2-14-4-19.33-20.73-9.86-31.75,6.05-7,14.48-8.11,23.15-7,8.19,1.06,16.32,2.61,24.49,3.91,2.7.42,4.95-.51,7.42-1.79,5.65-2.94,17.14.32,21.07,5.47,4.23,5.55,3.76,13.52-.78,19.79-6.11,8.41-14.95,11.23-24.57,12.62A104,104,0,0,1,236,190.11Zm9.12-31.8a37.67,37.67,0,0,1-4.44,0c-3.37-.44-4,1.23-3.27,4a8.1,8.1,0,0,1,.35,2.12c-.06,2.41,1.15,3,3.39,2.86,3-.21,6,0,9-.18,5.19-.34,5.89-1.32,6.12-6.47.12-2.75-1.08-3.51-3.4-3A37,37,0,0,1,245.13,158.31Zm-19.85,9.59h5.41c.73,0,1.72.08,1.94-.65a19.25,19.25,0,0,0,.2-8.54c-.3-1.87-2.43-.88-3.72-1.25a23.56,23.56,0,0,0-6.8-.6c-4.93,0-4.93,0-4.21,5C219,168.14,219,168.14,225.28,167.9Zm21.94,3.45v0c-2.05,0-4.1,0-6.15,0-1.66,0-2.56.68-2.36,2.38.22,1.91.48,3.82.87,5.7.24,1.21.73,2.28,2.34,2.26,3.6,0,7.22.19,10.79-.65a2.41,2.41,0,0,0,2.07-2.12c1.56-7.61,1.58-7.6-6.12-7.59Zm-28.28,10.37h9.17c5,0,5,0,5-5.14-.06-4.68-.06-4.69-4.81-4.7-2,0-4.08.12-6.11,0s-2.72.77-2.37,2.78S221.24,178.87,218.94,181.72Zm40-20c0,4.89.12,5,4.67,4.66,1.79-.14,3.57-.4,5.35-.67,1.09-.16,2.66.63,3.06-1.05.33-1.39-.58-2.57-1.59-3.43-2.23-1.89-5.06-1.82-7.74-2.41C259.52,158.17,258.28,158.79,258.91,161.76Zm-45.1-3.64c-5,1.24-8.05,4.46-8.52,8.49-.21,1.82-.35,2.81,2.29,2.39,5.76-.93,5.78-.71,5.94-6.72C213.56,161,213.7,159.68,213.81,158.12Zm56.74,12.66c-3,0-5.47-.14-7.94.07-1,.09-2.71,0-2.86,1.62-.18,2-.51,4.11.54,6,.47.83,1.28.39,1.9.07C265.52,176.84,268.74,175,270.55,170.78Zm-57.08,9.42c0-2.33,0-4.24,0-6.15,0-1.29-.5-2.2-1.85-2.09-2,.16-4-1.42-5.9-.08-.68.47-.08,1.32.2,2C207.35,177.14,209.91,179.07,213.47,180.2Z"/><path d="M251.28,146.78c-2.43-.08-4.09.07-5.67-.84-2.24-1.31-3-3.22-2.13-5.5a3.65,3.65,0,0,1,5-2.18c3.06,1.16,5.87.59,8.74-.62,1.6-.68,2.73-1.56,2.65-3.42s-1.58-2.5-3.11-3c-2.64-.86-5.23-.22-7.85.09-1.4.16-3.61,1.17-4.07-.66-.4-1.61,2-1.72,3.22-2.22a21.21,21.21,0,0,1,10.22-1.77c3.11.33,5.86,1.22,7.3,4.39a8.67,8.67,0,0,1-1.1,9.47C261,145.12,256,146.56,251.28,146.78Z"/><path d="M195.23,119.71a26.6,26.6,0,0,1,5.11-19.15c4.64-6.38,12-9.52,18-7.9,2.64.72,5.41,4.26,4.81,6.4-.84,3-3.17,3.65-5.95,3.31-9.09-1.1-13.41,1.45-17,10C198.43,116.62,198,117.22,195.23,119.71Z"/><path d="M202.64,125.48c.28-4.62,2.72-7.84,6.73-9.87,4.75-2.41,9.11-1.08,13,2a22.18,22.18,0,0,1,4.22,4.38c1.8,2.46.47,4.6-1.36,6.31s-3.76,1.1-5.35-.61a11.94,11.94,0,0,1-1.1-1.84c-2.87-4.66-6.95-4.65-9.67,0a14.7,14.7,0,0,1-.93,1.52c-.91,1.19-1.51,3.15-3.48,2.39C203,129.06,202.57,127.31,202.64,125.48Z"/><path d="M280.58,125.64a7.8,7.8,0,0,1-.61,3.16c-.64,1.63-1.74,2.73-3.48,2.61a3.62,3.62,0,0,1-3.3-3.3,28.64,28.64,0,0,1-.22-3.6c-.11-2.31-1.27-4-3.51-4.39s-3.36,1.27-4.35,3.08c-.53,1,.12,3.26-2,2.66a3.86,3.86,0,0,1-2.53-3.64,7.76,7.76,0,0,1,3.48-7.46,9.22,9.22,0,0,1,10.21-.17C278.45,117,280.33,120.9,280.58,125.64Z"/><path d="M138.68,123.06c3.79.06,11.64,6,12.56,9.23a4.18,4.18,0,0,1-1.6,4.76c-1.57,1.19-3.15.85-4.61-.3-2.31-1.83-3.73-4.36-5.36-6.73-.91-1.32-1.81-2.6-3.75-2.05-.62.18-1.43.9-1.82-.07a2.76,2.76,0,0,1,.26-2A5,5,0,0,1,138.68,123.06Z"/></g></g></g></svg>