<svg xmlns="http://www.w3.org/2000/svg" viewBox="0 0 370.87 516.77"><title>ileniamicoli</title><g id="Livello_2" data-name="Livello 2"><g id="Livello_1-2" data-name="Livello 1"><g id="pMsUzM.tif"><path d="M74.87,496c-1.44,3.41-2.84,6.83-4.32,10.22-2.2,5-5.47,7.16-10.83,6.24-15.25-2.63-30.09-.78-44.8,3.4a29.79,29.79,0,0,1-3.86.83c-5.56.76-10-2.48-10.8-8.06A34.46,34.46,0,0,1,0,502.85c.75-32,.65-64.09,2.38-96.09,1.66-30.6,4.75-61,14.16-90.38C28.28,279.77,51.24,252.16,84,232.5a8.36,8.36,0,0,0,4.29-6.16c1.13-6.1-.53-11.66-3.1-17.05-3.27-6.86-7.85-12.9-12.14-19.11a75.91,75.91,0,0,1-8-14.45c-4.52-11.14-3.53-21.86,2.61-32.09a55.44,55.44,0,0,1,6.49-9c14.17-15.45,21-34,24-54.43,1.78-12.35,3.87-24.7,9.9-35.87,12.41-23,32.41-35.7,57.27-41.51,17.09-4,34.28-3.2,51.51-.67,9.85,1.45,19.84,2.22,29.17,6C274.33,19.41,291.61,41,301.3,69.22c7.38,21.51,8.23,43.7,6.12,66.14-1.88,20-7.07,39.38-10.66,59.06a89.39,89.39,0,0,0-1.21,9.64c-.46,6.52,0,12.84,2.79,19a91.92,91.92,0,0,1,6.05,19.55,6.6,6.6,0,0,0,1.16,3c8.84,10.16,12.16,22.71,15.33,35.31C337.8,348.33,353,416.19,369,483.88c.52,2.22,1.13,4.42,1.57,6.65,1.24,6.4-.89,10-7.34,11.22-7.18,1.36-14.46,2.19-21.7,3.2-7.08,1-14.13,1.31-20.86-1.79-1.53-.71-1.87.06-2.06,1.35a16.7,16.7,0,0,1-.89,4.2c-1.2,2.82-3.41,4.65-6.53,3.58a16.85,16.85,0,0,0-6.32-.52c-65.5,1.76-131,3.21-196.52,2.28-9.12-.13-18.13-1.37-27.19-2.08-1.85-.14-2.17-1.67-2.5-3.07-1-4.3-2-8.61-3-12.91Zm226-198.52c1.05-.9.87-1.93.94-2.85,1.89-23.94-1.15-47.24-10.29-69.44-6.73-16.33-7.08-32.36-.32-48.51a152.79,152.79,0,0,0,10.44-39.09c3.12-23.48,1.53-46.43-7.28-68.61C283,40.19,263.76,19,233.55,10.15,198.94,0,166.21,6.84,136.1,25.51,116,38,105,56.25,106,80.79a77.72,77.72,0,0,1-1.77,20.39,74.58,74.58,0,0,1-24.85,41.53c-6.69,5.7-9.35,13-9.24,21.54.13,8.87,4,16.42,8.68,23.65,4.1,6.34,8.67,12.37,12.3,19,7.64,14,7,27.33-3.14,39.86a61,61,0,0,0-12.61,27.43c-4.07,20.77,3.09,38.34,20.2,48.64a22,22,0,0,0,7.62,3.07c3.57.6,5.26-.79,5.28-4.41,0-3.24-.24-6.48-.37-9.71a27.78,27.78,0,0,1,8.17-21.18c1.8-1.88,3.84-3.68,6.58-2.56,2.43,1,2.43,3.57,2.75,5.84,1,7.45,1,15.12,4.36,22.11a30.09,30.09,0,0,0,17.54,16.08c1.34.48,2.93,1.05,4-.13s-.13-2.45-.66-3.58c-1.51-3.26-3.24-6.43-4.64-9.73-3.84-9-4-17.87,1.55-26.41,1.89-2.91,3.57-6,5.24-9,6.45-11.77,13.22-23.4,16.72-36.49,2.92-10.89,1.65-20.72-6-30a113.05,113.05,0,0,1-25-55c-2.9-18.49,2.3-29.25,18.46-38.4a93.24,93.24,0,0,0,33.33-31.58A46.93,46.93,0,0,1,212.8,73.65c7.55-3.14,10.85-1.08,12.09,7,.48,3.14,1.64,3.65,4.26,1.65,3.26-2.5,5.61-5.89,8.32-8.93,1.84-2.06,3.66-4.13,5.57-6.11.92-1,2.07-1.88,3.49-1.22s1.41,2.15,1.37,3.45c-.05,1.55-.37,3.09-.46,4.64s-.61,3.22.22,4.89c2-1.09,2.81-2.93,3.94-4.42,3.86-5.08,8.4-9.21,14.61-11.19,8.88-2.82,13.71.51,13.35,9.75-.45,11.5-1.5,23-2.09,34.47-1.15,22.62-.7,45.33-4.29,67.81-2.27,14.24-8.06,25.35-22.89,30.15-7.37,2.38-9.76,7.71-7.56,15.45,4.83,17,11.38,33.31,21.07,48.21,4.3,6.62,8.71,13.15,11.55,20.61,5.43,14.26,5.87,29,4.85,44-.09,1.21-.79,2.59.62,3.8.73-1.33,1.52-2.54,2.08-3.85a69,69,0,0,0,5.49-27.65A100.84,100.84,0,0,0,287,292.92c-.27-1.95-.35-4,1.49-5.22s3.68-.26,5.39.64C297.55,290.27,299.5,293.62,300.89,297.45ZM241.2,76.29l-2.2.9c-5.43,2.19-8.42,7.41-13.06,10.57-1.4.95-2.18,1.9-1.55,3.83.73,2.25-.69,3.59-2.72,4.34a13.49,13.49,0,0,1-5,.48c-9.17-.15-17.6,3.78-23.87,9.08-9.91,8.4-18.75,18.15-29,26.31-9,7.14-14.27,15.36-11.64,27.92,2.71,13,7.4,24.16,18.73,31.78,1.28.86,3.18,2,3.31,3.13.36,3.4,2.88,3.3,5,4,1.26.4,2.47.92,3.73,1.32,5.75,1.83,11.48,3.7,17.6,4a61.58,61.58,0,0,0-6.14-3.61c-2.41-1.26-4-3.07-2.58-5.77s3.88-2.15,6.21-.94a66.07,66.07,0,0,0,16.88,6c22.06,4.65,48.33-5.28,52.82-36.35,2.11-14.61,2.79-29.34,3.66-44,.26-4.31-1.17-5.05-5-3.06a5.35,5.35,0,0,0-2.61,3.25,3.34,3.34,0,0,1-3.58,2.41c-1.81-.1-2.72-1.25-3.44-2.74a4.8,4.8,0,0,1,.47-4.79,11.25,11.25,0,0,1,10.82-5.81c3.3.13,4.3-1.29,4.08-4.25a13.2,13.2,0,0,1,0-2.88c.43-3-1-4.45-3.77-5-3.05-.62-6.09-1.3-9.12-2-2.33-.55-4-1.77-3.69-4.48s2.12-3.77,4.52-3.49c2,.23,2.87-.63,3.38-2.32.91-3,1.84-6,2.77-9.07-4.35,5-8.61,9.85-13.78,13.79-.88.67-1.91,2.15-3,1.21s.18-2.18.71-3.16c1.76-3.22,3.61-6.4,5.42-9.59a128.57,128.57,0,0,0-12.46,9.54,20.63,20.63,0,0,1-9.85,4.92c-.91.16-2.06.69-2.43-.6-.28-1,.82-1.31,1.53-1.71C237.28,86.71,239.11,82,241.2,76.29Zm-24,6.75c-5.27,1.24-9.11,3.62-11.49,8.37C210.61,90.13,214,87.14,217.19,83Zm54.56,1.4c-1.47,1-3.49,1.69-3.31,3.7.08.82,1.88,1.66,2.7,1.22C273.16,88.24,271.72,86.22,271.75,84.44Z"/><path d="M240.56,151.45c6.84,0,13.68,0,20.51,0,4.94,0,6.64,1.95,6.18,7-.79,8.69-6.23,14.12-13.45,17.81a33,33,0,0,1-21.66,3.07c-11.15-2.12-18.09-12.25-18.34-23.17-.08-3.57,2.24-4.51,5.16-4.54,7.2-.06,14.4,0,21.6,0Zm13.75,4.07c-9,.73-18,.56-26.95.73-1.07,0-2.75-.53-2.83,1.28-.07,1.66,1.13,2.53,2.8,2.66,9.22.73,18.44,1.34,27.46-1.43,1.71-.53,4.92-.42,4.63-2.3S256.07,156.12,254.31,155.52Z"/><path d="M256.83,137a11.06,11.06,0,0,1-13.33,11,22.73,22.73,0,0,1-9.76-4.34c-1.77-1.35-2.43-3-1.07-5s3.32-2.26,5.29-.78a28,28,0,0,0,6.12,3.71,4.72,4.72,0,0,0,5.59-1.14,4.79,4.79,0,0,0,.83-5.65,12.17,12.17,0,0,0-4.22-4.8c-.84-.62-2-1.21-1.43-2.56s1.82-1.36,3.06-1.28C252.89,126.5,257,131.42,256.83,137Z"/><path d="M188.6,149.28c.05-7.78,7.1-18.35,13.29-20.37,3.29-1.07,4.35-.34,3.86,3.05-.62,4.28.08,8.62-.86,12.89a14.75,14.75,0,0,1-5.74,9.23c-2.16,1.58-4.47,2.86-7.29,1.41S188.46,151.67,188.6,149.28Zm11.86-9.54c0-1.38,0-2.59,0-3.78a1.8,1.8,0,0,0-.5-1.24c-.64-.42-1.14.16-1.47.62-2.75,3.8-5.43,7.66-5.76,12.55-.09,1.27-.4,2.84,1.21,3.43s2.77-.46,3.69-1.62A14,14,0,0,0,200.46,139.74Z"/><path d="M226.17,118.33a3.78,3.78,0,0,1-5.43,3.48,7.86,7.86,0,0,1-1.73-1.27c-5.46-5-7.19-5.17-13.91-2-1.8.84-4.15,3.48-5.63,1.36-1.26-1.81,1.39-4,2.88-5.61,6.8-7.42,16-7.49,21.79-.22A8.77,8.77,0,0,1,226.17,118.33Z"/></g></g></g></svg>