<svg xmlns="http://www.w3.org/2000/svg" viewBox="0 0 352.95 585.14"><title>ireneiuliano</title><g id="Livello_2" data-name="Livello 2"><g id="Livello_1-2" data-name="Livello 1"><g id="jGglEb.tif"><path d="M65.62,432.43c2,1.53,3.62,2.56,5,3.78a3.34,3.34,0,0,1,1.08,4.13c-.8,1.89-2.19,1.81-3.81,1.64-3.29-.35-6-2-8.9-3.45-11.22-5.71-22.47-11.37-33.64-17.18-2.72-1.42-4-1.19-4.08,2.16-.24,9.38-1.4,18.7-2.33,28-1.09,11-2.27,21.95-3.32,32.93-.86,9-1.6,18-2.38,26.95-1.38,16-1.53,32.06-1.94,48.1-.1,3.8,0,7.61-.21,11.39-.23,3.42-2.64,5.8-5.55,5.87-3.56.08-4.5-2.56-5.29-5.26A9.71,9.71,0,0,1,.05,569a574.76,574.76,0,0,1,4.07-74.76c2.66-23,6-45.94,11-68.6a16.13,16.13,0,0,1,.54-2.07c1.48-4.09,1.75-7.38-2.56-10.57C8.9,410,8.48,404.86,10,400a259.3,259.3,0,0,1,19.83-46.84,137.84,137.84,0,0,1,31.29-39.48c13.81-11.89,29.64-19.49,48-21.6C91.6,298.17,76,307.28,62.68,320.54c18.93-.32,37.78-1.85,57-1.51-1.63-3.15-3.26-6.11-4.7-9.17s-2.09-6.27-3-9.45c-1.18-4,.61-4.33,3.68-4.5a53,53,0,0,0,19.94-4.85c12.21-5.82,21.24-14.6,26.07-27.44.84-2.23,2-4.68,5-3.63,3.9,1.35,5,3.62,3.52,7.08Q158.26,295,128.43,300.52c-2,.37-4,.48-6,.66s-3.89-1-6.29-.32a85.27,85.27,0,0,0,18.59,22.95c12.74,11.17,27.95,16.92,44.35,19.68,14.59,2.46,29.23,3,43.81-.59,20.48-5.09,34.75-17.3,43-36.69,1-2.42.15-3.15-2-3.51a40.2,40.2,0,0,1-16.2-6.12,26.06,26.06,0,0,1-10.86-14.13c-.71-2.28-1.84-2.84-4.18-2.38-13.28,2.65-25.92-.16-38.31-4.79a9,9,0,0,1-2.83-2.09,2.41,2.41,0,0,1-.71-2.91,2.93,2.93,0,0,1,2.55-1.67,12,12,0,0,1,5.19,1.06c7.49,2.55,15.32,4.37,23.07,3.74,25.09-2.05,42.79-11.27,49.47-39.81a82.3,82.3,0,0,0,2.32-16.55c.05-1.85-.34-2.9-2.51-2.88-5.8,0-10.47-2.5-14.43-6.61-.84-.87-1.53-2.24-3.16-1.82,0,.23-.19.52-.1.63,4.47,5.79,3.39,9-3.66,10.9a28.12,28.12,0,0,1-12.31.25c-3.1-.53-4.49-2.65-3.87-5.31s2.86-3.74,5.91-2.83a23,23,0,0,0,8.81.54c-6.66-10.42-13.51-20.64-6.56-33.32-5.82-.71-5.84-.36-6.35,4.82a52,52,0,0,1-16,33.17,18,18,0,0,1-7.23,3.74c-1.71.54-1.8,1.11-1.69,3,.3,5.41,3.64,6.38,8.05,7.07,10,1.58,19.87,3.55,29.93,1a67.1,67.1,0,0,0,6.65-2.44c2.74-1,4.89-.47,6.22,2.31s-.3,4.41-2.38,5.51c-6.74,3.56-14,4.15-21.45,3.39-8.42-.87-16.61-2.69-24.22-6.53-1.87-.94-2.41.08-2.65,1.48a21.65,21.65,0,0,1-2,6.06c-1.34,2.67-4.06,3.8-6.14,2.45-2.3-1.5-2.94-3.63-1.52-6.15a82.77,82.77,0,0,0,5.59-12.67c1.2-3.34.15-3.85-2.82-3.62-3.72.28-7.28-.73-10.78-1.87-11-3.58-14.43-12.46-15.79-22.75a38.37,38.37,0,0,1,0-12.74c.41-2-.31-2.76-2.42-2.63a13.76,13.76,0,0,1-8.2-1.63c-2.23-1.31-5.09-.56-7.64.12-1.22.32-1.24,1.29-1.21,2.26q.09,3.39.23,6.78c.09,2.28-.77,3.41-3.22,2.8a28.11,28.11,0,0,1-4.83-1.14c-2.86-1.27-4.78-1.27-4.64,2.54-1.18,0-1.33-.79-1.64-1.42-2.21-4.46-5.52-7.39-10.74-7.55-5.47-.18-9.3,2.59-12,7-5,8.22-1.64,22.55,6.47,27.79,3,1.9,6.08,2.59,9.48,1.19,1-.41,2-.64,3-1a2.47,2.47,0,0,1,3.15.91,2.18,2.18,0,0,1-.25,2.95c-2.73,2.59-.87,4.67.68,6.73a66.51,66.51,0,0,0,12.38,12.76,24.63,24.63,0,0,1,6,6c.9,1.41,1.22,2.82.22,4.33s-2.52,1.91-4.35,1.57c-5.64-1-9.51-4.65-13-8.85-1.34-1.63-2.53-3.4-4.34-5.85.51,3.2-.42,4.85-2.88,5.32s-3.13-1.32-3.89-2.92c-2.25-4.81-7.06-7.56-9.63-12.16-1.19-2.14-2.16-.46-2.93.86-2.42,4.17-5.32,7.92-9.83,10-1.17.54-2.73,1.8-3.82.12-1.21-1.86.86-2.45,1.84-3.19,3.52-2.67,7.12-5.21,9.46-9.08.53-.87,1.54-1.71.25-2.75-1-.82-1.92-1.61-3.46-.67-3,1.85-6.24,3.42-9.3,5.23-1.78,1.06-3.38,1.19-4.8-.41s-1.11-3.25.21-4.8c.85-1,1.71-2,2.55-3,5.15-6.2,5.3-6.25,2.9-13.88-1-3.2-4.45-2.78-7-3.47-.31-.08-.69.17-1,.23-4.56.74-7.42-.61-8-3.78s2.5-7,6.55-7.49a17,17,0,0,1,4.27,0c2.25.27,2.71-1.15,2-2.54-2.6-4.77-.87-10.13-2.23-15.21-.89-3.33.14-7.47-1.9-11a2.75,2.75,0,0,1,0-2.09c2.71-6.75-.16-13.76,1-20.64.7-4.05,2.2-7,6.39-7.71,1.56-.27,2.06-.79,1.84-2.55-1.64.6-3.2,1.28-4.82,1.74s-3.15,1.34-4.62-.29,0-2.86.4-4.24l-.37-.15c-4.2-1.28-8-1.88-11.55,2.13-1.84,2.05-5.48.71-6.85-2.13-1.56-3.22-3.61-3.47-6.62-2.33a46.27,46.27,0,0,1-13.24,2.58c-2.28.16-4.3-.32-5.61-2.35a5.7,5.7,0,0,1,0-6.4c1-1.61,2.09-3.14,3.45-5.16-2.53.44-4.64.85-6.76,1.18-3.12.47-5.24-.69-6.37-3.77-2.11-5.78-2-11.42.88-16.88,1-1.92,1.46-3.56-.1-5.48A6.17,6.17,0,0,1,45,84.78c.09-7.37-.61-15,4.74-21.14A5.3,5.3,0,0,0,51,58.18c-1.52-5.7,1.86-12.9,7.54-15C63.05,41.41,65.46,38,68,34.48a19.52,19.52,0,0,1,11-7.93c3.23-.88,4.29-4.34,6.38-6.58.86-.92,1.19-2.33,2-3.35,2.37-3.14,5.18-3.82,8.36-1.58,4.48,3.17,9.19,2.66,13.31.3a52.77,52.77,0,0,1,22.66-6.6c1.83-.14,2.68-.78,2.78-2.8C134.6,3,135.88.56,139.14.08s5.34,1.08,6.44,3.92c.76,2,1.73,2,3.51,1.41a18.59,18.59,0,0,1,10.55-.48c8.11,2,11.82,8.14,10.31,16.81-.31,1.75-.81,3.47-1.2,5.21-.49,2.17-1.19,4.17.88,6.21,1.62,1.6.57,4.09.67,6.58,2-1.35,2.78-3.34,3.88-5,2-3.14,5-4.16,7.85-2.66s3.79,4.94,2.05,8.31c-.6,1.16-1.29,2.27-1.92,3.41-1.22,2.23-1.89,4,0,6.74,3.21,4.62-1.33,13.35-7.53,15.46-.73.24-1.51.35-2.42.56,2.06,3.52,4.53,5.34,8.74,4.54,3.94-.74,8-.62,11.91-1.87a24.36,24.36,0,0,1,13.41.1,137.26,137.26,0,0,0,19.89,3.86,11.67,11.67,0,0,1,4.43,1.2c10.74,6.13,22,11.4,32,18.78,1.08.8,2.36,1.74,2.32,3-.18,6.52,4.48,10.76,7.35,15.77,4.11,7.17,8.06,14.44,9.3,22.6.72,4.69.91,9.85-2.59,14.09-1.17,1.42-.35,3.23-.26,4.84.12,2.37-.14,5.08.92,7,1.22,2.23,4.3,1,6.53,1.51a14,14,0,0,1,10.34,7.83c.61,1.25,1,1.7,2.57,1.36a26.91,26.91,0,0,1,6-.31c1.31,0,2.87.05,3,1.82s-1.39,1.9-2.65,2.34a8.68,8.68,0,0,1-4.55.55c-2.63-.56-2.92.63-2.86,2.81a42.72,42.72,0,0,1-6.66,24.71c-1.81,2.8-3.9,5.49-6.89,7.09-2,1.09-2.35,2.55-2.35,4.61,0,12.41-2,24.4-8.1,35.4a58.52,58.52,0,0,1-30.12,26.6c-1.09.44-2.2.83-3.62,1.37a31.94,31.94,0,0,0,17.63,14.21,65.18,65.18,0,0,0,14.3,2.84c5.66.59,6.7,2.44,5.11,7.95A80.28,80.28,0,0,1,269.21,321c6.13-.93,11.72-.92,17.31-1.15,3.92-.16,7.84-.26,11.76-.36a6.56,6.56,0,0,1,1.77.15c1.87.47,3.94.94,4,3.34.1,2.64-2,3.51-4.06,3.59-4.75.18-9.51.19-14.25-.06-6-.33-12.07-1-18.1-1.53a1.84,1.84,0,0,0-1.87.63c-4.33,5.52-9.54,10.15-15.64,15,22.33-1.9,43.91-1.75,66.12-1.91-10.37-20.5-23-38-45-46.69a34.4,34.4,0,0,1,9.66,2.34c18.3,7,30.64,20.48,39.67,37.26,10.93,20.31,17.52,42.31,24.16,64.25,2.89,9.54,5.2,19.26,7.65,28.92,1.51,6-.33,8.23-6.45,8.4-1.07,0-2.14.05-3.21.11-2.65.16-3.38,1.14-3.09,4.12,1,10.64,1.72,21.33,2.22,32,1.48,31.76.71,63.51-1.12,95.24-.25,4.39-.41,8.79-.64,13.18a7.38,7.38,0,0,1-.32,2.11c-.84,2.24-.93,5.44-4.34,5.18s-3.5-3.19-3.69-5.66c-.51-6.43.72-12.8.86-19.22.13-5.69,1-11.37,1.12-17.06.47-18.31,1.49-36.59,1.64-54.91.13-16.89.72-33.77,1.21-50.66.07-2.51-.56-2.95-3.06-2.55-6.28,1-11.73,4.54-18,5.46-1.31.19-1.2,1.32-1.08,2.26,1.9,15.56,2.67,31.22,4,46.83,1,11.95,1.47,24,2.45,35.9,1.19,14.56,2.33,29.13,2.78,43.73,0,1,0,1.91,0,2.86-.14,2.62-1.48,4.21-4.12,4.53s-5-.94-5.14-3.32c-.25-4.67-2.4-4.09-6-3.87-13.41.83-26.85,1.12-40.28,1.47-32.69.84-65.39,1.4-98.08,2.44-23.54.75-47.08.42-70.63.39a111.05,111.05,0,0,1-19.16-1.63c-2-.36-2.54.28-2.69,2-.22,2.47-.09,5-1.33,7.3-1,1.86-2.35,3.4-4.66,3.36s-3.63-1.66-4.38-3.63c-1.91-5-.86-10.11-.68-15.18.22-6.17.85-12.32,1.09-18.49.76-19.59,2.11-39.14,3.52-58.69.94-13,1.58-26.09,2.26-39.14.24-4.62,1-9.2,1-13.87,0-2.59-.59-3.77-3.35-3.41A47,47,0,0,1,65.62,432.43ZM335.79,396.3c-.27,5.7-.89,6.27-6.6,6.07-5.46-.18-10.92-.28-16.38-.61-2.42-.14-3.16.7-2.82,3,.68,4.7,1.35,9.4,1.81,14.13.21,2.12,1,2.73,3.12,2.68,8.88-.24,17.76-.92,27-.47-2.09-8.45-4.12-16.6-6.14-24.76-4.91-18.08-9.8-36.16-17.66-53.51a5.28,5.28,0,0,1-4.18,2c-19.26.23-38.52,1.1-57.78-.09a47.43,47.43,0,0,0-20.61,2.94c-27.17,10.34-54.34,7.46-81.06-2.54-3.64-1.36-6.9-2.47-11.12-2.2-16,1-32.07,1.18-48.12,1.67-16.88.51-33.75,1.09-50.64.51-1.79-.06-3.08.29-4.12,2-3.3,5.5-6.44,11.1-9.35,16.82-.94,1.83-.65,2.44,1.47,2.52,10.09.43,20.18,1.27,30.28,1.4,45.1.57,90.06-3.26,135.1-4.55,39.24-1.13,78.47-1.43,117.72-.41a15.91,15.91,0,0,1,5.18,1.16c1.16.44,2.16,1.07,2.16,2.51a3,3,0,0,1-2.13,3,16.74,16.74,0,0,1-6.65.95l-37.11-.35c-32.71-.31-65.41.17-98.1,1.09-30.78.87-61.51,3.21-92.32,2.84-18.57-.23-37.06-1.24-55.19-5.63-2-.5-2.78.21-3.44,1.87-2.11,5.3-4.36,10.53-6.43,15.84-1.52,3.91-3.23,7.77-4.07,12.16,8.08-1.09,15.81-2.38,23.59-3.13q40.48-3.9,81.16-4.36c20.46-.25,40.91-.15,61.37,0,47.81.25,95.59,2,143.37,3.49C330.11,394.43,333.28,393.88,335.79,396.3ZM203.06,480.81c28.15.27,64.9.41,101.64-.46,3.08-.07,3.71-.92,3.5-3.87-1.09-15.42-1.79-30.87-2-46.34,0-2.56-.46-3.45-3.32-3.24-11.14.81-22.3,1.61-33.47,1.88-35.9.9-71.81,1.58-107.71,2.29q-39.06.76-78.12,1.32c-2.21,0-2.84.56-2.54,2.86a140.76,140.76,0,0,1,1.16,14.21c.06,2.47.63,3.15,3.21,3.06,33.66-1.21,67.3.33,100.94.83,22.12.32,44.24.68,66.36.78,15.1.08,30.2-.32,45.3-.35,2.91,0,6.32.1,7.17,3.83.48,2.11-3.22,4.05-7.35,4.09-47.1.48-94.19-.32-141.27-1.54-14.84-.38-29.69-1.1-44.49-2.55-8.75-.86-17.5-1.61-26.2-2.91-1.56-.23-3.61-1.09-3.63,2.1,0,6.78-.3,13.56-.62,20.33-.1,2.09.52,2.58,2.58,2.51,7.25-.26,14.51-.48,21.76-.38C135.48,479.67,165,480.19,203.06,480.81ZM311.25,537c.07-1.18.14-1.64.11-2.1-.78-14.13-1.61-28.26-2.3-42.39-.09-2-.94-2.49-2.59-2.46-3.56.08-7.12.25-10.68.26-39.83.06-79.66.68-119.49-.64-30.63-1-61.33-1.19-91.74-5.7-2.43-.36-3,.45-3.1,2.77-.19,8.09-.47,16.18-1,24.24-.17,2.69.63,3.18,3.12,3.12,25-.64,49.92-1.28,74.89-1.7q69.2-1.16,138.37-3.06c2.07-.06,4.11.06,6-1.57a3.9,3.9,0,0,1,5.25.42c1.61,1.5,1.53,3.38.59,5.24-1.14,2.27-3.19,3.12-5.55,3.26-4.51.25-9,.5-13.53.58-31.39.55-62.78,1.17-94.16,1.53q-36.57.43-73.11-1.12c-13-.53-25.89-1.21-38.84-1.68-1.65-.06-3.29-.44-3.33,2.28-.1,6.54-.39,13.08-.76,19.61-.13,2.38.57,3.09,3,2.82,5.19-.56,10.41-1,15.63-1.19,43.61-1.58,87.22-3.12,130.86-3.54q36.74-.35,73.48-1C305.35,534.94,308.27,534.74,311.25,537ZM74.38,413.48c3.29,2.74,3.79,6.32,4.57,9.71.44,1.9,1.17,2.68,3.33,2.59,9.38-.41,18.77-.62,28.16-.84,47.42-1.15,94.84-2.39,142.27-3.37,16.64-.34,33.29-.06,49.93.07,2.56,0,3.59-.51,3.46-3.32-.21-4.63-.06-9.28.1-13.91.07-2-.46-2.78-2.54-2.77-3.2,0-6.41-.35-9.61-.41C242,400.18,190,398,137.86,398.66c-33.29.44-66.57,1.18-99.85,1.9-6.3.14-12.6.43-18.89.39-2.58,0-3,1.32-2.95,3.29a6,6,0,0,0,2.56,4.88,45.07,45.07,0,0,0,5.46,3.34c9.46,4.7,19,9.31,28.44,14a7.33,7.33,0,0,0,4.1.85c5-.45,9.94-1,14.92-1.21,2.41-.12,2.66-1.17,2.36-3.17C73.56,419.91,73,416.86,74.38,413.48Zm237.34,127c-3.23,3.58-7.17,2.64-10.87,2.69-16.41.26-32.82.39-49.22.6-56.36.7-112.72,1.06-169.06-1.21-2.33-.09-3.5.33-3.58,2.91q-.36,11.05-1,22.1c-.15,2.48.94,2.84,3,2.46,14.9-2.85,30.05-2.7,45.11-3.23,31.72-1.11,63.47-1.61,95.21-2.49,18.3-.5,36.59-1.43,54.89-1.85,11.76-.27,23.5-1.52,35.28-.87,1.83.09,1.58-.71,1.5-1.86C312.52,553.52,312.15,547.35,311.72,540.44ZM152.16,153.6c1.34,5.72,2.9,10.73,3.58,15.86.45,3.38,2.06,4.17,4.87,4.17,3.24,0,6.55-.31,9.69-.34a12.69,12.69,0,0,0,10-4.19,73.36,73.36,0,0,0,6.61-7.15c6.36-8.14,14.88-12.62,25-14.12,2.67-.4,4.86.52,5.34,3.36.54,3.11-1.55,4.47-4.26,5.09-.34.07-.71,0-1.06.09-7.3,1-14.22,3-20.57,7.93a97.56,97.56,0,0,1,24.52.1c5.21.77,10.16,3,15.68,2.19,6-.86,12-1.13,18.06-1.67,4.48-.4,9-.83,13.46-1.22,1.2-.1,2.72-.15,3.11-1.22s-1.2-1.52-2-2.11a38.58,38.58,0,0,0-14.22-6.3c-1.49-.38-4.11-.06-4.14-1.89s2.42-2.66,4.24-3.19a12.63,12.63,0,0,1,2.82-.31c6.07-.29,11.38,2,16.5,4.89.86.49,2.34,2,2.29-.4-.19-9.35.14-18.81-4.13-27.57-.71-1.45-1.35-2.19-3.22-1.82a12.52,12.52,0,0,1-11.24-3.12c-2-1.84-4.89-1.83-6.48-4.14-.62-.89-1.2,0-1.61.58-5,6.7-12.14,8.27-19.86,8.48-5.72.14-11.31-1.06-16.94-1.87-1.83-.26-3.5-.71-5.39.59-7.39,5.09-14.89,4.45-21.87-1.51-.81-.7-1.37-1.85-2.72-1.94-.35,3.94-.22,7.86-3.19,10.82-3.31,3.29-7.27,1.6-11.16,1.08,1.34,5.84,3.72,11.08,4.47,16.74.47,3.49-.35,6.73-3.56,8.68s-6,.79-8.59-1.19C155,156.05,153.86,155,152.16,153.6Zm-28.9,169.82c-1,2.32-2.47,3.48-4.88,3.48-19.62,0-39.23.21-58.74-2.31a2.22,2.22,0,0,0-2.21.56c-5.25,5.49-9.7,11.59-14.52,18.36,32.55-2.95,64.47-3.83,96.43-5.78A87.69,87.69,0,0,1,123.26,323.42ZM186.6,189.79c.05,4.57.68,9.41,5.89,11.56,6,2.47,12.44,3,18.82,2.7,9.57-.42,13.19-7.65,16.18-15.26,1.76-4.49.3-8.33-2.78-11.76a20.18,20.18,0,0,0-13.66-6.89C196.17,168.92,187.45,173.57,186.6,189.79ZM164.92,74.05c-2.82-2.94-6-3.36-9.56-2.64-7.91,1.58-14.67,5.47-20.81,10.46-9.21,7.49-17.79,15.51-19.87,28.11a25.6,25.6,0,0,1-1.3,5.53c-.88,2.12.26,2.7,1.79,3.44,1.88.92,2.23-.46,2.75-1.63a22.19,22.19,0,0,1,1.4-3.27c9.3-14.32,20.2-27.08,35.46-35.41C158,76.9,161.39,75.63,164.92,74.05ZM282.21,206.13c6.86-5.59,9.25-12.64,10.53-20.24.18-1-.07-2-1.43-1.86-4,.36-7.25-1.44-10.73-3.91.33,6,.6,11.41.93,16.85C281.68,199.79,281.94,202.6,282.21,206.13ZM280,169.5c.13,6.41,5.2,10.16,11.23,8.83,1.84-.4,2.26-1.17,2-2.88-.63-5-3.83-7.93-9.47-8.9C281,166.07,279.29,166.4,280,169.5Zm-96.39,33.09c4.71,11.87,23.17,16,32.49,7.37C204.87,209.77,192.85,211.85,183.61,202.59Zm70.93-6.4c1.73,1.86,5.16,2.72,8.68,2.42,5-.43,7.95-2.75,9.08-7.09,1.72-6.65-2.25-15.46-8.43-18.46-1.24-.61-2.59-1.4-4.07-.85a2.09,2.09,0,0,0-1.15,1.2c-.22.79.51.91,1.12,1,2,.14,3.64.62,4.37,2.85a1.54,1.54,0,0,0,2.38.75c1.84-1.28,2.3.35,2.9,1.34a10.06,10.06,0,0,1,1.15,7.53C269,194.06,263.32,197.53,254.54,196.19Zm-24.85-27c2.84,2.74,4,6.73,8.73,4.52,3.09-1.44,7.45-.47,8.81-5.37Zm20.08,7.5c-4.63,3.3-6,12.24-2.72,17.09.67,1,1.32,2.76,2.81,2.18,1.22-.49.39-2.14.46-3.26a4.2,4.2,0,0,0-.62-3c-1.35-1.82-1.27-3.89-1-6.1S250.14,179.22,249.77,176.7Zm11.69,29.68a16.4,16.4,0,0,0,9.89,3.65c1.1.08,2.3,0,2.44-1.41s.68-3.25-.26-4.45c-.72-.92-1.89.27-2.78.69C268.14,206.07,265.39,206.45,261.46,206.38Zm63.39,220.21c-2.7,0-5.41,0-8.12,0-4.58.06-4.74.35-3,5.17C317.18,429.37,321.25,428.6,324.85,426.59ZM180.91,185a33.57,33.57,0,0,1,7.46-14.54C180.29,173.3,181.24,179.5,180.91,185Z"/><path d="M145.59,202.52c0,2.9-1.88,4.32-4.3,3.48a8.32,8.32,0,0,1-3-1.75c-3.91-3.8-7.6-7.83-12.42-10.57a2.08,2.08,0,0,1-1-1.33c-.08-.74.67-.75,1.27-.86,4.78-.84,15.88,4.16,18.46,8.43A14.47,14.47,0,0,1,145.59,202.52Z"/><path d="M200.9,197.21c2-1.7,2.4-3.85,1.15-6-1.15-2-3.32-1.85-5.12-1.15-2,.76-2.35-.43-2.65-1.71-1.87-8.06,3.12-15.41,10.21-15.54,3.45-.07,6.81-2.21,10.41-.64,1.86.81,5,.88,2.28,4.21a1.23,1.23,0,0,0,.17,1.89,2.13,2.13,0,0,0,2.67.13c1.86-1.58,2.37-.27,3,1.14a10,10,0,0,1,.22,7.31c-2.35,7-7.56,10.68-14.45,12.16A9,9,0,0,1,200.9,197.21Z"/></g></g></g></svg>