<svg xmlns="http://www.w3.org/2000/svg" viewBox="0 0 429.91 599.61"><title>mariannaturchiarulo</title><g id="Livello_2" data-name="Livello 2"><g id="Livello_1-2" data-name="Livello 1"><g id="Eo9QJt.tif"><path d="M202.85,243.34c-1.73,8.77-5.95,15.79-15.08,19.56,13.76,11.79,26.14,24.69,43.73,30.21,4.85,1.52,7.29,4.85,6.24,7.65s-4.92,4-9.67,2.59c-14.1-4.29-25.49-12.94-36.08-22.79q-7.59-7.05-14.91-14.41a4,4,0,0,0-5-1.12,22,22,0,0,1-17.74-.53c-1.33-.62-2.32-.14-3.47.22-4.56,1.41-9.15,2.57-13.93,1.07-1.84-.57-3.08.49-4.41,1.44-25.24,18-46.21,40.07-63.61,65.62-9.53,14-18.66,28.23-25.33,43.9A133.15,133.15,0,0,0,33.05,422,535.9,535.9,0,0,1,16.41,530.59c-4.92,18.7-6.47,37.9-3.16,57.21.16.93.17,1.89.28,2.83.34,3.12-.78,5.35-4,6.09-3.38.79-5.54-.88-6.56-3.94a60.29,60.29,0,0,1-2.8-15.54c-1.25-20.87,3.28-41,8.66-60.86,7.42-27.42,12.22-55.23,13.36-83.63C23.86,392.09,39.44,356.91,64,325.13c7.86-10.2,15.69-20.4,24.93-29.78-5.55-2.36-7-6.91-7.4-12.14-1.08-13.19.6-25.69,8.92-36.58,4.13-5.4,9.23-9.73,15.75-11.68,9.18-2.75,13.85-9.52,16.79-17.8,2.81-7.92,2.8-16.24,2.08-24.53-1.69-19.29-4.22-38.52-2.84-58,2.37-33.4,11.21-64.44,32.44-91.11,14.35-18,30.87-33,53.8-39.3,29.34-8.11,57.05-4.66,83.22,11,7.65,4.57,15.77,8.32,22.09,15,10.77,11.31,16.54,24.9,19.21,40,.65,3.73.71,7.5-3.83,9.11-1.86.66-1.07,2-.85,3,6,28.71,8.27,57.88,11,87,1.11,12.11.19,24.11-5.42,35.28a7.53,7.53,0,0,1-1.11,2.15c-4.51,4.37-3.62,9.24-1.91,14.52,1.85,5.7,4.65,11,6.84,16.48a5.27,5.27,0,0,0,1.82,2.09c7.34,6.1,7.35,13.06-.09,19.51,4,2.54,8,4.85,11.78,7.59,17.78,13,29.68,30.65,38.6,50.4,9.72,21.55,14.4,44.46,17.24,67.8,3.4,27.86,4.06,55.93,6.49,83.87,1.85,21.22,5.63,42.1,10.12,62.9,3.38,15.62,6.37,31.32,6.32,47.42,0,1.49.05,3,0,4.47-.24,3.73-2.45,6.12-5.66,6.2s-5.65-2.24-6-5.88c-.72-7.14-1.25-14.3-2.06-21.43-2.18-19.12-6.23-37.93-9.47-56.88-3.76-21.95-5-44.11-6.33-66.29-1.6-27.72-2.69-55.51-9-82.71-7-30.49-18.86-58.72-40.21-82.24-2.73-3-5.59-5.91-8.59-8.65-2.62-2.38-4.78-4.65-9.32-4.91-3.4-.19-7.28-1.61-11.08-1.83-1.07-.07-2.12-.29-3.13.42-5.95,4.22-12.33,3.58-18.62,1.19-3.94-1.49-6.43-1.08-9.17,2.61a123.65,123.65,0,0,1-21.84,22.31c-8.65,7-15,7.07-23.81.38-15.49-11.81-29.49-25.1-40.83-41C204.3,244.39,204,243.55,202.85,243.34Zm-.59-18.61c1.67-8.84,1.67-8.84,9.31-6.21.64.22,1.29.42,1.94.61,2,.6,2.49,1.74,1.39,3.6-2.63,4.42-5.09,9-8.92,12.51-1.35,1.24-1.28,1.93,0,3.17,3.24,3.08,6.29,6.35,9.44,9.52C226.53,259.09,238,269.86,251,278.76c5.39,3.68,7.37,3.87,11.62.3a152.15,152.15,0,0,0,20.76-21.69c.87-1.08,1.27-1.89.07-3.09-5.12-5.1-6.68-11.33-5.17-18.25.55-2.53-.48-2.73-2.44-2.7a89.81,89.81,0,0,1-11.37-.09c-7.1-.79-14.36-.08-21.3-2.34a7.67,7.67,0,0,1-5.39-5.07c-.83-2.62.58-4.32,3.09-3.29,7.49,3.08,15.39,2.51,23.17,3.29a76.58,76.58,0,0,0,40-6.18c16.18-7.29,24.53-19.69,25.38-37.35s-1.69-35.12-2.69-52.66c-.07-1.25.38-4.26-1.92-3.57-2.64.79-6.62-2.08-8,2.64a3.82,3.82,0,0,1-3.87,3c-1.76,0-3.66-.4-3.88-2.21-.48-3.91-3.16-4.67-6.24-5.4a3.21,3.21,0,0,1-2.61-2.82c-.13-1.6,1.2-2.36,2.35-3a8.08,8.08,0,0,1,3.07-1c5.89-.53,11.74-2,17.71-1.08.73.11,1.56.11,1.76-.59a13.24,13.24,0,0,0-.06-7.2c-.59-2.06-2.87-1.29-4.26-1-4.86,1-9.73.68-14.58.37-2.92-.19-6-.11-8.69-1.59-3-1.62-4.21-5.32-2.53-8,1.86-3,4.51-3,7.43-1.53,6.57,3.28,13.93,4.21,20.72,6.85,2.25.87,2.15-.56,2.11-2-.1-4.2-.5-8.42-.19-12.58.42-5.82-.27-10.19-5.18-14.88a73.46,73.46,0,0,0-26.06-16.62c-13.78-5-28.3-6.88-42.47-10.24-2.1-.5-3.25.63-4.37,2.15-14.83,20.17-33.15,36.75-53.23,51.5a12.09,12.09,0,0,0-2.86,2.85c-4.64,6.82-9.21,13.71-13.8,20.57-.74,1.12-1.73,2.15-.36,3.55a2.59,2.59,0,0,1,.12,4,4.16,4.16,0,0,1-4.43,1.31,11.85,11.85,0,0,1-3.32-1.49c-2.67-1.88-4.71-1.05-6.7,1.13-5.82,6.38-7,14-5.12,22,1.64,7.12,7.19,11,15,11.3,5.46.23,5.9.69,6.15,6.06a5.05,5.05,0,0,0,.94,2.16c3,5,6,10,9.18,14.84A90.25,90.25,0,0,1,202.26,224.73ZM94.94,254.14a46.3,46.3,0,0,0-4.86,32.07c.68,3.41,4,4.11,6.57,1.72,5.4-5.12,11.06-9.92,16.94-14.48.64-.5,1.85-.76,1.45-2.05C103.24,270.77,99.19,267.38,94.94,254.14Z"/><path d="M259.52,299.23c1.53,12.88,2.79,25.5,3.47,38.18,2.45,45.48,2.17,91,2.32,136.54,0,3.89.84,5.14,4.88,4.77,11.19-1,22.42-1.59,33.63-2.35.54,0,1.08-.1,1.62-.12,2.76-.13,5.78.3,5.9,3.47s-2.95,3.78-5.63,3.87c-12,.41-24.09.88-36.15,1.08-3.33.06-4.21,1.12-4.27,4.45-.66,35.9-2.52,71.75-4.73,107.59-.07,1.16.18,2.85-1.42,2.9s-1.45-1.72-1.52-2.83c-.68-10.27-1.45-20.54-1.89-30.82-1.07-25.58-2.75-51.15-2.63-76.77,0-3.38-1-4.35-4.35-4.32-18.56.15-37.12.06-55.68.11-1.43,0-3.81-1-3.21,2.34,2.87,16.4-2,31-10.59,44.72a122.32,122.32,0,0,1-16.22,20.28,24.06,24.06,0,0,0-6.43,12.43q-2.52,12.53-5.07,25a17.78,17.78,0,0,1-2.57,6.78,5.53,5.53,0,0,1-6.33,2.5,5.44,5.44,0,0,1-4.21-4.93,17,17,0,0,1,.28-5.64c2.15-9.36,4.52-18.67,6.69-28a29.17,29.17,0,0,1,9.68-16c9.73-8.37,18.1-17.88,24.06-29.37a70.82,70.82,0,0,0,8-26.65c.23-2.56.66-3.88,3.89-4.2,18.88-1.83,37.82-2.6,56.72-4,3.85-.27,5.25-1.09,5.24-5.35-.16-44.44,0-88.89,1.92-133.3.57-13.11,2.15-26.18,3.29-39.27A3.72,3.72,0,0,1,259.52,299.23Z"/><path d="M371,326.62c0,5.24,0,10.49,0,15.74q.3,35.37,1.45,70.72c1.08,32,6.34,63.26,13.61,94.31,4.74,20.3,9.35,40.64,10.76,61.53a66.16,66.16,0,0,1,.27,7.31c-.18,4.35-2.71,7.33-6.05,7.4-3.13.07-5.67-2.51-6.18-6.86-.83-7.13-1.28-14.3-2.13-21.43-2.63-22.07-7.41-43.76-12-65.47A305.06,305.06,0,0,1,365.05,399c2-22.94,2.91-46,4.32-69,.07-1.2.18-2.39.27-3.59Z"/><path d="M102.87,465.15c.14-19.35,0-35.18-2.42-50.9-.15-1-.81-2.4.43-2.91,1.59-.65,2,1.08,2.52,2,8.08,13.8,11.08,28.94,11.6,44.69.67,20.07-1.32,40-2.51,60-1.39,23.38-3,46.74-4.64,70.1-.38,5.59-3.55,9.64-7.06,9.41s-6-4.74-5.63-10.29C97.58,545.4,101.23,503.59,102.87,465.15Z"/><path d="M315.08,482.41c1.64.37,2.06,1.79,2.75,2.87,6.51,10.09,13.8,19.81,23.42,26.84,13.35,9.76,18.75,22.82,20.13,38.5.7,8,2,15.85,3.05,23.77.33,2.57.46,5.16-.71,7.59a5.23,5.23,0,0,1-4.66,3.39,5,5,0,0,1-4.66-2.72,17,17,0,0,1-2.14-8.16,339.06,339.06,0,0,0-3.94-35.11A22.51,22.51,0,0,0,341,525.7a89.84,89.84,0,0,1-24.62-36.28C315.59,487.19,314.38,485,315.08,482.41Z"/><path d="M272.85,123.17c-.32,2.87-1.72,4.58-4.26,5a16.8,16.8,0,0,1-4.85.2c-3.48-.36-5.8.37-7.64,3.93-2.43,4.7-7,4.36-9.13-.48-1-2.35-2.27-2.86-4.52-2.89-3.37,0-6.74-.38-10.11-.65-1.41-.12-2.74-.59-2.93-2.25s1.15-2,2.24-2.49c5.31-2.15,10.92-2.81,16.56-3.35,6.45-.61,12.87-1.57,19.38-1.34C270.59,119,272.34,120.51,272.85,123.17Z"/><path d="M238.35,112.77c-2.1-.53-6.27.52-6.6-2.26s3.81-3.1,6.31-3.8q14.35-4,28.76-7.86c4.54-1.21,7,0,7.94,3.73.87,3.46-.57,5.64-5.18,6.52A221.6,221.6,0,0,1,238.35,112.77Z"/><path d="M305.51,152.27a13,13,0,0,1-15.8,13,26.11,26.11,0,0,1-11-5c-2.14-1.62-3-3.55-1.2-5.87s3.92-2.18,6.06-.53a30.37,30.37,0,0,0,6.88,4.19,5.75,5.75,0,0,0,7-1.49,5.86,5.86,0,0,0,.78-6.8,15,15,0,0,0-5.12-5.63c-1-.69-2.2-1.33-1.39-2.9.67-1.29,1.83-1.39,3.12-1.33C300.46,140.18,305.53,146,305.51,152.27Z"/><path d="M296.15,179c.83,0,1.78-.51,2.34.26.72,1-.35,1.72-.78,2.48-1.48,2.58-3.07,5.1-4.54,7.68a9.18,9.18,0,0,0-1.61,5.31c.33,5-2.21,7.9-6.5,7.77s-7.23-3.82-6.91-8.36a10.46,10.46,0,0,1,2.51-5.87C284.66,183.17,289.64,179.77,296.15,179Z"/><path d="M161.48,148a6.8,6.8,0,0,1,7.05-7.95c4.71,0,8.14,2.56,10.71,6.23,1.44,2.05.92,4.15-1.14,5.64a3.86,3.86,0,0,1-5.45-.5c-.57-.57-1-1.29-1.49-1.91C167.32,144.89,165.89,144.67,161.48,148Z"/></g></g></g></svg>