<svg xmlns="http://www.w3.org/2000/svg" viewBox="0 0 406.84 566.25"><title>mariaelenapellico</title><g id="Livello_2" data-name="Livello 2"><g id="Livello_1-2" data-name="Livello 1"><g id="sZmwVR.tif"><path d="M116.43,242c-13.35-.92-26.54-2.54-39.37-6.33a64.12,64.12,0,0,1-20.33-10.15c-8.15-6.11-11.07-15.17-12.25-24.88a59.84,59.84,0,0,1,2.21-24.84c6-19.77,13.86-38.66,27-54.94,4.36-5.4,9.58-9.86,16.12-12.38,2.47-1,2.26-2.86,2.47-4.61A115.83,115.83,0,0,1,106,61.09c4.44-8,9.26-15.73,14-23.55,10.06-16.73,25.4-26,43.73-31.31C182.44.84,201.38-1.29,220.86.78c7.65.81,15.42-.09,23,2.38,22.41,7.35,42.12,18.78,57,37.52a52,52,0,0,1,11.59,33.84c-.06,6.8,1.9,13.58.41,20.44-1.37,6.31-2.57,12.65-4.14,18.9a15.76,15.76,0,0,0-.1,6.73c3.29,19.53,9.18,38.44,13.68,57.67,2.7,11.58,4,23.28.68,35-4.63,16.57-15.29,26.73-32.22,30.17a9.21,9.21,0,0,0-1.31.56c4.61,2.93,7,6.73,6.63,12.12-.15,2.24,2,1.41,3.2,1.46,14.63.65,27.52,5.67,38.28,15.62,10.08,9.32,16.55,21.07,21.81,33.56,7.74,18.38,12.66,37.7,18.84,56.6,4.15,12.7,9.1,25,17.15,35.83a73.42,73.42,0,0,1,8.64,15.62c3.85,9.23,3.71,18.27-1.27,27.05-.87,1.53-1.32,2.86-.6,4.59,8.87,21.32,4.71,41.19-6.74,60.24a317.52,317.52,0,0,1-20.19,29.05c-1.92,2.5-4,4.9-6.93,6.39-3.74,1.9-4.44,5.79-1.79,9.22.54.7,1.3,1.24,1.76,2,1.45,2.32,2.77,4.73.34,7.23a6.07,6.07,0,0,1-8.3.15c-2.46-2.13-4.29-4.77-4.32-8.15,0-2.27-.55-2.84-2.81-2.06-12.59,4.34-25.54,3.7-38.37,1.86-35.49-5.06-68.93-17-101.75-31-6.64-2.82-13.24-5.74-19.64-9.09-6.59-3.44-13-3.61-20-.3-18.12,8.58-35.28,19-53.38,27.55-15.48,7.33-31.23,13.92-48.33,16.57-1.94.3-4,.28-2.83,3.6,1,2.9-1.44,6-4.33,6.49s-6.35-2-6.18-5.25c.2-3.7-1.39-4.4-4.55-5-24.15-4.91-38.49-20.6-46.48-43-6-16.73-7.6-34.11-7.21-51.72C1.14,412.26,13.5,366,33.31,321.56c8.66-19.41,18.81-38,33.23-53.85,8.57-9.41,18-17.92,30.53-22C103.37,243.64,110,243.33,116.43,242ZM79.34,477.31c-1.65-.34-2.21.87-3.08,1.48-3.85,2.69-7.68,5.44-12.18,6.94-4,1.35-6.13-.26-6-4.49a43.83,43.83,0,0,1,3.12-14.81c4.16-10.65,11.89-18.5,20.58-25.43,2.61-2.09,4.28-4.41,4.36-7.54.33-11.86,3.84-23.21,5.53-34.85.75-5.09,1.51-10.31,4.4-14.81.47-.72.88-1.72,2-1.56s1.26,1.21,1.46,2a22.46,22.46,0,0,1,.67,7.92c-1.56,13-3.08,26.05-4.63,39.17a5.63,5.63,0,0,0,1.34-.28,49.48,49.48,0,0,1,19.68-5.19c1.77-.07,2.31-1,2.71-2.54,1.38-5.26,5.06-7.9,10.25-8.92a47.34,47.34,0,0,1,12.86-.33c4.77.36,9.55,2.22,14.27,1.14,11.24-2.56,22.64-2.75,34-2.61a241.46,241.46,0,0,1,31.11,1.88c11.38,1.61,23,2.5,32.94,9.23a3.26,3.26,0,0,0,2.12.59c6.22-1,12.61-.53,18.77-2.5,7.71-2.46,15.23-1.45,22.41,2.38,2.25,1.19,3,4.07,5.15,4.89a139.57,139.57,0,0,1,19.73,10c1.08-17.11-.67-33.63-2.34-50.13s-3.34-33.06-2.66-49.71a16.46,16.46,0,0,1,2.14-8.46,36.81,36.81,0,0,1,2.75,9.85c2.59,15.73,5,31.5,7.66,47.21s4.71,31.52,4.07,47.62c-.36,9.19.35,18.5,3.84,27.33,1.53,3.87.09,6.67-3.85,8.18a45.44,45.44,0,0,1-17.87,2.85c-10.5-.32-20.12-3.62-29.39-8.22-2-1-3.82-1.66-6.14-.91-30.16,9.84-59.6,21.41-87.7,36.24-1.14.6-2.57.93-3.14,2,14.08,8.15,29.15,13.28,44.42,18,31.56,9.69,62.77,20.7,96.3,22,13.37.51,24.85-2.28,33.39-13.31,6.76-8.73,13.71-17.31,19.8-26.54,5.62-8.52,10.33-17.45,12.46-27.54,1.76-8.33,1.42-16.65.12-25.5-1.37,1.17-2.23,1.9-3.08,2.64-1.51,1.29-2.91,3.26-5.21,1.64-2.1-1.48-1.47-3.52-.68-5.49,1.87-4.71,3.65-9.45,5.57-14.14,3-7.37,2.17-14.36-2-21a63.87,63.87,0,0,0-4.95-7.21c-6.55-7.92-11.1-16.92-14.9-26.38-4.64-11.55-7.85-23.53-11.14-35.49C355.8,327.86,351.6,311,343.7,295.4c-9.38-18.52-23.46-30.88-44.32-34.77-3-.57-4.69-.21-6.34,2.76a61.52,61.52,0,0,1-34.31,29.12,86.3,86.3,0,0,1-42.36,4C181.66,291,151.72,277,131.46,246.73a2.82,2.82,0,0,0-3.45-1.39c-4.34.84-8.73,1.45-13.13,2-9.87,1.2-18.83,4.32-26.77,10.68a124.72,124.72,0,0,0-29,33.51C45,315,36,340.76,27.28,366.58a310.15,310.15,0,0,0-15.11,67.68,201,201,0,0,0,.74,50.1c1.71,11.51,3.95,22.94,8.76,33.69,9.39,21,31,31.53,53.07,25.45,17.27-4.75,33.65-11.88,49.65-19.89,26.43-13.21,51.74-28.52,78.27-41.53,24.54-12,49.81-22,77.13-25.69,2.23-.3,2.16-1.64,2.23-3.2.32-6.72-1.44-13-3.63-19.29-.49-1.39-1.08-2-2.71-1.92A316.08,316.08,0,0,0,229,438.12c-24.53,5.19-48.51,12.48-72.69,19-6.41,1.72-10.75,4-13.83,10.67-5,10.76-13.81,19.06-22,27.5a16.52,16.52,0,0,1-14.28,4.87c-5.1-.63-7.92-4-9.56-8.75-3.45,3-6.23,6.16-10,8.09-6.51,3.34-11.75.17-11.91-7.13a18,18,0,0,1,1.39-7C77.16,482.69,78.24,480,79.34,477.31ZM257.4,249.69A55.09,55.09,0,0,1,247.6,229c-.5-2.08-1.93-2.29-3.7-2.45-6.91-.65-13.94-.44-20.64-2.76-5.89-2-11.81-4-16.13-8.86-.65-.73-1.78-1.59-1.21-2.57.66-1.13,1.81-.31,2.71.07,16.4,6.9,33.28,5.3,50.13,2.57,15.35-2.49,29.27-21.56,29.85-37.78.78-21.93.49-43.89,1.74-65.81.17-2.9-1.06-2.9-3.19-1.86-3.87,1.88-7.74,3.79-11.71,5.43-4.14,1.71-8.42,2.86-12.92,1.27a6.18,6.18,0,0,1-4.21-7.16c.69-3.27,2.73-5.13,6.22-4.76a22.68,22.68,0,0,0,10.76-1.75c3.3-1.26,6.62-2.57,10.25-2.5,2.07,0,4.67,2,5.95.65s1.11-4.27,1.53-6.51a41.47,41.47,0,0,1,.76-4.48,3.25,3.25,0,0,0-1-3.43,58.91,58.91,0,0,1-7-8.48c-.89-1.38-1.71-1.65-2.75,0A18.55,18.55,0,0,1,276.85,84c-2.79,1.69-4.72,1.29-5.93-1.9-.8-2.13-1.76-4.2-2.66-6.29-1.11-2.53-2.17-3-4-.39a28.8,28.8,0,0,1-12.71,10c-1.55.63-3.19,2-5,.61-1.93-1.57-1.21-3.69-.87-5.66a35.85,35.85,0,0,0,.11-12.38c-4.07,2.76-7.79,5.15-11.38,7.73a87.94,87.94,0,0,1-16.71,9.78c-1.47.62-2.93.94-4.28-.22s-.86-2.51-.5-3.87c.13-.52.81-1.09-.14-1.54-16.11,18.27-35.89,31.66-57.09,43.11-2.92,1.58-4.92,2.44-1.68,5.55a10,10,0,0,1,1.37,2.69c.86,1.72.23,3-1.31,3.8s-2.72.25-3.64-1c-1.11-1.53-1.91-3.35-3.24-4.65-5.84-5.72-9.73-5.57-14.87-1.14-4.39,3.78-5,8.82-1.71,14.87a36,36,0,0,1,4.7,17c.1,4.93.87,5.57,5.77,6.07a11.7,11.7,0,0,0,4.83-.83c.81-.26,1.64-.95,2.48-.2s.59,2,.12,2.82c-1.31,2.41-.25,4.17,1.13,6.15a148,148,0,0,0,24.28,27.19c2.51,2.18,6.23,4,6.79,7.4,1.56,9.53,4.32,19.47-6.36,26.34-3.57,2.29-2.88,4.75,1.21,6.28,13.91,5.22,28.12,9,43,10.37A141.92,141.92,0,0,0,257.4,249.69ZM162.61,450.08a9.66,9.66,0,0,0-.67-1.12c-.43-.47-.86-.94-1.32-1.37-12.5-11.61-27.42-16.31-44.25-15.31-14.09.84-26.72,4.82-36.18,16.28-5.47,6.63-10.4,13.42-12.74,21.81-.37,1.29-1,2.53,0,4.06a77.31,77.31,0,0,0,20.45-18.75c1.72-2.27,3.44-4.32,6.57-2.64,3.46,1.85,2.21,4.69,1.14,7.28-2.55,6.21-5.28,12.35-7.8,18.57-1.34,3.29-2.87,6.56-3.29,10.33,1.7-.3,2.46-1.37,3.38-2.21,7.06-6.48,11.9-14.43,15.47-23.24,1.62-4,3.87-5.4,6.83-4.19,3.73,1.54,2.93,4.41,2,7.36-2.1,6.77-4.15,13.56-6.08,20.37-.94,3.32.46,4.52,3.77,3.54,4.1-1.21,6.92-4.17,9.6-7.22A205.06,205.06,0,0,0,136,461.72a15,15,0,0,1,7.57-5.73A162.57,162.57,0,0,1,162.61,450.08Zm-4.26-210.16c-4.16.91-8.31,1.87-12.45,1.22-4.29-.69-6.49,2.38-8.37,4.8-1.43,1.85,1.66,3.75,2.84,5.55a21.23,21.23,0,0,0,3.66,4.35A148.66,148.66,0,0,0,181.63,280c3.13,1.4,3.9.33,4.2-2.44.67-6.22,2.72-12.07,4.92-17.86,1.78-4.66,1.84-4.64-2.92-6.32a11.59,11.59,0,0,1-1.41-.58c-1.94-1-3.12-.7-4.67,1.27-3.3,4.19-6.15,8.67-9.2,13-2.24,3.21-4.68,3.84-7,1.85-2.54-2.2-2-4.61-.14-7.05A54.39,54.39,0,0,1,176,251c.85-.65,2.31-1.37.38-2.42a76.46,76.46,0,0,0-9.09-4.67A6.38,6.38,0,0,0,159,246.5a32,32,0,0,1-7.31,8.2c-2,1.44-4.17,3-6.31.4-1.91-2.36-.32-4.21,1.35-5.93C150.24,245.63,154.47,243.05,158.35,239.92Zm7.23,178.17c1.41.55,2,.77,2.51,1,10.31,3.79,20.3,8.08,26.79,17.65,1.08,1.59,2.19,1.11,3.59.69,6.53-1.95,13.06-3.93,19.64-5.69,8.4-2.24,16.88-4.12,25.45-5.84C218.46,417.24,192.51,417.51,165.58,418.09Zm53.29-143.66c0-3.55-.18-7.11.06-10.64.19-2.77-1-3.88-3.53-4.2-3.37-.43-6.74-1-10.09-1.59-2.31-.43-3.63.28-4.76,2.45q-5.1,9.75-10.67,19.24c-1.42,2.41-.73,3.07,1.61,3.88a150.77,150.77,0,0,0,25.42,5.83c1.58.25,2.81.14,2.32-2.1C218.3,283.05,218.92,278.72,218.87,274.43Zm12.32,15.81c5.31-.68,11.42-.45,17.35-2,1.24-.32,2.65-.43,1.94-2.36-2.82-7.6-4.28-15.55-6.27-23.37-.26-1-.35-2.33-2-2.24-3.91.23-7.82.39-11.73.59a1.68,1.68,0,0,0-1.49,1c-1.28,2.47-3.27,4.45-3.38,7.66-.15,4.39-1.1,8.75-1.78,13.11C222.64,290.18,222.62,290.18,231.19,290.24Zm20.4-28.18q1.65,11.44,3.29,22.91c.27,1.84,1.36,1.32,2.52.95,9.26-3,16.17-9.25,22.66-16.12,1-1,.69-1.75-.27-2.49-3.8-2.94-7.22-6.38-10.89-9.42-4.19-3.49-8.93,1.48-13.6.92a4.1,4.1,0,0,0-2.16.57A2.46,2.46,0,0,0,251.59,262.06ZM308.07,435.2a61.15,61.15,0,0,1,5.73,21.4c.34,4.13,2.2,5.81,6.27,5.09a7.55,7.55,0,0,1,1.9,0c2.24.18,2.77-.91,2.62-3C323.74,447.54,315.66,441.6,308.07,435.2Zm-146,.68c3.72,3.42,7.77,5.56,9.56,9.84.34.79,1.23.82,2,.53,4.49-1.68,9-3.39,13.47-5.06,1-.37,1.14-.95.46-1.67a40.66,40.66,0,0,0-8.8-7.16c-2.05-1.24-2.9,1.48-4.64,1.58a47.36,47.36,0,0,0-4.84.79ZM294.42,451c2.58.43,4.75-.49,7-.78,1.07-.13,1.39-.7,1.45-1.79.23-4.36-1-6.24-5.14-7.51a48,48,0,0,0-5.86-1.51c-5.39-.93-5.75-.49-4.1,4.55a9.19,9.19,0,0,1,.64,2.18C288.63,450.2,290.71,451.81,294.42,451ZM167.21,426.83c-3.5-1.45-6.54-2-9.3-3.11-5.23-2.11-9.24-.14-13.18,2.85-1.09.82-2.35,1.61.11,2.41,3.24,1.06,6.43,2.27,9.62,3.47a2.76,2.76,0,0,0,2.85-.3C160.14,430,163.42,428.67,167.21,426.83Zm115.54-160.1c1.59-2.26,2.67-3.65,3.6-5.14,5-7.87,2.6-12.32-6.74-12.78-.5,0-1,0-1.51-.05-2.2-.22-2.49,1.24-1.76,2.59C278.9,256.06,280.59,261.13,282.75,266.73Zm15,166.36c-3.94-6.25-10.34-9.31-17.91-8.82,1.19,1.84,1.19,1.84,1.18,5.16,0,2.53,3.31,6.44,4.89,5.63C289.56,433.19,293.49,433.38,297.76,433.09ZM139.61,420.93c-2,0-3.85,0-5.71,0-3.35-.09-6.58.3-9.42,2.28-.62.43-1.43.89-1.25,1.72s1.15.83,1.88.88a67.12,67.12,0,0,1,6.82.4C137.52,427.08,137.51,427.16,139.61,420.93ZM267.08,241.38c-3.74-2.38-7.35-3.87-11-7C260.65,242.92,261,243.15,267.08,241.38Z"/><path d="M204.72,549c-.23,2-.93,3.71-2.88,4.6a5.9,5.9,0,0,1-6.69-1.22,10.62,10.62,0,0,1-3.4-8.56c.09-3,2.32-4.45,4.95-3.05C200.18,542.63,204.33,544.05,204.72,549Z"/><path d="M258.32,556.62c-1.95-.09-3.23-1.79-4.15-3.78s-1.83-4.18-.63-6.47a.92.92,0,0,1,.23-.29c1.52-1.3,3.15-.89,4.5.09,2.47,1.81,5.62,3.45,4.77,7.3C262.62,555.39,261.11,556.69,258.32,556.62Z"/><path d="M140.32,549.5c1,0,2.33.21,2.85,1.3.59,1.25-.89,1.26-1.52,1.67-1.36.85-1,2.12-1.14,3.37-.17,2.14-1,4-3.33,4.51-1.72.41-2.87-.44-3.78-1.86-1.31-2.06-.68-3.86.65-5.57A9.23,9.23,0,0,1,140.32,549.5Z"/><path d="M92.33,311c-1.17-.08-2.6.18-3.09-1-.42-1,.68-1.81,1.42-2.48A65.33,65.33,0,0,1,108,296c2.79-1.25,5.53-1,7.14,2.17a5.39,5.39,0,0,1-2.83,7.32A77.4,77.4,0,0,1,92.33,311Z"/><path d="M176.55,327.48c-.19,2.39-1,4.32-3.16,5.4a4.54,4.54,0,0,1-5.87-1.12,45.13,45.13,0,0,1-8.82-18.31c-.4-1.61.27-3.66,2.36-2.38,6.2,3.79,12,8.12,15.14,15A7.89,7.89,0,0,1,176.55,327.48Z"/><path d="M43.53,416.56c-.06,3.84-5.74,11.42-9.4,12.54a5.15,5.15,0,0,1-5.53-1.53c-1.55-1.64-1.54-3.69-.85-5.69,1.26-3.63,8.61-8.73,12.55-8.91C42.92,412.85,43.55,414.37,43.53,416.56Z"/><path d="M374.06,429.25c0,2.56-1,4.32-3,5.23a4.89,4.89,0,0,1-5.67-.72,15.16,15.16,0,0,1-4.86-11.11c0-1.77.55-3.65,2.5-4.29a4.6,4.6,0,0,1,5.2,1.28C370.81,422.6,373.6,425.42,374.06,429.25Z"/><path d="M146,368.68c0,3.55-1.85,5.69-5,6-3.63.35-5.4-1.55-6-4.89-.38-2.25-.58-4.53-1.1-6.74-.42-1.81-.25-3.36,1.26-4.42,1.74-1.23,3.6-.89,5.36.13C143.54,360.48,146.09,365.09,146,368.68Z"/><path d="M64.19,519.63c.08,3.53-2.74,5.56-6.06,4.37-3.71-1.33-8-7.57-7.56-11.32.21-1.94,1.16-3.24,3.47-3.11C57.87,509.78,64.12,515.87,64.19,519.63Z"/><path d="M322.91,295.5c1.53.33,3.33-.9,4.06.63s-1.06,2.35-1.9,3.37c-1.61,1.94-3.24,3.86-5,5.68a4.85,4.85,0,0,1-6.51.85A4.94,4.94,0,0,1,311,300.6c.49-2.68,2.28-4,5-4.26C318.4,296.13,320.76,295.77,322.91,295.5Z"/><path d="M300.35,383.27c.77.14,2.48-.72,3.3.75s-.78,2.5-1.43,3.63a19,19,0,0,1-4.9,5.73,5.18,5.18,0,0,1-6.05.42,5.28,5.28,0,0,1,1.45-9.5A21.51,21.51,0,0,1,300.35,383.27Z"/><path d="M264.45,341.41c0-1.84,0-3,.61-4,.94-1.67,2.12-1.94,3.09-.22,1.58,2.77,3.72,5.1,5.57,7.64,1.22,1.66,1.77,3.42-.13,5a4,4,0,0,1-5.54,0C265.1,347.57,264.69,344.15,264.45,341.41Z"/><path d="M334.28,511.32c.05,1.93-1,3-2.73,3.61a3.21,3.21,0,0,1-4.15-1.69,47.83,47.83,0,0,1-3-7.69c-.52-1.66.37-2.68,2.18-2.59C329.66,503.11,334.34,508.22,334.28,511.32Z"/><path d="M264.08,496.52a14.74,14.74,0,0,1-.9,6,2.84,2.84,0,0,1-3.11,2.27c-1.67-.21-2.24-1.48-2.46-2.94-.65-4.35.8-8.28,2.67-12,.92-1.84,2.32-1.4,2.94.38A15.73,15.73,0,0,1,264.08,496.52Z"/><path d="M126.26,502c2.85,0,5.25.92,5.15,4.12s-2.86,3.81-5.49,3.94c-3.44.16-6.5-1.76-6.47-3.91S122.65,502.05,126.26,502Z"/><path d="M350.69,369.82a17.44,17.44,0,0,1-6.51-.82,2.34,2.34,0,0,1-1.25-1.23c-.09-.19.46-1,.83-1.07,3.85-1.13,7.48-3.07,11.59-3.24,1.77-.08,3.49.38,3.73,2.36s-1.3,2.86-3,3.34A12.31,12.31,0,0,1,350.69,369.82Z"/><path d="M36.47,472.21c-1.21-.29-2.44-.53-3.64-.89-1.47-.44-1.76-1.54-.82-2.59,2-2.26,4.33-4.22,7.49-4.72,1.93-.31,3.58.23,4.27,2.21.62,1.76-.17,3.2-1.58,4.28A8.67,8.67,0,0,1,36.47,472.21Z"/><path d="M210.57,357c-1.34-.09-2.92.24-1.82-2,1.52-3.07,6.71-6.33,9.88-6.1,1.8.13,3.26.77,3.52,2.74.23,1.8-.83,2.8-2.51,3.23-2.43.61-4.86,1.24-7.3,1.83C211.73,356.88,211.1,356.93,210.57,357Z"/><path d="M116.78,255.23a17.85,17.85,0,0,1,8.22,2.55,2.83,2.83,0,0,1,1.46,3.21,3.12,3.12,0,0,1-2.37,2.21c-2.94.84-9.22-2.33-10.13-5.24C113.16,255.37,115.14,255.43,116.78,255.23Z"/><path d="M176.24,472.3c-2.59,0-6.14-4-6.08-6.89,0-1.89,1.27-2.68,3-2.67,2.72,0,6.94,3.77,6.87,6.22S178.43,472.24,176.24,472.3Z"/><path d="M77.88,382.78c-2.55-.62-6.79-.78-7.12-3.85-.28-2.56,4-1.09,6-2.16a3.11,3.11,0,0,1,1.47-.34c2.15.05,4.89-1,5.51,2.35C84.16,380.83,81.19,382.86,77.88,382.78Z"/><path d="M250.5,443.33c2.27.58,4.59,1.44,4.34,4.25-.2,2.38-2.28,3.13-4.48,3.06-2.78-.07-7-2.9-6.36-4.26C245.25,443.79,247.93,443.61,250.5,443.33Z"/><path d="M71.57,348.6c-1.62-.48-4.41,1.15-4.91-1-.36-1.56,2.69-1.55,4.19-2.17,2.66-1.11,5.26-2.5,8.23-2.67,1.14-.07,2.39-.23,2.82,1.21s-.5,2.17-1.43,2.84C77.82,348.69,74.67,348.21,71.57,348.6Z"/><path d="M230.19,387.05c0-1.52-.1-3,1.26-3.59s2.36.64,3.09,1.67a22.93,22.93,0,0,1,2.78,4.51,2.93,2.93,0,0,1-1.72,4.07c-1.73.73-3-.08-3.85-1.49A11.13,11.13,0,0,1,230.19,387.05Z"/><path d="M236.23,323c-2.37,2.47-4,4.32-5.81,6.05-1,1-2.27,1.69-3.72.8a3.4,3.4,0,0,1-1.79-3.47,2.89,2.89,0,0,1,2.84-2.54C230.31,323.52,232.88,323.33,236.23,323Z"/><path d="M85.85,277c-2.39-.5-5.65-1-5.77-3.74-.11-2.38,3.07-1.14,4.72-1.45,2-.36,4.41,0,4.68,2.61C89.7,276.63,87.6,276.74,85.85,277Z"/><path d="M367.21,483.09c-.29,2-1.56,3.5-3.48,3.16s-5-1.27-4.93-3.19c.08-1.67,3.07-2.71,5.18-2.92C365.79,480,367.06,481.05,367.21,483.09Z"/><path d="M174.41,393.89a10.56,10.56,0,0,1,6.29,1,2.69,2.69,0,0,1,1.72,2.73,2.89,2.89,0,0,1-2.2,2.37,2.37,2.37,0,0,1-2.95-1.13C176.3,397.43,175.52,395.86,174.41,393.89Z"/><path d="M241.15,119.34a21.65,21.65,0,0,1-11.27-1.87c-9.62-4.92-19.37-3.33-29.24-1.44-1.75.33-4.39,2-5.15.26s1.88-3.31,3.5-4.37c9.85-6.46,20.23-10.47,32.11-5.94,5.32,2,10.64,1.58,16,.41,3.91-.85,7,.8,7.82,4,1,4-1,7.18-5.33,8.07C246.79,119,243.93,119.7,241.15,119.34Z"/><path d="M259.37,156.81c-4.9,0-9.07-1.94-12.8-4.88-1.71-1.35-2.73-3.06-1-5.23s3.59-2.35,5.55-.65a22.94,22.94,0,0,0,6.19,3.65c2.46,1.06,4.94,1.31,6.93-1,2.13-2.52,1.85-5.17.06-7.65a22.16,22.16,0,0,0-3.71-3.79c-1-.81-2.41-1.36-1.66-2.91.67-1.38,1.92-1.66,3.54-1.31a12,12,0,0,1,9.32,12.59c-.4,6.22-4.86,10.79-10.87,11.14Z"/><path d="M257,184.16c-8,0-14.7-6.13-14.65-13.34,0-1.08-.41-2.49.88-3.07,1.49-.68,1.88.92,2.53,1.7,1.87,2.25,3.66,4.49,6.63,5.41a10.5,10.5,0,0,0,10.86-2.6c2.31-2.14,4.76-3.63,7.58-.9,1.89,1.82,1.2,5.5-1.38,8.14C266.65,182.33,261.73,184.17,257,184.16Z"/><path d="M229.89,128.44a13,13,0,0,1-1.46,7.22c-1.65,3.12-4.62,3.62-7.14,1.22-4.48-4.25-4.52-13.69-.09-18,2.46-2.38,5.19-2,6.82,1.06A15.63,15.63,0,0,1,229.89,128.44Z"/><path d="M273.53,128.44a15.31,15.31,0,0,1,1.74-8.26c1.72-3.36,4.29-3.72,6.94-1.11,4.19,4.14,4.46,12.56.53,17-3.19,3.6-6,3.15-8.12-1.22A13.14,13.14,0,0,1,273.53,128.44Z"/><path d="M150.72,145c.07,2.43-.69,3.62-2.39,4s-3.28.29-3.94-1.35c-1.71-4.23-4.44-6.87-9.2-7.16-1.21-.07-1.49-1.1-.41-1.77a10,10,0,0,1,9.75-.53A10.23,10.23,0,0,1,150.72,145Z"/></g></g></g></svg>