<svg xmlns="http://www.w3.org/2000/svg" viewBox="0 0 312.99 527.37"><title>martinacofano</title><g id="Livello_2" data-name="Livello 2"><g id="Livello_1-2" data-name="Livello 1"><g id="zpGN0H.tif"><path d="M252.26,280.82c1.8-7.1,1.29-8.33-4.6-11.55-1.72-.94-3.51-1.92-4.37-3.69-3.81-7.84-11.19-9.83-18.71-11.48-2.78-.6-6.5-1.92-8.28.37-1.63,2.1.95,5.1,1.9,7.65.78,2.1,2.14,4.78-.67,5.88s-3.64-1.93-4.37-3.94a24.25,24.25,0,0,1-1.58-8.17c0-1.95-.21-2.88-2.67-2.47-10.76,1.79-21.1-.4-31.25-3.86a13.56,13.56,0,0,1-3.44-1.68c-1.13-.79-2.34-1.81-1.75-3.45s2.23-1.87,3.77-1.61a25.49,25.49,0,0,1,3.7,1.05c6.58,2.16,13.44,3.75,20.23,3.23,21-1.61,37.17-8.94,43.93-32.4a76.07,76.07,0,0,0,3-18.36c.05-1.29.26-2.77-1.73-2.74-5.75.09-10.27-2.47-14.06-6.53-.25.19-.53.28-.55.42-.8,4.73-3,8.23-8,9.32-5.57,1.22-10.06-1.2-14.12-4.57-1.3-1.08-1.19-2.72,0-4a3,3,0,0,1,4.32-.5,30.14,30.14,0,0,0,5.72,3.53,4.62,4.62,0,0,0,5.59-1.06,4.69,4.69,0,0,0,.59-5.66,11.44,11.44,0,0,0-3.86-4.22c-.75-.53-1.81-1-1.24-2.27s1.58-1.24,2.72-1.14a13.68,13.68,0,0,1,4.36,1.51c-.84-2.94,0-5.76-1.71-8.41-1.29-2-.17-4.43.26-6.6.77-3.94.86-3.95-3.24-4.07-2.14-.06-4.29.05-6.44,0-2.36-.05-3,1.09-3.09,3.39-.45,10.92-5,20.29-11.78,28.55-6.6,8-17,8.25-26.66,5.09-10-3.27-13-11.3-14.21-20.59-.48-3.73-.85-7.46,0-11.2.49-2.19-.48-2.79-2.57-2.62a12,12,0,0,1-7.07-1.51c-2-1.13-4.61-.51-6.91.16-1.1.31-1,1.23-1,2.09,0,1.94.05,3.87.18,5.8.18,2.49-.77,3.41-3.25,2.69a38.73,38.73,0,0,1-4.38-1c-2.46-1-4.31-1.48-3.52,2.2-1.38.32-1.47-.56-1.79-1.19-2-4-5-6.66-9.75-6.77-5.07-.11-8.57,2.5-11,6.68-4.24,7.42-1.29,19.79,5.8,24.63a8.85,8.85,0,0,0,8.84,1.2c.89-.36,1.84-.58,2.75-.89a2.22,2.22,0,0,1,2.63.63,2.06,2.06,0,0,1-.09,2.93c-2.1,2.18-.95,4,.47,5.82a61.46,61.46,0,0,0,11.4,11.78,23.65,23.65,0,0,1,5.07,4.92c1,1.39,1.61,2.81.49,4.44s-2.52,1.66-4.26,1.29c-5.44-1.15-8.94-4.87-12.17-9-.91-1.16-1.74-2.39-3.07-4.24.36,2.72-.25,4.21-2.36,4.76-2.31.59-3.07-1.09-3.8-2.63-2.06-4.33-6.43-6.8-8.7-11-.88-1.63-1.83-.65-2.51.58-2.17,3.92-4.87,7.37-9,9.31-1,.49-2.47,1.62-3.43.05s.85-2.2,1.73-2.88c3.08-2.35,6.28-4.56,8.35-7.94.51-.83,1.65-1.63.36-2.75a2.48,2.48,0,0,0-3.42-.38c-2.62,1.65-5.45,3-8.13,4.56-1.62,1-3.06,1-4.32-.42s-1-3,.25-4.35c.77-.9,1.54-1.79,2.3-2.7,4.65-5.61,4.79-5.71,2.58-12.55-.87-2.71-3.85-2.46-6.08-3.12-.36-.1-.82.18-1.25.24-4.09.67-6.69-.58-7.22-3.46s2.3-6.26,6-6.73a13,13,0,0,1,3.53,0c2,.29,2.72-.62,2.06-2.33a12.78,12.78,0,0,1-.82-8.16c.26-1-.51-2.25-1-3.33S90.7,157,91.22,156c1.4-2.73.87-5-.91-7.26a3.62,3.62,0,0,1-.37-3.72c1.47-2.79,1-5.52.57-8.41-.61-3.84.37-7.68.59-11.52a5.59,5.59,0,0,1,5.16-5.34c1.39-.21,2.29-.42,1.92-2.32-1.47.54-2.88,1.16-4.35,1.58s-2.86,1.19-4.17-.29.08-2.57.38-3.9c-1.74-.17-3.55,0-4.86-1.38-.91-.94-1.47-.3-2.1.32s-1.53,1.52-2.37,2.18c-3,2.34-6,1.85-7.81-1.47-1.25-2.33-2.8-2.89-5.22-2A43.26,43.26,0,0,1,55.75,115c-2.29.18-4.36,0-5.68-2.09a5.28,5.28,0,0,1,.34-6.33c.85-1.21,1.65-2.47,2.74-4.1-2.29.41-4.2.79-6.13,1.08-2.83.42-4.73-.66-5.74-3.44a18,18,0,0,1,.82-15.25c.93-1.75,1.31-3.25-.13-4.94a5.43,5.43,0,0,1-1.22-3.61c.13-6.79-.27-13.72,4.74-19.31a3.68,3.68,0,0,0,.88-3.78C44.9,47.5,47.63,41.05,53.05,39c4-1.52,6.17-4.49,8.37-7.56A18,18,0,0,1,71.53,24c2.91-.79,3.88-3.91,5.76-5.94.77-.85,1.08-2.11,1.79-3,2.15-2.82,4.69-3.45,7.55-1.39,3.94,2.82,8.15,2.38,11.74.38A49,49,0,0,1,119.13,7.9c1.67-.12,2.41-.74,2.51-2.55.14-2.65,1.3-4.85,4.25-5.28a5.06,5.06,0,0,1,5.8,3.56c.69,1.78,1.59,1.79,3.18,1.26a16.77,16.77,0,0,1,9.54-.43c7.32,1.82,10.66,7.37,9.29,15.2-.27,1.58-.72,3.14-1.08,4.71-.46,2-1.05,3.77.8,5.61,1.46,1.45.51,3.69.61,5.94,1.83-1.23,2.5-3,3.5-4.56,1.84-2.83,4.56-3.75,7.1-2.39s3.42,4.47,1.84,7.51c-.54,1.05-1.17,2.05-1.74,3.09-1.11,2-1.69,3.65,0,6.08,2.89,4.18-1.21,12.07-6.81,14-.66.22-1.37.32-2.18.51,1.86,3.19,4.11,4.81,7.9,4.1,3.56-.67,7.2-.56,10.76-1.69a22,22,0,0,1,12.11.09,123.71,123.71,0,0,0,18,3.49,10.31,10.31,0,0,1,4,1.09c9.7,5.53,19.86,10.3,28.9,17,1,.71,2.13,1.56,2.1,2.73-.17,5.89,4,9.72,6.64,14.25,3.71,6.47,7.28,13,8.4,20.42.65,4.24.85,8.92-2.35,12.72-.94,1.12-.36,2.5-.28,3.74.15,2.36-.13,5,.89,7,1.12,2.11,4.09,1,6.21,1.44a12.65,12.65,0,0,1,9,7c.55,1.12.91,1.53,2.31,1.24a29.9,29.9,0,0,1,5.77-.26c1.13,0,2.28.23,2.38,1.61s-1,1.69-2.09,2a8.45,8.45,0,0,1-4.41.58c-2.36-.5-2.65.54-2.6,2.53a38.61,38.61,0,0,1-6,22.33c-1.57,2.43-3.35,4.84-6,6.22-2.07,1.08-2.4,2.58-2.4,4.68,0,14-3,27.07-11.68,38.42a56.11,56.11,0,0,1-22.76,17.53,39.17,39.17,0,0,1,15.25,2.72c4.4,1.77,8.22,4.17,10.37,8.64.95,2,2.83,2.83,4.7,3.71,5.7,2.67,8,6.2,7.44,12.49-.41,4.59.66,7.75,4.66,10.73,19.45,14.5,29.28,34.57,32.39,58.27.91,7,2.84,13.88,3.09,21,0,1.24,1,.95,1.57,1.12,1.63.52,3.36.73,5,1.27,4,1.34,6.48,4.91,5.75,8.19-.83,3.74-5,6.63-9.41,6.35,1-1.68,2.76-2.11,4-3.18,3.34-2.87,2.91-6.16-1.29-7.49-4.68-1.49-9.49-2.72-14.48-1.3a9,9,0,0,0-2.12.72c-1.66.94-3.94,1.94-3.41,4.11S287,378.9,288.6,379c2.88.25,5.77.34,8.66.54,1.33.09,2.75.38,2.89,2,.12,1.42-1.19,1.77-2.29,2.3-1.79.86-4.37.35-5.07,3.46-.16.74-3.7.82-5.7,1a74.07,74.07,0,0,0-22.25,6,13.26,13.26,0,0,0-1.72.88c-2,1.26-4.62,2.39-3.92,5.25s3.53,2.2,5.7,2.26A115.42,115.42,0,0,0,289.23,401c.84-.15,1.71-.13,2.57-.22s2.1-.28,2.25,1.08c.14,1.15-.88,1.24-1.74,1.44a83.51,83.51,0,0,1-18.11,2.5c-6.16,0-11.78,2-17.43,4-1.11.4-2.29,1-2.16,2.44s1.34,1.55,2.38,1.74a18,18,0,0,0,3.49.4c7.3-.1,14.61.45,21.89-.5a38.59,38.59,0,0,1,5.16-.08c1,0,2.11.17,2.24,1.35s-1,1.5-2,1.6a73.84,73.84,0,0,1-7.69.65c-8,0-15.9.47-23.83-.36-1.7-.18-1.87.65-1.67,1.86a5,5,0,0,0,2.88,3.67,13.72,13.72,0,0,0,5.21,1.54,31.56,31.56,0,0,1,14.8,4.8c6.62,4.2,10.05,3.1,13.68-3.86,1.87-3.57,3.83-6.9,7.67-8.8,2.2-1.08,2.65-3.29,2.07-5.58-.9-3.51.25-6.24,2.73-8.73,3.55-3.57,3.58-4.54.94-9-2.47-4.17-2.56-4.72-.69-8.09.34,4.37,2.86,6.9,4.53,9.9,1.46,2.63,1,5.37-1.11,7.06-4.95,3.88-3.88,9.38-3.26,14,.9,6.66,1.67,13.38,2.92,20,2.26,12,5,24,5.81,36.23,1.11,16.6-2,31.76-14.66,43.56-8.23,7.65-17.8,11-29.06,6.94-1.45,1.52.55,3.2-.16,4.86-2.71-.62-4.28-2-4.58-5a156,156,0,0,1-.11-25.76,274.46,274.46,0,0,0-1.91-49.55c-.73-6.07-1.55-12.14-2.18-18.22a2.73,2.73,0,0,0-2.1-2.7c-5.79-2.24-7.15-5-6.3-11.16.28-2.06-.41-4.23,1.3-6,.41-.42-.35-.9-.66-1.31a17.52,17.52,0,0,1-3.55-14.23c.35-2-.48-2-1.87-1.72-1.05.18-2.13.25-3.18.47-2.49.55-4.91.76-4,4.72.59,2.61-1.67,4.43-4,5.62-4.47,2.24-9.42,1.78-14.14,2.58a69,69,0,0,1-7,.64c-1.44.1-2.68-.46-2.79-2s1-2.25,2.45-2.37c4.81-.39,9.61-.78,14.42-1.2,1.38-.12,2.76-.31,4.12-.56s3.24-.61,3.22-2.5a4.09,4.09,0,0,0-2.75-4,35.28,35.28,0,0,0-11-2.15c-5.57-.27-11.15-.48-16.69.52a23.26,23.26,0,0,1-3.6,0,5.33,5.33,0,0,1,3.33-1.69c.81-.23,2-.26,1.86-1.37-.34-2.87,2-3.12,3.65-3.64a106.23,106.23,0,0,1,22.74-4,96,96,0,0,0,14.61-2.13,10.49,10.49,0,0,0,4.8-2.51c1-1,2-2.17,1.55-3.64a3.31,3.31,0,0,0-3.6-2.18c-4.81.23-9.63.49-14.43.85-10.8.8-21.56,1.86-32.27,3.46-.77.12-2,.5-2.24-.55-.31-1.21,1.11-1.27,1.76-1.38,7.34-1.23,12.78-6.38,19.31-9.29,1-.47,2.08-1,2.14-2.53.11-2.78,1.87-4.28,4.38-4.85a7.76,7.76,0,0,0,4.17-2.82c.48-.55,1.15-1.24.61-2s-1.39-.41-2.12-.29a2.62,2.62,0,0,0-1.18.48c-4.18,3.33-9,3.09-13.82,2.38a4.94,4.94,0,0,0-5.86,3.35,10,10,0,0,1-7.16,6.38c-4.75,1.2-8,4.35-11,7.91A145.76,145.76,0,0,1,160,399.43a11.55,11.55,0,0,1-3.45,1.41,59,59,0,0,1,9.39-8.71c9.68-7.4,18.71-15.48,26.37-25a20.16,20.16,0,0,1,10.37-6.75,8.54,8.54,0,0,0,5.86-5c2-4.33,4.27-5.48,9-4.93,4.33.51,8.38.51,12.3-2.23,3.32-2.33,7.48-.88,8.34,2.19.64,2.29-.84,3.86-2,5.69,1.64,1,3.55,1.49,4.34,3.48.45,1.15,1.67.77,2.59.74,7-.2,14-.48,20.93-.66,1.37,0,2-.44,1.83-1.85-.21-2,.86-2.71,2.69-2.68s3.66-.12,5.47.07c2.59.28,4.58,1.72,4.86,4.37.31,2.85,2.35,3.34,4.26,3.25,3.65-.17,7.05.22,10.53,2.71a91.72,91.72,0,0,0-2.09-14.14c-1.41-7.27-2.92-14.52-4.65-21.71-3.39-14.09-11.5-25.3-22.1-34.79-6.23-5.59-12.79-10.83-19.16-16.28-1.21-1.05-1.95-1.15-3.13.12-6.6,7.11-14.11,13.2-21.75,19.15-9.19,7.14-17.75,14.95-24.91,24.2-.55.72-.9,1.71-2.25,2a30,30,0,0,1,4.91-9.06c6.3-8.85,14.61-15.72,22.61-22.88,7.13-6.38,14.43-12.56,20.47-20.06,1-1.3,2.41-3,4.29-1.69,2,1.41,1,3.28-.15,4.77-.87,1.11-.53,1.61.53,2.18C248.2,278.43,250.12,279.59,252.26,280.82ZM148.24,120c1.18,5.19,3.23,9.84,4,14.83.49,3.21-.2,6.09-2.95,8-2.95,2-5.73.81-8.28-1.13-1-.79-2-1.65-3.45-2.85,1.38,5.73,3,10.73,3.58,15.95a1.68,1.68,0,0,0,1.33,1.63c3.12.62,6.32,1.31,9.42.5a10.39,10.39,0,0,1,5.65-.27c1.17.34,2.07.46,2.72-.77,2.08-4,5.9-5.56,9.89-6.47,4.66-1.07,9.11-2,13.16-5.1s11.21-2,12.71,1.55c1.21,2.85,3.16,3.43,5.6,4.23a14.77,14.77,0,0,0,6,.47c5.87-.47,11.75-.89,17.61-1.41,1.26-.12,2.85-.18,3.67-.94,4.27-4,9-4,14-2,1.76.7,2.8.14,2.78-1.73-.09-9.31.52-18.69-2.53-27.73-1-3-1.88-6.07-6.21-4.55-.45.16-1.05-.15-1.58-.2-4.74-.43-7.85-4.05-11.75-6.12-1.33-.72-1.6-.67-2.38.35-3,4-7.17,5.88-12,6.79-5.39,1-10.67.38-16-.39-4.36-.63-8.51-1.83-12.76,1.38-3,2.28-7.09,1.93-10.84.56-3.17-1.16-5.68-3.26-8.26-5.5C160.37,119.37,158.16,122.15,148.24,120ZM300.33,419.26c-5.92,3.52-9,11.26-7.33,16.75a73.53,73.53,0,0,0,4.32,10c1.64,3.37,3.17,6.8,4.71,10.23a2.35,2.35,0,0,1-1.28,3.46,2.3,2.3,0,0,1-3.14-1.47c-2.45-6.52-6.12-12.59-7.49-19.49-.62-3.13-.34-6.62-5.24-4.17-.55.27-1.46-.13-2.19-.27-2.82-.53-5.14-2.12-7.5-3.6a20,20,0,0,0-10.63-3.2c-2,0-2.44.35-2,2.53,4.05,21.9,6.8,43.93,5.57,66.29-.26,4.83-.21,9.67-.27,14.51,0,1-.23,2.13.86,2.92,3.4,2.43,6.95,4.12,11.33,3.56,9.64-1.23,16.27-6.82,21.23-14.66,6.53-10.33,7.15-21.85,6.16-33.59C306,452.5,300.56,436.51,300.33,419.26ZM175,152.86c-1.64.4-2.86.75-4.1,1-4.69,1-6.85,4.22-7.15,8.68a61.87,61.87,0,0,0,1,16.61c1.8,9,8.07,12.9,16.08,14.36,7.8,1.42,14.23-1.47,19-8.05,3.83-5.31,6.11-11.32,7.78-17.49,2.15-8-1.36-12.77-9.69-14.45a60.57,60.57,0,0,0-9.59-.75c-5.62-.22-7.6,1.05-9.73,6.28-.43,1.06-.51,2.6-2.14,2.23a2.79,2.79,0,0,1-2.1-2.91A54.43,54.43,0,0,1,175,152.86ZM149.15,66.93c-2.52-2.66-5.38-3-8.61-2.4-7.27,1.44-13.46,5-19.07,9.64-8.21,6.73-15.86,13.94-17.7,25.21a22.07,22.07,0,0,1-1.17,5c-.8,1.91.21,2.44,1.6,3.12,1.69.82,2-.39,2.49-1.46a20.57,20.57,0,0,1,1.26-3c8.41-12.94,18.25-24.47,32-32C142.86,69.51,146,68.36,149.15,66.93Zm98.48,116.34h.07c-.46-7.71-.71-15.44-1.49-23.12-.29-3-2.94-5-4.86-7.26-.44-.51-1.18-.35-1.81-.07-3.18,1.42-6,3.06-7.67,6.46s-1.62,7.3-2.65,10.82c-1.77,6,5.2,16.83,11.14,18.86,6.15,2.11,7.28,1.37,7.27-5Zm6-20.79c.51,8.28,1,15.77,1.48,23.84,6.24-5,8.38-11.41,9.56-18.26.21-1.16-.2-1.85-1.54-1.76C259.71,166.53,256.85,165.22,253.6,162.48Zm1.5-12.13c-1,0-1.79,0-2,1.39-1.05,6.15,4.28,10.93,10.4,9.39,1.57-.4,1.8-1.11,1.66-2.46C264.65,153.72,260.54,150.28,255.1,150.35Zm-46.84,2.59-.38.8c.68.52,1.64.89,2,1.58,1.29,2.49,3,2.74,5.4,1.65a11.17,11.17,0,0,1,6-.66c4.22.51,7.89-.08,10.15-4.21,0-.07,0-.19,0-.48Zm52.53,240.13c-2.59-1-5.07-1-7.48-1.42-1.88-.33-2.57.56-2.59,2.24a17.2,17.2,0,0,0,2.75,9.73c2.68,4.16,2.91,4.2,7.38,1.91C254.44,402.34,254.35,398.7,260.79,393.07Zm-3.62-25.73c1-.13,2.56.46,2.47-1.07s-1.94-1.42-3.07-1.55c-.91-.1-2.56,0-2.46,1.31C254.25,367.88,256.07,367,257.17,367.34Z"/><path d="M168.34,434.55c-.25-3.56,1.87-3.38,4.16-3.46,8.17-.3,16.3.82,24.45.72,7.74-.09,19.89-7.63,23.93-15.05-1.88,0-3.56.08-5.23,0-1-.07-2-.43-2.12-1.61-.14-1.44,1.12-1.41,2-1.49,2.64-.24,5.3-.29,7.94-.56a9.53,9.53,0,0,0,6.36-2.75c1.45-1.57,2.33-3.33,1-5.86,3.09,2.44,3,6.3-.39,8.64-2.68,1.83-4.22,4.32-6.11,6.71a48.18,48.18,0,0,1-17,13.55c-6,2.9-12.34,2.26-18.67,1.7-4.16-.36-8.28-1.21-12.45-1-.59,1.09.36,1.64.64,2.37.61,1.6,1,3.52-.45,4.5-2.42,1.7-4.25,5.19-8.17,3.43-1.31-.59-2,.59-2.72,1.24-29.58,25.4-62.3,46.06-96.79,64-9.2,4.79-18.35,10-28.63,12.2-6.27,1.36-12-.15-17.86-3.24C8.1,511,6.18,496.81,3,483.65c-4.15-17-3.2-34.34-1.65-51.63a263.56,263.56,0,0,1,14.42-64.89c8.49-23.87,19.23-46.64,34.43-67.08a65.65,65.65,0,0,1,18-16.85c1.46-.9,1.73-1.5.87-3.2C66,273.87,69,264.39,75.2,259.67c6.55-5,14.11-6.65,22.11-6.54,3.25,0,5.61-.88,7.21-3.74,5.48-9.76,14.68-10.48,23-7.27a66,66,0,0,1,11.13,5.77c3.41,2.13,3.43,2.15,4.83-1.8A55.82,55.82,0,0,0,146.67,235c.24-1.76.8-2.62,2.62-1.18,5.91,4.66,6.3,2.28,2.78,10.3a42,42,0,0,1-11.31,15.1c-1.85,1.59-2,2.41-.06,4.08,14.37,12.51,27.47,26.3,40.23,40.42.36.4.73.79,1.08,1.2,4.32,5.13,4.26,5.08,8.86.06A311.78,311.78,0,0,0,221,265.59a5,5,0,0,1,.74-1c1.22-1.12,2-3.82,4.18-2.27,1.89,1.36.47,3.41-.45,4.89a253.11,253.11,0,0,1-21.89,30.27q-5.72,6.76-11.82,13.21c-3.81,4.05-6.84,4.16-10.73.12-6.94-7.19-13.68-14.57-20.45-21.92-8.16-8.85-16.83-17.21-24.64-26.39a19.51,19.51,0,0,0-6.72-5,6.79,6.79,0,0,1,5.37,1.39c1.54,1,2.48,1.14,3.44-.78,4.57-9.2,4.87-6.59-3.64-10.21a39.86,39.86,0,0,0-12.54-2.7c-5.25-.42-9.64,1.25-12.11,6.16-2.84,5.67-7.31,7.86-13.53,7.95-6,.09-11.51,2.37-16.53,5.66-3.77,2.47-4.79,6.18-4.47,10.39.18,2.28,1.05,3.12,3.53,1.9a113.17,113.17,0,0,1,36.38-11.34c.6-.07,1.23-.49,1.85.34-.45,1.24-1.75,1.32-2.75,1.71-7.57,3-15.12,6.09-22.75,8.94-19,7.09-33.6,19.36-44.36,36.59A274.3,274.3,0,0,0,8.66,415.81a249,249,0,0,0-3.24,44c.29,18.05,3.93,35.09,13.77,50.58,4.47,7,8.65,9.29,17,7.68a53.63,53.63,0,0,0,12.23-3.9,492.51,492.51,0,0,0,99.14-60.23l14.47-11.31c1-.8,2.1-1.42.69-3-8.76-9.89-9.79-21.54-7.53-33.9.19-1.05.43-2.09.66-3.13,0-.08.14-.14.56-.51,1.95,3.27,2,6.91,2.67,10.35,1.21,6.68,2.47,13.32,6.61,19C166.52,432.47,167.46,433.49,168.34,434.55Z"/><path d="M203.49,236.85c-6.33-.24-13.52-2.32-18.27-9.48-6.65-10-1.1-22.11,10.78-24,5.6-.9,10.84.31,16.13,1.62,6.36,1.59,12.72,2.88,19.33,1.88.84-.13,2.16-.66,2.44.69.21,1-1,1.23-1.72,1.57-.39.18-.8.31-1.17.51-2.14,1.15-5.77-.19-6.56,2.72-.63,2.31.3,5.06.58,7.61.11.95.4,1.88.51,2.84.2,1.72.58,3,2.81,2.12a2.68,2.68,0,0,1,3.22.82c.86,1.2.3,2.43-.26,3.64-1.12,2.41-3.49,3.27-5.65,3.91A75.26,75.26,0,0,1,203.49,236.85Zm2.62-6.86c3.63.19,7.37-.73,11.14-1.43,2-.38,2.11-1.34,1.1-2.91a6.15,6.15,0,0,0-8.45-1.47c-.63.44-1.1,1.55-2.12.72-4.3-3.52-8.69-1.24-13-.21a2.23,2.23,0,0,0-1.47,1.07c-.29.85.62,1.22,1.22,1.61C198,229.58,201.83,230.17,206.11,230Zm-16.46-13.86c3.93-.42,7.3-.79,10.66-1.13,5.62-.57,11.24-1.12,16.86-1.7.9-.1,2.18.1,2.16-1.31,0-1.62-1.41-.92-2.2-1-2.45-.13-4.88-.22-7.34-.55-3.15-.42-6.33-1.14-9.56-.77C195.92,210.19,191.82,211.08,189.65,216.13Z"/><path d="M27.72,455.9c.36-3.32,2.59-5.25,5.28-6.68,7.31-3.87,15.07-6.73,22.62-10.08,4.7-2.09,9.47-4,14.25-5.95a3.59,3.59,0,0,0,2.29-2.68c3.25-10.33,6.67-20.6,10.09-30.88a2.43,2.43,0,0,1,2-2.08C82.43,408.43,79,418.76,77.55,430c2.84-1.08,5.22-1.95,7.57-2.9q32.11-12.82,64.2-25.69c.4-.16.8-.31,1.21-.44,1.62-.53,3.51-1.53,4.42.76s-1.27,2.81-2.78,3.43C125.81,416,99.23,426.39,72.58,436.53c-12.12,4.61-24.31,9-36.46,13.59C32.89,451.33,29.67,452.62,27.72,455.9Z"/><path d="M123.17,280.71c2.73,1.33,4.11,3.09,5.61,4.66,8.24,8.63,16.36,17.37,24.71,25.88,6.22,6.34,13.23,11.64,21.67,14.75,1.68.62,3.08,1.55,2.32,3.51s-2.33,1.27-3.82.75c-7.55-2.66-13.8-7.38-19.75-12.52-11.56-10-20.31-22.42-29.5-34.46A17.37,17.37,0,0,1,123.17,280.71Z"/><path d="M65.35,332.83c1.46.4,1.54,1.64,2,2.52,6.49,13.92,10,28.67,12.22,43.79a17.75,17.75,0,0,1-.17,4.48c-.13,1.2-.53,2.49-2,2.51s-1.54-1.24-1.91-2.25c-1.28-3.5-1-7.2-1.46-10.81a193.22,193.22,0,0,0-8.32-36.94c-.26-.81-.45-1.64-.63-2.48C65,333.48,65.18,333.27,65.35,332.83Z"/><path d="M77.42,304.85a3.74,3.74,0,0,1,2.09,2.58c5,12.52,9.91,25.07,12.73,38.32a8.74,8.74,0,0,1,.23,1.26c.08,1.14.54,2.54-1,3s-2-.84-2.46-1.91c-1.85-4-2.78-8.32-4-12.54q-3.87-13.74-7.66-27.5C77.13,307.09,76.67,306.06,77.42,304.85Z"/><path d="M115.59,173a25.28,25.28,0,0,1,14.07,6.26,5.59,5.59,0,0,1,1.9,3.27,3.31,3.31,0,0,1-.89,3.24c-1,.94-2.13.66-3.3.24a9.69,9.69,0,0,1-3.58-2.65,44.59,44.59,0,0,0-9.26-7.9c-.69-.41-1.87-.76-1.54-1.77C113.38,172.53,114.65,173.26,115.59,173Z"/><path d="M195.21,170.56a10.62,10.62,0,0,1-1.05,5.79,3.9,3.9,0,0,1-6.8.76,12.22,12.22,0,0,1-.46-13.54c1-1.51,2.33-2.64,4.21-2.38s2.65,1.72,3.13,3.29A14.8,14.8,0,0,1,195.21,170.56Z"/><path d="M232.19,169.94a13.25,13.25,0,0,1,1.65-7.64c1.32-2.43,3.57-2.73,5.58-.91,3.83,3.48,3.88,11.55.09,15.17-2.42,2.31-5,1.84-6.33-1.25A9.75,9.75,0,0,1,232.19,169.94Z"/></g></g></g></svg>