<svg xmlns="http://www.w3.org/2000/svg" viewBox="0 0 317.6 441.17"><defs><style>.cls-1{fill:#fff;}</style></defs><title>michele</title><g id="Livello_2" data-name="Livello 2"><g id="Livello_1-2" data-name="Livello 1"><path d="M141.71,181.72c1-3.49,2-6.6,2.81-9.78,1-4.18-.53-7.1-3.34-10.58a111.32,111.32,0,0,1-13.17-21c-2.49-5.08-5.28-7.16-11-7.52-11.62-.74-19.17-10.25-17.31-21.54.57-3.53,3.35-6.66,4.8-10.11.73-1.72,1.47-4,1-5.61C99.28,75.22,103,56,112.9,37.94c9.6-17.4,24.24-29.47,43.52-34.86,21.44-6,42.11-3.23,61.43,8a93.7,93.7,0,0,1,11.77,8.23c4.31,3.49,8.54,7.26,6.9,13.88-.13.52.5,1.42,1,1.89,11.28,10.5,14.78,24.39,17,38.84.45,3,.49,6,1.1,8.9a7.09,7.09,0,0,0,2.32,3.76c3.44,2.79,3.54,5,.77,8.24a11.64,11.64,0,0,0-2.41,5.93c-1.7,13.81-1.77,28-5.17,41.36-2.89,11.33-8.86,22.11-14.84,32.33-3,5.06-9,8.3-13.7,12.42a53.7,53.7,0,0,1,6.08,5c.86.92.69,2.82,1,4.28-1.46-.17-3.44.2-4.28-.61-2.71-2.63-5-5.69-7.54-8.7-5.19,10.44-13.74,17.67-23.34,23.85-3.19,2.05-6.24,3.68-3.34,8.52.94,1.56.16,5.31-1.19,6.91-7,8.35-6.28,17.39-3.28,26.8,2.06,6.47,4.43,12.85,6.2,19.4.69,2.56.11,5.47.11,8.22l-1.91.32c-1-1.74-2.43-3.36-3.05-5.24q-4.32-13-8.24-26a22.49,22.49,0,0,1-1.22-7.83A16.16,16.16,0,0,0,172,227.42c-7.27-5.68-8.62-12.81-7.27-21.31,1.28-8.07.86-7.72-6.55-11.42-8.5-4.24-16.61-9.26-25.19-14.12-1.85,2.56-4.41,6.11-7.39,10.22,7.27,7.87,14.36,16.22,22.23,23.76,3.19,3.06,8,4.47,12.2,6.46,4,1.9,8,3.7,10.43,9.54-7-2.43-12.85-4.31-18.58-6.47-7.71-2.92-13.33-8.57-18.49-14.73-1.17-1.41-2.41-2.76-3.48-4.24-6.06-8.32-12.2-13.54-23.44-6.74-6.57,4-15.11,4.61-22.69,7-19.17,6-31.39,19.49-40,37-16.52,33.71-26.3,69.4-31.9,106.36-.77,5.09-1.27,10.22-2,15.32-.18,1.3-.23,2.94-1,3.79-4.56,4.91-3.73,11.06-3.8,16.81-.11,9.28.27,18.59.81,27.86.8,13.6,11,17.6,22.7,17C39.84,429,50.13,425.1,59.71,420c20.61-11.06,40.82-22.86,61.06-34.59,6.16-3.57,5.92-3.89,2.13-10.21-4.08-6.8-3.85-14.27-3.1-21.77.45-4.45,1.1-8.87,1.72-13.81C97,352.31,72.26,363.47,45.71,369.89l-.52-1.28,17.51-7.35-20.19-6.53.3-1.39c4.53.7,9.25.84,13.54,2.27,4.1,1.38,6.31-.7,7.73-3.31a31,31,0,0,0,3.57-10.68c1.62-12.68,2.77-25.43,4.14-38.15a6.73,6.73,0,0,1,1.47-3.56c-1.19,18.41,1.37,37.13-4.67,55.81l2.56,2.87c14.42-7.11,29-14.19,43.48-21.54,3.75-1.91,7.4-4.15,11.57-2.46,5,2,8-.66,10.58-3.94,4.54-5.89,8.78-12,12.88-18.22,5.34-8.11,12-14.43,21.22-18a23.28,23.28,0,0,0,8.47-6.29c5.24-5.92,8.17-7.23,15.68-4.69,4.67,1.58,10.22,1.51,13.35,6.55.38.61,2.51.43,3.75.19,14.35-2.81,28.41-1.1,42.41,2.37,3.25.81,5,2.26,5.53,5.89,3.17,20.27,2,39.76-9.52,57.52-4.79,7.4-11.49,11.18-20.59,10.28-5.29-.53-10.62-.62-15.93-.9-8.93-.48-15-4.69-17.65-13.45a24.34,24.34,0,0,0-1.31-2.74c-2.08,1.46-4.46,2.37-5.67,4.09-8.86,12.6-22.07,16.75-36.22,19.51-5.65,1.11-11.14,3.13-16.6,5-1.18.4-2.86,2.08-2.75,3,.52,4.6-2.49,6.74-5.65,8.53-21.07,11.95-42.13,23.92-63.41,35.49-3.27,1.78-4.43,3.32-3.71,6.7a14.38,14.38,0,0,1,.45,4.45,12.44,12.44,0,0,1-1.44,4.88c-.3.51-2.92.48-3,.14a13.59,13.59,0,0,1-1.14-5.47c.14-2.1,1-4.16,1.74-6.77-6.85,2.11-13.24,4.66-19.87,6a49.85,49.85,0,0,1-16.73.72c-13.81-2.06-20.85-10-21-24C-.11,400.89,1,390.45,1.67,380s.9-21.14,2.39-31.56c5.46-38,15.11-74.89,33-109.13,8-15.3,17.57-29.8,34.94-35.79,10.26-3.54,21.09-5.39,31.69-7.93,2.25-.55,4.6-.69,6.86-1.19a11.27,11.27,0,0,0,7.7-5c3.23-4.6,8.51-7.77,13-11.41.52-.42,1.87-.12,2.69.21C136.28,179.17,138.51,180.26,141.71,181.72ZM246.22,77.48c-2.07-16.3-6.53-30.33-14.88-43-.6-.92-3.05-1-4.58-.87-3.93.36-7.85,1.68-11.72,1.49-8.77-.43-17.5-1.51-26.24-2.4-8.49-.86-17-1-25.07,2-8.72,3.21-10,8-4.6,15.65,3,4.2,2.27,6.72-2.81,7.85a64.75,64.75,0,0,1-11.84,1c-3.19.1-5.4,1.46-5.32,4.61.26,9.44.74,18.89,1.51,28.3.11,1.26,2.33,3.15,3.75,3.34,5.9.78,11.63.34,15.9-4.8,2.63-3.17,5.55-6.09,8.15-9.29a25.07,25.07,0,0,1,20.3-9.77c1.66,0,3.31,2.44,5,3.75-1.43,1.18-2.69,2.78-4.33,3.44s-3.6.34-6.07.49c8.68.5,14.57,4.42,18,11.07,5.06-.3,9.68-.5,14.29-.91A5.23,5.23,0,0,0,218.91,88c2.71-3.13,5.19-6.46,7-8.69-2.18-2.21-6.58-5.13-6.14-6.49,1.73-5.36,6.08-2.25,9.56-1.51a11.48,11.48,0,0,1,1.46.33C235.6,73.48,240.44,75.31,246.22,77.48ZM192.27,337l-.12-1.47c5.67-1.13,12.64-.46,13.27-10.07l-19.47-1-.24-2c4.17-.79,8.32-1.73,12.52-2.33,2.89-.41,6-.39,5.85-4.42s-2.32-6-6.42-5.8c-4.3.21-8.6.4-12.9.45a18.22,18.22,0,0,1-3.73-.73l-.18-2.08c4.17-1.11,8.41-2,12.47-3.43,1.76-.62,3.14-2.34,4.69-3.57-1.74-1.22-3.42-3.39-5.23-3.5A45.55,45.55,0,0,0,168,302.91c-9.29,5-13.48,14.37-19.15,22.44-4.23,6-9.29,10.91-16.47,12.95-5.48,1.55-8.41,4.27-7.4,10.46.55,3.4-.42,7.07.24,10.43a63.82,63.82,0,0,0,4.21,12.52c.37.86,2.83,1.54,4,1.21,10.18-2.82,20.26-6,30.44-8.87,6.72-1.9,12.85-4.82,17.17-10.38,4.14-5.33,9.05-9.09,15.62-10.83,1.6-.43,2.92-2,5.4-3.7Zm27.21-46.52-.21,1.19c-2.16,0-4.33.13-6.48,0-2.72-.21-4.62.55-6.93,2.39-2.85,2.26-1.66,4.38-1.84,6.84-.19,2.79.4,4.35,2.86,6,7,4.71,1.2,12.85,4.46,18.82.73,1.33-.39,3.82-1,5.68a84.3,84.3,0,0,1-3,8.27c-.83,1.94-1.53,4.42-3.09,5.46-3.21,2.14-2.62,4.45-1.54,7.2a10,10,0,0,0,9,6.83c7.29.58,14.63,1.39,21.87.94a17.3,17.3,0,0,0,10.25-4.93,38.21,38.21,0,0,0,7.6-12.09A76.93,76.93,0,0,0,256,300.53c-.25-1.5-2-3.66-3.35-3.94C241.63,294.33,230.54,292.45,219.48,290.45Zm-.9-186.27c-1.65-2.42-3.11-6.45-4.75-6.52-2.8-.14-6,1.85-8.49,3.65-1.36,1-2,3.35-2.39,5.22-1.83,8.71-10.68,16.16-20,16.62-11.75.58-19.25-4.19-22.5-14-.59-1.79-2.13-3.38-3.52-4.78-4.27-4.32-9.63-3.29-15-3-.56,5.46-3.28,5.59-7.26,3.44a13.46,13.46,0,0,0-5-1.16c-1.55-.14-3.17.38-4.71.21-2-.21-3.85-1.12-5.79-1.2-9.5-.35-15.54,8.12-11.61,16.22,2.15,4.43,5.71,6.63,10.75,6.64,4.69,0,9.57,0,9.81,6.77,0,.42,1.09.81,1.87,1.35,1-8,.05-15.72,4.14-23,5.91,18.09,19.91,27.72,35.17,36.48,6.59-15.34,19-22,33.06-25.08.75-2.48,1.36-4.47,2-6.47,1.94.6,3.89,1.15,5.79,1.82.77.27,1.43,1.19,2.13,1.18,2.15,0,4.3-.34,6.45-.55-.29-2.27-.17-4.7-1-6.76-.65-1.62-2.45-2.79-4.08-4.51Zm-67.43,64.43c-1.2,4.65-2.59,10-4.19,16.18,5,1.83,10.18,3.75,15.39,5.69,3.9,1.46,8.21,2.67,8.52,7.84a35.9,35.9,0,0,1-.47,9.89c-1.26,5.61-.18,10.11,4.28,13.83,2.11,1.76,4,3.78,6,5.67,2.92-3.2,5-6,2.94-10.67-.83-1.95,1-5.75,2.66-7.84,1.9-2.35,5-3.76,7.6-5.5,6.44-4.29,12.92-8.53,20.72-13.68-11.48-6-23.32-3-33.3-7.57ZM213.44,134c-2.54-.14-4-.29-5.53-.29-11.7,0-21.46,3.74-27.58,14.41-1.91,3.33-1.53,6.34,2.24,7.72a148.27,148.27,0,0,0,15.12,4.47c3.42.86,5.8-.8,8-3.62,5.68-7.45,9.1-7.51,16.4-1.69,1.81,1.44,4.85,2.52,7,2.13,6.72-1.19,8.09-6.31,4.4-13.34C228.9,135.08,221.16,133.5,213.44,134ZM179,87.55c-11.21,4-16.1,11.1-13.85,20.4,1.44,6,9.82,11.24,16.41,10.35,10-1.36,16-8.6,15.66-19-.29-8-4.43-12.21-11.86-12.7,2.83,3.85,2.13,8.21.43,12.32-.59,1.42-2.91,3.09-4.25,2.94s-3-2.49-3.15-4C178.11,94.54,178.73,91.1,179,87.55Zm50.25-1c4.44-.11,6.67,2.45,6.31,6.29-.3,3.23-.49,8-4.9,7.88-2.24-.08-4.35-3.82-6.23-5.64a17.06,17.06,0,0,0-1.16,3.25c-1.11,5.33,1.45,9.27,5.19,12.62,3.49,3.12,7.54,3.43,11.56,1.45,4.24-2.08,7-5.46,7-10.48,0-4.64.35-9.32-.17-13.9-.2-1.85-2-4.64-3.56-5C238.44,81.87,233.14,80.83,229.24,86.54Zm17.49,28.66c-7.85,4.73-14.57,5.42-21.17.89-1.14,2.39-2.16,4.56-3.34,7,8.76,3,14.94,8.91,20,17.88C243.81,132.06,245.16,124.29,246.73,115.2ZM198.71,291c-6.16-3.81-10.11-4.22-13.19-1.23Z"/><path d="M230.19,204.93c-5.21,7.42-9.45,14.56-14.77,20.78-6.53,7.65-12,7.85-20.38,2.27a5.37,5.37,0,0,1-2.48-2.82c1.83.59,3.73,1.05,5.5,1.8,5.79,2.48,10.38,1.55,13.73-3.88C216,216.24,219.56,209,223.55,202c.74-1.31,2.14-2.25,3.23-3.35a31.37,31.37,0,0,0,2.71,3.13,10.33,10.33,0,0,0,3.26,2.17c8.1,2.93,16.56,5,24.29,8.73,16.18,7.71,25.5,21.78,30.24,38.31,5.24,18.28,9.13,37,12.89,55.66,5.26,26.16,10,52.42,14.67,78.69A165,165,0,0,1,316.29,436c-.21,1.54-2.3,2.84-3.52,4.25-1-1.43-3.08-3-3-4.29,2.75-32-2.41-63.24-8.75-94.38-5.25-25.82-10.09-51.74-15.83-77.46-3.08-13.81-8.13-27.27-18.7-37.28-6.15-5.83-13.52-10.51-20.79-15C240.71,208.78,234.91,207,230.19,204.93Z"/><path d="M267.61,440.83c-1.06-5-2.67-10-3.1-15.12-2.87-33.67-3.76-67.31,3.85-100.59a42.2,42.2,0,0,1,2.64-7.49,34.44,34.44,0,0,1,5.7-9.31c-1.39,6.68-2.85,13.34-4.14,20-4,20.89-3,42-2.92,63.11,0,15.75-.07,31.51-.13,47.26a9.39,9.39,0,0,1-.39,1.85Z"/><path d="M193.86,364.38c.55,3.7,1.53,7.4,1.57,11.1q.21,19.14-.22,38.29c-.07,3.08-1.11,6.17-2,9.18-.26.93-1.39,1.61-2.13,2.41-.8-.92-2-1.72-2.33-2.78a13.82,13.82,0,0,1-.5-4.93Q189.55,393.82,191,370a42.22,42.22,0,0,1,1.12-5.59Z"/><path d="M137.48,293.55c-16.68,3.74-32.17,5.94-48.92,6C93,296.47,133.77,290.72,137.48,293.55Z"/><path d="M14.1,388c2.14-3.42,4-7.1,6.5-10.2A87.68,87.68,0,0,1,31,367.18c1.1-1,3.43-.52,5.19-.72-.58,1.56-.73,3.56-1.82,4.61-6.15,5.93-12.52,11.64-18.82,17.42Z"/><path class="cls-1" d="M246.22,77.48c-5.78-2.17-10.62-4-15.48-5.81a11.48,11.48,0,0,0-1.46-.33c-3.48-.74-7.83-3.85-9.56,1.51-.44,1.36,4,4.28,6.14,6.49-1.76,2.23-4.24,5.56-7,8.69a5.23,5.23,0,0,1-3.24,1.46c-4.61.41-9.23.61-14.29.91-3.47-6.65-9.36-10.57-18-11.07,2.47-.15,4.46.15,6.07-.49s2.9-2.26,4.33-3.44c-1.66-1.31-3.31-3.75-5-3.75a25.07,25.07,0,0,0-20.3,9.77c-2.6,3.2-5.52,6.12-8.15,9.29-4.27,5.14-10,5.58-15.9,4.8-1.42-.19-3.64-2.08-3.75-3.34-.77-9.41-1.25-18.86-1.51-28.3-.08-3.15,2.13-4.51,5.32-4.61a64.75,64.75,0,0,0,11.84-1c5.08-1.13,5.78-3.65,2.81-7.85-5.4-7.66-4.12-12.44,4.6-15.65,8.11-3,16.58-2.87,25.07-2,8.74.89,17.47,2,26.24,2.4,3.87.19,7.79-1.13,11.72-1.49,1.53-.14,4,0,4.58.87C239.69,47.15,244.15,61.18,246.22,77.48Z"/><path class="cls-1" d="M192.27,337l9.78,2.17c-2.48,1.74-3.8,3.27-5.4,3.7-6.57,1.74-11.48,5.5-15.62,10.83-4.32,5.56-10.45,8.48-17.17,10.38-10.18,2.87-20.26,6.05-30.44,8.87-1.19.33-3.65-.35-4-1.21a63.82,63.82,0,0,1-4.21-12.52c-.66-3.36.31-7-.24-10.43-1-6.19,1.92-8.91,7.4-10.46,7.18-2,12.24-6.94,16.47-12.95,5.67-8.07,9.86-17.42,19.15-22.44a45.55,45.55,0,0,1,24.81-5.86c1.81.11,3.49,2.28,5.23,3.5-1.55,1.23-2.93,2.95-4.69,3.57-4.06,1.43-8.3,2.32-12.47,3.43l.18,2.08a18.22,18.22,0,0,0,3.73.73c4.3-.05,8.6-.24,12.9-.45,4.1-.19,6.27,1.85,6.42,5.8s-3,4-5.85,4.42c-4.2.6-8.35,1.54-12.52,2.33l.24,2,19.47,1c-.63,9.61-7.6,8.94-13.27,10.07Zm-27.92-23c-4.52,8.54,1,15.54,2.05,23,.16,1.08,3,1.77,4.64,2.64.65-1.36,2.08-2.91,1.81-4.05-1.55-6.38-3.4-12.7-5.42-18.95C167.08,315.55,165.42,314.89,164.35,314Z"/><path class="cls-1" d="M219.48,290.45c11.06,2,22.15,3.88,33.16,6.14,1.36.28,3.1,2.44,3.35,3.94A76.93,76.93,0,0,1,251.45,343a38.21,38.21,0,0,1-7.6,12.09A17.3,17.3,0,0,1,233.6,360c-7.24.45-14.58-.36-21.87-.94a10,10,0,0,1-9-6.83c-1.08-2.75-1.67-5.06,1.54-7.2,1.56-1,2.26-3.52,3.09-5.46a84.3,84.3,0,0,0,3-8.27c.57-1.86,1.69-4.35,1-5.68-3.26-6,2.54-14.11-4.46-18.82-2.46-1.66-3-3.22-2.86-6,.18-2.46-1-4.58,1.84-6.84,2.31-1.84,4.21-2.6,6.93-2.39,2.15.17,4.32,0,6.48,0Z"/><path class="cls-1" d="M218.58,104.18l-4.94,2.58c1.63,1.72,3.43,2.89,4.08,4.51.82,2.06.7,4.49,1,6.76-2.15.21-4.3.53-6.45.55-.7,0-1.36-.91-2.13-1.18-1.9-.67-3.85-1.22-5.79-1.82-.61,2-1.22,4-2,6.47-14.08,3-26.47,9.74-33.06,25.08-15.26-8.76-29.26-18.39-35.17-36.48-4.09,7.29-3.18,15-4.14,23-.78-.54-1.85-.93-1.87-1.35-.24-6.72-5.12-6.76-9.81-6.77-5,0-8.6-2.21-10.75-6.64-3.93-8.1,2.11-16.57,11.61-16.22,1.94.08,3.84,1,5.79,1.2,1.54.17,3.16-.35,4.71-.21a13.46,13.46,0,0,1,5,1.16c4,2.15,6.7,2,7.26-3.44,5.36-.27,10.72-1.3,15,3,1.39,1.4,2.93,3,3.52,4.78,3.25,9.77,10.75,14.54,22.5,14,9.33-.46,18.18-7.91,20-16.62.39-1.87,1-4.24,2.39-5.22,2.51-1.8,5.69-3.79,8.49-3.65C215.47,97.73,216.93,101.76,218.58,104.18Zm-107.79,8.16c5.25,2.07,9.92,3.74,14.45,5.74,2.63,1.16,4.91,1,5.31-1.89.19-1.34-1.66-3.8-3.12-4.37a44.81,44.81,0,0,0-10.12-2.23C114.49,109.21,111.62,109.39,110.79,112.34Z"/><path class="cls-1" d="M151.15,168.61l30.13,13.84c10,4.6,21.82,1.54,33.3,7.57-7.8,5.15-14.28,9.39-20.72,13.68-2.62,1.74-5.7,3.15-7.6,5.5-1.68,2.09-3.49,5.89-2.66,7.84,2,4.71,0,7.47-2.94,10.67-2-1.89-3.87-3.91-6-5.67-4.46-3.72-5.54-8.22-4.28-13.83a35.9,35.9,0,0,0,.47-9.89c-.31-5.17-4.62-6.38-8.52-7.84-5.21-1.94-10.42-3.86-15.39-5.69C148.56,178.59,150,173.26,151.15,168.61Z"/><path class="cls-1" d="M213.44,134c7.72-.51,15.46,1.07,20,9.79,3.69,7,2.32,12.15-4.4,13.34-2.18.39-5.22-.69-7-2.13-7.3-5.82-10.72-5.76-16.4,1.69-2.16,2.82-4.54,4.48-8,3.62a148.27,148.27,0,0,1-15.12-4.47c-3.77-1.38-4.15-4.39-2.24-7.72,6.12-10.67,15.88-14.41,27.58-14.41C209.4,133.72,210.9,133.87,213.44,134Zm-2.3,14.79c5.38-.08,11.11-3.74,12.83-8.58.47-1.31,0-3-.1-4.46a15.43,15.43,0,0,0-3.84,1.5c-7.69,5.73-8.84,5.65-16.32-.1-1.15-.88-3.4-.33-5.15-.44-.1,1.91-1,4.37-.17,5.62C201.34,146.67,205.94,148.51,211.14,148.8Z"/><path class="cls-1" d="M179,87.55c-.26,3.55-.88,7-.61,10.35.12,1.5,1.91,3.85,3.15,4s3.66-1.52,4.25-2.94c1.7-4.11,2.4-8.47-.43-12.32,7.43.49,11.57,4.75,11.86,12.7.37,10.37-5.61,17.61-15.66,19-6.59.89-15-4.4-16.41-10.35C162.89,98.65,167.78,91.6,179,87.55Z"/><path class="cls-1" d="M229.24,86.54c3.9-5.71,9.2-4.67,14.07-3.53,1.55.36,3.36,3.15,3.56,5,.52,4.58.21,9.26.17,13.9,0,5-2.79,8.4-7,10.48-4,2-8.07,1.67-11.56-1.45-3.74-3.35-6.3-7.29-5.19-12.62a17.06,17.06,0,0,1,1.16-3.25c1.88,1.82,4,5.56,6.23,5.64,4.41.15,4.6-4.65,4.9-7.88C235.91,89,233.68,86.43,229.24,86.54Z"/><path class="cls-1" d="M246.73,115.2c-1.57,9.09-2.92,16.86-4.47,25.82-5.1-9-11.28-14.88-20-17.88,1.18-2.49,2.2-4.66,3.34-7C232.16,120.62,238.88,119.93,246.73,115.2Z"/><path class="cls-1" d="M198.71,291l-13.19-1.23C188.6,286.79,192.55,287.2,198.71,291Z"/><path d="M164.35,314c1.07.87,2.73,1.53,3.08,2.61,2,6.25,3.87,12.57,5.42,18.95.27,1.14-1.16,2.69-1.81,4.05-1.61-.87-4.48-1.56-4.64-2.64C165.32,329.56,159.83,322.56,164.35,314Z"/><path d="M110.79,112.34c.83-3,3.7-3.13,6.52-2.75a44.81,44.81,0,0,1,10.12,2.23c1.46.57,3.31,3,3.12,4.37-.4,2.92-2.68,3-5.31,1.89C120.71,116.08,116,114.41,110.79,112.34Z"/><path d="M211.14,148.81c-5.2-.3-9.8-2.14-12.75-6.47-.86-1.25.07-3.71.17-5.62,1.75.11,4-.44,5.15.44,7.48,5.75,8.63,5.83,16.32.1a15.43,15.43,0,0,1,3.84-1.5c.06,1.49.57,3.15.1,4.46C222.25,145.06,216.52,148.72,211.14,148.81Z"/></g></g></svg>