<svg xmlns="http://www.w3.org/2000/svg" viewBox="0 0 380.04 538.57"><title>nicolociccarone</title><g id="Livello_2" data-name="Livello 2"><g id="Livello_1-2" data-name="Livello 1"><g id="ebIBJ1.tif"><path d="M175.69,195.82a72.3,72.3,0,0,1-15.45-16.35c-1.11-1.66-2-2.17-4-1.39-4.6,1.77-8.86.3-11.31-3.82-1-1.7-1.84-2.34-3.67-1.36a4.28,4.28,0,0,1-5.38-.55c-1.62-1.57-2.34-3.74-1.3-5.66,3-5.47,1.21-9.34-2.21-14.27a33.19,33.19,0,0,1-4.82-29.14,2.32,2.32,0,0,0-.61-2.48c-2.5-3.1-2.07-6,1.49-8.2,2.72-1.65,3-3.11,2.42-6.27-4.76-24-1.92-47,10.53-68.44,1.34-2.3,1.89-3.87.26-6.41-2.82-4.4-1.7-8.59,2.65-11.17,1.48-.87,1.6-1.82,1.48-3.22-.24-2.94.18-5.64,3.23-7.07a7.1,7.1,0,0,1,8.43,1.27c2.27,2.27,3.94,1.8,6.52.49,11.6-5.86,24.15-8.4,36.91-10.22a142.5,142.5,0,0,1,52.06,1.81c9.24,2.11,18.41,2.84,27.69,3.73,4.74.45,5.51,1.42,4.85,6.66,3-.77,5.84-.78,8.09,1.49a7.17,7.17,0,0,1,1.91,7.68c-.43,1.33.66,1.23,1.42,1.51,5.66,2.1,7.21,5.19,5.56,11A19.37,19.37,0,0,1,299.7,41c-1.73,2.58-4.6,4.63-3.4,8.54A3.42,3.42,0,0,1,294.67,53c-3.34,1.72-2.86,4.38-2.35,7.3.42,2.47,1.05,5.06-1.12,7.21-.85.85-.13,1.82.16,2.72a133.75,133.75,0,0,1,5.34,23.71c.27,2.12,1.07,3.16,3.4,3.19a23.24,23.24,0,0,1,6.06,1c5.91,1.7,7.42,3.86,7.2,10-.07,2.06-.1,3.75-2.91,4.61s-4.36,4-5,6.75c-2.3,9.44-7.37,18.19-7,28.32a10.11,10.11,0,0,0,.5,3.49c5.93,15,3.6,29.08-5.6,42-3.87,5.42-6,11.8-10.36,16.92a46.88,46.88,0,0,1-9.75,8.6c-1,.67-3,.58-2.59,2.46a4.5,4.5,0,0,0,3.86,3.85A25.12,25.12,0,0,1,286.09,229c.38.27.74.56,1.33,1-1.84,1.05-3.56,1.91-5.12,3-.82.56-2,1.31-1.1,2.64s1.86,1,2.8.23c5-4,9.32-2.8,14.4.54,11.74,7.72,24,14.68,33.83,25,12.23,12.78,20.78,27.35,22.45,45.34a12.35,12.35,0,0,0,1.58,5.56c4.21,6.65,4.74,14.13,5.05,21.68.17,4,.47,8,.44,12a31.55,31.55,0,0,0,4,15.64c2.91,5.39,1.38,11.17.45,16.76A17,17,0,0,0,367.35,389a23.05,23.05,0,0,1,2.07,15.87c-2,8.73-.57,17.36,1,26,4.22,23,6.53,46.07,5.46,69.46-.15,3.14-.67,5.2-4.39,4.55a1.35,1.35,0,0,0-.72.05c-1.51.65-4.34.13-3.89,2.71.42,2.37,2.55.8,3.94.63,4.94-.6,7.43,1.48,8.95,7.54a8.34,8.34,0,0,1-6,10.17c-6.38,2-13.06,2.54-19.64,3.54-4.9.75-9.89,1-14.78,1.82-2.33.4-3-.3-3.23-2.43-1.07-9.75-2.31-19.49-3.33-29.25-.8-7.59-1.35-15.21-2-22.82-.12-1.28,0-3-2-2.67-1.72.25-1.4,1.67-1.29,2.88,1.55,17.38,2.74,34.8,5.39,52.06.32,2.09-.16,3.12-2.46,3.35-5.66.58-11.3,1.41-16.95,2.07a39,39,0,0,1-12.29-.78,53.18,53.18,0,0,0-20.54.12c-25,4.69-50.38,4.94-75.73,4.6-17.34-.24-34.68-.72-52-2.32-7.09-.66-14.23-2.62-21.3-.7-9.77,2.64-19.43,1.43-29.18.22-2.14-.26-3.13-.91-3.76-3A180,180,0,0,1,91.91,496c-1.43-16.44-1.51-32.95-2.22-49.43a14.31,14.31,0,0,0-.16-2.17A1.63,1.63,0,0,0,87.68,443c-1.1,0-1.39.81-1.39,1.74,0,1.34,0,2.67,0,4,1,17.67.76,35.4,2.79,53A166.14,166.14,0,0,0,95,532c.88,2.85.21,3.49-2.7,3.31-17.06-1-34.13-1.85-51.2-2.88-5.8-.35-11.59-1-17.42-.89a4.22,4.22,0,0,0-3.66,1.68c-2.85,3.51-6.18,2.93-8.07-1.34C4.12,514.17-.49,495.66,0,476.2c.86-31.4,2.56-62.78,4.72-94.11,1.84-26.66,9.7-51.8,21.32-75.8,5.28-10.9,10.15-22,17-32.1a69.49,69.49,0,0,1,23.49-21.85A25.13,25.13,0,0,0,76.42,243a13.88,13.88,0,0,1,10.76-7.23,12.3,12.3,0,0,0,8.33-4.64,19.92,19.92,0,0,1,12.72-7.06c12.93-2,25-6.73,36.88-11.87,5.17-2.23,10.17-5.25,16.19-4.83,1.76.13,2.87-1.16,3.61-2.63A16.42,16.42,0,0,1,175.69,195.82ZM172.23,89.15c-2.38,4.33-4.59,8.36-6.78,12.39-.4.73-1,1.86.43,1.84,6-.07,12.33.78,17.93-1.62,12.9-5.55,26.5-5.57,39.95-5,8.39.38,16.49,4.34,25.3,1.7,2.56-.76,4.9,1.54,5.51,4.62.19,1-.71,2.68,1.52,2.5,1.92-.16,1.4-1.46,1.44-2.65.17-4.18,2.18-6.5,5.85-6.21,4,.31,7.62-.67,11.32-2,3.36-1.19,6.71-2.69,10.54-1.82,4,.9,4.11.55,3.38-3.73-1.4-8.22-2.76-16.45-4-24.7-.68-4.66-.9-5.05-5.53-5.14a37.09,37.09,0,0,1-16.38-4.18c-4.71-2.42-5-2.29-5.23,3.08,0,.36,0,.73,0,1.09-.14,4.91-1.75,5.9-6.06,3.68a121.66,121.66,0,0,1-16.76-10.17c-2.13-1.57-2.9-.78-3.31,1.38-.47,2.49-.87,5-1.49,7.46-.77,3-2.36,3.71-5.05,2.22a39.25,39.25,0,0,1-8.37-6.37c-3.8-3.69-3.75-3.67-6.48,1.11-1.31,2.29-2.55,4.68-5.59,5.3s-4.52-1.59-6.34-3.88c-4.8,11.22-11.51,20.68-18.81,29.76C176.38,93.43,175,93.37,172.23,89.15Zm-11.4,77.39c0-2,.11-3.28,0-4.55-.87-8.39.45-16.63,1.56-24.88.16-1.19.33-2.68,1.75-2.79,1.24-.09,1.61,1.34,1.95,2.33a56.55,56.55,0,0,0,5.54,11.81c7.68,12.37,19.6,19.77,31.5,27.28,2.5,1.58,3.43.9,4.19-1.38,2.2-6.58,6.68-11.43,12-15.59,10.77-8.43,23.11-12.1,36.45-11.82-1.79-.72-3.81-1.45-5.76-2.35a13.54,13.54,0,0,1-3-1.93c-1.74-1.45-3.33-3-1.4-5.48,1.77-2.25,3.69-2,5.6-.28a19.4,19.4,0,0,0,6,3.4c2.22.87,4.53.93,6.27-1.26a5.46,5.46,0,0,0,.34-6.72,15.1,15.1,0,0,0-4-4.19c-.88-.68-2-1.22-1.62-2.49A2.43,2.43,0,0,1,261,124c.93.15,1.61.35,1.65-1,.21-6.85-2-8.84-8.65-7.67a7.82,7.82,0,0,1-1.8.2c-2.25-.1-2.85,1.07-2.91,3.15-.42,13.57-7.24,22.67-19.69,27.65-9.73,3.9-22.22,2.66-29.69-6-4-4.68-5.95-10.2-6.94-16.11s-1.12-6.63-6.82-7.66a19.34,19.34,0,0,1-9.13-3.87c-2.18-1.74-5-2.2-7.88-2.32-2.43-.1-3,.88-2.39,3.09.66,2.45,1.17,4.94,1.65,7.43s-.51,4.2-2.9,5.15c-5.76,2.26-8.22,1.31-11.78-4-1.91-2.86-3.76-6.25-8.08-5.71-4.73.58-8.08,3-9.71,7.64,0,.11-.05.24-.1.35-1.72,4-1.24,8.05-.62,12.14,1.56,10.31,5.68,14.9,15.48,17.3,1.85.46,3.81,1.22,3.83,3.32C154.58,161.44,157.87,163.37,160.83,166.54Zm122.42,13.08c-1.45-5.31-3.77-11.1-9.05-15.12-1.61-1.22-3.61-2.49-4,1.26a5.23,5.23,0,0,1-1.77,2.68c-7.56,7.2-21.3,6.47-25.44-4.78-.4-1.08-.62-2.27-2.34-2.27-7.91,0-21.79,10.91-23.63,18.77-.57,2.46-.14,4.66,2.32,6.24,6.59,4.27,13.95,5.87,21.6,6.34a6.27,6.27,0,0,0,6.06-3.16,34.55,34.55,0,0,1,3.55-4.57c3.87-4.48,8.29-5,13.09-1.6,1.95,1.4,3.68,3.12,5.58,4.61,3.21,2.5,6.36,1.28,9.47-.32C281.59,186.2,283.38,184,283.25,179.62Zm-62.76-72.85c-4.37.2-8.83.59-12.71,2.55-10.91,5.51-12.06,9.71-8.19,18.91,3,7.08,7.08,13.3,15.68,14.53,8,1.15,14.86-1.65,20.47-7,5.91-5.63,8.91-12.56,6.64-21-.61-2.29-1.61-3.76-4.43-3.78-3.64,0-7.08-1.36-10.44-2.76C225.27,107.31,223,106.46,220.49,106.77Zm70.56,15.72c.53-5.25-.66-10.53-.58-15.85,0-2.34-1-2.89-3.1-2.82a20.68,20.68,0,0,0-9.55,3.11c-7.06,4-11.23,13.6-9.07,20.81,1.92,6.35,11.32,12,18.91,11.43,1.9-.14,2.79-.78,2.87-2.82C290.71,131.76,291.45,127.2,291.05,122.49Zm-31.15,24.7c15.32,2.57,25.91,11,31.71,25.85,1.93-6.69.58-12.52-1.57-18.27-1-2.62-1.87-5.17-.56-8.05.55-1.22.73-2.92-1.91-2.57a19.12,19.12,0,0,1-14.84-4.29c-1.68-1.35-2.65-1.7-3.56.7C267.59,144.76,264.15,146.5,259.9,147.19Zm3,13.82h-15C251.56,165.63,256.91,165.89,262.94,161Zm66,245.38c-.21-2.05-.37-4.1-.64-6.14-.11-.89-.6-1.66-1.63-1.61a1.6,1.6,0,0,0-1.63,2,31.66,31.66,0,0,1,0,10.46,1.58,1.58,0,0,0,1.63,2c1,.05,1.53-.63,1.66-1.58C328.57,409.76,328.75,408.08,329,406.39ZM299.56,127.47c3.77-10.27,3.48-15.92-.92-19.18C298.94,114.57,299.23,120.55,299.56,127.47ZM319,271.85h-2.78c-1.27,0-2.65.06-2.64,1.68s1.36,1.69,2.65,1.75c2.16.12,4.32.33,6.47.56,1.29.14,2.54.17,2.78-1.45s-.94-1.7-2.08-1.86C321.65,272.29,319.88,272,319,271.85ZM249.9,494.07c2.51-.18,5-.33,7.52-.54,1.24-.1,2-.7,1.9-2.09s-1.26-1.29-2.18-1.22c-2.63.2-5.25.52-7.88.76-1.1.1-1.94.57-1.76,1.75A1.64,1.64,0,0,0,249.9,494.07ZM101.06,284.26c-1.77.58-4.42,1.41-7,2.35a1.55,1.55,0,0,0-1,2.05,1.53,1.53,0,0,0,2,1.06c2.56-.72,5.13-1.42,7.67-2.24,1-.31,1.75-1,1.37-2.2C103.76,284.35,102.92,284.1,101.06,284.26ZM304.89,448.48a14.35,14.35,0,0,0,7.83-5c.6-.78,1.33-1.59.31-2.51a1.75,1.75,0,0,0-2.61.13,13.68,13.68,0,0,1-6.27,4.17,1.51,1.51,0,0,0-.95,2.07A1.62,1.62,0,0,0,304.89,448.48ZM199.7,515.55c1.25.09,2.3-.24,2.49-1.54.17-1.14-.76-1.61-1.77-1.85-2-.45-3.95-.95-5.93-1.38-1.1-.25-2.26-.31-2.58,1.12-.26,1.17.58,1.8,1.54,2.08C195.52,514.56,197.62,515,199.7,515.55Zm-75.93-203a1.51,1.51,0,0,0-2-1.29,21.5,21.5,0,0,0-6.74,3.31,1.52,1.52,0,0,0-.61,2.17c.65,1.11,1.59,1,2.49.53,2-.92,3.87-1.9,5.76-2.92A1.82,1.82,0,0,0,123.77,312.52ZM49.34,336.19c-.33-.69-.63-1.78-1.66-1.44-2.5.84-5.13,1.47-7.11,3.41-.65.63-1.18,1.35-.53,2.2a1.76,1.76,0,0,0,2.3.44c1.95-.92,3.89-1.89,5.85-2.8A2.15,2.15,0,0,0,49.34,336.19ZM87,356.26c0-.85,0-1.33,0-1.81-.06-1.11-.16-2.3-1.6-2.38-1.59-.08-1.48,1.24-1.61,2.28-.21,1.78-.36,3.57-.59,5.36-.14,1.13-.24,2.36,1.06,2.7s1.92-.82,2.14-1.9C86.75,359,86.88,357.44,87,356.26ZM238.91,254.5a19.2,19.2,0,0,0,6.12-3.56,1.41,1.41,0,0,0,.16-2,1.6,1.6,0,0,0-2-.45c-1.93,1-3.84,2-5.7,3.14a1.48,1.48,0,0,0-.51,1.94C237.3,254.41,238.07,254.44,238.91,254.5Zm-68.52-7.43c.06-1.45-3.62-6-5.06-6.25a1.54,1.54,0,0,0-1.79.83,1.46,1.46,0,0,0,.32,2,14.15,14.15,0,0,1,3.54,4.48,1.24,1.24,0,0,0,1.8.63C169.83,248.36,170.42,247.92,170.39,247.07ZM270.2,388.35c-1.64.1-3.84-1.24-3.93,1.28-.07,1.87,2.06,2,3.58,2.14a5.74,5.74,0,0,0,2.15-.06c1.3-.35,3.26-.37,3-2.33s-2-1.16-3.24-1A13.18,13.18,0,0,1,270.2,388.35ZM183.8,429a1.73,1.73,0,0,0-1.52.69,1.51,1.51,0,0,0,.17,2,10.1,10.1,0,0,0,5.7,2.95,1.58,1.58,0,0,0,1.75-1,1.21,1.21,0,0,0-.3-1.64C187.72,430.87,185.77,430,183.8,429ZM111.47,249.23c0-1.14-.46-1.84-1.18-1.87a10,10,0,0,0-7,2.07,1.36,1.36,0,0,0,1.07,2.44,29.11,29.11,0,0,0,6.21-1.55C111,250.19,111.27,249.48,111.47,249.23Zm187.61,55.32c-1.21,0-2.73-.15-2.43,1.44.5,2.69,3.61,2.52,5.25,4.09.54.52,1.9-.6,1.67-1.7C303.08,305.94,301.23,304.93,299.08,304.55ZM352.64,474.4c-.26-1.71-2-1.78-3.18-2.33-1.4-.64-2.93-1.32-4.36-.11a1.21,1.21,0,0,0,0,1.91,16.31,16.31,0,0,0,6.27,2.19C352.08,476.18,352.49,475.29,352.64,474.4ZM221.1,468.57a5.53,5.53,0,0,0-5.18-3.75c-1.11-.08-1.91.31-2,1.5-.08.81,4.82,4.19,5.8,4S221.06,469.53,221.1,468.57Zm90-105.68c-1.45-.14-2.61.28-2.23,1.45.87,2.66,3.6,2.89,5.8,3.64.94.33,2.31-.34,1.92-1.45C315.74,363.91,312.87,364,311.15,362.89ZM34.22,408.34c-1.4.07-3,.29-2.44,1.89,1,2.56,3.79,1.08,5.65,1.94.86.4,2.27,0,2-1.31C38.77,407.92,36,409,34.22,408.34ZM141,517.79c1-1.65,4.15-1.24,4.75-3.91a1.33,1.33,0,0,0-1.87-1.51c-2,.86-4.58,1.31-5.1,4C138.56,517.37,139.52,517.76,141,517.79ZM192.65,332c.46,1.5.87,3.65,3.15,4.35.87.27,1.89-.89,1.46-1.55-1.15-1.76-.29-4.88-3.28-5.33C192.7,329.23,192.5,330.38,192.65,332ZM237.13,290c-.36,0-1.31-.22-1.69.83-.26.74-.14,1.71.61,1.83,2.18.36,4,2.42,6.46,1.3a1.1,1.1,0,0,0,.52-1.54,1.7,1.7,0,0,0-.7-.77C240.8,291,239.37,290,237.13,290ZM137.7,401.58c.1-1.62-.08-3.19-1.61-2.88-2.94.59-1.29,3.64-2.32,5.38-.46.8.42,1.68,1.38,1.56C137.85,405.32,137.19,402.9,137.7,401.58Zm21.43-118.13c-1.25,0-2.69.1-2.26,1.58.65,2.23,3,2,4.76,2.32,1,.21,2.5-.33,2.14-1.69C163.12,283.27,160.74,283.92,159.13,283.45Zm-24,180.6c-1.35.07-3.11-.13-2.84,1.53.46,2.8,3.41,1.39,5.07,2.34a1.3,1.3,0,0,0,1.83-1.49C138.79,464,136.66,464.33,135.12,464.05ZM147.89,348c1.17-.4,3.44.55,3.52-1.75s-2-1.52-3.33-1.51-3.57-.78-3.5,1.75C144.63,348.42,146.5,347.7,147.89,348Zm199.39,22c-1.12.13-2.6-.1-2.52,1.41.15,2.67,2.63,1.76,4.13,2.26.93.32,2.12.09,2-1.23C350.75,370.14,348.75,370.35,347.28,370ZM211.75,387.61c1.62-.82,3.27-1.9,3.58-4,.14-.9-.93-1.51-1.82-1.21a5,5,0,0,0-3.54,3.75C209.74,387.26,210.62,387.58,211.75,387.61Zm64.92-54.13c-.93-1.22-1.12-3.41-3.45-3.34a1.2,1.2,0,0,0-1.2,1.73c.61,1.52,1.18,3.31,3,3.64C276.08,335.69,276.74,334.81,276.67,333.48ZM62.54,445.37c-.08-1.12-.6-1.68-1.59-1.74-1.91-.11-3,.75-3.13,2.69-.06,1,.16,2.21,1.43,2C60.92,448.09,61.59,446.46,62.54,445.37ZM38,498c0-1.37-.64-2.17-1.72-1.86-1.47.42-2.87,1.38-3,3.08a1.56,1.56,0,0,0,2,1.5A3,3,0,0,0,38,498Zm225.88-68.09c-.07,1.06.14,1.83,1.24,1.91,1.67.13,2.42-.95,2.66-2.34.2-1.2-.42-2.32-1.66-2.3C264.46,427.23,264.37,428.91,263.85,429.93Zm-160.6-13.24c-1,0-2.16.09-2.18,1.31,0,1.68,1.49,2.05,2.77,2.33,1.07.24,1.92-.23,1.86-1.53C105.63,417.27,104.55,416.83,103.25,416.69Z"/><path d="M144.47,123.75c3.74,0,11.65,5.84,12.7,9.16a4.17,4.17,0,0,1-1.49,4.82c-1.7,1.36-3.37.91-4.92-.38-2.08-1.72-3.45-4-4.93-6.21-1.12-1.66-2.14-3.27-4.61-2.26-1.69.69-1.57-.69-1.31-1.55A5,5,0,0,1,144.47,123.75Z"/><path d="M230.52,120.13a11.82,11.82,0,0,1-1,5.92c-1.62,3.91-5.16,4.34-7.86,1a13.11,13.11,0,0,1-.11-15.5c2.65-3.39,5.74-3.09,7.52.76A15.56,15.56,0,0,1,230.52,120.13Z"/><path d="M283.72,119.14c-.12,3.57-1,6.62-3.65,8.91-2.31,2-4.43,1.72-6.08-.77-2.58-3.9-2.4-12.52.4-16.22,1.7-2.24,3.64-2.58,5.79-.52C282.7,113,283.52,116,283.72,119.14Z"/></g></g></g></svg>