<svg xmlns="http://www.w3.org/2000/svg" viewBox="0 0 349.2 512.89"><title>ottaviacapozzi</title><g id="Livello_2" data-name="Livello 2"><g id="Livello_1-2" data-name="Livello 1"><g id="_3SNBlG.tif" data-name="3SNBlG.tif"><path d="M68.74,363.15c.45,2.69,4.67,4.86,2,7.64-2.82,2.95-6.42,1-9.35-.45-10.69-5.22-21.33-10.53-31.84-16.11-4.75-2.52-7.11-2.46-7.61,3.79-2.41,30.63-6.86,61.05-8.62,91.76-.85,14.82-.82,29.61-1.1,44.42a18.67,18.67,0,0,1-.64,6c-1,2.85-3,5.22-6.49,4.84-3.17-.36-4.38-2.94-4.81-5.73a44.18,44.18,0,0,1-.3-6.72c0-47.35,5.81-94,15.91-140.23.81-3.73.66-6.09-2.48-8.65a11,11,0,0,1-3.61-12.23c12.71-39.88,29.92-76.73,68.31-98.79,3.32-1.91,4.11-4.21,4-7.59-.17-7.78-3.8-14.24-7.75-20.52-4.06-6.46-8.66-12.59-12.57-19.13-9.2-15.35-9.19-31.07,2.75-44.4,17.63-19.69,25.08-42.9,28.87-68.31,5.57-37.35,28.33-60,64.24-68.51,32.06-7.57,64.4-5.2,93.91,9.68,31,15.63,45.42,44.24,51.06,77.45,4.38,25.83,1.61,51.47-3.64,77-2.62,12.75-6.27,25.32-7.26,38.36a48.64,48.64,0,0,0,12.11,36.53A124.6,124.6,0,0,1,324.35,277c10.29,24.72,17.91,50.3,24.16,76.3,1.76,7.33.43,9.43-7.19,9.94-5.24.35-4.93,3.37-4.67,6.88,1.89,25.77,3.25,51.56,2.48,77.41-.55,18.63-1.35,37.25-2.25,55.87-.18,3.81.34,9.77-4.9,9.47s-5-6.12-4.69-10.35c2.32-32,3.52-64.09,3.78-96.2q.14-17.5,1.12-35c.3-5.32-1.68-5.95-6.24-4.77-13.56,3.49-14,3.41-13.09,17,2.07,30.42,4.66,60.82,7,91.23.58,7.61.9,15.24,1.29,22.87.17,3.37-.47,6.59-4.34,7.32-3.36.63-5.58-1.21-6.24-4.63-.41-2.17-1.43-2.64-3.73-2.56-64.59,2.44-129.2,4.48-193.85,4.75-10.34,0-20.63-.62-30.92-1.51-2.62-.23-4.94-.8-5.12,3.09-.19,4.14-.9,9.26-6.13,8.6s-6.14-6.12-6-10.68c.22-9.64.81-19.29,1.42-28.92q2.86-44.7,5.89-89.38c.37-5.59,1.18-11.16,1.45-16.75C73.67,363.4,73.39,363.38,68.74,363.15Zm235.41,22.21c-2.85,5.16-7.29,6.37-13,6.33-68.21-.52-136.49,1.1-204.45-6.84-1.73-.2-4.2-.89-4.4,1.57-.55,6.92-2.36,14.47-.27,20.61,1.52,4.44,8.86.3,13.56,1a46,46,0,0,0,5.38,0l108.39,2c29.86.56,59.7-.25,89.55-.66,4.5-.06,5.78-1.55,5.47-5.94-.42-6-1.44-12.05-.26-18.09-1.79-7.49-1.25-15.15-1.46-22.74-.11-4.15-1.58-5.54-5.66-5.18-6.93.59-13.88.92-20.83,1.16-60.77,2.1-121.57,2.89-182.36,3.87-13.57.22-13.35.32-12.13,14.07.4,4.51,2,5.62,6.24,5.3,13.43-1,26.9-.82,40.36-.48,49.57,1.27,99.14,2.47,148.73,2C286.13,383.22,295.34,382,304.15,385.36ZM243.37,79c5.69-6.43,10.34-12.82,18.45-15,8.76-2.31,13.37.61,13,9.54-1,25.12-2.4,50.22-3.72,75.33a194.59,194.59,0,0,1-3.28,28c-2.35,11.8-8.27,20.39-20,24.8-10.11,3.81-12.09,7.88-8.93,18.2,4.82,15.7,10.73,31.1,20.47,44.44,12.63,17.31,17.9,36.37,16.52,57.55-.14,2.16-.76,4.58,1,7.42a67,67,0,0,0,6.32-34.1c-.28-4.36-4.05-10.43,1.23-12.88,5.12-2.39,8.19,3.63,11.43,7.17,1.84-2.12,1.41-4.47,1.49-6.64.67-20.43-2.05-40.41-10.05-59.25-7.35-17.32-7.71-34.11-.29-51.44a136.24,136.24,0,0,0,9-78.48c-6.42-36.61-24.65-65.26-60.54-78.84-34.28-13-67.7-7-99.24,10C112.74,37.53,100.79,57,101.72,84.72c.72,21.6-8.18,40-24.24,54.91-13.17,12.19-14.93,24.87-5.81,40.31,4.67,7.91,10.21,15.31,15,23.17,8.22,13.55,7.65,26.47-2.26,38.73a63.63,63.63,0,0,0-14,35c-1.6,16.7,8.39,34.21,23.79,41,7.76,3.42,10.32,1.71,9.6-6.74-.81-9.58.77-18.33,7.73-25.5,1.74-1.8,3.56-3.71,6.34-3.05,3,.7,3.09,3.46,3.57,5.87,1.27,6.36,1,12.95,3.45,19.15A30.31,30.31,0,0,0,143,325.4c1.26.48,2.84.89,3.82-.17s-.08-2.48-.59-3.63c-.64-1.44-1.45-2.79-2.19-4.18-6.21-11.58-6.66-22.56,1.11-34.11,8.13-12.07,15-25,19.54-39,3.67-11.47,2.39-21.63-5.83-31.35-11.72-13.86-20-29.89-23.44-47.83-4.37-22.78-.09-34.44,19.34-44,12.66-6.25,22.42-16.35,30.38-28,6.39-9.37,14.59-16.37,25.58-19.7,3.44-1,6.7-.94,8.61,2.91,3.95,8,4,8,10.27,1.14,1.06-1.15,2-2.44,3.14-3.51,2.8-2.63,4.61-8.36,9-6.64S242,74.19,243.37,79Zm-10,.81C228,84.45,220.75,88.13,217.68,94s-6.73,7.49-12.16,8.55c-5,1-9,3.86-12.32,7.72-2,2.32-3.29,6.91-7.22,1.69-1.09-1.46-2.44.17-3.29,1.11-8.89,9.9-20,17.33-29.46,26.61a20.45,20.45,0,0,0-6.3,18.32c1.87,14.17,5.81,27.25,18.58,35.75,3.61,2.4,5.69,5,1.94,9.14-2.16,2.38-1,5,.41,7.44,11.29,19,12.31,37.68-2.06,55.74-2.52,3.17-1.36,4.66,2.17,5.44,13.86,3.06,27.74,5.21,42,3.26,11.73-1.6,22.7-4.91,32.64-11.64,4.74-3.22,5.29-6.14,2.36-11.06-6.71-11.25-11.77-23.22-12.63-36.54-.21-3.27-1.88-4.21-4.83-4.05-3.13.18-6.28.21-9.42.24a53.57,53.57,0,0,1-27.68-7.14c-2.7-1.55-6.14-3.3-4-7.2,1.86-3.34,5-1.95,7.75-.78,3.3,1.39,6.59,2.87,10,4,28.89,9.16,54-5.44,58.81-34.64,1.77-10.81,1.82-21.89,3.17-32.79.89-7.26-6.43-7.39-9.09-11.49-.17-.25-2.07.35-3,.89-1.88,1.14-3.49,4.68-5.9,1.29-2.12-3,.07-5.53,2.3-7.57,5-4.64,10.21-2.39,15.4.46-.89-10.08-4.12-13.61-13.85-15.65-9.89-2.08-11.19-5-6.34-13.91.66-1.22,2.31-2.26,1.25-4.27-5.44,3.28-9.39,8.61-15.63,10.45-1.51.45-3.36,1.44-4.37,0-1.21-1.77.9-2.65,2-3.61C231.7,87.24,233.82,84.5,233.34,79.83ZM112.72,329.42c3.55,4.69,5.84,7.67,8.07,10.7,1.47,2,2.06,4.07-.21,5.93a4,4,0,0,1-6-.36,99.49,99.49,0,0,1-6.37-7.81c-4.28-5.72-9.26-8.54-17.06-8.15-22.39,1.11-44.84,1.16-67.27,1.76-2.48.06-6.08-1.3-7.08,2.08-1.07,3.61,2,5.78,4.78,7.23,7.57,3.91,15.43,7.28,22.84,11.44a32.64,32.64,0,0,0,21.26,4c5.33-.71,9.26-1.28,7.18-8.13-.39-1.29-.31-3.2,2.08-3.64.5.66,1.41,1.31,1.49,2.06,1,8.78,6.61,8.84,13.81,8.64,66.38-1.81,132.74-4.3,199.16-3.92,14.26.08,14.16.2,13.11-14.53-.22-3.1-1.2-4.45-4.35-4.49-8.43-.12-17.64-3.05-23.06,6.92a4.18,4.18,0,0,1-1.55,1.27c-1.7,1-3.41,2.52-5.53,1.19-1.84-1.16-1.61-3.21-1.2-4.89,1.17-4.84-1.22-5.63-5.37-5.7-32.53-.51-65.05-1.21-97.58-1.8-3.92-.07-8-.83-10.74,3.52-1.19,1.9-3.71,1.36-5.55.29C137,326.93,125.73,330.16,112.72,329.42Zm75.56,110.87v-.17c6.05,0,12.11.13,18.16,0,28.69-.71,57.39-1.41,86.07-2.34,4.52-.15,11.12,0,12.94-2.64,2.07-3,.39-9.08-.66-13.59-.68-2.94-4.18-1.83-6.51-1.82-16.82.08-33.64.46-50.45.34-53.8-.38-107.65.16-161.22-6.24-4.7-.56-5.84,1.17-5.76,5.46a117.68,117.68,0,0,1-.66,16.8c-.7,5.53,1.18,6.82,6.54,6.66C120.57,441.73,154.43,441.07,188.28,440.29ZM194,471.64c-31.62,1.36-63.25,1.54-94.86.32-6.45-.25-14.64-2.95-19,.75-4.79,4.12-1.3,12.73-2.23,19.32-.07.44,0,.9-.07,1.34-.56,4.15,1.29,4.85,5.1,4.28a163.83,163.83,0,0,1,19.39-1.92q97.16-3.12,194.34-6c14.08-.41,14.34-.64,11.85-14.94-.49-2.84-1.3-3.32-4.23-3.3C267.51,471.71,230.73,471.64,194,471.64Zm112.49-29.15A13.38,13.38,0,0,1,297.1,446c-66.64,2-133.29,3.41-199.93-.06-18.13-.94-18-.95-18,17.47,0,4.23,1.34,5.53,5.44,5.23,8.5-.63,17-1.05,25.55-1.33,53.16-1.75,106.34-3.13,159.54-3.26,11.65,0,23.3-1.65,34.93-.19,3.46.44,3.2-1.52,3.08-3.53C307.39,454.74,306.93,449.19,306.44,442.49ZM207.25,301.13v2c-18.16,0-36.32,0-54.47.05-2.24,0-5.09-.83-6,2.72-1.95,7.67,3.26,14.44,11.18,14.57,32.3.5,64.59.95,96.88,1.66,14.22.31,14,.59,13.22-13.85-.29-5.35-2.07-7.38-7.66-7.28C242.69,301.33,225,301.13,207.25,301.13Zm-.69-7.94v-.4c17.5,0,35,0,52.49,0,1.87,0,4.25.83,5.38-1.54.9-1.87-4.78-14.64-6.77-14.75-6.21-.33-12.69-2.39-18.62.25-25.33,11.26-51.07,10-76.94,2.82-4.75-1.33-7.18-.33-9.09,3.74-.95,2-2,4-3.11,6-2.65,4.85-1.71,6.6,4.22,6.25C171.58,294.46,189.07,293.92,206.56,293.19ZM307.89,323.1v1.21c6.26,0,12.53-.14,18.79.06,3.54.11,4.22-1.16,3.31-4.37-3.92-13.78-7.74-27.58-13.27-40.83-.62-1.49-.79-4.31-3.12-3.55-3.14,1-7.89-1.47-9.24,2a26.1,26.1,0,0,0-1.45,13.77c.72,3.63,5.45,1.06,8.29,1.83,1.71.47,3.53.52,5.25,1s2.89,1.29,2.89,3.2a3.26,3.26,0,0,1-2.81,3.29,36.88,36.88,0,0,1-5.94.79c-4.44.3-9.25-1.62-12.67,3.48-1.23,1.83-3.56.59-4.88-1.44-2.27-3.51-3.57-1.54-4.21,1.05-1.13,4.56-1.85,9.21-3,13.76-.91,3.62.38,4.87,3.94,4.8C295.81,323,301.85,323.1,307.89,323.1Zm-225.31-1c-13.28-13.6-28.67-21.52-47.37-21.68a6.75,6.75,0,0,1-2-.43c-3-1-4.63.23-5.71,3-2.7,6.89-5.54,13.73-8.26,20.61-1.45,3.68-.33,4.65,3.63,4A432.94,432.94,0,0,1,69.76,323C74.19,322.76,78.6,322.37,82.58,322.09Zm240.3,29v-.17h10.73c2.29,0,4.13-.47,3.41-3.43q-1.57-6.51-3.25-13c-.42-1.63-1-2.84-3.24-2.21-4.84,1.38-9.78.21-14.67.25-9,.08-9.65-1.45-7.94,8.92,1.64,9.89,1.43,9.92,11.61,9.65C320.65,351,321.77,351,322.88,351ZM47.1,276.45c-6.67-2.07-7.74,3.8-9.88,7.55-9,15.7-6.95,12.24,6.68,13.31l.67,0c12.67.65,12.67.65,11-11.43a7.62,7.62,0,0,1-.21-2C56.39,277.35,52.78,275.75,47.1,276.45Zm77.67,42.84c-2.41-3.56-4.84-7.29-5.85-11.66-.93-4-4.08-2.47-6.56-2.56-2.8-.1-3.82,1.48-4.18,4.09-1.25,9.22,1.42,12.33,10.43,11.73C120.52,320.76,122.62,321.25,124.77,319.29Zm-81.4-45.81c7.78.29,13.79.88,15.06-7.63.22-1.5,1.28-2.86,1.76-4.34.54-1.7,3-3.61.15-5.16-2.27-1.25-3.8.69-5.05,2.22C51.6,263.05,48,267.63,43.37,273.48Zm268.07-5c-1.66-5-3.86-9.52-8.08-13.5C302.66,268.73,303.3,269.79,311.44,268.52ZM259.35,80.27c-1.75,1.89-3.14,3.29-4.39,4.8-.9,1.09-2.75,1.86-2,3.69.24.58,1.43,1,2.23,1.06,2,.23,2.4-1.48,3-2.86C259.05,85,260.07,83,259.35,80.27Zm8,17.12c-.18-3.26.89-6.15-1-8.89C259.66,92.38,262.56,94.73,267.32,97.39Z"/><path d="M233.49,176.87c-5.2,0-13.73-6.06-15.2-12.48-.4-1.74-.9-3.67,1.11-4.75,1.75-.94,2.81.52,4,1.55,9.64,8.45,9.9,8.5,21.26,2.15,2.23-1.24,4.15-1.52,6,.46,2.07,2.22,1.72,4.46-.15,6.55C246.53,174.78,241.44,176.68,233.49,176.87Z"/><path d="M240.91,151a16.44,16.44,0,0,1-11.2-3.93c-2.05-1.65-3.59-3.6-1.75-6.27,1.63-2.38,3.83-1.79,5.94-.66,1.38.73,2.66,1.67,4,2.36,2.32,1.15,4.77,1.72,6.73-.53s.66-4.43-.51-6.73-6.66-3.65-2.76-6.59c3.67-2.77,7.14.73,9.35,3.9,2.75,4,2.81,8.32.5,12.67A10,10,0,0,1,240.91,151Z"/><path d="M194.61,128.09c-.09-6.18,4.95-12.88,10.53-14,5.25-1.06,11.27,2.72,13.8,8.56,1,2.28,1.25,4.44-1.08,5.93s-4.16.73-6-1c-6.86-6.49-7.51-6.36-11.63,2.19-.78,1.61-1.21,3.75-3.61,2.93C194.54,132,194.64,129.9,194.61,128.09Z"/></g></g></g></svg>