<svg xmlns="http://www.w3.org/2000/svg" viewBox="0 0 355.63 544.28">
  <title>Risorsa 62</title>
  <g id="Livello_2" data-name="Livello 2">
    <g id="Livello_1-2" data-name="Livello 1">
      <g>
        <path d="M92.58,109.1c-5.43-1.14-6.21-2.68-3.75-7.29,1.11-2.09,2.5-4,4-6.49-2.67-.12-5.1-.19-7.53-.35-3-.2-5.79-.93-6.89-4.08s1-5.35,3.12-7.34c3.49-3.22,7-6.45,10.7-9.91a32.12,32.12,0,0,1-5.68-1.38c-1.19-.53-2.72-1.75-2.86-2.83s.91-2.8,1.93-3.59c3-2.34,6.45-1.55,9.56-.53.82-1.3,1.34-3.1,2.4-3.52s2.56.68,3.2.89c5.07-5.27,10.08-10.6,15.21-15.8,5.58-5.66,12-9.47,19.82-8.25.85-5.29,1-10.5,2.66-15.18,1.25-3.53,4.27-6.51,6.84-9.44a4.08,4.08,0,0,1,3.87-.68c.77.43.65,2.46.89,3.79a4.56,4.56,0,0,1,0,.9c4.31-2.77,8.46-5.85,13-8.27,9.26-5,18.25-4.85,27.32,1.29,15.24,10.31,31.22,9.79,47.15,1.58a103.06,103.06,0,0,0,14.69-9.3c6.69-5.06,10-4.65,14.52,3.42a18.76,18.76,0,0,1,2-2.91C272.15.61,276.94,2,278,6.58a54.05,54.05,0,0,1,.36,20.71,5.83,5.83,0,0,0,.15,3,33.87,33.87,0,0,1,3-4.23c.76-.79,2.15-1.63,3.05-1.44s1.74,1.51,2.33,2.5c3.35,5.62.06,10.91-1,16.28-.62,3.09-1.7,6.08-2.72,9.64,1.26-.34,2.07-.53,2.87-.77,10.11-3.06,17.57,3.78,15.53,14.24A27,27,0,0,1,291.39,83c-3.25,2.55-5.24,5.37-5.35,9.69-.17,6.64-8.17,16.92-13.15,17.79.76,9.9,2.43,19.74,2.1,29.52a224.49,224.49,0,0,1-13.84,69.33,14.1,14.1,0,0,0-.93,3.58c-1,11.85-6.62,21.3-15.79,28.34-4.07,3.12-9.48,4.48-14.44,6.71,1.27,1.34,2.14,3.87,5.41,5,10.67,3.77,21.48,7.41,31.62,12.35,11.29,5.5,19.48,15,26.39,25.29,18.79,28,37.29,56.17,55.9,84.27.57.86,1.13,1.72,1.7,2.56,3.58,5.28,3.62,10-.35,14.9-1.42,1.74-1.18,3-.53,4.82a98.14,98.14,0,0,1,2.59,56.19c-3.67,15.37-15.47,24.6-31.84,25.89-6,.47-12,.08-18.16.08.52,9.34,1,18.28,1.53,27.22.44,6.7,1.3,13.24,4.42,19.46,2.41,4.8-1.22,10.16-6.56,10.84-61.44,7.86-123.12,8.86-184.9,5.9-23.31-1.11-46.57-3.23-69.51-7.9a6.37,6.37,0,0,0-3.84.57c-5.62,2.91-10.64.48-11.48-5.81-.36-2.7-.49-5.44-.58-8.17-.79-23-1.64-46-2.23-69-.12-4.73.82-9.49,1.17-14.25a6.42,6.42,0,0,0-.5-2.93c-2.15-4.88-4.32-9.77-6.7-14.54a6,6,0,0,0-3-2.4c-4.39-1.87-8.84-3.59-13.29-5.29-5.5-2.09-7.73-6.31-7.22-11.84.7-7.69,1.63-15.38,2.82-23,3.22-20.59,7.34-41,14.39-60.68,7.23-20.22,18.3-37.66,36.6-49.69,15.54-10.22,32.79-16.22,50.93-19.68,6.42-1.23,12.8-2.44,19.58-1.68,5.54.62,11.31-.73,17-1.26a6.13,6.13,0,0,0,5.52-4.48c2.09-6.71,4-13.47,5.85-20.26.51-1.87-3-5.08-4.89-4.75-5.15.88-10,.2-14.31-2.9-4.84,3.35-10,5.52-15,1.22-2.86-2.48-5-3.44-8.79-2.37-2.31.67-5.18-.17-7.69-.79-2.13-.53-3-2.3-2.5-4.55a12,12,0,0,0,.43-1.64c.47-5.18,0-5.43-5.11-4.1a5.47,5.47,0,0,1-4.48-.83c-.76-.74-.66-3-.13-4.29,2-4.69,4.25-9.24,6.45-13.92a42.49,42.49,0,0,1-5.92-1.08A5.12,5.12,0,0,1,87,174.65c.3-2.81,2.45-3.6,4.84-3.94,7.53-1.07,12.57-5.26,15.41-12.23.64-1.57,1.38-3.09,2.21-5-6.23-1.7-8.12-6.84-9.82-12.31A104.3,104.3,0,0,0,95,129.16C92.06,122.78,90.25,116.34,92.58,109.1Zm46.25,55.22.84.16c.31.84.61,1.69.92,2.53,2.75,7.33,6.24,14.38,12.27,19.44,7,5.91,14.62,11.17,22.08,16.55,3.44,2.48,3.52,2.29,5.05-1.46a23.21,23.21,0,0,1,2.32-4.55c9.33-13.45,22.7-19.64,38.6-20.59,11.82-.71,22.26,2.92,30.36,12,2,2.23,3.62,4.81,5.53,7.37a7.52,7.52,0,0,0,.52-1.07c5.05-17.87,9.53-35.84,10.6-54.5,1.08-18.84-2.35-36.71-11.11-53.44-1.54-2.94-4-5.4-6.27-7.93A21,21,0,0,0,247,76.15C259.72,64.69,260.27,64,260.2,60.39a29.92,29.92,0,0,0-2.3,2.13C248.58,73.15,237.12,76.39,223.44,73A235.23,235.23,0,0,0,198,68c-10.12-1.31-20.36-1.8-30.56-2.4-3.45-.2-6.13,1.52-8.37,4.41a85.11,85.11,0,0,1-9.6,10.48,67.8,67.8,0,0,0-15,19.14h4.77c-.54,1-1.13,1.34-1.72,1.33-2.9,0-4.6,1.3-5.25,4.19-.71,3.22-1.88,6.35-2.42,9.59-1.55,9.31-2.95,18.65-4.28,28-.38,2.69-.08,4.68,3.47,5.75,3.81,1.14,7.17,3.8,10.72,5.79l-.47.88c-2.08-.47-4.16-1-6.26-1.38a53.85,53.85,0,0,0-6.42-.89c-6.94-.4-11.8,3.16-12.86,10a38.89,38.89,0,0,0-.06,11.5c1.47,9.74,6.88,13.18,16.25,10.84,2.31-.58,4.05-.19,4.9,2.29a9,9,0,0,0,1.12,1.64c.29-5.61.56-10.7.83-15.8-4.37,1.82-5.52,1.18-8.23-2.86-1.72-2.56-4.22-4.59-6.83-7.35,2.09-.43,4.52-1.39,6.93-1.35,4,.07,6.64,2.79,8.68,6ZM310.38,393.19l5.28.57c2.26.23,4.55.31,6.78.72,2.49.47,4.11,2,4,4.71a4.66,4.66,0,0,1-3.94,4.87,18.31,18.31,0,0,1-5.07.27c-7.93-.71-15.86-1.58-23.79-2.32-28.24-2.64-56.23-6.94-84.13-12-22.64-4.11-45.37-7.57-68.53-5.82-10.27.77-20.06,3.57-30.07,6.71,2.2,5.29,4.38,10.27,6.33,15.33,1.26,3.27,3.28,4.38,6.82,4.06A109.08,109.08,0,0,1,162.62,414c14.18,3.86,26.53,11.28,38.64,19.2,21.15,13.85,43.9,24,68.66,29.25,16.47,3.53,33,6.87,50,5.22,12.61-1.22,20.27-8.2,22.17-20.72,3-19.73,1.61-38.84-8.86-56.47a3.12,3.12,0,0,0-2.21-1.44C324,389.05,317,389.93,310.38,393.19ZM205.6,449.06c-7.53-4.69-14-9.34-21.07-13a228.07,228.07,0,0,0-25.76-11.51c-11.51-4.24-23.76-3.71-35.82-4.1-7.7-.26-11.2-2.69-13.63-10-1.47-4.42-2.86-8.89-4-13.41-.67-2.72-2-3.75-4.82-4.12a120.43,120.43,0,0,0-41.09,1.77c-9.42,2-18.72,4.56-28.21,6.89.22,1.15.29,1.7.43,2.22,6.65,23.84,17.91,45.22,34.44,63.69,5.1,5.69,10.69,11,17.85,14.08,7.71,3.33,15.63,2.39,23.48.6A476.37,476.37,0,0,0,175.78,461C185.5,457.17,195.17,453.24,205.6,449.06Zm-47-223.3a22.36,22.36,0,0,1-.43,3.1c-1.27,4.7-2.13,9.58-4,14-2.66,6.13-7.6,9.72-14.56,10.21a110,110,0,0,0-11.16,1.36c-3.34.58-3.8,1.54-1.89,4.26,3.38,4.83,6.61,9.87,10.65,14.11,15.46,16.24,34.38,24.69,57,23.83,12.34-.47,21.52-6,26.33-17.75,1.85-4.51,3.22-9.22,5-13.77,1.15-3,1.17-5.43-.91-8.16a21,21,0,0,1-3.3-7.41c-.59-2.3-1.63-3.1-3.88-3.31A131,131,0,0,1,158.57,225.76ZM222,187.93c-3.19.26-5.82.31-8.4.72-10.67,1.69-19.33,6.52-24.5,16.42-2.08,4-1.18,7,2.77,9a54,54,0,0,0,9.73,4c7.09,1.92,14.23,3.22,18.41-5.31a1.78,1.78,0,0,1,.22-.26c4.69-5.18,8.46-5.35,13.73-.66,1.44,1.28,2.89,2.57,4.44,3.71a4.6,4.6,0,0,0,2.47.94c8.1,0,12.39-6.34,9.36-13.81a41.64,41.64,0,0,0-1.84-4c-2.73-5.13-6.8-8.48-12.71-9.21C230.94,188.85,226.19,188.38,222,187.93Zm63.52,203.31c-8.22-12.83-13.89-13.33-26.81-3.66a5.66,5.66,0,0,0,1.27.53C268.3,389.15,276.63,390.16,285.52,391.24ZM137.21,50.51c-4.55-2.93-12-1.3-15.47,3.28Z"/>
        <path d="M175.44,136.66c2.14-1.39,4.13-3.1,6.44-4.12,7.1-3.14,14.44-5.56,22.32-5.78,1.12,0,2.49-.14,3.33.42,1.08.72,2.42,2.09,2.39,3.14a4,4,0,0,1-2.57,2.91c-3,.63-6.11.53-9.15,1-6.65.92-13.28,2-19.92,3-.84.13-1.7.13-2.55.19Z"/>
        <path d="M255.63,136.18a40.24,40.24,0,0,0-4.12-1.19c-4.75-.88-9.5-1.69-14.26-2.46-1.11-.18-2.44.24-3.34-.24-1.18-.64-2.68-1.79-2.86-2.91s.95-2.7,2-3.47a7.65,7.65,0,0,1,4.14-1.29c6.73-.2,12.79,1.61,17.45,6.74,1,1,1.34,2.59,2,3.91Z"/>
        <path d="M194.46,162.24c-5.15,0-11.74-6.7-11.64-12a7.86,7.86,0,0,1,1.11-2.57,13.47,13.47,0,0,1,2,1.8c.87,1.17,1.4,2.64,2.39,3.66,5.24,5.34,9,4.4,11-2.79.74-2.63,2.34-3.68,4.78-2.84s2.25,2.69,1.48,4.78C203,159.24,199.67,162.25,194.46,162.24Z"/>
        <path d="M157.63,91.59c3.69,12.17,4,24.23-.87,36.06-.74,1.8-2.56,3.15-3.88,4.71,0-2-.58-4.13,0-6C156.13,115,158.53,103.56,157.63,91.59Z"/>
        <path d="M243.42,155.86c-3.73,0-7.83-3.15-8.13-6.52-.09-1,.77-2.15,1.19-3.23a10.1,10.1,0,0,1,2.3,1.59c3.41,4.17,5.84,3.86,8.68-.87.58-1,2.28-1.26,3.46-1.87.56,1.22,1.67,2.5,1.57,3.66C252.15,152.58,247.76,155.89,243.42,155.86Z"/>
        <path d="M146.05,142.57c.54,2,1.1,3.81,1.48,5.64a6.2,6.2,0,0,1-.33,2c-.73-.15-1.62-.08-2.15-.48C142.78,148.05,143.36,144.41,146.05,142.57Z"/>
      </g>
    </g>
  </g>
</svg>
