<svg xmlns="http://www.w3.org/2000/svg" viewBox="0 0 408.78 617.39"><title>robertocaputo3_1</title><g id="Livello_2" data-name="Livello 2"><g id="Livello_1-2" data-name="Livello 1"><g id="KmLMnk.tif"><path d="M317.79,154.16c1.06,6.82,1.35,13.17-1.1,19.36a21.87,21.87,0,0,1-6.46,9.21c-1.93,1.56-2.19,3.13-2,5.42.56,7.31,1.23,14.63.6,22-.38,4.48-.9,9.06-3,12.93-4.52,8.31-6.33,17.57-9.92,26.16-5.9,14.12-15.2,24.67-32.13,26.19,2.12,2.9,3.52,5.42,7.1,7,10.56,4.62,22.07,6.44,32.38,11.69,14.18,7.23,24.86,18.27,33.89,31,18,25.46,34.39,52,51.74,77.95,5,7.52,10,15.09,14.95,22.64,3.95,6,4.05,11.32-.35,16.83-1.69,2.12-1.53,3.62-.68,5.88,6.16,16.45,6.75,33.54,5.38,50.79-.59,7.32-1.89,14.55-5,21.3C398.47,530.63,390.45,537,380,540.38a63.62,63.62,0,0,1-27.93,2.74c-3.87-.49-4.12.57-3.78,4.08,1,10.18,1.3,20.41,2,30.6.44,6.14,1.31,12.13,4.37,17.75,3.18,5.84-.82,12.67-7.41,13.51-58.77,7.5-117.8,9.08-177,8q-34-.6-67.9-3.61a432,432,0,0,1-46.25-6.62c-2.35-.47-4.39-.56-6.68.89-4.52,2.87-9.91.57-11.65-4.6-1.42-4.19-1-8.59-1.23-12.88Q35,553.74,33.85,517.17A98,98,0,0,1,35.15,496a5.4,5.4,0,0,0-.41-3c-2.23-5.88-4.64-11.68-7.42-17.33a5.79,5.79,0,0,0-4-3.34c-5.72-1.51-11-4.12-16.37-6.56-4.79-2.18-6.66-6-6.9-10.95-.37-7.93,1.26-15.66,2.43-23.42,3.45-22.93,7.8-45.68,14.93-67.8,6.3-19.55,15.11-37.69,30-52.34,16.64-16.41,37.27-25.34,59.39-31.42,9.1-2.5,18.36-4.9,27.73-5.19,8.58-.26,17.15-.68,25.73-1.06,4.69-.22,7.56-2.26,9.29-6.47a81.75,81.75,0,0,0,3.57-12.44,5.53,5.53,0,0,0-.38-3.43,114,114,0,0,0-12.14-22.84A145.45,145.45,0,0,1,148.64,209a3.25,3.25,0,0,0-3.63-2.11,19.73,19.73,0,0,1-5.82-.62,3.21,3.21,0,0,0-3.73,1.08c-1.76,2-3.76,1.92-5.76-.07A18.22,18.22,0,0,1,124.36,197a12.83,12.83,0,0,0-2.52-6.18c-1.22,4.19-3.72,6-7.85,4.66-3.34-1.12-5.08-4.29-4.42-9.07.35-2.55.32-3.63-2.75-4.1-3.66-.55-3.8-4.23-4.3-7.16a14.87,14.87,0,0,1,.57-5.84c.22-1,.6-2.19-.77-2.68-1.2-.43-1.56.69-2,1.41a15.37,15.37,0,0,1-3.87,4.4c-2.22,1.61-4.56,2-6.94.48s-2.94-3.8-2.27-6.52c1.21-4.9,4.54-8.49,7.42-12.36.76-1,1.87-1.84,2-3.26-9.09.75-12.92-5.17-8.92-13.78a40.55,40.55,0,0,1,6.84-10c-3.32.74-6,.95-8.36,2.32a13.31,13.31,0,0,1-4.09,1.3,5.24,5.24,0,0,1-5.56-2.06c-1.43-2-1-4,.16-5.9a12.94,12.94,0,0,1,6.51-5.45c1.36-.52,2.61-1.22,1.24-2.76-1.1-1.25,1.57-4.54-2.58-4.18-3.29.28-6.46-1-7.63-4.39s1.43-5.54,3.84-7.46a27.14,27.14,0,0,1,7.72-4.61,2,2,0,0,0,1.47-2.4c-.22-1.69-1.47-1.2-2.4-1.14-2.6.18-5.13.26-6.1-2.86s1-4.6,3.06-6.16a40.33,40.33,0,0,1,12.42-6.59c.93-.28,2.3-.3,2.35-1.68s-1.29-1.11-2-1.47c-2.79-1.34-4.81-3.35-4.91-6.52s2.59-4.27,5-5.35a30.29,30.29,0,0,1,10.18-2.78c1.82-.13,3.5-.27,2.32-3-2.06-4.71,4.19-6.25,4.1-10.31-.08-3.8,2.56-5.9,8.62-6.71,1.38-.19,2-.49,2.39-1.88,1-3.41,4.06-5.7,4.83-9.51.57-2.83,4.1-2.81,6.74-2.72a55.11,55.11,0,0,1,5.81.79C140.46,15.45,145,13,152.21,17a86.27,86.27,0,0,1,7.16,5c.2-3.05.77-5.89,3.85-7,3.24-1.21,6.16,0,9,1.5,2.37,1.28,9.34-1,10.49-3.48,2-4.16,5.18-5.84,9.52-4.29,1.87.66,2.22.17,2.63-1.29a10.54,10.54,0,0,1,.89-2.17C197.16,2.64,198.47-.17,202,0s5.41,2.27,6.53,5.39c.79,2.2,2.79,3.55,4.53,4.64s4,1.56,5.86-.86a21.66,21.66,0,0,1,5.64-4.83c6-3.72,11.88-1.19,13.42,5.75,3-1,6.05-1.94,9.09-.65,3.7,1.58,3,4.74,2.26,8.12,4.62-.91,8.77-2.89,13.28-3.45a19,19,0,0,1,7.77.45c5.67,1.64,6.66,4.11,3.7,9.22,2.41.49,4.68-.42,7-.51a14.34,14.34,0,0,1,7.64,1.32c4.17,2.24,4.68,5.27,1.67,10.2,3.91.53,7.8,1,11.35,2.84,4.22,2.17,4.37,5.45.42,8-.85.55-2.54.53-1.52,2.36.9,1.59-1.31,4.22,2,5.15,2.75.78,5.31,2.08,8.25,2.38a10.29,10.29,0,0,1,6.39,2.73c1.64,1.63,2.76,3.58,2,6s-2.62,3.2-4.85,3.36c-1.8.12-3.61,0-5.83,0,4.6,1.64,9,2.82,12.68,5.58,5.47,4.1,5.71,6.9.91,11.71,2.59,2.91,6,5.77,3.73,10.19-2.44,4.8-6.45,1.94-10.1,1.71,1.72,1.08,3.43,2.17,5.16,3.23a17.51,17.51,0,0,1,5.65,5.38c3.53,5.44,1.73,9-5.15,9.58,3.58,3.82,7,7.49,10.48,11.19a27.37,27.37,0,0,1,5.59,8c1.12,2.7.82,5.18-1.76,7-2.41,1.67-4.69,1.15-6.86-.56-2.71-2.13-4.23-5.29-6.6-7.84-3.41,8.13-6.63,9-13.31,3.4,1.61,5.49,5.73,9.14,7.45,14,.46,1.31,1.48.52,2.33.46,1.86-.13,3.95-1.19,5.4.86a2,2,0,0,1-.15,1.83C322.46,155.53,320.32,154.69,317.79,154.16Zm41.23,289c4,1.48,8.16.47,12.12,1.63,2.89.84,4.66,2.5,4.8,5.44a6.07,6.07,0,0,1-4.25,6.37,15.23,15.23,0,0,1-7.39.49c-18.68-2.24-37.46-3.52-56.13-6-20.07-2.68-40.07-5.7-60-9.29-22.14-4-44.3-7.62-66.85-8.32a146.84,146.84,0,0,0-49.88,6.84c-2.47.79-3.16,1.7-2,4.17,2.14,4.63,4.18,9.32,6,14.1,1.32,3.54,3.49,4.88,7.2,4.39,15.46-2.05,30.51.43,45.35,4.49,16.91,4.63,31.52,13.92,46.08,23.29,18.6,11.95,38.3,21.6,59.61,27.67,23.82,6.78,47.93,11.79,72.93,10.67,13.8-.62,23.08-8.38,26.1-21.72,1.4-6.19,1.38-12.46,1.67-18.74.8-16.9-2.71-32.76-11.24-47.46-.75-1.29-1.54-2.12-3-1.95C373,440,365.78,440.33,359,443.14ZM234.93,507.55c-8.94-5.51-17.25-10.7-25.64-15.77a113.27,113.27,0,0,0-36-13.92c-10.86-2.22-21.92-1.38-32.85-2.43-8.8-.85-12.63-3.59-15.33-12-1.63-5.11-3.31-10.21-4.59-15.41a4.67,4.67,0,0,0-4.51-4c-3.12-.34-6.24-.72-9.37-.91-23.23-1.46-45.44,3.78-67.48,10.23-2,.59-2.6,1.46-2,3.69,8.33,28.68,22.24,54.2,43,75.77,6.48,6.74,13.81,12.48,23.53,14.07,7.42,1.2,14.63-.06,21.75-1.74a621.66,621.66,0,0,0,82.18-26C216.59,515.63,225.74,512.48,234.93,507.55Zm-57.24-261.5c-.11.89-.14,1.38-.24,1.85-.77,3.44-1.45,6.77,3.4,7.86,1.17.27,1.18,1.51.94,2.66-1,4.89-2.17,9.74-4.76,14.05-3.31,5.5-7.79,9.31-14.51,10.26-4.91.69-9.92.42-14.75,1.77-2.52.71-3.71,1.55-1.93,4.29,19,29.31,45.06,45.33,80.85,42.75,11.46-.83,19.93-6.53,25.22-16.82,3.13-6.09,5-12.62,7.08-19.1.91-2.87,1.28-5.26-.86-7.93a21.35,21.35,0,0,1-4.1-8.85c-.55-2.61-1.88-3.61-4.55-3.72a84.28,84.28,0,0,1-8.9-1.25c-18-2.76-34.68-9.27-50.76-17.57C185.08,253.86,182,249.59,177.69,246.05Zm-8.18-48.73c.49.78.91,1.58,1.44,2.29,8.55,11.33,20.47,18.45,32.16,25.87,2.21,1.4,2.81-.34,3.36-1.78,4.66-12.2,14.16-19.37,25.51-24.62,5.55-2.57,11.46-4,17.87-5.18-2.35-2.31-4.14-4.44-1.58-7s4.68-.91,6.85.85a19.76,19.76,0,0,0,6.18,3.33,5.74,5.74,0,0,0,7.08-7.27,13.73,13.73,0,0,0-4.09-5.64c-1.12-1-3.64-1.35-2.49-3.71,1-2,2.92-1.17,4.56-1,.5,0,1.05.25,1.37-.3-.36-4.09-.88-8.14.2-12.13.56-2.07-.33-3.2-2.1-3.36-5.19-.47-10.41-1.05-15.47,1.1-1.48.63-2,1.21-1.65,2.89a24.24,24.24,0,0,1-.05,10.14,29.83,29.83,0,0,1-37.19,22.36c-11.36-3-18.32-10.48-19.49-20.9-.22-1.94-5.41-9.21-7-10.17a5.93,5.93,0,0,0-2.89-1c-1.31,0-2.36.28-2.79,1.63-2.63,8.25-4.81,16.65-4.75,25.32C174.54,194.93,174.89,195.2,169.51,197.32ZM201,128.81c-.67,7.45-1.35,14.89-2,22.54a5.06,5.06,0,0,0,.84-.6c13.4-16.8,36.41-15,46.69,3.71,1,1.81,1.7,1.71,3.26.86,5.72-3.15,11.8-4.49,18.1-2.22,2.39.86,3.2-.46,4-1.87a28.67,28.67,0,0,1,10-10.81c1.81-1.15,1.55-1.89.17-3.17a19.36,19.36,0,0,1-4.29-7c-2.2-5.13-8.41-6.07-12.36-1.92a17.2,17.2,0,0,0-3.63,6.87c-.4,1.23-.69,2.83-2.23,2.9s-2.41-1.52-2.91-2.83c-2.1-5.38-.17-9.94,3.1-14.19,2.22-2.89,5.66-3.92,9.23-5.77-14-9.27-28.76-15.63-44.91-21.06,2.52,3.33,4.5,5.91,6.43,8.51,1.41,1.9,2.09,4.1,1,6.27s-3.32,2.74-5.69,2.7c-4.95-.1-8.49-2.79-11.91-6.76-.32,5.06,1.05,9.31,1.79,13.62.64,3.72,1.74,7.4.39,11.21-.67,1.9-1.75,3.42-3.86,3.31C208.12,132.93,203.79,133.24,201,128.81Zm52.45,79.61A46.22,46.22,0,0,0,240.09,210c-9.25,2.53-16.49,7.68-21.44,15.95-3.08,5.15-2.27,8.8,3,11.57a42.23,42.23,0,0,0,9.74,4c4.77,1.15,9.66,2.2,14.67,1.24a5.19,5.19,0,0,0,3.88-4c.54-1.93-1.83-1.6-3-2.18-.47-.23-1-.43-1.4-.7-1.22-.76-2.84-1.46-2.65-3.1.21-1.85,2.23-1.77,3.45-1.82,5.25-.24,10.33-1.4,15.47-2.35,2.88-.53,5.75.22,6.69,3.39.86,2.93,3,4.51,5.14,6.16,3.52,2.67,6.92,1.27,10.26-.44,3.17-1.63,5.49-4.19,4.81-7.8-1.39-7.36-4.22-14.21-11.23-18C270.68,208.28,263.09,208.54,253.4,208.42ZM218.7,189.9c14.07,0,24.57-9.28,25.21-22,.4-8,.4-7.9-7.56-7.52-2.2.1-3.53.46-4.09,3a12.75,12.75,0,0,1-4.48,6.76c-3,2.58-6.19,1.82-7.83-1.85-.91-2-.64-4.12-.48-6.17.12-1.6-.07-2.36-1.94-2.48a77.64,77.64,0,0,1-15.09-2.07c-1.29-.34-1.86.13-2.54,1.11-5.4,7.73-3.55,21.18,4.07,26.54C208.37,188.38,213.4,190.34,218.7,189.9Zm80.92-13.15c-.85-10.84-2.16-23-3.91-35.15-.41-2.86-2-2.48-4-1.87-9.38,2.94-15,9.7-18.25,18.54-5.5,15,3.46,27.22,19.51,26.89C299.42,185,299.79,184.64,299.62,176.75Zm-2.53,43.78c4.19-9.82,3.52-19.12,3.43-28.38,0-2.56-.77-3.15-3.19-2.58a26.32,26.32,0,0,1-20.27-3.42c-1.62-1-2-.21-2.25,1.23-.48,2.31-1.13,4.6-2.93,6.3-1.65,1.58-1,2.14.86,2.83a42.51,42.51,0,0,1,11.9,6.65C290.17,207.58,294,213.23,297.09,220.53Zm-86.32-66.08v.17l25.8-1.77c.92-.06,2.07.1,2.41-.89s-.79-1.55-1.4-2.17c-6.89-6.93-23.56-7.11-30.79-.24-1.34,1.27-4,2.49-3.12,4.43.59,1.34,3.34.33,5.12.46C209.45,154.49,210.11,154.45,210.77,154.45ZM137.1,185.17c-1.21,12.9-.94,13.3,11,16.43.38.1.78.09,1.16.19a2.41,2.41,0,0,1,2.11,2.05c.18,3.38,2.92,4.79,5.12,7.49-1.12-9,.28-17.08,1.09-25.23.09-1,.93-2.29-.57-2.64-3.84-.88-6-3.78-8.18-6.91a4.27,4.27,0,0,0,.51,4.41,51,51,0,0,1,2.84,5.11c.77,1.64,1.93,4,0,5-3.14,1.68-5,6.26-9.62,4.77a5.53,5.53,0,0,1-2.58-2.32C138.16,191,137.57,188.15,137.1,185.17Zm161.11,252c5.35.79,10,1.56,14.59,2.11s9.5.9,14.38,1.35C318,426.6,312.46,427.76,298.21,437.12ZM305,153.06c.93,8.74,1.8,17,2.74,25.86,6-5.93,6.49-12.72,6.29-19.72,0-.48,0-1.36-.64-1.16C308.92,159.52,307.71,155.41,305,153.06ZM194.24,158c-2.74-.73-4.43-2.89-6.55-4.32s-2-4.45-3.11-6.88c-1.07,3.23-2.09,6.18-3,9.16-.74,2.4.31,3.82,2.69,3.15C187.55,158.14,190.91,158.62,194.24,158Zm-31,27.36c.33-1.78.57-3.32.89-4.85.54-2.54,1.17-5.07,1.67-7.62.23-1.16-.13-2.19-1.51-2.22-1.53,0-.94,1.28-1,2.05-.19,1.93.5,4-.54,5.78C161.44,180.78,161.83,182.92,163.28,185.32Z"/><path d="M275.23,160.52a13.51,13.51,0,0,1,2.66-8.78c2.22-2.89,5.59-3,8-.27,3.93,4.35,3.85,14.71-.15,18.86a4.91,4.91,0,0,1-7.29-.11C275.81,167.54,275.16,164.14,275.23,160.52Z"/></g></g></g></svg>