<svg xmlns="http://www.w3.org/2000/svg" viewBox="0 0 339.04 536.22"><title>rosannaracanelli3</title><g id="Livello_2" data-name="Livello 2"><g id="Livello_1-2" data-name="Livello 1"><g id="bVc1Cj.tif"><path d="M104.1,92.11c-1.77,1.57-2.94,2.74-4.24,3.73-3.27,2.51-5.69,2.54-8.89-.16-1.1-.93-1.83-.71-2.91-.26-3.25,1.35-5.91.41-7.65-2.55-.67-1.15-1-1.23-2.19-.72-4.41,1.95-4.71,1.76-6.12-2.74a3.84,3.84,0,0,0-2.42-2.51c-4.55-1.65-5.79-3.24-5.18-7.85a5.12,5.12,0,0,0-1.41-4.72c-1.37-1.46-2.47-3.49-2.08-5.42.69-3.43-.26-6.54-.85-9.78a7.24,7.24,0,0,0-1.08-2.31c-1.6-2.9-2.29-5.85.42-8.46,2.08-2,1.21-3.68-.26-5.36-2.39-2.71-2.46-4.07.06-6.33a3,3,0,0,0,1.1-3.15,7.93,7.93,0,0,1,3.49-8.35c.44-.32,1.22-.66,1.24-1,.15-4.36,3.83-5.26,6.68-7,.46-.28,1.3-.62,1.29-.92C73,10.57,79,10.67,81.41,7.39c.28-.39,1.19-.84,1.42-.69,4,2.68,6.91-1.92,10.52-1.61,1.11.1,1.53-.52,2-1.29C97,1.42,99.28,1.28,102,.68c5-1.09,9-1.19,13,2.17.66.54,2.83-.62,4.25-1.12,3.28-1.16,5.89-.07,8,2.44a3.48,3.48,0,0,0,3.71,1.39,5.74,5.74,0,0,1,5.73,1.85c1.51,2,3.17,2,5.21,1.44a7.56,7.56,0,0,1,5.81.4c2.35,1.28,3.93,3.31,2.86,6-.79,1.94-.46,2.77,1.1,4,3,2.28,3.68,5.65,3.54,9.21-.06,1.48-.2,2.85,1.45,3.68a2.28,2.28,0,0,1,1,2c.07,1.7-5.09,9.35-6.81,10-7.16,2.77-13.43,6.65-17.47,13.67,1.08.08,1.59-.71,2.2-1.2A66.8,66.8,0,0,1,165.2,42.76a5,5,0,0,0,1.88-.55c6.86-5,14.44-4.82,22.19-3.08a11.42,11.42,0,0,0,5.53-.43c3.76-1,7-.35,9.7,2.52a4.91,4.91,0,0,0,4.42,1.58c4.63-.35,8.54,1.05,10.92,5.33a2.19,2.19,0,0,0,2.68,1.21c4.16-.64,7.35,1.08,9.62,4.46a6.61,6.61,0,0,0,4.85,3c4.19.63,6.83,2.66,8.73,6.92,1.64,3.66,3.32,8,7.75,9.89,3.37,1.4,3.25,5.95,6,7.46,3.16,1.77,5,3.81,5.25,7.33a1,1,0,0,0,.18.63c5.29,4.86,3.38,10.78,2.92,16.74a19.82,19.82,0,0,1-1.92,7.36c-3.5,7.13-1.88,14.79-2.27,22.18-.72,13.91.54,27.83.95,41.74.31,10.53-1.07,20.77-6.54,30-7.94,13.42-19.44,22-34.87,25.13-4.06.81-4.1.77-2.65,4.76a14.52,14.52,0,0,0,2.53,4.92,8.79,8.79,0,0,1,9.52-2.53c4.4,1.41,8,4,10,8.11,1.27,2.58,3.11,3.62,5.62,4.46,12,4.06,24.27,7.33,36.15,11.81a29.81,29.81,0,0,1,18.33,18.74c4.29,11.92,6.16,24.37,8.32,36.75,6.15,35.25,9.94,70.82,14.08,106.35,3.66,31.35,7.48,62.69,13.72,93.67.49,2.42.61,4.89-2.32,5.72-3.11.87-4.4-1.42-5.18-3.85-2.75-8.56-3.61-17.5-5-26.31-5.65-35-8.78-70.35-12.14-105.64-3.2-33.65-6.9-67.22-14.27-100.29-2.5-11.24-8.87-18.66-19.42-22.88-6-2.39-12.17-3.93-18.31-5.72A55,55,0,0,1,244.92,252c.92,19.64-1.66,38.92-2.33,58.27-.25,7.29-.86,14.56-1.31,21.84-.1,1.65,0,3.54-2,4.12s-3-1.05-3.91-2.41Q219.21,310.33,203,286.85c-.79-1.14-1.08-2.92-3.41-2.22-2.49.74-5.4.1-6,4-.91,5.81-.7,11.68-1.26,17.51q-3.9,40.41-6.56,80.93c-2.89,44.57-4.73,89.17-4.24,133.85,0,1.75.26,3.53-.48,5.23-.65,1.5-1.52,2.83-3.29,2.85s-2.94-1.25-3.64-2.9a7.87,7.87,0,0,1-.45-3.25c-.22-44.44.84-88.85,4.12-133.19,2.32-31.4,5.8-62.68,11-93.75a2.57,2.57,0,0,0-.31-2.46c-5.21,6.52-10.36,12.95-15.49,19.41-5.5,6.92-10.94,13.88-16.47,20.78-1,1.21-1.58,3-3.8,2.6s-3-1.8-3.71-3.7C142.73,316,138.38,298.91,133.2,282c-3.2-10.44-6.68-20.8-8.5-31.62-.2-1.18-.23-2.25-2-1.46-10.24,4.63-21.45,4.78-32.24,6.89-7.24,1.42-14.71,1.17-21.9,3.26-17.37,5.06-28.81,16.54-36.12,32.62C24.48,309.28,22.34,328,21.92,347c-.32,14.69-.48,29.38-3.4,43.87a52.06,52.06,0,0,1-4.12,12.2c-.92,1.94-1.32,4.95-5,3.85-1.18-.36-2.33,3.26-1.63,5,.56,1.42,1.77,2.18,2.87,3.12,8,6.84,14,15,16.16,25.51.31,1.48.7,3-1.16,3.59S23.5,443,23,441.86c-2.73-5.76-5.45-11.52-10.07-17.36-.29,4.23-.6,7.56-.74,10.9-1.05,26.28-3.57,52.47-4.93,78.74a23.05,23.05,0,0,1-1.12,7.17c-.53,1.38-1.12,2.78-2.93,2.61S.83,522.57.42,521c-1-3.78.06-7.49.37-11.2Q3.21,481,5.87,452.09c.75-8.14,1.68-16.26,2.65-24.37a7,7,0,0,0-1.74-6.06,14.57,14.57,0,0,1-3.27-6.44c-.8-3.24-1-6.85,1.63-9,4.92-4.12,5.23-9.69,5.91-15.21,2.11-17,2.59-34.14,4.08-51.2,1.53-17.4,3.52-34.73,10.6-51C35.43,266.54,52.9,255,76.66,252.5c12.27-1.31,24.72-1.15,36.71-4.66,1.59-.46,3.19-.91,4.73-1.51a9.75,9.75,0,0,0,5-4.24,40.08,40.08,0,0,1,12.1-12.53c3.89-2.53,8.43-1.07,11.08,3.19.81,1.3,1.37,2.75,2.26,4.54a33.55,33.55,0,0,0,9.05-16.49c.25-1.07.23-2.22.58-3.25.39-1.2-1-3.53,1.07-3.46s4.4,1.28,4.45,4.06a33.83,33.83,0,0,1-1.7,11,41,41,0,0,1-10,16.19c-1.48,1.51-1.62,2.32.12,3.85a264.65,264.65,0,0,0,38,27.64c1.62,1,3.06,1.5,4.89.49a3.78,3.78,0,0,1,2.86-.36c3.12,1.33,4.84-.46,6.81-2.39q9.39-9.14,19-18c1.75-1.61,1.71-2.44-.18-4-5.14-4.12-7.73-9.84-8.93-16.17-.4-2.09-1.3-3-3.41-3.21a58.16,58.16,0,0,1-17-3.82,25.7,25.7,0,0,1-7.67-4.52c-1.41-1.25-2.39-2.7-1.17-4.62s2.94-2,4.88-1.05a63.88,63.88,0,0,0,17.69,6.22c16.28,2.86,33.92-5,42.82-19.13a48.75,48.75,0,0,0,7.7-26c.12-11.49-.5-23,.51-34.46.38-4.29.5-8.59.91-12.88.33-3.54-.88-4.69-4.49-3.82-4.56,1.09-8.36,3.94-12.73,5.5-3.77,1.35-7.48,2.7-11.55,1.35-2.92-1-4.57-3.46-3.91-6.36s2.44-4.42,5.48-4.07a19.76,19.76,0,0,0,9.05-1.43c9.37-3.34,10.2-3.24,18.82,1.71.39-3.59,1.82-6.78-.86-10.32-3.11-4.1-5-9.15-8.21-13.16-4.73-5.91-9.18-12.46-17.35-14.33a3.58,3.58,0,0,1-1.53-.61c-3.65-3.12-7.7-3.66-12.34-2.6-1.76.4-3.42.52-4.67,1.93-3.22,3.61-8.05,4.43-12,6.77-3.61,2.15-7.09,4.46-10.54,6.81-6,4.07-12.94,6-19.36,9.13-7.56,3.66-15.69,5.73-23.72,8a2.66,2.66,0,0,0-2,2.27,25.44,25.44,0,0,0-.39,8.9c.56,5.63.45,11.26.55,16.89,0,3-.22,5.88-3.15,7.5s-5.74.22-8-1.51c-3.74-2.88-7.88-2.89-12-2-9.31,2-12.78,8.56-9.64,17.66,2.1,6.08,6.43,9.94,12.29,12.13a13.84,13.84,0,0,1,7.24,6,55.31,55.31,0,0,0,10.9,12.83,32.89,32.89,0,0,1,7.14,8.23c.68,1.19,1.89,2.48.54,3.87-1.15,1.18-2.49.38-3.68-.14-4.92-2.14-8.37-6.08-11.87-9.9-1.72-1.88-3.09-3.49-6.26-3a8.5,8.5,0,0,1-7.52-2.67,2.87,2.87,0,0,0-2.34-.92,3,3,0,0,1-3.06-2.12c-.69-2.73-3-3.93-4.68-5.75-2.44-2.64-5.57-5.11-6.8-8.28-1.55-4-2-8.13-5.23-11.59-1.24-1.35-2.93-4.64-2.43-6.61,1-3.81-.54-6-2.29-9.05-1.28-2.21-3.14-5.24-3.12-7.33,0-4.32-2.42-8.33-.74-13,1.24-3.4.66-7.48.83-11.26,0-1-.46-2.11-.12-2.91,1.63-3.77,1-8,2.58-11.75.37-.93.56-2.15,1.47-2.49C102.21,100,102.63,96.25,104.1,92.11Zm50,237.74c.86-1,1.31-1.42,1.71-1.93,11-14.07,22-28.17,33.15-42.17,1.66-2.09,1.63-3-.75-4.36a170.33,170.33,0,0,1-34.13-26,15.12,15.12,0,0,0-4.41-3.28c-6.16-2.82-7.13-6.78-3.21-11.84a1.8,1.8,0,0,0,.27-2.32c-2.55-4.75-6.18-5.2-9.71-1.25-5.44,6.11-7.8,12.29-5.64,21.11C137.3,282.17,146.64,305.4,154.07,329.85Zm81.8-4a12.33,12.33,0,0,0,.5-2c1-20.61,2-41.21,2.81-61.82.17-4.29-.56-8.61-3.19-12.3-2.45-3.43-5.75-4.54-9.72-3.22,1.82,2.08,4.41,3,6.49,4.54,1.64,1.25,2.79,2.56.63,4.5-9.26,8.34-18.41,16.81-27.75,25.05-1.94,1.71-1.65,2.65-.29,4.45,8,10.54,15.87,21.18,23.79,31.79Z"/><path d="M85.85,373.8c2.8-6.95,4.46-14.29,8.89-21.52-1,7.57-3,13.92-4.81,20.3-1.34,4.78-2.91,9.43-1.18,14.48.45,1.29.17,2.85.14,4.28,0,.9-.31,2.18-1.17,2.16-4-.09-3.2,3-3.63,5.22a768.29,768.29,0,0,0-11.62,78.6A420.56,420.56,0,0,0,70.78,526a16.77,16.77,0,0,1-1.6,8c-1.42,2.85-3.93,2.94-5.52.19a15.65,15.65,0,0,1-2-7.94c.14-36.2,2.7-72.18,10.7-107.6,1.45-6.45,2.58-13.05,5.24-19.13,4.25-9.73,4.57-19.61,2.37-29.8a60.81,60.81,0,0,1-.92-6.88c-.08-.82,0-1.95,1-2.13.92-.15,1.23.85,1.47,1.54,1,2.7,1.77,5.45,2.76,8.14C84.68,371.51,84.58,372.86,85.85,373.8Z"/><path d="M282.66,327.88c1.34,3.17.78,6.36,1,9.53,1.15-.06,1.24-1,1.79-1.49.39-.31.85-.52,1.16-.21a1.21,1.21,0,0,1,.23,1.16c-5.45,7.52-2.52,15.91-2.09,23.84,1.49,28,4.69,55.91,8.92,83.65q6,39.3,15.49,77.91c.84,3.42-.14,5.94-3,7.09-2.45,1-5-.21-5.25-2.77-1.1-10.45-4.08-20.53-6.12-30.79a724.69,724.69,0,0,1-12.4-93.51,638.1,638.1,0,0,1-.63-65.6C281.92,333.75,282.37,330.82,282.66,327.88Z"/><path d="M172,136.16a12.17,12.17,0,0,1,4.79-4.74c8.48-5.21,17.33-8.06,27.21-4.19,4.41,1.72,8.84,1.18,13.31.26,3.62-.75,6.38.71,7,3.61.74,3.51-1,6.08-4.85,6.9-5.59,1.2-11.39,1.68-16.54-.79-8.9-4.26-17.73-3.07-26.74-1.16C174.88,136.32,173.63,137,172,136.16Z"/><path d="M226.47,171.39c-2.73,0-6.46-1.75-9.75-4.48-1.38-1.15-2.06-2.59-.73-4.32s3.11-2.12,4.82-.64a20.13,20.13,0,0,0,5.68,3.33c2,.82,4.12.95,5.75-1a5,5,0,0,0,.3-6.39,13.62,13.62,0,0,0-3.68-3.77c-.83-.61-1.8-1.18-1.24-2.33s1.65-1.49,3.06-1.2c5.64,1.15,9.52,7.4,7.86,12.87C237,168.78,233.66,171.26,226.47,171.39Z"/><path d="M226,195.16c-7.21,0-13.27-5.79-12.82-12.22.06-.85-.12-1.93,1-2.19.91-.21,1.26.73,1.75,1.29a31.12,31.12,0,0,0,2.81,3.23,9,9,0,0,0,11.26.54c.81-.57,1.55-1.23,2.33-1.84,1.73-1.35,3.55-1.85,5.36-.21s1.45,3.56.46,5.42C236.31,192.73,231.26,195.17,226,195.16Z"/><path d="M202.41,146.83a11.1,11.1,0,0,1-1.24,6c-1.49,2.88-4.15,3.25-6.41.94-3.74-3.83-3.72-11.68,0-15.41,2.12-2.11,4.52-1.85,5.94.8A13.72,13.72,0,0,1,202.41,146.83Z"/><path d="M240.4,146.54a13,13,0,0,1,1.79-7.56c1.49-2.47,3.54-2.61,5.69-.54,3.78,3.64,4,11.16.37,15-2.63,2.83-4.9,2.52-6.71-.85A11.22,11.22,0,0,1,240.4,146.54Z"/><path d="M200,432.63c-.34,3.28-1,6.31-3.53,8.43-1.36,1.12-3.4,1.92-4.08-.25-1-3.32-2.6-6.87-.29-10.37,1.21-1.83,2.74-3.36,5.14-2.73C199.77,428.38,199.66,430.74,200,432.63Z"/><path d="M123.59,158.2a24.64,24.64,0,0,1,13.76,5.24,7.8,7.8,0,0,1,2.4,3.1c.58,1.4.7,2.88-.76,3.84s-2.72.4-3.84-.73a57.13,57.13,0,0,0-4.18-4.2,19.57,19.57,0,0,0-9.56-4.15c-1-.17-2.63,0-2.63-1.32s1.67-1.17,2.67-1.49A11.29,11.29,0,0,1,123.59,158.2Z"/><path d="M194.1,388.58c.08-1,.16-2,.23-3,.21-3,1.76-4.68,4.15-4.4a4.23,4.23,0,0,1,3.33,5.49,34.13,34.13,0,0,1-3.26,6.82c-.69,1.17-1.88.92-2.76-.11A6.2,6.2,0,0,1,194.1,388.58Z"/><path d="M202.25,333.27c-.1,1.83-.11,4.1-3.05,4.23-2.74.13-5.75-2.91-5.78-5.69,0-3,1.82-5.2,4.33-5.18C200,326.64,202.26,329.88,202.25,333.27Z"/><path d="M191.71,488.54a5.33,5.33,0,0,1,2.09-4.46c1.61-1.18,3.22-2.2,5-.8s1.77,3.44,1,5.41a10.52,10.52,0,0,1-4.36,4.82C193.41,494.89,191.63,492.89,191.71,488.54Z"/><path d="M193.48,526.42a4.57,4.57,0,0,1,4.43-4.39,5.17,5.17,0,0,1,4.54,4.85c0,2.65-2.38,5.29-4.85,5.35C195.58,532.28,193.45,529.28,193.48,526.42Z"/></g></g></g></svg>