<svg xmlns="http://www.w3.org/2000/svg" viewBox="0 0 309.08 473.18"><title>serenafalato</title><g id="Livello_2" data-name="Livello 2"><g id="Livello_1-2" data-name="Livello 1"><g id="BGuN12.tif"><path d="M265.61,307.62a12.34,12.34,0,0,1,1.07,4.87c.43,8.38.86,16.76,1.21,25.14.31,7.48.51,15,.77,22.44.13,3.45.54,3.82,3.73,2.81,6.73-2.13,13.42-4.39,20.13-6.58,1.11-.36,1.66-.85,1.28-2.17-5.46-18.63-7.1-38-11.72-56.84s-14.71-34.59-28.61-48c-7.95-7.67-16.65-14.44-25.12-21.49-1.41-1.18-1.84-1.06-2.23.78-4.4,20.81-20,35.16-41.92,38.57-28.56,4.44-60.3-15.34-68.66-42.82a5,5,0,0,1,0-1.21c1.58,1.07,2.86.27,4.23-.28,12.19-4.92,20.9-13.21,25.08-25.87.6-1.81,1.41-2,3.11-1.18,5.23,2.63,5.32,2.75,2.64,8-5.45,10.74-13.61,18.17-25.56,21-.4.09-.79.21-1.18.27-5.38.85-5.4.87-2.15,5.15,7.48,9.81,15.75,18.83,26.89,24.54,15.77,8.07,32,10.41,48.52,2.23a41,41,0,0,0,21-23.25c.55-1.5.48-1.94-1.27-2.7-6.52-2.84-10-8.57-12.67-14.81-.76-1.78-1.32-2.3-3.4-2.24a46.1,46.1,0,0,1-24.72-5.7,17.07,17.07,0,0,1-2.91-2.17c-1.24-1.1-1.88-2.42-.85-4s2.43-1.87,4.19-1.07c2.85,1.3,5.6,2.77,8.57,3.81,24.38,8.53,49.22-6.21,53.49-31.73a80.11,80.11,0,0,0,.64-14.51c-.22-16.08.36-32.11,2.84-48a3.19,3.19,0,0,0-.51-2.29c-3-4.9-5.53-10.2-9.11-14.64-4.28-5.29-8.45-11.14-15.87-12.68a2.87,2.87,0,0,1-1.38-.58c-3.69-3.74-8.18-2.48-12.53-2.07a2.59,2.59,0,0,0-1.36.55c-7.12,5.87-16.14,8.61-23.4,14.29-4.73,3.7-10.77,4.92-16.1,7.52-7,3.41-14.53,5.34-22,7.47a2.24,2.24,0,0,0-1.7,1.85,24.07,24.07,0,0,0-.39,8.45c.53,5.15.41,10.3.5,15.46,0,2.61-.24,5.18-2.7,6.66-2.67,1.61-5.26.42-7.32-1.18-3.5-2.72-7.36-2.78-11.24-1.92-8.52,1.89-11.61,7.91-8.7,16.23a17.63,17.63,0,0,0,11,10.94,13.57,13.57,0,0,1,7,5.87,49.07,49.07,0,0,0,9.6,11.28A30.92,30.92,0,0,1,143,190c.49.87,1.1,1.87.29,2.81s-2,.62-3.06.19c-4.89-1.95-8.2-5.83-11.59-9.56-1.48-1.61-2.71-2.7-5.25-2.46a8.26,8.26,0,0,1-7.17-2.53,2.68,2.68,0,0,0-2.17-.77,2.82,2.82,0,0,1-2.75-2,7.4,7.4,0,0,0-3.42-4.42c-2.81-2-4.14-5.12-6.6-7.37-1.91-1.75-1.16-4.38-1.32-6.78-.14-2-4.09-2.49-4.31-5.27a6.48,6.48,0,0,0-1.58-4.3c-.14-.14-.18-.37-.29-.53-1.49-2.1,2.37-4.23.19-6-2-1.65-2-4.16-3.07-5.77-2.26-3.27-2.15-6.65-2.82-10.12-.35-1.84-.7-3.34,0-5.18,1.28-3.31,1-7,.92-10.33-.12-3.88,1.11-7.39,1.55-11.09a8.7,8.7,0,0,1,4.8-7.08C96.79,90.59,97,87.5,98,84.8c-1.94,1.6-3.27,2.89-4.79,3.91-2.33,1.58-4.85,1.7-6.92-.35-1.2-1.18-2.13-1-3.43-.49a4.85,4.85,0,0,1-6.49-2.27c-.81-1.39-1.32-1.22-2.49-.65-3.42,1.66-4.31,1.22-5.22-2.48A3.43,3.43,0,0,0,66.37,80c-4.05-1.39-5.19-2.94-4.66-7.27a4.28,4.28,0,0,0-1.14-4.07c-1.38-1.37-2.43-3.32-2.07-5.21.89-4.66-.72-8.67-2.52-12.71a4.82,4.82,0,0,1,1-5.84c1.93-1.86,1.37-3.47-.17-5.14-2.18-2.38-2.19-3.62.19-5.78A2.81,2.81,0,0,0,57.94,31c-.47-3.05,1.09-5.14,2.9-7.54,2.46-3.27,4.73-6.43,8.62-8.09.38-.16.34-1.29.53-2a3.8,3.8,0,0,1,1.81-2.7A19.33,19.33,0,0,0,77.51,7c.27-.26.82-.56,1.08-.45,2.93,1.19,5.22-.08,7.89-1.21,1.71-.73,3.41-.94,4.51-2.67.39-.62,1.34-1.36,2-1.28C96.2,1.76,99.1.1,102.24,0a2.67,2.67,0,0,1,2,.65c2.29,3.06,5.09,2.32,8,1.28s5,.11,6.74,2.15a3.48,3.48,0,0,0,3.64,1.43,5.22,5.22,0,0,1,5.22,1.75c1.29,1.71,2.7,1.81,4.49,1.32,2.23-.62,4.43-.63,6.38.83,1.46,1.09,2.62,2.72,1.89,4.42-1,2.19-.34,3.26,1.37,4.64,2.37,1.91,2.77,4.8,2.79,7.72,0,1-.57,2.22.42,2.85,2.8,1.76,1.41,3.51.47,5.65a13,13,0,0,1-8.24,7.65c-5.57,1.88-9.42,6-12.69,10.86,1,.23,1.43-.49,1.91-.89A61.57,61.57,0,0,1,154,39.56a4.52,4.52,0,0,0,1.71-.54c6.18-4.47,13-4.37,20-2.83a12.33,12.33,0,0,0,5.65-.44c3.21-.73,6.07-.19,8.35,2.25A4.83,4.83,0,0,0,194,39.61c4.26-.35,7.81,1,10,4.93.63,1.15,1.39,1.19,2.49,1A8.38,8.38,0,0,1,215,49.48a6.71,6.71,0,0,0,5,3c3.6.58,5.88,2.42,7.54,6.06,1.55,3.37,3,7.34,7,9.13,3,1.37,3.16,5.41,5.46,6.84,2.88,1.78,4.75,3.54,5,6.9a1,1,0,0,0,.18.57c4.85,4.34,2.85,9.72,2.71,15-.1,3.86-2.07,6.76-3,10.14a10.07,10.07,0,0,0-.53,2.33c-.55,15.77-.6,31.54.38,47.31.68,10.79.35,21.5-4.82,31.37a46.31,46.31,0,0,1-27.7,23.47c-2.54.81-2.95,1.63-1.52,3.89,2.23,3.54,4.71,6.82,8.29,9.1.45.29,1,1.31,1.7.22,1.75-2.69,4.06-1.68,6.2-.8a78.59,78.59,0,0,1,12.17,6.76c18,11.42,32.87,25.8,42.51,45.12,5.66,11.34,8.4,23.52,10.74,35.85,2.28,12,3.71,24.17,7.23,35.91.81,2.71,1.84,5.34,2.74,8,1.2,3.56.49,5-2.83,6.47-2.54,1.12-6.19.95-7.36,3.59-1.05,2.37.58,5.3,1.06,8q7.91,43.51,15.94,87c.51,2.8-.78,5.63-2.73,6-2.13.43-4.7-1.66-5.22-4.46-3.35-18.34-6.85-36.66-8.57-55.26-1.14-12.26-2.36-24.51-3.06-36.81-.22-3.84-.44-3.75-4.14-2.77-4.82,1.28-9.06,4.49-14.39,4.16-1.51-.09-1.06,1.5-1,2.39.41,5.73.72,11.48,1.39,17.19,1.34,11.52,2.81,23,4.63,34.47,1.74,11,3.57,21.89,5.81,32.75a17.89,17.89,0,0,1,.4,3c.08,2.07-.46,4.08-2.71,4.51-2.41.45-3.8-1.37-4.32-3.4-1-4-1.75-8.07-2.5-12.14-3.17-17.27-5.62-34.65-7.17-52.14-1.91-21.56-3.07-43.17-2.41-64.83A150.14,150.14,0,0,1,265.61,307.62Z"/><path d="M117.68,220.47c-4.56,1.28-8.79,2.44-13,3.66-26.58,7.73-46.6,24.55-62.89,46.18C24.72,293,13.38,318.36,6.71,345.9c-.51,2.09-.24,3.15,1.91,4.21,11.13,5.49,22,11.54,33.93,15.26a93,93,0,0,0,22.77,4.55c1.83.09,2.7-.31,2.93-2.35.76-6.81,1.47-13.64,3.34-20.28.22-.76.17-1.64,1.17-2,.9,1.07.88,2.4,1,3.65,1,13.56-.19,27.08-.8,40.6-.39,8.68-1,17.35-1.52,26Q69.86,441.25,68.24,467c-.1,1.57,0,3.36-1.11,4.63a3.71,3.71,0,0,1-4,1.42c-1.86-.62-3.13-1.88-3-4,.27-5,.5-10.08.87-15.12.68-9.06,1.42-18.11,2.17-27.16q1.41-16.74,2.88-33.48.65-7.38,1.32-14.77c.12-1.33-.28-2-1.79-2.13-15.81-.89-30.32-6.28-44.46-12.93-3.2-1.51-3.32-1.38-3.63,2.16-1.13,12.56-2.44,25.11-3.5,37.67-.79,9.46-1.41,18.93-1.93,28.41s-.75,19.19-1.22,28.78c-.16,3.21-2,5.08-4.49,5s-4.2-2.09-4.18-5.37c.05-5.86.26-11.73.56-17.58a533,533,0,0,1,8.43-71.91c.54-2.87,1.38-5.69,2.2-8.49.5-1.72.25-2.8-1.57-3.57a79.12,79.12,0,0,1-7.31-3.66c-4-2.2-5.11-4.69-4-9.07C7,318.9,17.85,294,34,271.42c11.64-16.31,25.2-30.57,42.58-40.84,10.56-6.25,21.84-10.44,34.24-11.07C113,219.4,115.23,219.27,117.68,220.47Z"/><path d="M189.74,113.62c-.07,2.27-1.45,3.49-3.46,4-2.23.59-4.6.75-6.76,1.5a21.61,21.61,0,0,0-10.94,8.22c-.52.75-.74,2.17-2.11,1.72s-1.5-1.81-1.37-3a16.5,16.5,0,0,1,5.44-10.14c4-3.77,8.5-6.5,14.19-6.47C187.63,109.44,189.74,111.35,189.74,113.62Z"/><path d="M206.8,182.63c-6.69,0-13.21-4.91-14.59-11-.25-1.09-.68-2.29.46-3,1.43-.93,2.17.4,3,1.2,1.16,1.12,2.23,2.34,3.43,3.41,4.45,3.94,10,3.86,14.44-.14,1.19-1.08,2.31-2.41,4.14-2.06a3.75,3.75,0,0,1,2.75,2.59c.58,1.54-.11,2.71-1.11,3.79A18.91,18.91,0,0,1,206.8,182.63Z"/><path d="M218.86,108.2c7.17.13,15.74,7.09,17.16,14a6,6,0,0,1,.24,2.08c-.25,1.45-.07,3.55-1.7,3.9-1.91.41-1.7-1.83-2.19-3-2.34-5.67-7.48-6.84-12.64-8-.79-.18-1.6-.23-2.36-.48-2.47-.81-4.15-2.45-3.61-5.15S216.42,108.17,218.86,108.2Z"/><path d="M212,160.62a18.43,18.43,0,0,1-11-4.2c-1.51-1.18-1.56-2.74-.43-4.27s2.54-1.44,4-.5c1.84,1.19,3.5,2.63,5.65,3.4a4.2,4.2,0,0,0,5.14-1.24,4.4,4.4,0,0,0,.2-5.58,11,11,0,0,0-3.31-3.48c-.88-.54-1.7-1.25-1.06-2.46s1.55-1,2.62-.76a9.46,9.46,0,0,1,7.46,10.24A9.73,9.73,0,0,1,212,160.62Z"/><path d="M171.66,141.28c.69-4.12,2.38-8,6.16-10.37,3.06-1.94,6.4-1.48,9.41.41,2.37,1.48,3.84,3.82,5.15,6.22.83,1.52.64,3-1,3.92s-3.27.95-4.54-.74a9.16,9.16,0,0,1-.63-1c-1.15-1.92-2.23-4.19-4.92-3.77s-4.18,2.54-5.07,5a5.14,5.14,0,0,0-.41,1.13c-.17,1.55-.35,3.46-2.34,3.19C171.7,145,171.85,143,171.66,141.28Z"/><path d="M225.43,129.4c3.94-.58,7.25,3.28,8.18,6.35a2.84,2.84,0,0,1-1.34,3.64c-1.62.84-2.91,0-3.85-1.37-3-4.43-3.75-4.49-7.26-.66-.63.69-1.21,1.9-2.44,1.18a2.93,2.93,0,0,1-1.29-3.43C218.08,132.08,221.85,129.4,225.43,129.4Z"/><path d="M111.21,146.87a4.91,4.91,0,0,1,4.35-1.56,20.44,20.44,0,0,1,13.21,5.1,8.2,8.2,0,0,1,1.89,2.68,2.47,2.47,0,0,1-4,2.87c-.65-.63-1.28-1.28-1.88-2a18.14,18.14,0,0,0-10.61-5.88C113.11,147.91,111.94,148.05,111.21,146.87Z"/></g></g></g></svg>