<svg xmlns="http://www.w3.org/2000/svg" viewBox="0 0 304.87 427.1"><title>simone</title><g id="Livello_2" data-name="Livello 2"><g id="Livello_1-2" data-name="Livello 1"><g id="_2Ptxha.tif" data-name="2Ptxha.tif"><path d="M139.53,165c1.45-.14,1.83,1.54,3.43,1.8.32-3.16.61-6.35,1-9.54.15-1.24-.46-1.65-1.5-2a5,5,0,0,1-2.51-1.34c-5.46-7.77-13.2-5.56-20.56-4.68A69.28,69.28,0,0,0,111,151.2c-5,1.27-8.61,4.14-10.42,9.09-.38,1-.88,2-1.29,3-2.57,6.52-7.48,9.47-14.36,9.69-10.38.34-17.28,5.78-20.06,15.76a35.07,35.07,0,0,0-1,14.31c.19,1.38.36,2.73,1.86,3.42s2.58-.27,3.59-1.23a140.86,140.86,0,0,1,37.86-25.44,11.18,11.18,0,0,0,2.25-1.68c2.86-2.38,5.78-2.65,9.29-.68,9.61,5.39,17.13,13.32,25.48,20.25,6,5,12.21,9.37,19.71,11.73a11.47,11.47,0,0,1,3.3,1.65c1.25.93,2.16,2.24,1.69,3.92s-2,2.56-3.74,2.72a14.52,14.52,0,0,1-6.39-1.39c-8.92-3.4-16.25-9.2-23.13-15.59-6.66-6.18-13.17-12.52-19.62-18.92-1.87-1.86-3.25-2-5.6-.64C75.76,201,51.08,229.89,33.14,265,26,279,23.61,294.26,23,309.71c-.89,22.41-5,44.2-10.49,65.84-3.65,14.39-5.12,29-2.78,43.76.43,2.72.25,4.94-3,5.67s-4.39-1.44-5-4c-2.92-12.05-1.66-24,.64-36,2.79-14.58,7.33-28.76,9.93-43.4A273.48,273.48,0,0,0,15.85,308,122.67,122.67,0,0,1,37.63,243.6c7-10.22,14.2-20.29,22.75-29.31,1.44-1.52,3.14-2.91-.05-4.52-1.2-.6-1.79-2.12-2-3.48-2.18-11.68-.6-22.53,7.69-31.61a22.35,22.35,0,0,1,18.48-7.53c4.55.26,7.93-1.36,9.29-5.81,3.74-12.16,13.12-16.18,24.55-17.3,3.55-.35,7.12-.48,11.26-.74-.78-1.58-.9-2.92-3.35-2.12-3.75,1.22-7.14.43-9.29-3.21-.82-1.38-1.64-1.28-3-1-3.85.87-6.06-1.52-5.09-5.36a18.11,18.11,0,0,1,1.46-3.83c.74-1.44.44-2.35-.63-3.6-8.75-10.2-9.7-21.73-2.75-32.9a3.28,3.28,0,0,0,.19-3c-5.45-20.47-3.4-40.05,7.23-58.52a4.28,4.28,0,0,0,.15-4.81c-1.76-3.35-1.76-6.73,2-8.92,1.24-.73,1.18-1.59,1.25-2.7.36-5.57,4.57-8,8.91-4.72,2.34,1.76,3.79,1.33,6.12.24,11.61-5.45,24.07-7.64,36.75-8.5,11.43-.78,22.95-.44,34,2.44,6.73,1.75,13.41,2.15,20.2,2.55,2.49.15,5.25.29,5,4-.1,1.25.41,1.38,1.4,1.21a5.22,5.22,0,0,1,4,.78c3.59,2.6,2.76,7.62,6.91,10.79s.29,8.61-2.68,12.3c-1.21,1.51-.45,3.53-1.23,4.46-3.4,4.06-2.94,8.77-3.37,13.48-.13,1.35-.72,2.69-.25,4.13a75.59,75.59,0,0,1,3.36,14.45c.72,6.13,4.09,10.13,9.53,12.72,4.4,2.1,4.76,5.11.87,8.12-1.88,1.45-2.64,3.24-3.45,5.36-2.38,6.25-5.64,12.21-4.84,19.27.12,1.06-.16,2.14.24,3.24,6.08,16.64.91,30.1-11.78,41.41a12.23,12.23,0,0,1-1.86,1.11c6.25,4.19,11.52,8.93,12.7,15.68s5.27,9.56,10.17,13c13,9.05,21.56,21.79,27.93,36.11,8.08,18.19,11.36,37.48,13.25,57.12,2.49,25.87,2.53,52,7.33,77.61,2.36,12.55,5.57,24.95,7,37.66.61,5.32.87,10.7,1,16.05.06,2.66-.94,4.77-4.37,4.72s-4.37-2.06-4.48-4.71c-.74-18.23-4.91-35.94-7.9-53.83-2.55-15.22-3.68-30.58-4.54-46-1.47-26.51-2.51-53.09-11.54-78.48C265.62,219,256.11,203,241.8,190c-1.52-1.37-2.69-2.9-5.52-2.48s-3.39-2.68-3.64-5c-.56-5.3-3.11-9.54-6.46-13.53-2.6-3.1-5-4-8.67-1.54-2.42,1.63-6,2.06-2.29,6,1.2,1.27.18,3.16-.72,4.6A108.3,108.3,0,0,1,189.65,206c-4.23,3.31-9,3.77-13.42.63-14.15-10.06-26.54-21.86-35.28-37.09a29.38,29.38,0,0,1-1.66-3.76C139.21,165.57,139.43,165.27,139.53,165ZM118.4,97.41c1.18.74,2.23,1.32,3.21,2a38.2,38.2,0,0,1,3.23,2.56c2.93,2.62,3.5,5.34,1.3,7-2.88,2.14-4.8.16-6.54-1.93-1.22-1.48-2.41-4.35-3.51-4.31-4.55.2-3.65-2-2.09-4.79-2.07.56-3.51,1.11-4.19,2.6-2,4.5,1.52,17.45,6.22,18.93,5.62,1.78,8.65,5.2,11.88,9.74a100.32,100.32,0,0,0,16.65,17.71c2,1.73,3.79,3.73,2.73,6.77-.59,1.68.73,2.33,1.76,2.8,4.38,2,3.68,4.6,1.24,7.66-1.52,1.91-4.23,4.15-4,5.87.33,2.14,3.11,3.94,4.93,5.8,8.39,8.57,17.12,16.75,27,23.58,2,1.4,4.18,3.09,6.68,1a107.49,107.49,0,0,0,20.49-22.51c1.05-1.54.17-2.9-.39-4.27-.74-1.82-2.09-.64-3.19-.55-1.77.14-3.54.47-5.32.54-13.28.59-25.45-1.94-34.65-12.59-.93-1.08-2-2.11-2-3.72.57-.09.88-.24,1.08-.15a18.61,18.61,0,0,1,1.82,1c19.2,11.13,38.23,10.15,56.92-1.15,10.23-6.19,17.45-21.15,11.81-34.58-.84-2-1.5-4.06-.44-6.36.64-1.4-.22-2.6-1.85-2.21A14.07,14.07,0,0,1,219,112.28c-1.19-.64-1.9-.32-2.64.89-4.49,7.38-12.22,8.55-18.86,3-1.58-1.33-2.28-2.79-1-4.62s2.77-2,4.6-.72a24.28,24.28,0,0,0,4.17,2.62c2,.88,4.17,1.22,5.57-.87s.95-4.17-.83-5.94a22,22,0,0,0-1.85-1.63c-2.12-1.67-2.92-3.19.43-4.29.77-.25,1-.67,1-1.5.08-4.16-2.86-6.45-6.8-5a9.37,9.37,0,0,0-6.31,7.5c-1.66,9-9.43,15.53-18.93,16.12-10.49.65-17.6-3.9-20.66-13.28a9.23,9.23,0,0,0-3-4c-4.26-4-9.3-3.15-14.25-3.32a5.18,5.18,0,0,0-4.34,1.68c-2.57,2.62-7.4,3.1-9.32.72C123.79,97,121.44,96.93,118.4,97.41Zm52.5-54c-1.26,2-2.24,3.82-3.46,5.46-1.57,2.08-3.89,3.18-6.07,1.5s-2.64-.79-3.51,1c-3.45,7.09-8.09,13.41-12.93,19.59-1.48,1.89-3,4.06-5.56,1.38-.83-.85-1.2-.23-1.5.38-2.53,5-6.3,9.66-3.47,16,1,2.18,1.93,3.41,4.28,3.64,7.5.72,14.59.48,19.75-6.31a22,22,0,0,1,5-4.27c8.43-6,20.47-7,26.26-.42,4.79,5.45,9.68,5.58,15.72,5.41,3.1-.09,5-.78,6.69-3.48,3.41-5.58,8.56-9.09,15.07-9.63,3.68-.31,3.58-2.09,3.16-4.6-1-6.09-2.25-12.16-3-18.28-.32-2.58-1.48-3.21-3.7-3.27-4.45-.1-8.87-.8-12.69-3.07-3.38-2-4-.74-4.34,2.42-.54,4.5-2,5.17-6,3.08-2.8-1.46-5.54-3.07-8.23-4.72-5.84-3.59-5.82-3.62-7.46,3-.94,3.76-2,4.27-5.45,2.33C176.32,48.7,173.82,46.13,170.9,43.37Zm20,54.1c0-.55,0-1.1,0-1.65-.1-1.45.28-3.18-1.88-3.53-2-.31-2.91.67-3.54,2.54A12.46,12.46,0,0,1,183,98.52c-1.19,1.41-2.65,2.52-4.65,1.84a4.27,4.27,0,0,1-3-4.49c.25-3.94-1.82-4.64-5.05-4.49a14.39,14.39,0,0,1-4.06-.54,2.7,2.7,0,0,0-3.36,1.68c-1.36,3.29-2.57,6.64-1.56,10.35a14.42,14.42,0,0,0,15.08,10.18C185,112.05,190.81,105.81,190.89,97.47Zm25.22-5.38c-2,8,1,14.32,7.55,16.41,4.92,1.58,8.49-.82,8.52-5.84,0-6.06.06-12.12-.1-18.17-.12-4.66-1.93-5.88-6.39-4.53a5.62,5.62,0,0,0-3.83,2.82c5.17,3.79,6.79,10.08,3.93,15.09-2.1,3.68-6,3.69-8.17,0C216.53,96.09,216.44,94,216.11,92.09ZM184.9,86.42a10.39,10.39,0,0,0-13.4,0Z"/><path d="M184.32,214.11c.66,7.06,1.44,14.12,2,21.19,2.42,33,1.55,66,2.11,99,0,1.24.11,2.49,0,3.72-.22,2.55.76,3.26,3.35,3,8.08-.67,16.19-1.07,24.29-1.54,2.07-.13,4.68-.35,4.8,2.46s-2.41,2.89-4.52,3c-8,.28-15.94.65-23.92.72-2.91,0-4.17.7-4.19,3.88-.19,22.85-1.57,45.65-2.76,68.46a52.76,52.76,0,0,1-.65,6.15c-.18,1.05.56,3-1.21,2.91-1.48-.09-1.06-2-1.14-3.14-1.49-21-2.61-42-3-63.07-.08-4-.29-8-.31-12,0-2.11-.87-2.88-3-2.87q-19.2.09-38.39,0c-1.74,0-2.9.25-2.63,2.51,1.91,15.71-4.12,29-14.66,39.65-7.83,7.93-9.89,17.35-11.84,27.32a65.33,65.33,0,0,1-1.93,8c-.75,2.29-2.57,3.86-5,3.29s-4.48-2.57-3.82-5.45c2.13-9.35,3.55-18.9,7.24-27.83,1.29-3.15,4.14-5.1,6.58-7.3A66.93,66.93,0,0,0,128.31,364a46.06,46.06,0,0,0,4.05-15.47c.2-2.55,1.17-3.66,3.75-3.81,12.9-.77,25.79-1.78,38.7-2.41,3.22-.15,4.14-1,4.16-4.28q.19-38,.75-76c.24-15.69,1.46-31.32,3.19-46.91a3.7,3.7,0,0,1,.45-1.05Z"/><path d="M263.68,233.14c0,12.92-.12,25.84,0,38.75.23,20.37,1,40.71,4.34,60.86,2.76,16.54,7,32.76,10.29,49.19a204.7,204.7,0,0,1,3.44,26.55,12,12,0,0,1-.26,3.27c-.45,2.17-1.51,4-4,4.07s-4.05-1.42-4.68-3.79a16.46,16.46,0,0,1-.6-3.25c-1.1-20.12-5.59-39.69-9.71-59.32a222.28,222.28,0,0,1-4.05-64c1.26-15.63,1.86-31.31,2.79-47,.11-1.84,0-3.76.8-5.46Z"/><path d="M81.91,339.06c-1.65,26.62-3.16,51.05-4.69,75.49-.11,1.78-.31,3.56-.53,5.33-.38,3.13-1.7,6.08-5.16,5.78-3.62-.32-4.52-3.51-4.35-6.79.24-4.67.53-9.34.83-14q2.22-34.17,4.47-68.34a224.48,224.48,0,0,0-1.15-39.14c-.13-1.2-1.33-3.11.37-3.65,1.9-.61,2.2,1.71,2.83,2.9a56,56,0,0,1,6.66,21.95C81.79,326.1,82.64,333.67,81.91,339.06Z"/><path d="M223.54,342.76c6.88,11.56,15.78,20.07,25.16,28.19,4.77,4.13,5.92,10.11,6.84,16,1.17,7.46,2,15,3,22.46a11.82,11.82,0,0,1,.17,2.05c-.12,2.81-1,5.49-4.09,5.78s-4.33-2.32-4.69-4.82c-.78-5.44-1.16-10.94-1.74-16.4-.3-2.87-.77-5.72-1-8.59a20.59,20.59,0,0,0-7.26-14.28c-7.5-6.58-12.42-15-15.87-24.24C223.44,347.29,222.48,345.7,223.54,342.76Z"/><path d="M203.46,149.48c-3.34,0-6.55-.52-9.37-2.47-.78-.54-1.65-1.09-1.37-2.26.24-1,1.16-1.13,1.92-1.26,4.29-.74,8.57-1.58,12.89-2,2.1-.22,4.2.57,4.54,3.15s-1.37,4.06-3.71,4.55A31.85,31.85,0,0,1,203.46,149.48Z"/><path d="M202.28,70.48c.06-5.89,3.66-10.18,9.48-11.52,5-1.15,11.85,1.74,13.8,6,1,2.2,1.42,4.74-1,6.25-2,1.25-4.43,1-5.75-1.26-3.24-5.51-9.36-3-10.88,1.73-.13.39-.29.77-.44,1.15-.53,1.36-.72,3.27-2.77,2.91s-2.27-2.11-2.35-3.83C202.34,71.32,202.3,70.78,202.28,70.48Z"/></g></g></g></svg>