<svg xmlns="http://www.w3.org/2000/svg" viewBox="0 0 416.95 579.02"><title>tommasodesanto</title><g id="Livello_2" data-name="Livello 2"><g id="Livello_1-2" data-name="Livello 1"><g id="yLNi99.tif"><path d="M86.09,284c-5.12-2.26-6.63-6.47-7.07-11.43-1.12-12.64.39-24.68,8.17-35.21,6.86-9.3,16.1-14.35,27.72-13.72,7,.38,11.63-2.54,13.69-8.75,5.24-15.78,17.24-21.44,32.47-23a152.1,152.1,0,0,1,18.87-.74c-2.57-3.55-5.1-6.52-6.77-10-.42-.86-1.1-1-2-.54a4.08,4.08,0,0,1-1.85.6c-4.3-.2-8.2-2.16-12.11-3.54-2.8-1-2-4.51-.34-6.86,1.43-2,1.29-2.71-1.27-3.58-8.85-3-13.87-12.06-13.12-22.8a46.86,46.86,0,0,1,4-16.77c1.92-4.08-1.53-5.6-2.85-8.13-.49-.94-1.37.07-1.95.41-2.7,1.61-3,4.17-2.43,6.89.39,2,.34,3.78-2,4.38-2.19.56-2.95-1.2-3.72-2.73-3.44-6.77-2-12.37,4.44-16.08,2-1.12,2.31-2,2-4.23-3-20.35.84-39.41,11.16-57.18,1.12-1.92,2.23-3.35.2-5.72s-.76-5.06,1.51-6.88a4.8,4.8,0,0,0,2-4.25c0-3.76,3.36-6.49,7.88-5.4,5,1.2,8-1,11.52-3.64,9.64-7.21,20.59-12.08,32-15.86C222.69,3.77,239.46-.31,257.07,0c7.8.15,14.94,2.4,22,5.08,12,4.56,24,9.14,37,10.45,4.71.47,5.57,1.72,4.91,6.31-.2,1.33.32,1.17,1.08,1.31,3,.57,4.12,2.53,3.9,5.42-.09,1.2-.2,2.22,1.42,2.72,3.34,1.05,4,4,4.07,6.94.06,5.35-.95,10.51-4.15,14.92-1.24,1.7-1.13,2.74.07,4.4,4.39,6.07,5.58,12.92,4.11,20.21-.52,2.6-1.41,5.36-4,6.42-2.12.85-2.37,2-2.08,3.87a19.36,19.36,0,0,1,.49,3.9c-.12,2.52,1.08,3,3.35,3a49.91,49.91,0,0,1,12.43,1.75c1.83.43,3.68.82,4.09,3.07a4.39,4.39,0,0,1-2,4.77c-2.07,1.38-2.14,3.53-2.74,5.73-2.87,10.57-1.36,22.48-8.68,31.64-3,3.76-3.54,7.48-3.47,11.91.24,14.57-1.2,28.86-8.38,42a56.16,56.16,0,0,1-13.9,17c-1.86,1.51-2,2.25.36,3.42,9.74,4.93,16.14,12.79,19.62,23.09.46,1.36,1.22,2.87,1,4.16-.8,4.62,2.08,6.21,5.45,8.1,16.42,9.21,28,23.18,37.43,39.1,12.58,21.23,18.9,44.56,22.66,68.71,3.81,24.44,4.93,49.12,6.4,73.76a521.94,521.94,0,0,0,12.1,84.08c3.29,14.61,5.65,29.4,5.36,44.48,0,1.69.2,3.47-.68,5a5.39,5.39,0,0,1-5.95,2.91,5.53,5.53,0,0,1-4.79-5.46c-.74-9-1.27-18.09-2.76-27-3-18-6.16-36-9.17-54-3.29-19.74-4.24-39.69-5.39-59.62-1.54-26.88-2.61-53.83-8.73-80.19-6.82-29.41-18.24-56.68-38.84-79.38-3.26-3.6-6.82-6.93-10.32-10.31-1.81-1.75-3.36-3.41-6.67-2.64-3,.7-4.53-2.17-4.77-5-1-11.49-7.33-19.63-16.11-26.36-2-1.5-3.63-1.76-5.6-.15a14.29,14.29,0,0,1-2.73,1.55c-5,2.56-5.58,4.64-1.83,8.8,2.52,2.8,2.42,5.34.65,8.18A146.18,146.18,0,0,1,260,275.59c-5.86,4.65-12.4,6.07-18.89,1.36-19.74-14.31-37.21-30.81-49-52.57-.57-1.06-1.63-2.12-.91-4.08l4.61,4.4a24.53,24.53,0,0,0-8.29-26.29,4.1,4.1,0,0,0-2.5-1c-12.12-.14-24.12.58-35.73,4.58a18.76,18.76,0,0,0-11.74,10.87c-1.24,2.89-2.48,5.8-4,8.56-3.18,5.92-8.22,8.88-15,9.3C95.35,232.21,81.73,251,87,274.08a5.26,5.26,0,0,0,3.64,4.12c2,.78,2.54-1,3.42-1.8a192.87,192.87,0,0,1,52-35.09,8.66,8.66,0,0,0,4-2.86c1.58-2.29,7-3.15,10.74-1.21,14,7.23,24.53,18.8,36.52,28.56,8.28,6.75,16.88,12.89,27.3,16.08,4.49,1.37,6.76,4.47,6,7.14-.89,2.92-4.68,4.16-9.22,2.79-13.82-4.16-25-12.58-35.31-22.29Q172.16,256.41,158.56,243c-2.4-2.35-4.29-2.67-7.39-.89a253,253,0,0,0-84.62,78.8c-8.88,13.18-17.46,26.53-23.83,41.18a129.33,129.33,0,0,0-10.65,45,516.32,516.32,0,0,1-16,104.5C11.23,530,9.66,548.8,12.91,567.79c.14.78.11,1.58.23,2.36.48,3.22-.68,5.43-4,6.14s-5.33-1-6.29-4A58.45,58.45,0,0,1,.21,557.65c-1-17,2-33.47,6-49.85,4.68-19.38,10.36-38.55,12.54-58.44,1.39-12.66,2.61-25.34,3.44-38.05C24.21,380.09,34.76,352,52.5,326.4,62.76,311.59,73.42,297.12,86.09,284ZM289.82,133.17c-3.16-4.32-4.64-8.36-4.41-13.06.25-5-.88-5.76-5.7-4a18.54,18.54,0,0,0-3.69,2.2c-3.8,2.55-4.17,6.68-5,10.66-1.74,8.32-4.36,16.35-11.37,21.81-17.17,13.36-43,4.16-48-17-.9-3.82-1.69-7.34-3.88-11-4.95-8.26-12.15-10.54-20.8-10.89-1.8-.08-2.46.7-2.74,2.49a96.11,96.11,0,0,0-.69,12.57c-.07,2.82.54,6.28-2.87,7.51-3.08,1.11-4.66-1.9-6.32-3.74-2.57-2.85-5.15-5.53-8.75-7.15-5.85-2.65-9.32-1.39-11.25,4.66a66.53,66.53,0,0,0-2.93,11.8c-.69,5.47-.82,11,2.94,15.81,3.09,3.94,7.18,3.39,11.45,3.1,3.06-.2,5.27,1.22,4,4.86-.6,1.65.12,2.44,1.27,3.25a5.77,5.77,0,0,1,2.35,2.59c3.26,9,10.08,15.15,17,21.22,4.93,4.31,10.08,8.48,12.5,14.94a5.19,5.19,0,0,0,1.5,1.79c5.14,4.57,5.16,4.57,1.28,10.6-1,1.55-2.2,3-3.11,4.55-1,1.8-4,2.82-3.6,4.71.36,1.72,2.7,3,4.14,4.53,12.38,12.91,25.1,25.45,39.89,35.65,6.09,4.2,8,4.2,13.43-.76a178.84,178.84,0,0,0,19.82-21.35c3.63-4.61,7.69-8.66,4.83-15.65-1.07-2.61-1.66-3.19-4-2.77a61.68,61.68,0,0,1-30.25-2.44,19.87,19.87,0,0,1-9.3-6.34c-1.19-1.43-1.71-3-.66-4.7.94-1.48,2.4-1.21,3.89-1,4.14.7,8.22,1.56,12.28,2.66a53.94,53.94,0,0,0,32.86-1.34c12.44-4.4,21.61-12.8,28-24.17s7.49-23.88,7.13-36.61c0-1.32-.72-1.86-2.08-1.55-8.6,1.9-16-.31-22.16-6.86-2.18,7.89-5.33,11.4-10.6,12.08-6,.77-11.1-1.35-15.78-4.76-1.77-1.29-3-3-1.4-5.37s3.69-2.51,6.06-.83a33,33,0,0,0,6.07,3.6c2.62,1.09,5.44,1.38,7.52-1.24,2.27-2.86,1.49-5.68-.57-8.22a37.61,37.61,0,0,0-4-3.8c-.76-.71-1.84-1.31-1.15-2.56a2.67,2.67,0,0,1,3.26-1.55C287.15,132.34,288.13,132.66,289.82,133.17ZM239.33,96.56l-.05.57c4.15.51,8.33.82,12.44,1.55,8.2,1.47,16.73,2.4,22,10.23a1.5,1.5,0,0,0,.95.64,52.54,52.54,0,0,0,11,.14c2.28-.3,2.15-2.75,3.29-4.09a19.89,19.89,0,0,1,6.17-4.81c3.29-1.68,6.85-2.59,10.32-3.78,1.36-.47,3.81,0,3.88-1.65s-2-2.64-3.55-3.31a34.66,34.66,0,0,0-4.83-1.5c-2.74-.71-5.47,0-8.2.17-.91,0-1.95,0-2.39-1a2.11,2.11,0,0,1,.78-2.46A17,17,0,0,1,294,85.24c6.24-3.41,16.15-2,22.07,3,.7.6,1.11,1.87,2.47,1.45,0-3.71.16-7.39,0-11-.28-5.26-.19-10.5-5.48-14.18-2.21-1.55-3.55-2.28-6.12-1.34-6.8,2.5-13.91,4.31-21.15,3.65a38.52,38.52,0,0,0-20.85,4c-.83.4-1.71.67-2.57,1-9.27,3.45-18.93,5.18-28.67,6.56a6.42,6.42,0,0,1-6.61-2.57c-1.55-2.19-.06-4,.85-5.8.37-.75,1.24-1.33.85-2.6a179.38,179.38,0,0,1-33.08,8.43A4.36,4.36,0,0,0,192,78.54a133.31,133.31,0,0,0-6.23,23.51c-.23,1.48.11,2.08,1.74,2.25,3.61.4,6.8.71,10.36-1.56,6.08-3.88,13.38-4.32,20.45-4.83,4.11-.3,7.31-1.07,10.13-5,4.45-6.22,11.21-9.34,19.11-9.18,3.7.07,6.47,2.24,6.73,5.37.28,3.49-2.13,4.83-5,5.48C246,95.32,242.65,95.91,239.33,96.56Zm-9.61,13.09c-2,.64-3.42,1-4.76,1.51-6,2.27-12.15,12.4-10.53,17.91,3.09,10.51,9.29,18.35,20,22,13.75,4.68,27-5.08,29.47-17-1.18.1-1.67,1.13-2.44,1.74-7.47,5.93-20.5,7.24-28.57,2.33S219.8,121.55,229.72,109.65Zm14.89,24.57c5.33.13,10.23-1.13,14-5,5.53-5.64,6.56-17.41-5.06-19.78a38.74,38.74,0,0,0-10.55-.67,13.59,13.59,0,0,0-12.93,12C229.2,127.78,235.08,135.05,244.61,134.22Zm59.3-1.45a12.47,12.47,0,0,0,12-9.46c1.23-4.65-1.41-11.21-5.65-13.66-2.68-1.55-5.28-2-7.69.81-2.86,3.33-3.51,8.24-7.67,10.65-.22.12-.23.73-.22,1.11C294.91,129.38,296,132.63,303.91,132.77Zm17-2.87c-5.27,7.75-12,10-20,9.7,3.49,6.81,13.45,7.38,18.45,5.35,1.29-.52,1.57-1.57,1.56-2.86C320.92,138.44,321,134.79,321,129.9Zm7.75,6.53c2.94-4.43,3.59-8.9,4.54-13.32,1.27-5.88.63-11.3-2.66-16.4-.79-1.22-1.62-2.95-3-2.63-1.57.36-.68,2.25-.62,3.41C327.46,116.88,328.07,126.26,328.7,136.43Z"/><path d="M251.67,287.9c1.49,12.33,2.7,24.54,3.36,36.8,2.39,44.24,2.09,88.53,2.27,132.81,0,3.34.57,4.63,4.28,4.3,11-1,22-1.55,33-2.29.4,0,.79-.1,1.18-.12,2.75-.13,6,0,6.13,3.33s-3.07,3.71-5.79,3.8c-11.68.39-23.37.82-35.06,1.07-2.83,0-3.71.89-3.77,3.85-.61,34.82-2.47,69.59-4.54,104.34-.08,1.24.32,3.18-1.36,3.23-2,.05-1.61-2.13-1.68-3.4-.92-16.13-1.85-32.26-2.58-48.4-.84-18.64-1.83-37.28-1.69-56,0-2.86-1.06-3.5-3.69-3.49-18.26.09-36.52.05-54.78.05-1.75,0-3.31-.31-2.81,2.59,2.73,15.75-2,29.84-10.23,43a118.23,118.23,0,0,1-15.71,19.68,23.31,23.31,0,0,0-6.28,12q-2.44,12.15-4.92,24.3a17.7,17.7,0,0,1-2.47,6.59c-1.49,2.19-3.49,3.19-6.08,2.54a5.42,5.42,0,0,1-4.22-5.1,17.29,17.29,0,0,1,.39-5.46c2-8.82,4.23-17.6,6.25-26.42a29.68,29.68,0,0,1,10-16.49,94.56,94.56,0,0,0,22.24-26.86,69,69,0,0,0,8.35-27.28c.2-2.4.73-3.48,3.64-3.77,18.3-1.81,36.68-2.45,55-3.93,5.1-.41,5.06-.27,5.07-5.43,0-43,.13-85.94,2-128.88.55-12.85,2.11-25.65,3.23-38.47C250.48,289.6,250.42,288.58,251.67,287.9Z"/><path d="M358.47,313.81c1.34,1.49.95,3,1,4.39.4,19.18.95,38.37,1.05,57.55a500,500,0,0,0,14.67,117.37c4.55,18.48,8.4,37.13,9.7,56.2.14,2.09.31,4.2.28,6.29-.07,4.58-2.25,7.6-5.56,7.89s-5.87-2.39-6.39-7.09c-.76-6.78-1.21-13.61-2-20.38-2.58-21.54-7.28-42.68-11.78-63.86A295.17,295.17,0,0,1,354,384.81c1.94-22.38,2.85-44.84,4.22-67.27C358.25,316.39,358.36,315.24,358.47,313.81Z"/><path d="M111.5,461.37c-1.28,20.34-2.74,44.06-4.26,67.77Q106,548.58,104.6,568c-.39,5.37-3.54,9.32-6.93,9S92,572.42,92.31,567c2.23-40.11,6-80.11,7.37-120.26.53-15.89.16-31.77-2.26-47.54-.14-.92-.81-2.27.51-2.77s1.72.92,2.21,1.75c6.16,10.33,9.24,21.64,10.66,33.48C111.86,440.4,111.67,449.2,111.5,461.37Z"/><path d="M305.5,465.26c1.67.68,2.13,2,2.82,3.05,6.31,9.78,13.41,19.17,22.73,26,13,9.48,18.08,22.2,19.4,37.39.66,7.58,1.94,15.11,2.91,22.66.32,2.49.5,5-.58,7.37-.87,1.9-2.14,3.28-4.39,3.46a4.92,4.92,0,0,1-4.83-2.78,17.49,17.49,0,0,1-2-7.95,324.3,324.3,0,0,0-3.84-34,21.3,21.3,0,0,0-6.88-12.93,87.68,87.68,0,0,1-24-35.13C305.61,469,305.47,468.8,305.5,465.26Z"/><path d="M276.54,193.9c-9,0-15.91-.68-22.66-2.47a15.65,15.65,0,0,1-6.52-3.52c-5.38-4.82-4.78-11.93,1.53-15.41a39.19,39.19,0,0,1,18.35-5.23c3.14-.05,6.27-.45,9.38-.6,10.28-.49,19.61,1.54,24.61,12.11.35.75,1.36,1.16,2,1.78.91.87.87,1.71,0,2.73C295.75,192.47,285.59,194.44,276.54,193.9ZM280.3,180c2.46.44,3.48-.53,3.66-3.59.32-5.57-4.17-3.41-6.54-4.41-1.73-.72-2.46.64-2.44,2.45C275,178.85,276,180,280.3,180ZM272.74,175c-.33-1.06,1.25-4-2.37-3.37-2,.32-5.07-.54-4.7,3,.22,2.21-.57,5.36,3.74,5.35C273.09,180,273,178,272.74,175Zm-22.23,4.33c3.16,0,5.24-.09,7.32,0,3.34.17,5-1.61,4.43-4.86-.15-.88-.67-1.24-1.3-1C257.69,175.06,254,175.77,250.51,179.36Zm40.22.62c1.16-.28,3.12.58,3.5-.68.44-1.47-1.41-2.21-2.63-2.94a12.94,12.94,0,0,0-1.58-1.15c-1.23-.51-2.78-2.11-3.75-.51-.83,1.39-.07,3.42,1,4.75C288.05,180.42,289.5,179.84,290.73,180Zm-40.51,1.5a12.84,12.84,0,0,0,8.48,4.1c.81.07,1.87.91,2.24-.55s-.39-2.22-1.81-2.4Zm19.45,5.59c1.19-.21,3.22.57,3.08-1.69-.17-2.83-2.72-1.56-4.24-2-1.35-.41-2.21-.12-2.19,1.59C266.36,187.44,268.13,187,269.67,187.07Zm10.13-3.47c-.69.66-2.67-.91-2.76,1.27-.07,1.76,1.21,2.4,2.9,2.18,1.3-.17,3.16.41,3.07-1.85C282.93,183.21,281.23,183.83,279.8,183.6Zm12.83,1.08c-2.51-.51-4.06-.84-5.51-.1-.45.24-.25,1.08.24,1.32C289,186.7,290.28,185.57,292.63,184.68Z"/><path d="M160.3,133.24a27.77,27.77,0,0,1,14.24,8.46c1.94,2.06,1.62,4.71-.42,6.72-2.2,2.18-4.7,1.53-6.67-.32s-3.13-3.08-6.18-1.77c-2.88,1.23-5.48-1.93-5.19-5.48.1-1.22.85-2.24.19-3.73C155,134.18,156.11,132.94,160.3,133.24Z"/><path d="M254.51,121.53c.05,2.84-1.21,4.3-3.45,4.33-2.78,0-3.82-2.16-3.8-4.47,0-1.94.11-4.56,3.07-4.51C253.52,116.94,254,119.56,254.51,121.53Z"/><path d="M309.71,121.72c0,2.72-.78,4.3-3.1,4.27-2.81,0-3.74-1.93-3.84-4.45-.08-2.15.54-4.42,2.75-4.49C308.67,117,308.6,120.3,309.71,121.72Z"/></g></g></g></svg>