<svg xmlns="http://www.w3.org/2000/svg" viewBox="0 0 401.39 501.93"><title>valentinocimadomo</title><g id="Livello_2" data-name="Livello 2"><g id="Livello_1-2" data-name="Livello 1"><g id="OVm7AF.tif"><path d="M255.15,208.63a68.78,68.78,0,0,1,30.09,8.87c8.89,5.11,17.88,10,27.13,15.22,0-4.84-.15-9.34,0-13.83.42-10.22,6.76-17.45,15.16-17.51.79,0,1.78-.22,2.34.16,6.69,4.57,11.32-.76,16.5-3.35,2.2-1.1,1.53-3.28,1.53-5.09,0-10.49-1.25-20.88-2.53-31.27-.46-3.77-.54-7.53,4-9,4.28-1.4,6.9,1.22,9,4.41,5.27,8.11,6.47,17.41,7.6,26.7.61,5,1.17,10.08,1.63,15.13a9.2,9.2,0,0,0,4.31,7c15,10.74,18.66,24.08,11.35,41.12-6.4,14.91-6.36,30.54-5.09,46.31.18,2.28,1.57,2.45,3.34,2.08,1.94-.4,3.85-.32,3.44,2.3-1.42,9.08,2,17.53,3.38,26.2,4,24.85,9.73,49.43,12.3,74.51,1.69,16.55.77,33-4.43,48.91-6.75,20.62-28.66,30.93-50.39,24.09a66.16,66.16,0,0,1-14.86-7.36A74.56,74.56,0,0,1,317.19,453c1.93,9.7,3.61,18.28,5.35,26.85,1,5,2.12,9.9,3.13,14.86,1.06,5.24.4,6.26-5,6.48-22.82.92-45.66.91-68.49.11-21.86-.78-43.73-1.61-65.58-2.77-17.37-.92-34.7-2.5-52.07-3.52-14-.83-27.84,1.31-41.74,2.35-26.78,2-53.56,4.46-80.31-.43-3.7-.68-6-2.24-6.58-6.24-4.11-29.89-7-59.88-5.52-90.08C2.75,351,15.19,304.38,43,262.48,60,237,83.29,220.86,112.6,212.82A155.79,155.79,0,0,0,139.82,203a28,28,0,0,1,8.68-2.35c7.08-1,13.34-7,14.35-13.88.41-2.84.2-5.24-3.26-6.39s-5.45-4.24-7.6-7a111.52,111.52,0,0,1-14.76-24.34c-1.26-2.86-2.48-4.24-6.32-3.93-7.08.58-12.16-4.08-16.31-9.2a20.76,20.76,0,0,1-4.2-18.79,24.2,24.2,0,0,0,1-7.93c-.32-4,3.07-5.1,5.82-6.64,1.18-.67,3.17-.6,2.13-3.18-6.1-15.17-3.65-30.36,1.09-45.14,11-34.31,46.41-57,82.28-54,29.11,2.48,50.22,16.62,64.36,41.9,5.07,9.07,5.92,19.29,8.41,29.07a45.69,45.69,0,0,1,1.6,7.42c.57,6.57,1.93,11.77,10.36,12,4,.13,6.22,3.94,6.94,8.06.61,3.57-1.44,5.38-4.07,7.29-6.19,4.51-6.48,11.26-6,18.06.64,8.53,1.91,17,1.64,25.62-.3,9.62-2.8,18.44-9.06,25.95a20.17,20.17,0,0,0-3.44,6.73C270,192.87,264.45,201.86,255.15,208.63Zm1-106.55-.15.22c-6.22,5.51-7.92,13-4.31,19,4.4,7.34,13.87,11.25,20.65,8.48,2.43-1,4.67-2.42,4.39-5.46-.77-8.14-1.84-16.25-2.53-24.39C274,97,272.58,96.26,270,96.14A16.36,16.36,0,0,0,256.18,102.08ZM125.39,85.28a56.89,56.89,0,0,0,.79,11.37c.36,2.35,1.1,2.67,3.43,2.23a164.26,164.26,0,0,1,33-3.26,16.2,16.2,0,0,0,6-1.36c14.69-5.4,29.69-7,45-3.47a38.85,38.85,0,0,0,16.45.45c3.4-.68,5.44.72,6.56,3.89.36,1-.5,3,1.57,2.81s1.64-2,1.71-3.38c.21-3.87,2.94-5.57,6.08-5.13,3.73.52,6.85-.69,10.05-1.85,4.86-1.77,9.65-2.93,14.67-.7,1,.43,2.36,1.15,2.38-.8,0-4.74,1.32-10.16-.51-14.09-4-8.56-7.77-17.27-12.71-25.42-23.65-39-68.92-46.65-102.4-25C134.55,36.42,125.76,58.87,125.39,85.28Zm20.26,69.41a119.73,119.73,0,0,1,1.81-25.09c.23-1.27.36-2.84,1.8-2.94,1.18-.09,1.42,1.43,1.85,2.45,1.06,2.47,2.1,5,3.34,7.34,7.23,13.89,20,21.7,32.6,29.71,2.08,1.33,3.16.49,3.89-1.54a26.51,26.51,0,0,1,4.4-7.82c8.55-10.49,19.86-16.23,32.95-18,16.61-2.29,31.41,2.19,40.88,17.74,1.64,2.69,2.83,5.67,4.35,8.77,5.43-9.85,4.42-20.08,4.32-30.18,0-2.76-1.59-2.65-3.51-1.7-7,3.45-13.61,2.16-19.64-2.24-2.31-1.68-2.95-.9-4.23,1.06-4.94,7.48-16.46,7.66-22,.53-1.17-1.51-1.23-2.79,0-4.23s2.56-1.79,4.18-.74a45.64,45.64,0,0,0,4.79,3.06c2.79,1.34,5.87,2.39,8.12-.75,2.1-2.93.92-5.73-1.25-8.19-2-2.24-6.32-4.38-.21-6.89a1.37,1.37,0,0,0,.38-1.27c-1.28-2.44.72-6.82-4.46-7-6.47-.21-8.85,1.16-8.95,5.81-.36,16.84-18.76,30.44-35.17,26-11.8-3.2-17.19-11.74-18.75-23.12-.56-4.08-2.16-6.26-6.3-7-2.92-.5-6-1.16-8.4-3-3.47-2.74-7.5-3.17-11.61-3.36-7.6-.36-14.46,3-21.44,5.11a14.82,14.82,0,0,0-10.65,13.37c-.59,7,3.17,12.39,10.23,15.41,2.54,1.09,6.55,1,7.09,4.07C137.14,146,141.89,149.11,145.65,154.69Zm185.7,66.49c-1.25-.35-2.44-.78-3.68-1-1.49-.29-3-.69-2.73-2.53.27-1.68,1.89-1.92,3.36-2s2.85-.11,4.28-.1c2.14,0,3.75-.79,4.23-3s-.94-3.12-2.57-4c-6.44-3.62-13.09-.52-15.49,7-1.56,4.91-.93,9.76-.12,14.56,1.92,11.4,4.67,22.43,12.05,31.91,6.75,8.66,12.33,18,12.76,29.55.09,2.5,1.17,4.46,4.07,5.06,7.86,1.65,15.76.81,23.63.48,2.56-.11,3.06-2.11,2.75-4.53-2.2-17.12-.35-33.72,6.59-49.64a28,28,0,0,0,2.12-14.39c-.3-2.84-1.36-4.51-4.66-4.79s-6.76-1.5-10.15-2.25c-4-.88-8-1.67-12.1-.4-4.72,1.49-7.26,4.95-8.22,9.59a10.35,10.35,0,0,0,3,10,6.07,6.07,0,0,0,6.61,1.37c2.73-1,1-3.16.83-4.88a24.75,24.75,0,0,1-.16-2.85c.09-2.82,2.37-3.07,4.35-3.41,1.3-.22,3.05-.69,3.77,1,1,2.32-1.39,2.79-2.49,3.95-.15.16,0,.58,0,1.28,2.61.18,5.24.29,7.86.55,1.14.12,2.23.72,2.23,2a2.25,2.25,0,0,1-2.16,2.15,9.3,9.3,0,0,1-3.75,0c-2.68-.69-4.39.08-5.89,2.44a6.82,6.82,0,0,1-8.3,3.06c-5-1.89-5.75.86-6.15,4.57a26,26,0,0,1-.37,3.77,3.43,3.43,0,0,1-3.42,2.78c-1.62,0-2.52-1.16-3.07-2.57-1.44-3.71-.14-6.83,2.31-9.57,3.26-3.64,3.22-5.07-1.12-7.46a16.8,16.8,0,0,1-8.21-10c-.31-1,0-2.35-1.73-2.31-1.49,0-2.84-.11-3.19-2C328,222.19,330.4,222.33,331.35,221.18Zm-124.82,5.87c13.46-.12,24.05-3.83,33.64-10.47,1.29-.89,3.75-1.4,3.1-3.63s-2.93-1.36-4.55-1.43c-24.14-1.06-46.65-7.45-67.09-20.52-2.25-1.44-3.26-1.37-4.12,1.06a20.25,20.25,0,0,1-7.48,9.6c-2.41,1.75-2.76,3.14-.36,5.1C173.85,218.34,189.62,226.07,206.53,227.05Zm58-57.58a22.25,22.25,0,0,0-9.22-14.82c-1.31-.89-2.48-1.54-3.35.54-2.76,6.61-8.29,8.08-14.72,7.8-6-.27-9.55-3.78-11.59-9-.78-2-1.82-2.08-3.63-1.68-9.2,2-16.22,6.94-20.62,15.28-2.46,4.68-1.31,7.56,3.4,10.08a37.63,37.63,0,0,0,13.44,4.4c4.26.49,8.74,1.29,12-3.33,6.64-9.34,10.56-9.62,19.11-2a18.89,18.89,0,0,0,1.82,1.53c2.89,2.05,5.8,1.2,8.49-.3S264.85,174.61,264.57,169.47ZM201.5,99c-3.77-.18-9,1.46-13.93,4.17-3.33,1.84-5.64,4.63-6,8.61-.72,8.23,6.95,19.45,14.83,21.79,12.33,3.66,27.93-6.77,29-19.65.31-3.63,1.55-8.92-2.86-10.1C216.26,102.18,210.22,99,201.5,99ZM380.25,221.55c-7.24-10.71-16.33-16-27.3-18.67-3.06-.74-6-1-8.62.78-1.26.85-4,.93-3.19,3.3.9,2.57,3.16,1.34,4.87.77a18,18,0,0,1,12.08.46c1.69.6,3.25,1.67,2.55,3.86-.64,2-2.27,1.88-3.92,1.44-.76-.2-1.54-.34-2.3-.52a13.5,13.5,0,0,0-13.92,5.87,13.18,13.18,0,0,0,1.6,15.6c.78-.57.45-1.42.48-2.15.49-10.58,6.73-16.65,17.2-16.7C366.67,215.56,373.07,217.49,380.25,221.55ZM352,159.82a30.25,30.25,0,0,0,0,4c1.63,9.34,2.66,18.65.89,28.12-1,5.44.6,7.15,6.36,8.19,2.51.45,3.6-.12,3-3-.71-3.21-1-6.51-1.62-9.74C358.9,178.22,357.46,168.91,352,159.82Zm-121-7.83c4.25,5,9.08,4.9,12.53-.62C239.24,152.24,235.1,148.87,231.06,152Z"/><path d="M256.18,102.08c2.65-1.54,4.81-.8,6.69,1.41,3.37,4,3.34,11.6-.09,15.45-3,3.34-6.39,2.85-8.17-1.23-2.35-5.39-1.53-10.5,1.42-15.41Z"/><path d="M130.31,117.33c5.56.42,10.21,2.61,13.23,7.67,1.23,2.07,1.24,4.09-1,5.29-2.07,1.11-3.93.87-5.69-1.34a82.41,82.41,0,0,0-7.89-8c-1-.91-3.36-.9-2.93-2.53C126.53,116.53,128.76,117.79,130.31,117.33Z"/><path d="M213.88,111.9c0,5.72-2,9.12-5.4,9.15s-6.36-4.23-6.65-9.13c-.33-5.43,2.84-10.63,6.49-10.61C211.76,101.32,213.91,105.4,213.88,111.9Z"/></g></g></g></svg>