<svg xmlns="http://www.w3.org/2000/svg" viewBox="0 0 610.66 581.58">
  <title>Risorsa 61</title>
  <g id="Livello_2" data-name="Livello 2">
    <g id="Livello_1-2" data-name="Livello 1">
      <g>
        <path d="M605.19,443.14c-6.31-11.38-14.2-21.91-21.69-32.61a12.84,12.84,0,0,1-2.51-6.67c-.36-3.72-1.19-7.77-3.11-10.89-5.35-8.76-11.4-17.1-17.12-25.63q-23.09-34.43-46.15-68.86a38.3,38.3,0,0,0-14.91-13c-5.83-2.94-11.7-5.83-17.4-9a8.08,8.08,0,0,1-3.21-4.06c-2.28-6.11-4.52-12.26-6.28-18.53-1.32-4.69-2.66-9.59-2.62-14.39a113.85,113.85,0,0,1,2.23-20.64c4.57-23.14,10.38-46.08,11.93-69.73,1.93-29.43-.65-58.21-13.77-85.16-11.58-23.8-28.66-42.3-53.26-53.16-11.63-5.13-24.08-6.45-36.51-8.29-23.38-3.47-46.52-4-69.34,3.14-24.72,7.74-44.24,22.1-56.63,45.26-7,13.06-9.42,27.43-11.49,41.83-2.65,18.49-8.08,35.9-19,51.26-4.08,5.76-8.92,11-13.08,16.68-6.15,8.43-9.73,17.78-8.76,28.43.76,8.29,3.92,15.77,8.29,22.73,4.61,7.34,9.92,14.28,14.09,21.86,3.23,5.88,5.29,12.42,7.65,18.75,1,2.67.13,4.34-3.13,4.94-5.36,1-10.58,2.77-15.94,3.83a86,86,0,0,0-41.92,21C151.82,300,131.2,316.78,110.93,334Q85.87,355.22,60.76,376.4c-4.72,4-4.82,4.77-1.95,9.08-2.94,2.28-6.17,4.28-8.77,6.9-14.11,14.2-28.2,28.43-42,42.9C-1.71,445.44-2.44,452,5,463.93c20.79,33.19,44.23,64.25,74.71,89.33,6.89,5.68,14.32,10.7,21.5,16,1.77,1.32,3.6,2.08,5.19-.12s.41-4-1.58-5.3c-1-.67-2-1.32-3-2.06-8.45-6.74-17.3-13-25.25-20.33-26.15-24-47.58-51.9-66.47-81.84-4.72-7.49-4.72-11.38,1.2-18q19.56-22,39.69-43.5c3.51-3.77,7.75-6.86,12-10.55a202.87,202.87,0,0,1,43,49.78c-1.65,1.09-3,1.93-4.28,2.83-6.91,4.79-14,9.41-20.61,14.52-1.51,1.16-2.05,4-2.27,6.14-.06.51,2.93,1.35,4.51,2l.52-.59c3.14,4.62,6.11,9.36,9.44,13.84q9.92,13.35,20.15,26.44c18.32,23.33,38.95,44.32,63,61.83,4.14,3,6,3.13,7.84.49s1-5.08-2.86-7.87c-2.81-2-5.67-4-8.41-6.13a278.79,278.79,0,0,1-38.85-36.94c-16-18.17-31.81-36.53-47.81-54.94l17.3-14.33c2.73,2.12,4.85,4.29,7.41,5.6a9.12,9.12,0,0,0,6.3.81,126,126,0,0,0,15.11-6.28c24.13-11.72,48.67-22.45,74.26-30.61,1.07-.34,2.19-.5,4.31-1,1.63,21,4.23,41.49,4.54,62,.36,23.73-1.12,47.49-2.19,71.22-.25,5.45,0,11.15-3.26,16.27-1.66,2.65.84,6.31,4.38,7.21a22.47,22.47,0,0,0,5.55.65c25.78,0,51.56,0,77.33-.27,46.75-.57,93.48-1,140.12,3.45,6.87.66,13.86.15,20.79,0,3.47-.09,6.62-1.09,6.84-5.34,7.56.24,14.88,2.22,22.1-1.31a42.11,42.11,0,0,0-10.41-2.9c-3.63-.6-7.29-1-11.81-1.59,4.58-4.53,9.41-7.14,14.77-6.69,5.14.44,10.14,2.57,14.94,3.89-.58-1.22-2.26-3.06-1.92-4.38,1-3.72-.92-6.07-2.76-8.71a9.47,9.47,0,0,1-1.69-3.85c-.56-4-.87-8-1.22-11.95-1.68-19.63-.88-39.24.94-58.8,1.17-12.57,3-25.08,4.4-36.93,6.86,5.9,13.76,11.65,20.43,17.65,1.93,1.74,3.29,4.14,4.81,6.3,2,2.82,4.48,4.09,7.91,3.11l10.73-3c-.28.55-.57,1.09-.85,1.63l6.62,5.8c-3.56,6.94-7.87,13.88-10.81,21.37-9.72,24.81-19,49.82-28.34,74.77a32.18,32.18,0,0,0-2.23,8.05c-.13,1.45,1.31,3,2,4.58,1.36-.77,3-1.3,4-2.39s1.33-2.59,1.85-4c8.36-22.06,16.89-44.05,25-66.22,4.24-11.59,7.68-23.48,11.54-35.44a13.46,13.46,0,0,0,1.72.53c4.06.73,8.1,1.67,12.19,2,2.39.21,5.67.24,5.78-3.31.11-3.29-3-3.22-5.29-3.59-1.31-.2-2.67,0-4-.11-5.16-.52-10.28-1.18-14.72-5.46,21.62-8.64,37.48-21.85,39.72-47.35,4.64,10.79,8.82,20.29,12.81,29.89,4.47,10.77,7.18,22.05,4.8,33.6A155.45,155.45,0,0,1,590,499.8c-9.61,24-23.46,45.78-36.2,68.14a57.22,57.22,0,0,0-3,6.94c-1,2.42-.51,4.56,1.81,5.88a4.77,4.77,0,0,0,6.5-1.08,82.15,82.15,0,0,0,7.11-9.15c6.15-10,12.29-20,18-30.28,9.65-17.4,18.56-35.17,23.53-54.58C611.44,471.25,612.64,456.57,605.19,443.14ZM369,110c12.31-2.94,22.3-10.14,31.27-19.13,2.08-2.09,5.19-3.16,7.88-4.74.11,5.69-3.55,11.4-12.37,19,13.74-2.73,21.31-13.19,31.33-20.52-3.26,6-6.51,11.92-10.32,18.91,10-6.11,16.1-14.17,22.3-22.57q-3.84,11.55-7.67,23.09l.63.89,11.59-10.34v10.71L443,114.9c0,9.64.46,18.85-.11,28-.92,14.91-2.06,29.83-3.92,44.65-4.38,34.91-36.19,48.7-62.5,41.92-5.77-1.49-11.29-4-16.91-6a21.5,21.5,0,0,1-2.13-1.1c-2.24-1.1-4.44-1.47-5.9,1.1s.18,4.18,2.29,5.45a62.8,62.8,0,0,0,31.52,9.21c6,.13,11.95-.59,17.2-.89,2,8.59,3.62,17.6,6.24,26.32,1.78,5.95,5.1,11.42,7.4,17.24a7.72,7.72,0,0,1,0,5.46c-3.39,7.42-9.26,12.33-17.33,13.3-21.51,2.6-42.9,2.38-63.67-5-1.22-.43-2.39-1-3.92-1.68,6.2-10.39,8.88-21.4,5.69-32.85-2.26-8.14-5.93-15.93-9.38-23.7-2.24-5-2-6.77,2.43-10.44.49-.4-.11-3.14-1-4-4.41-4.25-9.34-8-13.55-12.42a23.62,23.62,0,0,1-5.66-9.34,248.55,248.55,0,0,1-5.44-24.92c-1.19-7,1.84-12.8,6.84-17.55,3.58-3.4,7.38-6.56,11-9.9,6.06-5.55,12.06-11.15,18.12-16.69a38.76,38.76,0,0,1,7-6.31,30,30,0,0,1,5.82-2.93C356.74,120.41,362,117.3,369,110m-46.56,116.8-4.93-8.72C324.14,222.47,324.66,223.37,322.47,226.78ZM357.9,113.6c7.5-8.54,13.57-18.33,26.55-20.79-5.81,5.25-11.42,9.85-16.42,15C365.18,110.79,362.43,113.21,357.9,113.6ZM473.55,430c-7.82,2.4-15.14,4.61-22.43,6.91A22.38,22.38,0,0,1,430,433.4c-8.18-6-10.69-6-19.44-.58a4,4,0,0,1-1.39.76c-4,.51-8,.94-12,1.4l-1.59-10.3c9.41,2.26,17.17.73,24.35-3.85,2.62-1.67,4.92-1,7.45.41,4.26,2.4,8.5,5.21,13.13,6.5,6.21,1.74,12.33-.11,18.17-2.89a102.89,102.89,0,0,1,11.9-4.44c1.16-.38,2.55-.05,4.43-.05C474.41,424.15,473.92,427.51,473.55,430Zm1.83-12.8c-6.27-1.73-11.4.41-16.68,2.31-4.46,1.61-9.17,3.69-13.71,3.57-4.21-.11-8.85-2.14-12.41-4.61-6-4.17-11.47-4.94-17.64-.75-4.66,3.16-9.87,3.5-15.37,2.59-2.82-.46-4-1.46-3.72-4.33a57.33,57.33,0,0,0,0-5.75c3.17.69,5.87,1.23,8.55,1.87,5.33,1.26,10-.44,14.42-3.17,1.7-1.05,3.35-2.18,5.08-3.18,2.88-1.66,5.84-1.78,7.89,1.06,6.14,8.53,17.06,8.22,25.37,4.33a124.81,124.81,0,0,1,12.19-4.94c1.91-.65,4.09-.55,6.71-.85C475.84,409.62,475.62,413.26,475.38,417.21Zm-24-36.64c1.32-1.27,4.55-23.31-.48-40.51-6.56-22.48-16.67-26.77-27.52-52.15-13.35-31.24-14.86-39.39-11.66-45.44,4.28-8.08,11.62-6.26,20.57-12.89,12.61-9.35,16.92-27,18.27-90.21,1-45.95,5.12-56.59,2.05-62.84a9.86,9.86,0,0,0-2.05-2.77c-4.54-3.72-12.78-.2-14.18.4-12.46,5.32-23.63,22.75-26.18,21.69s8.67-18.52,5.8-19.95c-4.13-2.05-25.72,26.85-31.56,24.38-3.07-1.29,11.29-9.71,7.27-12.69-5.57-4.13-17.42.91-25.89,8.58-9.38,8.49-13.53,12.37-24.93,24.45-25,26.47-36.83,21.2-44.55,36.32-12.71,24.91,5.63,66.42,21.71,87.87,5.46,7.28,8.46,9.33,10.55,16,5.85,18.72-6,40.53-17.59,61.9-8.73,16.09-12.62,19.07-12.89,28.25-.5,17.2,12.5,28.72,9.38,31.86-2.59,2.6-14.72-2.14-22.27-12-12.34-16.14-5.84-37.29-12.31-39.07-3.93-1.08-9.26,5.9-11.72,10.22-8.59,15.09.14,29.21-5.27,33.05-6.31,4.48-27.53-8-35.75-27.64-5.73-13.69-3.07-26.81-1.36-35,5.51-26.39,18.59-28.07,22.55-45.58,7.57-33.52-34.94-51.33-28.63-85.78,3.57-19.46,17.93-17,31.71-45.29,16.55-34,2.19-48.59,15-75.63,21.8-46,86.9-53.52,92.25-54.06,12.09-1.24,47.35-4.31,80.18,19.14C459.36,44.79,469.73,72,473.62,82.6c18.71,51.12,1.12,103.77,0,107-5.78,16.6-10.76,23.9-11,40.55-.28,20.49,7.65,25.58,14,53.14,8.39,36.28,3.26,64.74,2.39,64.78-.45,0,.09-8-5.26-13.25-2.54-2.5-6.8-4.75-9-3.31-2.83,1.89-.44,9.24.08,14.29a79,79,0,0,1-1.66,25.1"/>
        <path d="M412.46,165.29c.93,0,1.87,0,2.8-.16,5.54-.76,10-6.2,10-12.23,0-5.87-4-11.09-9.34-11.82-1-.14-2.15.45-3.24.7a22.3,22.3,0,0,0,1.66,2.75c1.5,1.85,3.85,3.37,4.48,5.44a10.71,10.71,0,0,1-.57,7.4c-1.36,2.63-4.46,2.8-7.11,1.52s-4.94-3.18-7.62-4.23c-1.37-.53-3.25.22-4.89.39.22,1.65-.13,4.23.77,4.8,4,2.48,8.3,4.37,12.5,6.48C412.1,166,412.28,165.64,412.46,165.29Z"/>
        <path d="M416,193c3.36-1.35,6.33-4.14,8.81-6.87.77-.85-.09-4.17-1.23-5.41-.72-.78-3.4,0-5.11.45-.94.25-1.66,1.28-2.5,1.93-5.46,4.25-11.32,3.74-15.92-1.41-1.31-1.47-2.53-3-4.59-5.46a44.2,44.2,0,0,0,0,5.66C396.89,190.93,407,196.64,416,193Z"/>
        <path d="M372.79,126.11c-4.25,4.11-4.23,13.92,0,17.91,2.72,2.54,5.53,2.17,7-1.24.93-2.14,1.22-4.56,1.88-7.15-.79-2.83-1.3-5.88-2.5-8.62C377.85,123.92,375.26,123.73,372.79,126.11Z"/>
        <path d="M432.47,145.36c1.59.13,3.77-1.2,4.9-2.56,3.47-4.21,3.16-11.73-.27-16-2.59-3.25-5.87-3-7.41.84a53.87,53.87,0,0,0-1.93,7.57c.4,2.28.43,4.52,1.24,6.41C429.66,143.14,431.19,145.26,432.47,145.36Z"/>
        <path d="M371.71,115.73c-5.85.92-5.83,3.13.05,4,3.74.57,7.62.49,9.65-.28a10.85,10.85,0,0,0,2.59-1.6,17.5,17.5,0,0,0-3.45-1.94C378.68,115.24,375.1,115.2,371.71,115.73Z"/>
        <path d="M432,120.05a39.61,39.61,0,0,0,6.73-.57c4.78-1,4.35-2.63-.37-3.6-3.57-.73-8.07-.67-10.2.19a11,11,0,0,0-2.65,1.7c.55.51.59,1,1.7,1.44A16.9,16.9,0,0,0,432,120.05Z"/>
      </g>
    </g>
  </g>
</svg>
